<?xml version="1.0" encoding="UTF-8" standalone="no"?>
<svg
   xmlns:dc="http://purl.org/dc/elements/1.1/"
   xmlns:cc="http://creativecommons.org/ns#"
   xmlns:rdf="http://www.w3.org/1999/02/22-rdf-syntax-ns#"
   xmlns:svg="http://www.w3.org/2000/svg"
   xmlns="http://www.w3.org/2000/svg"
   xmlns:sodipodi="http://sodipodi.sourceforge.net/DTD/sodipodi-0.dtd"
   xmlns:inkscape="http://www.inkscape.org/namespaces/inkscape"
   width="100"
   height="100"
   viewBox="0 0 26.458333 26.458334"
   version="1.1"
   id="svg9818"
   inkscape:version="1.0.2 (e86c870879, 2021-01-15)"
   sodipodi:docname="boberos.svg">
  <defs
     id="defs9812" />
  <sodipodi:namedview
     id="base"
     pagecolor="#ffffff"
     bordercolor="#666666"
     borderopacity="1.0"
     inkscape:pageopacity="0.0"
     inkscape:pageshadow="2"
     inkscape:zoom="1.979899"
     inkscape:cx="41.658588"
     inkscape:cy="49.180581"
     inkscape:document-units="mm"
     inkscape:current-layer="layer1"
     showgrid="false"
     units="px"
     inkscape:window-width="1366"
     inkscape:window-height="703"
     inkscape:window-x="0"
     inkscape:window-y="0"
     inkscape:window-maximized="1"
     inkscape:document-rotation="0" />
  <metadata
     id="metadata9815">
    <rdf:RDF>
      <cc:Work
         rdf:about="">
        <dc:format>image/svg+xml</dc:format>
        <dc:type
           rdf:resource="http://purl.org/dc/dcmitype/StillImage" />
        <dc:title></dc:title>
      </cc:Work>
    </rdf:RDF>
  </metadata>
  <g
     inkscape:label="Capa 1"
     inkscape:groupmode="layer"
     id="layer1"
     transform="translate(0,-270.54165)">
    <g
       id="g169"
       transform="matrix(0.35277777,0,0,-0.35277777,-151.68876,378.62677)">
      <g
         id="g139">
        <path
           inkscape:connector-curvature="0"
           id="path530"
           style="fill:#1c75bc;fill-opacity:1;fill-rule:nonzero;stroke:none;stroke-width:0.16091"
           d="m 491.02332,279.70826 c 0,12.99995 -10.53802,23.54441 -23.54118,23.54441 v -10.8695 c 7.00603,0 12.67812,-5.6737 12.67812,-12.67491 0,-7.00281 -5.67209,-12.67812 -12.67812,-12.67812 v -10.86306 -21.6537 c 0,0 11.11407,17.75967 15.30096,23.74071 9.30705,13.28476 8.24022,21.45417 8.24022,21.45417" />
        <path
           inkscape:connector-curvature="0"
           id="path532"
           style="fill:#27aae1;fill-opacity:1;fill-rule:nonzero;stroke:none;stroke-width:0.16091"
           d="m 467.48214,292.38317 v 10.8695 c -12.99352,0 -23.53797,-10.54446 -23.53797,-23.54441 0,0 -1.06362,-8.16941 8.24183,-21.45417 4.18849,-5.98104 15.29614,-23.74071 15.29614,-23.74071 v 21.6537 10.86306 c -6.99639,0 -12.67491,5.67531 -12.67491,12.67812 0,7.00121 5.67852,12.67491 12.67491,12.67491" />
      </g>
      <circle
         transform="scale(1,-1)"
         r="19.153227"
         cy="-278.2258"
         cx="467.48389"
         id="path977-5"
         style="opacity:1;vector-effect:none;fill:#ffffff;fill-opacity:1;stroke:none;stroke-width:1.29139;stroke-linecap:butt;stroke-linejoin:miter;stroke-miterlimit:4;stroke-dasharray:none;stroke-dashoffset:0;stroke-opacity:1" />
    </g>
    <g
       id="g7540"
       transform="translate(1.0064445,0.1516173)">
      <path
         d="m 13.670534,278.3824 -5.4017826,5.40161 c -0.214552,0.21456 -0.214552,0.56255 0,0.77729 0.2147297,0.21454 0.5627336,0.21454 0.7772858,0 l 5.4017828,-5.40161 -0.777286,-0.77729"
         style="fill:#e53013;fill-opacity:1;fill-rule:nonzero;stroke:none;stroke-width:0.0177463"
         id="path170" />
      <path
         d="m 13.398307,280.20884 -0.776932,-0.77727 1.049159,-1.04917 0.777286,0.77729 -1.049513,1.04915"
         style="fill:#000000;fill-opacity:1;fill-rule:nonzero;stroke:none;stroke-width:0.0177463"
         id="path172" />
      <path
         d="m 18.446584,278.88232 -0.03071,-0.0309 -0.655724,-0.0913 c -0.742681,-0.10361 -1.431236,-0.4465 -1.961493,-0.97658 l -1.469035,-1.46922 -1.578353,-0.98545 0.878617,1.68519 -0.475421,0.47542 c -0.12387,0.12387 -0.12387,0.32476 0,0.44862 l 1.244722,1.2449 c 0.530081,0.53008 0.873116,1.21882 0.976576,1.96132 l 0.09157,0.65572 0.0307,0.0307 c 0.707543,-0.0948 1.404794,-0.42414 1.964689,-0.98404 0.559539,-0.55954 0.888909,-1.25697 0.983852,-1.96433"
         style="fill:#4f5266;fill-opacity:1;fill-rule:nonzero;stroke:none;stroke-width:0.0177463"
         id="path174" />
      <path
         d="m 13.154473,277.93804 1.244722,1.2449 c 0.53008,0.53008 0.873116,1.21863 0.976754,1.96131 l 0.0914,0.65573 0.0307,0.0307 c 0.707543,-0.0948 1.404793,-0.42413 1.964688,-0.98403 l -3.832836,-3.83265 -0.475423,0.47542 c -0.123868,0.12387 -0.123868,0.32476 0,0.44863"
         style="fill:#353747;fill-opacity:1;fill-rule:nonzero;stroke:none;stroke-width:0.0177463"
         id="path176" />
      <path
         d="m 15.375593,281.1423 -0.0092,-0.0402 c 0.0011,-3.5e-4 0.0021,-4.9e-4 0.0032,-0.001 0.002,0.0138 0.0041,0.0276 0.006,0.0413 m 2.384565,-2.38226 c -0.01455,-0.002 -0.02892,-0.004 -0.04331,-0.006 3.55e-4,-0.001 7.05e-4,-0.002 9.05e-4,-0.004 l 0.04241,0.009"
         style="fill:#e5e5e5;fill-opacity:1;fill-rule:nonzero;stroke:none;stroke-width:0.0177463"
         id="path178" />
      <path
         d="m 15.467341,281.79998 v 0 l -0.09139,-0.65573 -3.55e-4,-0.002 c -0.002,-0.0137 -0.0041,-0.0275 -0.006,-0.0413 0,0 0,0 0,0 0.0024,0.0144 0.0045,0.0289 0.0064,0.0433 l 0.0914,0.65573 m 1.99539,-0.95334 -0.62183,-0.62166 c 0.428572,-0.42857 0.719434,-0.93841 0.875956,-1.47115 0.01437,0.002 0.02875,0.004 0.04331,0.006 v 0 l 0.655723,0.0913 0.0307,0.0309 c -0.09495,0.70737 -0.424313,1.40479 -0.983853,1.96433 v 0"
         style="fill:#474a5c;fill-opacity:1;fill-rule:nonzero;stroke:none;stroke-width:0.0177463"
         id="path180" />
      <path
         d="m 15.498043,281.83068 -0.0307,-0.0307 -0.0914,-0.65572 c -0.002,-0.0144 -0.0041,-0.0289 -0.0064,-0.0433 0.53292,-0.15652 1.042593,-0.44738 1.471342,-0.87595 v 0 l 0.621829,0.62165 c -0.559894,0.5599 -1.257144,0.88927 -1.964688,0.98404"
         style="fill:#303140;fill-opacity:1;fill-rule:nonzero;stroke:none;stroke-width:0.0177463"
         id="path182" />
      <path
         d="m 10.520218,278.3824 5.401606,5.40161 c 0.214552,0.21456 0.214552,0.56255 0,0.77729 -0.21473,0.21454 -0.562734,0.21454 -0.777287,0 l -5.4016043,-5.40161 0.7772853,-0.77729"
         style="fill:#e53013;fill-opacity:1;fill-rule:nonzero;stroke:none;stroke-width:0.0177463"
         id="path184" />
      <path
         d="m 10.792269,280.20884 0.777109,-0.77727 -1.04916,-1.04917 -0.7772853,0.77729 1.0493363,1.04915"
         style="fill:#000000;fill-opacity:1;fill-rule:nonzero;stroke:none;stroke-width:0.0177463"
         id="path186" />
      <path
         d="m 8.1464797,277.99056 c 0.037798,-0.0378 0.079681,-0.0687 0.1213844,-0.0992 l -1.1545714,-2.1386 2.1620256,1.16717 1.2448997,1.46246 -0.7717839,0.77162 -0.00555,0.006 -0.3614908,-0.3079 -0.02556,-0.0209 c -0.2493338,-0.24951 -0.6537714,-0.24951 -0.9034611,0 -0.2495125,0.24969 -0.2495125,0.65413 0,0.90346 L 8.1464304,279.4286 c -0.3971612,-0.39698 -0.3971612,-1.04082 0,-1.4378"
         style="fill:#4f5266;fill-opacity:1;fill-rule:nonzero;stroke:none;stroke-width:0.0177463"
         id="path188" />
      <path
         d="m 9.3558865,278.83085 c -0.2493349,-0.24951 -0.6537717,-0.24951 -0.9034614,0 -0.2495125,0.2497 -0.2495125,0.65412 0,0.90346 l -0.3059454,-0.30594 c -0.3971613,-0.39698 -0.3971613,-1.04082 0,-1.43781 0.037798,-0.0378 0.079681,-0.0687 0.1213844,-0.0992 l -1.1545714,-2.1386 0.047737,0.0257 2.9815493,2.98155 -0.3941447,0.39397 -0.00555,0.006 -0.3614908,-0.30789 -0.02556,-0.0209"
         style="fill:#353747;fill-opacity:1;fill-rule:nonzero;stroke:none;stroke-width:0.0177463"
         id="path190" />
    </g>
  </g>
</svg>
