<?xml version="1.0" encoding="UTF-8" standalone="no"?>
<svg
   xmlns:dc="http://purl.org/dc/elements/1.1/"
   xmlns:cc="http://creativecommons.org/ns#"
   xmlns:rdf="http://www.w3.org/1999/02/22-rdf-syntax-ns#"
   xmlns:svg="http://www.w3.org/2000/svg"
   xmlns="http://www.w3.org/2000/svg"
   xmlns:sodipodi="http://sodipodi.sourceforge.net/DTD/sodipodi-0.dtd"
   xmlns:inkscape="http://www.inkscape.org/namespaces/inkscape"
   width="100"
   height="100"
   viewBox="0 0 26.458333 26.458334"
   version="1.1"
   id="svg9818"
   inkscape:version="1.0.2 (e86c870879, 2021-01-15)"
   sodipodi:docname="club de barrio.svg">
  <defs
     id="defs9812">
    <clipPath
       clipPathUnits="userSpaceOnUse"
       id="clipPath1290">
      <path
         d="m 3584.79,2009.38 c -1.96,1.17 -3.62,2.19 -5,3.05 h 2.02 c 1.67,-1.18 2.94,-2.33 2.98,-3.05"
         id="path1288" />
    </clipPath>
    <clipPath
       clipPathUnits="userSpaceOnUse"
       id="clipPath1306">
      <path
         d="m 3584.79,2009.38 c -1.96,1.17 -3.62,2.19 -5,3.05 h 2.02 c 1.67,-1.18 2.94,-2.33 2.98,-3.05"
         id="path1304" />
    </clipPath>
    <clipPath
       clipPathUnits="userSpaceOnUse"
       id="clipPath1312">
      <path
         d="m 3429.89,2012.09 c -0.25,0 -0.43,-0.08 -0.62,-0.22 -0.17,-0.19 -0.25,-0.38 -0.25,-0.63 v -5.11 c 0,-0.25 0.08,-0.43 0.25,-0.62 0.19,-0.17 0.37,-0.25 0.62,-0.25 h 2.32 c 0.26,0 0.43,0.08 0.62,0.25 0.19,0.19 0.25,0.37 0.25,0.62 v 1 c 0,0.25 0.08,0.47 0.27,0.66 0.19,0.14 0.36,0.22 0.62,0.22 h 8.44 c 0.25,0 0.44,-0.08 0.63,-0.22 0.17,-0.19 0.25,-0.41 0.25,-0.66 v -13.39 c 0,-0.26 -0.08,-0.44 -0.25,-0.62 -0.19,-0.19 -0.38,-0.25 -0.63,-0.25 h -3.48 c -0.27,0 -0.46,-0.08 -0.63,-0.27 -0.19,-0.19 -0.26,-0.36 -0.26,-0.62 v -2.32 c 0,-0.25 0.07,-0.43 0.26,-0.62 0.17,-0.17 0.36,-0.25 0.63,-0.25 h 12.82 c 0.27,0 0.44,0.08 0.63,0.25 0.16,0.19 0.22,0.37 0.22,0.62 v 2.32 c 0,0.26 -0.06,0.43 -0.22,0.62 -0.19,0.19 -0.36,0.27 -0.63,0.27 h -3.51 c -0.27,0 -0.44,0.06 -0.63,0.25 -0.18,0.18 -0.25,0.36 -0.25,0.62 v 13.39 c 0,0.25 0.07,0.47 0.25,0.66 0.19,0.14 0.36,0.22 0.63,0.22 h 8.47 c 0.26,0 0.43,-0.08 0.62,-0.22 0.14,-0.19 0.22,-0.41 0.22,-0.66 v -0.84 c 0,-0.27 0.08,-0.44 0.27,-0.63 0.17,-0.18 0.36,-0.26 0.61,-0.26 h 2.36 c 0.25,0 0.43,0.08 0.62,0.26 0.17,0.19 0.25,0.36 0.25,0.63 v 4.95 c 0,0.25 -0.08,0.44 -0.25,0.63 -0.19,0.14 -0.37,0.22 -0.62,0.22 z m 64.56,0 c -0.25,0 -0.44,-0.08 -0.63,-0.22 -0.17,-0.19 -0.25,-0.38 -0.25,-0.63 v -2.36 c 0,-0.25 0.08,-0.43 0.25,-0.62 0.19,-0.17 0.38,-0.25 0.63,-0.25 h 3.48 c 0.27,0 0.49,-0.08 0.66,-0.22 0.16,-0.19 0.23,-0.41 0.23,-0.66 v -4.08 c 0,-0.25 -0.07,-0.43 -0.23,-0.62 -0.17,-0.17 -0.39,-0.25 -0.66,-0.25 h -18.34 c -0.25,0 -0.44,0.08 -0.61,0.25 -0.19,0.19 -0.27,0.37 -0.27,0.62 v 4.08 c 0,0.25 0.08,0.47 0.27,0.66 0.17,0.14 0.36,0.22 0.61,0.22 h 3.48 c 0.27,0 0.46,0.08 0.63,0.25 0.19,0.19 0.26,0.37 0.26,0.62 v 2.36 c 0,0.25 -0.07,0.44 -0.26,0.63 -0.17,0.14 -0.36,0.22 -0.63,0.22 h -12.79 c -0.25,0 -0.44,-0.08 -0.63,-0.22 -0.17,-0.19 -0.25,-0.38 -0.25,-0.63 v -2.36 c 0,-0.25 0.08,-0.43 0.25,-0.62 0.19,-0.17 0.38,-0.25 0.63,-0.25 h 3.48 c 0.27,0 0.44,-0.08 0.63,-0.22 0.18,-0.19 0.26,-0.41 0.26,-0.66 v -13.39 c 0,-0.26 -0.08,-0.44 -0.26,-0.62 -0.19,-0.19 -0.36,-0.25 -0.63,-0.25 h -3.48 c -0.25,0 -0.44,-0.08 -0.63,-0.27 -0.17,-0.19 -0.25,-0.36 -0.25,-0.62 v -2.32 c 0,-0.25 0.08,-0.43 0.25,-0.62 0.19,-0.17 0.38,-0.25 0.63,-0.25 h 12.79 c 0.27,0 0.46,0.08 0.63,0.25 0.19,0.19 0.26,0.37 0.26,0.62 v 2.32 c 0,0.26 -0.07,0.43 -0.26,0.62 -0.17,0.19 -0.36,0.27 -0.63,0.27 h -3.48 c -0.25,0 -0.44,0.06 -0.61,0.25 -0.19,0.18 -0.27,0.36 -0.27,0.62 v 4.06 c 0,0.27 0.08,0.46 0.27,0.63 0.17,0.19 0.36,0.27 0.61,0.27 h 18.34 c 0.27,0 0.49,-0.08 0.66,-0.27 0.16,-0.17 0.23,-0.36 0.23,-0.63 v -4.06 c 0,-0.26 -0.07,-0.44 -0.23,-0.62 -0.17,-0.19 -0.39,-0.25 -0.66,-0.25 h -3.48 c -0.25,0 -0.44,-0.08 -0.63,-0.27 -0.17,-0.19 -0.25,-0.36 -0.25,-0.62 v -2.32 c 0,-0.25 0.08,-0.43 0.25,-0.62 0.19,-0.17 0.38,-0.25 0.63,-0.25 h 12.84 c 0.25,0 0.44,0.08 0.63,0.25 0.17,0.19 0.25,0.37 0.25,0.62 v 2.32 c 0,0.26 -0.08,0.43 -0.25,0.62 -0.19,0.19 -0.38,0.27 -0.63,0.27 h -3.53 c -0.25,0 -0.44,0.06 -0.58,0.25 -0.18,0.18 -0.26,0.36 -0.26,0.62 v 13.39 c 0,0.25 0.08,0.47 0.26,0.66 0.14,0.14 0.33,0.22 0.58,0.22 h 3.53 c 0.25,0 0.44,0.08 0.63,0.25 0.17,0.19 0.25,0.37 0.25,0.62 v 2.36 c 0,0.25 -0.08,0.44 -0.25,0.63 -0.19,0.14 -0.38,0.22 -0.63,0.22 z m 23.38,0 c -0.25,0 -0.44,-0.08 -0.63,-0.22 -0.17,-0.19 -0.25,-0.38 -0.25,-0.63 v -2.36 c 0,-0.25 0.08,-0.43 0.25,-0.62 0.19,-0.17 0.38,-0.25 0.63,-0.25 h 3.48 c 0.27,0 0.44,-0.08 0.63,-0.22 0.19,-0.19 0.26,-0.41 0.26,-0.66 v -13.39 c 0,-0.26 -0.07,-0.44 -0.26,-0.62 -0.19,-0.19 -0.36,-0.25 -0.63,-0.25 h -3.48 c -0.25,0 -0.44,-0.08 -0.63,-0.27 -0.17,-0.19 -0.25,-0.36 -0.25,-0.62 v -2.32 c 0,-0.25 0.08,-0.43 0.25,-0.62 0.19,-0.17 0.38,-0.25 0.63,-0.25 h 31 c 0.25,0 0.44,0.08 0.62,0.25 0.18,0.19 0.25,0.37 0.25,0.62 v 5.5 c 0,0.27 -0.07,0.46 -0.25,0.63 -0.18,0.19 -0.37,0.26 -0.62,0.26 h -2.35 c -0.26,0 -0.45,-0.07 -0.62,-0.26 -0.19,-0.17 -0.27,-0.36 -0.27,-0.63 v -1.42 c 0,-0.26 -0.06,-0.44 -0.21,-0.62 -0.19,-0.19 -0.36,-0.25 -0.63,-0.25 h -17.61 c -0.25,0 -0.44,0.06 -0.61,0.25 -0.19,0.18 -0.26,0.36 -0.26,0.62 v 4.14 c 0,0.27 0.07,0.49 0.26,0.66 0.17,0.16 0.36,0.22 0.61,0.22 h 9.39 c 0.27,0 0.45,0.08 0.63,0.26 0.18,0.19 0.26,0.36 0.26,0.63 v 1.76 c 0,0.25 -0.08,0.44 -0.26,0.61 -0.18,0.19 -0.36,0.27 -0.63,0.27 h -9.39 c -0.25,0 -0.44,0.08 -0.61,0.25 -0.19,0.16 -0.26,0.33 -0.26,0.59 v 4 c 0,0.25 0.07,0.47 0.26,0.66 0.17,0.14 0.36,0.22 0.61,0.22 h 17.61 c 0.27,0 0.44,-0.08 0.63,-0.22 0.15,-0.19 0.21,-0.41 0.21,-0.66 v -0.89 c 0,-0.25 0.08,-0.47 0.27,-0.62 0.17,-0.17 0.36,-0.25 0.62,-0.25 h 2.35 c 0.25,0 0.44,0.08 0.62,0.25 0.18,0.15 0.25,0.37 0.25,0.62 v 4.92 c 0,0.25 -0.07,0.47 -0.25,0.66 -0.18,0.19 -0.37,0.27 -0.62,0.27 z m 91.22,0.11 c -0.26,0 -0.48,-0.08 -0.7,-0.27 -0.22,-0.19 -0.36,-0.36 -0.44,-0.58 l -0.03,-0.08 c -0.08,-0.22 -0.15,-0.32 -0.26,-0.32 -0.11,0 -0.19,0.1 -0.25,0.32 -0.08,0.22 -0.22,0.41 -0.44,0.6 -0.22,0.14 -0.45,0.22 -0.7,0.22 h -20.69 c -0.25,0 -0.52,-0.05 -0.77,-0.16 -0.29,-0.11 -0.54,-0.25 -0.73,-0.41 l -2.86,-2.59 c -0.19,-0.19 -0.38,-0.41 -0.48,-0.67 -0.11,-0.28 -0.19,-0.55 -0.19,-0.8 v -14.05 c 0,-0.26 0.08,-0.51 0.19,-0.78 0.1,-0.28 0.29,-0.5 0.48,-0.68 l 2.86,-2.57 c 0.19,-0.18 0.44,-0.29 0.73,-0.4 0.25,-0.11 0.52,-0.19 0.77,-0.19 h 21.67 c 0.27,0 0.52,0.08 0.81,0.19 0.3,0.11 0.55,0.22 0.74,0.4 l 2.86,2.57 c 0.18,0.18 0.37,0.4 0.48,0.68 0.11,0.27 0.17,0.52 0.17,0.78 v 1.36 c 0,0.25 -0.06,0.44 -0.25,0.63 -0.18,0.17 -0.37,0.25 -0.62,0.25 h -2.35 c -0.26,0 -0.43,-0.08 -0.59,-0.19 -0.19,-0.11 -0.25,-0.3 -0.25,-0.47 0,-0.19 -0.08,-0.37 -0.19,-0.59 -0.11,-0.25 -0.29,-0.44 -0.47,-0.63 l -0.37,-0.32 c -0.19,-0.19 -0.44,-0.3 -0.7,-0.41 -0.28,-0.11 -0.55,-0.17 -0.8,-0.17 h -18.56 c -0.25,0 -0.52,0.06 -0.82,0.17 -0.28,0.11 -0.5,0.22 -0.68,0.41 l -0.38,0.32 c -0.17,0.19 -0.36,0.41 -0.47,0.71 -0.11,0.25 -0.18,0.51 -0.18,0.76 v 10.42 c 0,0.25 0.07,0.52 0.18,0.8 0.11,0.27 0.3,0.49 0.47,0.67 l 0.38,0.28 c 0.18,0.19 0.4,0.35 0.68,0.46 0.3,0.11 0.57,0.14 0.82,0.14 h 20.25 c 0.25,0 0.43,-0.08 0.62,-0.22 0.14,-0.19 0.22,-0.38 0.22,-0.59 v -1.4 c 0,-0.14 0.06,-0.25 0.25,-0.35 0.16,-0.11 0.33,-0.19 0.59,-0.19 h 2.35 c 0.25,0.03 0.44,0.11 0.62,0.29 0.19,0.15 0.25,0.33 0.25,0.58 v 5.17 c 0,0.27 -0.06,0.44 -0.25,0.63 -0.18,0.19 -0.37,0.27 -0.62,0.27 z m 11.75,-3.24 c 0,-0.25 0.08,-0.47 0.25,-0.62 0.19,-0.19 0.38,-0.25 0.63,-0.25 h 3.48 c 0.27,0 0.44,-0.08 0.63,-0.27 0.18,-0.17 0.26,-0.36 0.26,-0.62 v -13.46 c 0,-0.26 -0.08,-0.44 -0.26,-0.62 -0.19,-0.19 -0.36,-0.25 -0.63,-0.25 h -3.48 c -0.25,0 -0.44,-0.08 -0.63,-0.27 -0.17,-0.19 -0.25,-0.36 -0.25,-0.62 v -2.32 c 0,-0.25 0.08,-0.43 0.25,-0.62 0.19,-0.17 0.38,-0.25 0.63,-0.25 h 12.79 c 0.27,0 0.46,0.08 0.63,0.25 0.19,0.19 0.26,0.37 0.26,0.62 v 2.32 c 0,0.26 -0.07,0.43 -0.26,0.62 -0.17,0.19 -0.36,0.27 -0.63,0.27 h -3.48 c -0.25,0 -0.44,0.06 -0.61,0.25 -0.19,0.18 -0.27,0.36 -0.27,0.62 v 13.46 c 0,0.26 0.08,0.45 0.27,0.62 0.17,0.19 0.36,0.27 0.61,0.27 h 3.48 c 0.27,0 0.46,0.06 0.63,0.25 0.19,0.15 0.26,0.37 0.26,0.62 v 2.31 c 0,0.25 -0.07,0.44 -0.26,0.63 -0.17,0.19 -0.36,0.25 -0.63,0.25 h -12.79 c -0.25,0 -0.44,-0.06 -0.63,-0.25 -0.17,-0.19 -0.25,-0.38 -0.25,-0.63 z m 23.01,3.13 c -0.25,0 -0.43,-0.08 -0.62,-0.22 -0.17,-0.19 -0.25,-0.38 -0.25,-0.63 v -5.11 c 0,-0.25 0.08,-0.43 0.25,-0.62 0.19,-0.17 0.37,-0.25 0.62,-0.25 h 2.32 c 0.26,0 0.43,0.08 0.62,0.25 0.19,0.19 0.25,0.37 0.25,0.62 v 1 c 0,0.25 0.08,0.47 0.27,0.66 0.18,0.14 0.36,0.22 0.62,0.22 h 8.44 c 0.25,0 0.44,-0.08 0.62,-0.22 0.18,-0.19 0.25,-0.41 0.25,-0.66 v -13.39 c 0,-0.26 -0.07,-0.44 -0.25,-0.62 -0.18,-0.19 -0.37,-0.25 -0.62,-0.25 h -3.49 c -0.26,0 -0.45,-0.08 -0.62,-0.27 -0.19,-0.19 -0.27,-0.36 -0.27,-0.62 v -2.32 c 0,-0.25 0.08,-0.43 0.27,-0.62 0.17,-0.17 0.36,-0.25 0.62,-0.25 h 12.83 c 0.27,0 0.44,0.08 0.63,0.25 0.15,0.19 0.22,0.37 0.22,0.62 v 2.32 c 0,0.26 -0.07,0.43 -0.22,0.62 -0.19,0.19 -0.36,0.27 -0.63,0.27 h -3.51 c -0.27,0 -0.44,0.06 -0.63,0.25 -0.19,0.18 -0.25,0.36 -0.25,0.62 v 13.39 c 0,0.25 0.06,0.47 0.25,0.66 0.19,0.14 0.36,0.22 0.63,0.22 h 8.47 c 0.26,0 0.43,-0.08 0.62,-0.22 0.14,-0.19 0.22,-0.41 0.22,-0.66 v -0.84 c 0,-0.27 0.08,-0.44 0.26,-0.63 0.18,-0.18 0.36,-0.26 0.61,-0.26 h 2.36 c 0.25,0 0.44,0.08 0.63,0.26 0.17,0.19 0.25,0.36 0.25,0.63 v 4.95 c 0,0.25 -0.08,0.44 -0.25,0.63 -0.19,0.14 -0.38,0.22 -0.63,0.22 z m 60.67,-3.21 c 0,-0.25 0.08,-0.43 0.27,-0.58 0.14,-0.18 0.36,-0.26 0.62,-0.26 h 2.16 c 0.26,0 0.4,-0.06 0.43,-0.17 0.05,-0.11 -0.03,-0.27 -0.21,-0.41 l -6.79,-6.09 c -0.18,-0.19 -0.4,-0.25 -0.65,-0.25 -0.27,0 -0.49,0.06 -0.67,0.25 l -6.78,6.09 c -0.19,0.14 -0.22,0.3 -0.19,0.41 0.04,0.11 0.19,0.17 0.45,0.17 h 2.02 c 0.25,0 0.47,0.08 0.65,0.26 0.14,0.15 0.22,0.33 0.22,0.58 v 2.36 c 0,0.25 -0.08,0.44 -0.22,0.63 -0.18,0.14 -0.4,0.22 -0.65,0.22 h -11.93 c -0.26,0 -0.43,-0.08 -0.62,-0.22 -0.19,-0.19 -0.25,-0.38 -0.25,-0.63 v -2.36 c 0,-0.25 0.06,-0.43 0.25,-0.58 0.19,-0.18 0.36,-0.26 0.62,-0.26 h 2.9 c 0.26,0 0.51,-0.03 0.81,-0.14 0.29,-0.11 0.54,-0.25 0.73,-0.44 l 10.19,-8.92 c 0.19,-0.17 0.37,-0.39 0.48,-0.66 0.11,-0.25 0.19,-0.51 0.19,-0.76 v -3.38 c 0,-0.26 -0.08,-0.44 -0.26,-0.62 -0.18,-0.19 -0.36,-0.25 -0.63,-0.25 h -4.5 c -0.26,0 -0.45,-0.08 -0.62,-0.27 -0.19,-0.19 -0.27,-0.36 -0.27,-0.62 v -2.32 c 0,-0.25 0.08,-0.43 0.27,-0.62 0.17,-0.17 0.36,-0.25 0.62,-0.25 h 14.27 c 0.25,0 0.43,0.08 0.62,0.25 0.17,0.19 0.25,0.37 0.25,0.62 v 2.32 c 0,0.26 -0.08,0.43 -0.25,0.62 -0.19,0.19 -0.37,0.27 -0.62,0.27 h -4.52 c -0.25,0 -0.44,0.06 -0.62,0.25 -0.19,0.18 -0.25,0.36 -0.25,0.62 v 3.27 c 0,0.25 0.06,0.51 0.17,0.79 0.11,0.27 0.29,0.49 0.48,0.63 l 10.31,9.03 c 0.18,0.19 0.44,0.33 0.74,0.44 0.28,0.11 0.55,0.14 0.8,0.14 h 2.79 c 0.25,0 0.44,0.08 0.61,0.26 0.19,0.15 0.27,0.33 0.27,0.58 v 2.36 c 0,0.25 -0.08,0.44 -0.27,0.63 -0.17,0.14 -0.36,0.22 -0.61,0.22 h -11.92 c -0.26,0 -0.48,-0.08 -0.62,-0.22 -0.19,-0.19 -0.27,-0.38 -0.27,-0.63 z m 44.54,3.24 c -0.25,0 -0.44,-0.08 -0.63,-0.25 -0.17,-0.19 -0.25,-0.38 -0.25,-0.63 v -2.36 c 0,-0.25 0.08,-0.43 0.25,-0.62 0.19,-0.17 0.38,-0.25 0.63,-0.25 h 3.48 c 0.27,0 0.44,-0.08 0.63,-0.25 0.19,-0.19 0.26,-0.38 0.26,-0.63 v -13.39 c 0,-0.26 -0.07,-0.44 -0.26,-0.62 -0.19,-0.19 -0.36,-0.25 -0.63,-0.25 h -3.48 c -0.25,0 -0.44,-0.08 -0.63,-0.27 -0.17,-0.19 -0.25,-0.36 -0.25,-0.62 v -2.32 c 0,-0.25 0.08,-0.43 0.25,-0.62 0.19,-0.17 0.38,-0.25 0.63,-0.25 h 27.19 c 0.25,0 0.51,0.03 0.84,0.14 0.28,0.11 0.55,0.22 0.74,0.37 l 3.43,2.61 c 0.19,0.14 0.38,0.36 0.52,0.61 0.11,0.27 0.19,0.52 0.19,0.78 v 4.66 c 0,0.25 -0.08,0.52 -0.19,0.77 -0.14,0.26 -0.33,0.48 -0.52,0.62 l -0.76,0.6 c -0.19,0.1 -0.3,0.28 -0.3,0.5 0,0.18 0.11,0.37 0.3,0.51 l 0.76,0.56 c 0.19,0.14 0.38,0.36 0.52,0.61 0.11,0.27 0.19,0.57 0.19,0.82 v 4.65 c 0,0.27 -0.08,0.52 -0.19,0.78 -0.14,0.25 -0.33,0.47 -0.52,0.61 l -3.43,2.58 c -0.19,0.14 -0.46,0.3 -0.74,0.41 -0.33,0.11 -0.59,0.14 -0.84,0.14 z m 28.83,-16.77 c 0,-0.25 -0.06,-0.51 -0.17,-0.76 -0.16,-0.3 -0.35,-0.52 -0.52,-0.63 l -0.73,-0.59 c -0.19,-0.11 -0.44,-0.22 -0.74,-0.33 -0.33,-0.11 -0.59,-0.17 -0.84,-0.17 h -16.52 c -0.25,0 -0.44,0.06 -0.61,0.25 -0.18,0.18 -0.26,0.36 -0.26,0.62 v 4.11 c 0,0.25 0.08,0.44 0.26,0.63 0.17,0.17 0.36,0.25 0.61,0.25 h 16.03 c 0.27,0 0.55,-0.03 0.85,-0.14 0.29,-0.11 0.54,-0.22 0.73,-0.38 l 1.22,-0.87 c 0.17,-0.14 0.36,-0.38 0.52,-0.63 0.11,-0.25 0.17,-0.51 0.17,-0.76 z m 0,9.61 c 0,-0.25 -0.06,-0.51 -0.17,-0.76 -0.16,-0.27 -0.35,-0.49 -0.52,-0.63 l -1.11,-0.81 c -0.17,-0.14 -0.44,-0.25 -0.73,-0.36 -0.33,-0.11 -0.58,-0.19 -0.85,-0.19 h -16.14 c -0.25,0 -0.44,0.08 -0.61,0.27 -0.18,0.17 -0.26,0.36 -0.26,0.61 v 4.04 c 0,0.25 0.08,0.44 0.26,0.63 0.17,0.17 0.36,0.25 0.61,0.25 h 16.52 c 0.25,0 0.51,-0.03 0.84,-0.14 0.3,-0.11 0.55,-0.22 0.74,-0.38 l 0.73,-0.54 c 0.17,-0.15 0.36,-0.38 0.52,-0.63 0.11,-0.25 0.17,-0.52 0.17,-0.77 z m 37.89,7.13 c -0.27,0 -0.44,-0.08 -0.63,-0.22 -0.18,-0.19 -0.25,-0.38 -0.25,-0.63 v -2.36 c 0,-0.25 0.07,-0.43 0.25,-0.62 0.19,-0.17 0.36,-0.25 0.63,-0.25 h 3.48 c 0.25,0 0.44,-0.08 0.63,-0.22 0.19,-0.19 0.25,-0.41 0.25,-0.66 v -11.78 c 0,-0.25 -0.06,-0.51 -0.17,-0.76 -0.16,-0.3 -0.35,-0.52 -0.52,-0.63 l -0.73,-0.59 c -0.19,-0.11 -0.44,-0.22 -0.74,-0.33 -0.33,-0.11 -0.59,-0.17 -0.84,-0.17 h -14.97 c -0.25,0 -0.52,0.06 -0.81,0.17 -0.33,0.11 -0.58,0.22 -0.77,0.33 l -0.73,0.59 c -0.19,0.11 -0.36,0.33 -0.47,0.63 -0.16,0.25 -0.22,0.51 -0.22,0.76 v 11.78 c 0,0.25 0.06,0.47 0.25,0.66 0.19,0.14 0.36,0.22 0.62,0.22 h 3.49 c 0.25,0 0.44,0.08 0.62,0.25 0.19,0.19 0.25,0.37 0.25,0.62 v 2.36 c 0,0.25 -0.06,0.44 -0.25,0.63 -0.18,0.14 -0.37,0.22 -0.62,0.22 h -12.8 c -0.26,0 -0.45,-0.08 -0.62,-0.22 -0.19,-0.19 -0.27,-0.38 -0.27,-0.63 v -2.36 c 0,-0.25 0.08,-0.43 0.27,-0.62 0.17,-0.17 0.36,-0.25 0.62,-0.25 h 3.49 c 0.25,0 0.43,-0.08 0.62,-0.22 0.17,-0.19 0.25,-0.41 0.25,-0.66 v -13.83 c 0,-0.26 0.08,-0.51 0.22,-0.78 0.11,-0.25 0.3,-0.47 0.48,-0.61 l 3.44,-2.61 c 0.19,-0.15 0.44,-0.26 0.78,-0.37 0.28,-0.11 0.55,-0.14 0.8,-0.14 h 17.69 c 0.25,0 0.5,0.03 0.84,0.14 0.28,0.11 0.55,0.22 0.74,0.37 l 3.43,2.61 c 0.19,0.14 0.38,0.36 0.52,0.61 0.11,0.27 0.19,0.52 0.19,0.78 v 13.83 c 0,0.25 0.07,0.47 0.25,0.66 0.18,0.14 0.37,0.22 0.62,0.22 h 3.53 c 0.25,0 0.44,0.08 0.61,0.25 0.16,0.19 0.22,0.37 0.22,0.62 v 2.36 c 0,0.25 -0.06,0.44 -0.22,0.63 -0.17,0.14 -0.36,0.22 -0.61,0.22 z m 26.97,-4.6 c 0.18,0.16 0.43,0.27 0.78,0.38 0.28,0.11 0.55,0.14 0.8,0.14 h 18.26 c 0.27,0 0.52,-0.03 0.84,-0.11 0.33,-0.11 0.6,-0.22 0.77,-0.33 l 2.09,-1.33 c 0.19,-0.11 0.41,-0.14 0.68,-0.06 0.25,0.03 0.43,0.17 0.54,0.36 l 1.21,1.98 c 0.11,0.19 0.15,0.41 0.11,0.66 -0.04,0.22 -0.19,0.41 -0.36,0.52 l -3.08,1.93 c -0.19,0.11 -0.46,0.24 -0.78,0.35 -0.33,0.06 -0.58,0.11 -0.85,0.11 h -20.79 c -0.25,0 -0.52,-0.05 -0.8,-0.16 -0.33,-0.11 -0.59,-0.22 -0.78,-0.36 l -3.44,-2.61 c -0.19,-0.11 -0.37,-0.33 -0.48,-0.58 -0.14,-0.29 -0.22,-0.56 -0.22,-0.81 v -4.66 c 0,-0.26 0.08,-0.51 0.22,-0.78 0.11,-0.25 0.29,-0.47 0.48,-0.61 l 3.44,-2.61 c 0.19,-0.11 0.45,-0.21 0.78,-0.32 0.28,-0.11 0.55,-0.19 0.8,-0.19 h 18.96 c 0.25,0 0.52,-0.03 0.82,-0.14 0.28,-0.11 0.54,-0.22 0.73,-0.38 l 0.77,-0.54 c 0.18,-0.14 0.36,-0.38 0.51,-0.63 0.11,-0.25 0.17,-0.51 0.17,-0.76 v -0.6 c 0,-0.25 -0.06,-0.51 -0.17,-0.76 -0.15,-0.3 -0.33,-0.52 -0.51,-0.63 l -0.77,-0.59 c -0.19,-0.11 -0.45,-0.22 -0.73,-0.33 -0.3,-0.11 -0.57,-0.17 -0.82,-0.17 h -17.71 c -0.25,0 -0.52,0.03 -0.85,0.14 -0.33,0.08 -0.58,0.19 -0.76,0.29 l -2.69,1.61 c -0.17,0.11 -0.39,0.14 -0.66,0.11 -0.25,-0.07 -0.43,-0.22 -0.54,-0.4 l -1.21,-1.99 c -0.12,-0.22 -0.15,-0.43 -0.08,-0.65 0.04,-0.25 0.19,-0.44 0.41,-0.55 l 3.63,-2.2 c 0.18,-0.11 0.43,-0.22 0.76,-0.3 0.33,-0.11 0.6,-0.14 0.85,-0.14 h 20.21 c 0.25,0 0.52,0.03 0.85,0.14 0.29,0.11 0.54,0.22 0.73,0.37 l 3.44,2.61 c 0.19,0.14 0.37,0.36 0.52,0.61 0.1,0.27 0.18,0.52 0.18,0.78 v 4.66 c 0,0.25 -0.08,0.52 -0.18,0.77 -0.15,0.26 -0.33,0.48 -0.52,0.62 l -3.44,2.61 c -0.19,0.14 -0.44,0.25 -0.73,0.36 -0.33,0.11 -0.6,0.16 -0.85,0.16 h -18.96 c -0.25,0 -0.52,0.06 -0.8,0.17 -0.35,0.11 -0.6,0.22 -0.78,0.37 l -0.74,0.55 c -0.17,0.14 -0.36,0.36 -0.47,0.63 -0.15,0.25 -0.21,0.51 -0.21,0.76 v 0.59 c 0,0.25 0.06,0.52 0.21,0.77 0.11,0.25 0.3,0.48 0.47,0.63 z"
         id="path1310" />
    </clipPath>
    <clipPath
       clipPathUnits="userSpaceOnUse"
       id="clipPath7786">
      <path
         d="m 3690.58,1208.17 c 0,1.81 0.95,3.09 2.4,3.94 -0.2,-0.49 -0.3,-1.04 -0.3,-1.65 7.32,0.27 11.81,0.86 14.29,1.56 1.69,-1.39 -1.43,-3.3 -16.39,-3.85"
         id="path7784" />
    </clipPath>
    <clipPath
       clipPathUnits="userSpaceOnUse"
       id="clipPath14704">
      <path
         d="m 3706.97,1212.02 c -1.06,0.88 -4.05,1.56 -7.19,1.56 -2.46,0 -5.01,-0.41 -6.8,-1.47 1.12,2.78 5.13,3.76 8.92,3.76 5.69,0 10.9,-2.21 5.07,-3.85"
         id="path14702" />
    </clipPath>
    <clipPath
       clipPathUnits="userSpaceOnUse"
       id="clipPath14720">
      <path
         d="m 3692.68,1210.46 c 0,0.61 0.1,1.16 0.3,1.65 1.79,1.06 4.34,1.47 6.8,1.47 3.14,0 6.13,-0.68 7.19,-1.56 -2.48,-0.7 -6.97,-1.29 -14.29,-1.56"
         id="path14718" />
    </clipPath>
    <clipPath
       clipPathUnits="userSpaceOnUse"
       id="clipPath27714">
      <path
         d="m 3654.18,1231.89 c -0.07,0 -0.1,0.43 -0.08,1.48 h 0.4 c -0.13,-0.89 -0.25,-1.48 -0.32,-1.48"
         id="path27712" />
    </clipPath>
    <clipPath
       clipPathUnits="userSpaceOnUse"
       id="clipPath28962">
      <path
         d="m 3494.52,1991.48 c -0.31,0 -0.32,1.81 -0.19,3.62 0.14,1.81 0.42,3.62 0.72,3.62 0.22,0 0.46,-0.97 0.64,-3.61 -0.58,-2.66 -0.95,-3.63 -1.17,-3.63"
         id="path28960" />
    </clipPath>
    <clipPath
       clipPathUnits="userSpaceOnUse"
       id="clipPath28978">
      <path
         d="m 3494.52,1991.48 c -0.31,0 -0.32,1.81 -0.19,3.62 0.14,1.81 0.42,3.62 0.72,3.62 0.22,0 0.46,-0.97 0.64,-3.61 -0.58,-2.66 -0.95,-3.63 -1.17,-3.63"
         id="path28976" />
    </clipPath>
    <clipPath
       clipPathUnits="userSpaceOnUse"
       id="clipPath28984">
      <path
         d="m 3429.89,2012.09 c -0.25,0 -0.43,-0.08 -0.62,-0.22 -0.17,-0.19 -0.25,-0.38 -0.25,-0.63 v -5.11 c 0,-0.25 0.08,-0.43 0.25,-0.62 0.19,-0.17 0.37,-0.25 0.62,-0.25 h 2.32 c 0.26,0 0.43,0.08 0.62,0.25 0.19,0.19 0.25,0.37 0.25,0.62 v 1 c 0,0.25 0.08,0.47 0.27,0.66 0.19,0.14 0.36,0.22 0.62,0.22 h 8.44 c 0.25,0 0.44,-0.08 0.63,-0.22 0.17,-0.19 0.25,-0.41 0.25,-0.66 v -13.39 c 0,-0.26 -0.08,-0.44 -0.25,-0.62 -0.19,-0.19 -0.38,-0.25 -0.63,-0.25 h -3.48 c -0.27,0 -0.46,-0.08 -0.63,-0.27 -0.19,-0.19 -0.26,-0.36 -0.26,-0.62 v -2.32 c 0,-0.25 0.07,-0.43 0.26,-0.62 0.17,-0.17 0.36,-0.25 0.63,-0.25 h 12.82 c 0.27,0 0.44,0.08 0.63,0.25 0.16,0.19 0.22,0.37 0.22,0.62 v 2.32 c 0,0.26 -0.06,0.43 -0.22,0.62 -0.19,0.19 -0.36,0.27 -0.63,0.27 h -3.51 c -0.27,0 -0.44,0.06 -0.63,0.25 -0.18,0.18 -0.25,0.36 -0.25,0.62 v 13.39 c 0,0.25 0.07,0.47 0.25,0.66 0.19,0.14 0.36,0.22 0.63,0.22 h 8.47 c 0.26,0 0.43,-0.08 0.62,-0.22 0.14,-0.19 0.22,-0.41 0.22,-0.66 v -0.84 c 0,-0.27 0.08,-0.44 0.27,-0.63 0.17,-0.18 0.36,-0.26 0.61,-0.26 h 2.36 c 0.25,0 0.43,0.08 0.62,0.26 0.17,0.19 0.25,0.36 0.25,0.63 v 4.95 c 0,0.25 -0.08,0.44 -0.25,0.63 -0.19,0.14 -0.37,0.22 -0.62,0.22 z m 64.56,0 c -0.25,0 -0.44,-0.08 -0.63,-0.22 -0.17,-0.19 -0.25,-0.38 -0.25,-0.63 v -2.36 c 0,-0.25 0.08,-0.43 0.25,-0.62 0.19,-0.17 0.38,-0.25 0.63,-0.25 h 3.48 c 0.27,0 0.49,-0.08 0.66,-0.22 0.16,-0.19 0.23,-0.41 0.23,-0.66 v -4.08 c 0,-0.25 -0.07,-0.43 -0.23,-0.62 -0.17,-0.17 -0.39,-0.25 -0.66,-0.25 h -18.34 c -0.25,0 -0.44,0.08 -0.61,0.25 -0.19,0.19 -0.27,0.37 -0.27,0.62 v 4.08 c 0,0.25 0.08,0.47 0.27,0.66 0.17,0.14 0.36,0.22 0.61,0.22 h 3.48 c 0.27,0 0.46,0.08 0.63,0.25 0.19,0.19 0.26,0.37 0.26,0.62 v 2.36 c 0,0.25 -0.07,0.44 -0.26,0.63 -0.17,0.14 -0.36,0.22 -0.63,0.22 h -12.79 c -0.25,0 -0.44,-0.08 -0.63,-0.22 -0.17,-0.19 -0.25,-0.38 -0.25,-0.63 v -2.36 c 0,-0.25 0.08,-0.43 0.25,-0.62 0.19,-0.17 0.38,-0.25 0.63,-0.25 h 3.48 c 0.27,0 0.44,-0.08 0.63,-0.22 0.18,-0.19 0.26,-0.41 0.26,-0.66 v -13.39 c 0,-0.26 -0.08,-0.44 -0.26,-0.62 -0.19,-0.19 -0.36,-0.25 -0.63,-0.25 h -3.48 c -0.25,0 -0.44,-0.08 -0.63,-0.27 -0.17,-0.19 -0.25,-0.36 -0.25,-0.62 v -2.32 c 0,-0.25 0.08,-0.43 0.25,-0.62 0.19,-0.17 0.38,-0.25 0.63,-0.25 h 12.79 c 0.27,0 0.46,0.08 0.63,0.25 0.19,0.19 0.26,0.37 0.26,0.62 v 2.32 c 0,0.26 -0.07,0.43 -0.26,0.62 -0.17,0.19 -0.36,0.27 -0.63,0.27 h -3.48 c -0.25,0 -0.44,0.06 -0.61,0.25 -0.19,0.18 -0.27,0.36 -0.27,0.62 v 4.06 c 0,0.27 0.08,0.46 0.27,0.63 0.17,0.19 0.36,0.27 0.61,0.27 h 18.34 c 0.27,0 0.49,-0.08 0.66,-0.27 0.16,-0.17 0.23,-0.36 0.23,-0.63 v -4.06 c 0,-0.26 -0.07,-0.44 -0.23,-0.62 -0.17,-0.19 -0.39,-0.25 -0.66,-0.25 h -3.48 c -0.25,0 -0.44,-0.08 -0.63,-0.27 -0.17,-0.19 -0.25,-0.36 -0.25,-0.62 v -2.32 c 0,-0.25 0.08,-0.43 0.25,-0.62 0.19,-0.17 0.38,-0.25 0.63,-0.25 h 12.84 c 0.25,0 0.44,0.08 0.63,0.25 0.17,0.19 0.25,0.37 0.25,0.62 v 2.32 c 0,0.26 -0.08,0.43 -0.25,0.62 -0.19,0.19 -0.38,0.27 -0.63,0.27 h -3.53 c -0.25,0 -0.44,0.06 -0.58,0.25 -0.18,0.18 -0.26,0.36 -0.26,0.62 v 13.39 c 0,0.25 0.08,0.47 0.26,0.66 0.14,0.14 0.33,0.22 0.58,0.22 h 3.53 c 0.25,0 0.44,0.08 0.63,0.25 0.17,0.19 0.25,0.37 0.25,0.62 v 2.36 c 0,0.25 -0.08,0.44 -0.25,0.63 -0.19,0.14 -0.38,0.22 -0.63,0.22 z m 23.38,0 c -0.25,0 -0.44,-0.08 -0.63,-0.22 -0.17,-0.19 -0.25,-0.38 -0.25,-0.63 v -2.36 c 0,-0.25 0.08,-0.43 0.25,-0.62 0.19,-0.17 0.38,-0.25 0.63,-0.25 h 3.48 c 0.27,0 0.44,-0.08 0.63,-0.22 0.19,-0.19 0.26,-0.41 0.26,-0.66 v -13.39 c 0,-0.26 -0.07,-0.44 -0.26,-0.62 -0.19,-0.19 -0.36,-0.25 -0.63,-0.25 h -3.48 c -0.25,0 -0.44,-0.08 -0.63,-0.27 -0.17,-0.19 -0.25,-0.36 -0.25,-0.62 v -2.32 c 0,-0.25 0.08,-0.43 0.25,-0.62 0.19,-0.17 0.38,-0.25 0.63,-0.25 h 31 c 0.25,0 0.44,0.08 0.62,0.25 0.18,0.19 0.25,0.37 0.25,0.62 v 5.5 c 0,0.27 -0.07,0.46 -0.25,0.63 -0.18,0.19 -0.37,0.26 -0.62,0.26 h -2.35 c -0.26,0 -0.45,-0.07 -0.62,-0.26 -0.19,-0.17 -0.27,-0.36 -0.27,-0.63 v -1.42 c 0,-0.26 -0.06,-0.44 -0.21,-0.62 -0.19,-0.19 -0.36,-0.25 -0.63,-0.25 h -17.61 c -0.25,0 -0.44,0.06 -0.61,0.25 -0.19,0.18 -0.26,0.36 -0.26,0.62 v 4.14 c 0,0.27 0.07,0.49 0.26,0.66 0.17,0.16 0.36,0.22 0.61,0.22 h 9.39 c 0.27,0 0.45,0.08 0.63,0.26 0.18,0.19 0.26,0.36 0.26,0.63 v 1.76 c 0,0.25 -0.08,0.44 -0.26,0.61 -0.18,0.19 -0.36,0.27 -0.63,0.27 h -9.39 c -0.25,0 -0.44,0.08 -0.61,0.25 -0.19,0.16 -0.26,0.33 -0.26,0.59 v 4 c 0,0.25 0.07,0.47 0.26,0.66 0.17,0.14 0.36,0.22 0.61,0.22 h 17.61 c 0.27,0 0.44,-0.08 0.63,-0.22 0.15,-0.19 0.21,-0.41 0.21,-0.66 v -0.89 c 0,-0.25 0.08,-0.47 0.27,-0.62 0.17,-0.17 0.36,-0.25 0.62,-0.25 h 2.35 c 0.25,0 0.44,0.08 0.62,0.25 0.18,0.15 0.25,0.37 0.25,0.62 v 4.92 c 0,0.25 -0.07,0.47 -0.25,0.66 -0.18,0.19 -0.37,0.27 -0.62,0.27 z m 91.22,0.11 c -0.26,0 -0.48,-0.08 -0.7,-0.27 -0.22,-0.19 -0.36,-0.36 -0.44,-0.58 l -0.03,-0.08 c -0.08,-0.22 -0.15,-0.32 -0.26,-0.32 -0.11,0 -0.19,0.1 -0.25,0.32 -0.08,0.22 -0.22,0.41 -0.44,0.6 -0.22,0.14 -0.45,0.22 -0.7,0.22 h -20.69 c -0.25,0 -0.52,-0.05 -0.77,-0.16 -0.29,-0.11 -0.54,-0.25 -0.73,-0.41 l -2.86,-2.59 c -0.19,-0.19 -0.38,-0.41 -0.48,-0.67 -0.11,-0.28 -0.19,-0.55 -0.19,-0.8 v -14.05 c 0,-0.26 0.08,-0.51 0.19,-0.78 0.1,-0.28 0.29,-0.5 0.48,-0.68 l 2.86,-2.57 c 0.19,-0.18 0.44,-0.29 0.73,-0.4 0.25,-0.11 0.52,-0.19 0.77,-0.19 h 21.67 c 0.27,0 0.52,0.08 0.81,0.19 0.3,0.11 0.55,0.22 0.74,0.4 l 2.86,2.57 c 0.18,0.18 0.37,0.4 0.48,0.68 0.11,0.27 0.17,0.52 0.17,0.78 v 1.36 c 0,0.25 -0.06,0.44 -0.25,0.63 -0.18,0.17 -0.37,0.25 -0.62,0.25 h -2.35 c -0.26,0 -0.43,-0.08 -0.59,-0.19 -0.19,-0.11 -0.25,-0.3 -0.25,-0.47 0,-0.19 -0.08,-0.37 -0.19,-0.59 -0.11,-0.25 -0.29,-0.44 -0.47,-0.63 l -0.37,-0.32 c -0.19,-0.19 -0.44,-0.3 -0.7,-0.41 -0.28,-0.11 -0.55,-0.17 -0.8,-0.17 h -18.56 c -0.25,0 -0.52,0.06 -0.82,0.17 -0.28,0.11 -0.5,0.22 -0.68,0.41 l -0.38,0.32 c -0.17,0.19 -0.36,0.41 -0.47,0.71 -0.11,0.25 -0.18,0.51 -0.18,0.76 v 10.42 c 0,0.25 0.07,0.52 0.18,0.8 0.11,0.27 0.3,0.49 0.47,0.67 l 0.38,0.28 c 0.18,0.19 0.4,0.35 0.68,0.46 0.3,0.11 0.57,0.14 0.82,0.14 h 20.25 c 0.25,0 0.43,-0.08 0.62,-0.22 0.14,-0.19 0.22,-0.38 0.22,-0.59 v -1.4 c 0,-0.14 0.06,-0.25 0.25,-0.35 0.16,-0.11 0.33,-0.19 0.59,-0.19 h 2.35 c 0.25,0.03 0.44,0.11 0.62,0.29 0.19,0.15 0.25,0.33 0.25,0.58 v 5.17 c 0,0.27 -0.06,0.44 -0.25,0.63 -0.18,0.19 -0.37,0.27 -0.62,0.27 z m 11.75,-3.24 c 0,-0.25 0.08,-0.47 0.25,-0.62 0.19,-0.19 0.38,-0.25 0.63,-0.25 h 3.48 c 0.27,0 0.44,-0.08 0.63,-0.27 0.18,-0.17 0.26,-0.36 0.26,-0.62 v -13.46 c 0,-0.26 -0.08,-0.44 -0.26,-0.62 -0.19,-0.19 -0.36,-0.25 -0.63,-0.25 h -3.48 c -0.25,0 -0.44,-0.08 -0.63,-0.27 -0.17,-0.19 -0.25,-0.36 -0.25,-0.62 v -2.32 c 0,-0.25 0.08,-0.43 0.25,-0.62 0.19,-0.17 0.38,-0.25 0.63,-0.25 h 12.79 c 0.27,0 0.46,0.08 0.63,0.25 0.19,0.19 0.26,0.37 0.26,0.62 v 2.32 c 0,0.26 -0.07,0.43 -0.26,0.62 -0.17,0.19 -0.36,0.27 -0.63,0.27 h -3.48 c -0.25,0 -0.44,0.06 -0.61,0.25 -0.19,0.18 -0.27,0.36 -0.27,0.62 v 13.46 c 0,0.26 0.08,0.45 0.27,0.62 0.17,0.19 0.36,0.27 0.61,0.27 h 3.48 c 0.27,0 0.46,0.06 0.63,0.25 0.19,0.15 0.26,0.37 0.26,0.62 v 2.31 c 0,0.25 -0.07,0.44 -0.26,0.63 -0.17,0.19 -0.36,0.25 -0.63,0.25 h -12.79 c -0.25,0 -0.44,-0.06 -0.63,-0.25 -0.17,-0.19 -0.25,-0.38 -0.25,-0.63 z m 23.01,3.13 c -0.25,0 -0.43,-0.08 -0.62,-0.22 -0.17,-0.19 -0.25,-0.38 -0.25,-0.63 v -5.11 c 0,-0.25 0.08,-0.43 0.25,-0.62 0.19,-0.17 0.37,-0.25 0.62,-0.25 h 2.32 c 0.26,0 0.43,0.08 0.62,0.25 0.19,0.19 0.25,0.37 0.25,0.62 v 1 c 0,0.25 0.08,0.47 0.27,0.66 0.18,0.14 0.36,0.22 0.62,0.22 h 8.44 c 0.25,0 0.44,-0.08 0.62,-0.22 0.18,-0.19 0.25,-0.41 0.25,-0.66 v -13.39 c 0,-0.26 -0.07,-0.44 -0.25,-0.62 -0.18,-0.19 -0.37,-0.25 -0.62,-0.25 h -3.49 c -0.26,0 -0.45,-0.08 -0.62,-0.27 -0.19,-0.19 -0.27,-0.36 -0.27,-0.62 v -2.32 c 0,-0.25 0.08,-0.43 0.27,-0.62 0.17,-0.17 0.36,-0.25 0.62,-0.25 h 12.83 c 0.27,0 0.44,0.08 0.63,0.25 0.15,0.19 0.22,0.37 0.22,0.62 v 2.32 c 0,0.26 -0.07,0.43 -0.22,0.62 -0.19,0.19 -0.36,0.27 -0.63,0.27 h -3.51 c -0.27,0 -0.44,0.06 -0.63,0.25 -0.19,0.18 -0.25,0.36 -0.25,0.62 v 13.39 c 0,0.25 0.06,0.47 0.25,0.66 0.19,0.14 0.36,0.22 0.63,0.22 h 8.47 c 0.26,0 0.43,-0.08 0.62,-0.22 0.14,-0.19 0.22,-0.41 0.22,-0.66 v -0.84 c 0,-0.27 0.08,-0.44 0.26,-0.63 0.18,-0.18 0.36,-0.26 0.61,-0.26 h 2.36 c 0.25,0 0.44,0.08 0.63,0.26 0.17,0.19 0.25,0.36 0.25,0.63 v 4.95 c 0,0.25 -0.08,0.44 -0.25,0.63 -0.19,0.14 -0.38,0.22 -0.63,0.22 z m 60.67,-3.21 c 0,-0.25 0.08,-0.43 0.27,-0.58 0.14,-0.18 0.36,-0.26 0.62,-0.26 h 2.16 c 0.26,0 0.4,-0.06 0.43,-0.17 0.05,-0.11 -0.03,-0.27 -0.21,-0.41 l -6.79,-6.09 c -0.18,-0.19 -0.4,-0.25 -0.65,-0.25 -0.27,0 -0.49,0.06 -0.67,0.25 l -6.78,6.09 c -0.19,0.14 -0.22,0.3 -0.19,0.41 0.04,0.11 0.19,0.17 0.45,0.17 h 2.02 c 0.25,0 0.47,0.08 0.65,0.26 0.14,0.15 0.22,0.33 0.22,0.58 v 2.36 c 0,0.25 -0.08,0.44 -0.22,0.63 -0.18,0.14 -0.4,0.22 -0.65,0.22 h -11.93 c -0.26,0 -0.43,-0.08 -0.62,-0.22 -0.19,-0.19 -0.25,-0.38 -0.25,-0.63 v -2.36 c 0,-0.25 0.06,-0.43 0.25,-0.58 0.19,-0.18 0.36,-0.26 0.62,-0.26 h 2.9 c 0.26,0 0.51,-0.03 0.81,-0.14 0.29,-0.11 0.54,-0.25 0.73,-0.44 l 10.19,-8.92 c 0.19,-0.17 0.37,-0.39 0.48,-0.66 0.11,-0.25 0.19,-0.51 0.19,-0.76 v -3.38 c 0,-0.26 -0.08,-0.44 -0.26,-0.62 -0.18,-0.19 -0.36,-0.25 -0.63,-0.25 h -4.5 c -0.26,0 -0.45,-0.08 -0.62,-0.27 -0.19,-0.19 -0.27,-0.36 -0.27,-0.62 v -2.32 c 0,-0.25 0.08,-0.43 0.27,-0.62 0.17,-0.17 0.36,-0.25 0.62,-0.25 h 14.27 c 0.25,0 0.43,0.08 0.62,0.25 0.17,0.19 0.25,0.37 0.25,0.62 v 2.32 c 0,0.26 -0.08,0.43 -0.25,0.62 -0.19,0.19 -0.37,0.27 -0.62,0.27 h -4.52 c -0.25,0 -0.44,0.06 -0.62,0.25 -0.19,0.18 -0.25,0.36 -0.25,0.62 v 3.27 c 0,0.25 0.06,0.51 0.17,0.79 0.11,0.27 0.29,0.49 0.48,0.63 l 10.31,9.03 c 0.18,0.19 0.44,0.33 0.74,0.44 0.28,0.11 0.55,0.14 0.8,0.14 h 2.79 c 0.25,0 0.44,0.08 0.61,0.26 0.19,0.15 0.27,0.33 0.27,0.58 v 2.36 c 0,0.25 -0.08,0.44 -0.27,0.63 -0.17,0.14 -0.36,0.22 -0.61,0.22 h -11.92 c -0.26,0 -0.48,-0.08 -0.62,-0.22 -0.19,-0.19 -0.27,-0.38 -0.27,-0.63 z m 44.54,3.24 c -0.25,0 -0.44,-0.08 -0.63,-0.25 -0.17,-0.19 -0.25,-0.38 -0.25,-0.63 v -2.36 c 0,-0.25 0.08,-0.43 0.25,-0.62 0.19,-0.17 0.38,-0.25 0.63,-0.25 h 3.48 c 0.27,0 0.44,-0.08 0.63,-0.25 0.19,-0.19 0.26,-0.38 0.26,-0.63 v -13.39 c 0,-0.26 -0.07,-0.44 -0.26,-0.62 -0.19,-0.19 -0.36,-0.25 -0.63,-0.25 h -3.48 c -0.25,0 -0.44,-0.08 -0.63,-0.27 -0.17,-0.19 -0.25,-0.36 -0.25,-0.62 v -2.32 c 0,-0.25 0.08,-0.43 0.25,-0.62 0.19,-0.17 0.38,-0.25 0.63,-0.25 h 27.19 c 0.25,0 0.51,0.03 0.84,0.14 0.28,0.11 0.55,0.22 0.74,0.37 l 3.43,2.61 c 0.19,0.14 0.38,0.36 0.52,0.61 0.11,0.27 0.19,0.52 0.19,0.78 v 4.66 c 0,0.25 -0.08,0.52 -0.19,0.77 -0.14,0.26 -0.33,0.48 -0.52,0.62 l -0.76,0.6 c -0.19,0.1 -0.3,0.28 -0.3,0.5 0,0.18 0.11,0.37 0.3,0.51 l 0.76,0.56 c 0.19,0.14 0.38,0.36 0.52,0.61 0.11,0.27 0.19,0.57 0.19,0.82 v 4.65 c 0,0.27 -0.08,0.52 -0.19,0.78 -0.14,0.25 -0.33,0.47 -0.52,0.61 l -3.43,2.58 c -0.19,0.14 -0.46,0.3 -0.74,0.41 -0.33,0.11 -0.59,0.14 -0.84,0.14 z m 28.83,-16.77 c 0,-0.25 -0.06,-0.51 -0.17,-0.76 -0.16,-0.3 -0.35,-0.52 -0.52,-0.63 l -0.73,-0.59 c -0.19,-0.11 -0.44,-0.22 -0.74,-0.33 -0.33,-0.11 -0.59,-0.17 -0.84,-0.17 h -16.52 c -0.25,0 -0.44,0.06 -0.61,0.25 -0.18,0.18 -0.26,0.36 -0.26,0.62 v 4.11 c 0,0.25 0.08,0.44 0.26,0.63 0.17,0.17 0.36,0.25 0.61,0.25 h 16.03 c 0.27,0 0.55,-0.03 0.85,-0.14 0.29,-0.11 0.54,-0.22 0.73,-0.38 l 1.22,-0.87 c 0.17,-0.14 0.36,-0.38 0.52,-0.63 0.11,-0.25 0.17,-0.51 0.17,-0.76 z m 0,9.61 c 0,-0.25 -0.06,-0.51 -0.17,-0.76 -0.16,-0.27 -0.35,-0.49 -0.52,-0.63 l -1.11,-0.81 c -0.17,-0.14 -0.44,-0.25 -0.73,-0.36 -0.33,-0.11 -0.58,-0.19 -0.85,-0.19 h -16.14 c -0.25,0 -0.44,0.08 -0.61,0.27 -0.18,0.17 -0.26,0.36 -0.26,0.61 v 4.04 c 0,0.25 0.08,0.44 0.26,0.63 0.17,0.17 0.36,0.25 0.61,0.25 h 16.52 c 0.25,0 0.51,-0.03 0.84,-0.14 0.3,-0.11 0.55,-0.22 0.74,-0.38 l 0.73,-0.54 c 0.17,-0.15 0.36,-0.38 0.52,-0.63 0.11,-0.25 0.17,-0.52 0.17,-0.77 z m 37.89,7.13 c -0.27,0 -0.44,-0.08 -0.63,-0.22 -0.18,-0.19 -0.25,-0.38 -0.25,-0.63 v -2.36 c 0,-0.25 0.07,-0.43 0.25,-0.62 0.19,-0.17 0.36,-0.25 0.63,-0.25 h 3.48 c 0.25,0 0.44,-0.08 0.63,-0.22 0.19,-0.19 0.25,-0.41 0.25,-0.66 v -11.78 c 0,-0.25 -0.06,-0.51 -0.17,-0.76 -0.16,-0.3 -0.35,-0.52 -0.52,-0.63 l -0.73,-0.59 c -0.19,-0.11 -0.44,-0.22 -0.74,-0.33 -0.33,-0.11 -0.59,-0.17 -0.84,-0.17 h -14.97 c -0.25,0 -0.52,0.06 -0.81,0.17 -0.33,0.11 -0.58,0.22 -0.77,0.33 l -0.73,0.59 c -0.19,0.11 -0.36,0.33 -0.47,0.63 -0.16,0.25 -0.22,0.51 -0.22,0.76 v 11.78 c 0,0.25 0.06,0.47 0.25,0.66 0.19,0.14 0.36,0.22 0.62,0.22 h 3.49 c 0.25,0 0.44,0.08 0.62,0.25 0.19,0.19 0.25,0.37 0.25,0.62 v 2.36 c 0,0.25 -0.06,0.44 -0.25,0.63 -0.18,0.14 -0.37,0.22 -0.62,0.22 h -12.8 c -0.26,0 -0.45,-0.08 -0.62,-0.22 -0.19,-0.19 -0.27,-0.38 -0.27,-0.63 v -2.36 c 0,-0.25 0.08,-0.43 0.27,-0.62 0.17,-0.17 0.36,-0.25 0.62,-0.25 h 3.49 c 0.25,0 0.43,-0.08 0.62,-0.22 0.17,-0.19 0.25,-0.41 0.25,-0.66 v -13.83 c 0,-0.26 0.08,-0.51 0.22,-0.78 0.11,-0.25 0.3,-0.47 0.48,-0.61 l 3.44,-2.61 c 0.19,-0.15 0.44,-0.26 0.78,-0.37 0.28,-0.11 0.55,-0.14 0.8,-0.14 h 17.69 c 0.25,0 0.5,0.03 0.84,0.14 0.28,0.11 0.55,0.22 0.74,0.37 l 3.43,2.61 c 0.19,0.14 0.38,0.36 0.52,0.61 0.11,0.27 0.19,0.52 0.19,0.78 v 13.83 c 0,0.25 0.07,0.47 0.25,0.66 0.18,0.14 0.37,0.22 0.62,0.22 h 3.53 c 0.25,0 0.44,0.08 0.61,0.25 0.16,0.19 0.22,0.37 0.22,0.62 v 2.36 c 0,0.25 -0.06,0.44 -0.22,0.63 -0.17,0.14 -0.36,0.22 -0.61,0.22 z m 26.97,-4.6 c 0.18,0.16 0.43,0.27 0.78,0.38 0.28,0.11 0.55,0.14 0.8,0.14 h 18.26 c 0.27,0 0.52,-0.03 0.84,-0.11 0.33,-0.11 0.6,-0.22 0.77,-0.33 l 2.09,-1.33 c 0.19,-0.11 0.41,-0.14 0.68,-0.06 0.25,0.03 0.43,0.17 0.54,0.36 l 1.21,1.98 c 0.11,0.19 0.15,0.41 0.11,0.66 -0.04,0.22 -0.19,0.41 -0.36,0.52 l -3.08,1.93 c -0.19,0.11 -0.46,0.24 -0.78,0.35 -0.33,0.06 -0.58,0.11 -0.85,0.11 h -20.79 c -0.25,0 -0.52,-0.05 -0.8,-0.16 -0.33,-0.11 -0.59,-0.22 -0.78,-0.36 l -3.44,-2.61 c -0.19,-0.11 -0.37,-0.33 -0.48,-0.58 -0.14,-0.29 -0.22,-0.56 -0.22,-0.81 v -4.66 c 0,-0.26 0.08,-0.51 0.22,-0.78 0.11,-0.25 0.29,-0.47 0.48,-0.61 l 3.44,-2.61 c 0.19,-0.11 0.45,-0.21 0.78,-0.32 0.28,-0.11 0.55,-0.19 0.8,-0.19 h 18.96 c 0.25,0 0.52,-0.03 0.82,-0.14 0.28,-0.11 0.54,-0.22 0.73,-0.38 l 0.77,-0.54 c 0.18,-0.14 0.36,-0.38 0.51,-0.63 0.11,-0.25 0.17,-0.51 0.17,-0.76 v -0.6 c 0,-0.25 -0.06,-0.51 -0.17,-0.76 -0.15,-0.3 -0.33,-0.52 -0.51,-0.63 l -0.77,-0.59 c -0.19,-0.11 -0.45,-0.22 -0.73,-0.33 -0.3,-0.11 -0.57,-0.17 -0.82,-0.17 h -17.71 c -0.25,0 -0.52,0.03 -0.85,0.14 -0.33,0.08 -0.58,0.19 -0.76,0.29 l -2.69,1.61 c -0.17,0.11 -0.39,0.14 -0.66,0.11 -0.25,-0.07 -0.43,-0.22 -0.54,-0.4 l -1.21,-1.99 c -0.12,-0.22 -0.15,-0.43 -0.08,-0.65 0.04,-0.25 0.19,-0.44 0.41,-0.55 l 3.63,-2.2 c 0.18,-0.11 0.43,-0.22 0.76,-0.3 0.33,-0.11 0.6,-0.14 0.85,-0.14 h 20.21 c 0.25,0 0.52,0.03 0.85,0.14 0.29,0.11 0.54,0.22 0.73,0.37 l 3.44,2.61 c 0.19,0.14 0.37,0.36 0.52,0.61 0.1,0.27 0.18,0.52 0.18,0.78 v 4.66 c 0,0.25 -0.08,0.52 -0.18,0.77 -0.15,0.26 -0.33,0.48 -0.52,0.62 l -3.44,2.61 c -0.19,0.14 -0.44,0.25 -0.73,0.36 -0.33,0.11 -0.6,0.16 -0.85,0.16 h -18.96 c -0.25,0 -0.52,0.06 -0.8,0.17 -0.35,0.11 -0.6,0.22 -0.78,0.37 l -0.74,0.55 c -0.17,0.14 -0.36,0.36 -0.47,0.63 -0.15,0.25 -0.21,0.51 -0.21,0.76 v 0.59 c 0,0.25 0.06,0.52 0.21,0.77 0.11,0.25 0.3,0.48 0.47,0.63 z"
         id="path28982" />
    </clipPath>
  </defs>
  <sodipodi:namedview
     id="base"
     pagecolor="#ffffff"
     bordercolor="#666666"
     borderopacity="1.0"
     inkscape:pageopacity="0.0"
     inkscape:pageshadow="2"
     inkscape:zoom="1.4"
     inkscape:cx="73.432158"
     inkscape:cy="37.579817"
     inkscape:document-units="mm"
     inkscape:current-layer="layer1"
     showgrid="false"
     units="px"
     inkscape:window-width="1366"
     inkscape:window-height="703"
     inkscape:window-x="0"
     inkscape:window-y="0"
     inkscape:window-maximized="1"
     inkscape:document-rotation="0" />
  <metadata
     id="metadata9815">
    <rdf:RDF>
      <cc:Work
         rdf:about="">
        <dc:format>image/svg+xml</dc:format>
        <dc:type
           rdf:resource="http://purl.org/dc/dcmitype/StillImage" />
        <dc:title></dc:title>
      </cc:Work>
    </rdf:RDF>
  </metadata>
  <g
     inkscape:label="Capa 1"
     inkscape:groupmode="layer"
     id="layer1"
     transform="translate(0,-270.54165)">
    <g
       id="g163"
       transform="matrix(0.35277777,0,0,-0.35277777,-115.21114,378.62677)">
      <g
         id="g135">
        <path
           inkscape:connector-curvature="0"
           id="path460"
           style="fill:#1a1a1a;fill-opacity:1;fill-rule:nonzero;stroke:none;stroke-width:0.16091"
           d="m 387.62394,279.70826 c 0,13.008 -10.53802,23.54441 -23.53957,23.54441 v -10.86628 c 7.0012,0 12.6749,-5.6737 12.6749,-12.67813 0,-6.99799 -5.6737,-12.6749 -12.6749,-12.6749 v -10.85984 -21.66014 c 0,0 11.10764,17.76128 15.29613,23.74232 9.30706,13.28797 8.24344,21.45256 8.24344,21.45256" />
        <path
           inkscape:connector-curvature="0"
           id="path462"
           style="fill:#666666;fill-opacity:1;fill-rule:nonzero;stroke:none;stroke-width:0.16091"
           d="m 364.08437,292.38639 v 10.86628 c -13.00156,0 -23.5428,-10.53641 -23.5428,-23.54441 0,0 -1.06361,-8.16459 8.24344,-21.45256 4.19011,-5.98104 15.29936,-23.74232 15.29936,-23.74232 v 21.66014 10.85984 c -7.00282,0 -12.67652,5.67691 -12.67652,12.6749 0,7.00443 5.6737,12.67813 12.67652,12.67813" />
      </g>
      <circle
         transform="scale(1,-1)"
         r="19.153227"
         cy="-278.2258"
         cx="364.08276"
         id="path977-7"
         style="opacity:1;vector-effect:none;fill:#ffffff;fill-opacity:1;stroke:none;stroke-width:1.29139;stroke-linecap:butt;stroke-linejoin:miter;stroke-miterlimit:4;stroke-dasharray:none;stroke-dashoffset:0;stroke-opacity:1" />
    </g>
    <g
       id="g932"
       transform="matrix(0.07826362,0,0,-0.07826362,-29.80613,313.74117)"
       style="fill:#374837">
      <path
         d="m 585.716,422.048 c 5.134,3.41 8.529,9.238 8.529,15.85 0,10.488 -8.531,19.019 -19.019,19.019 -5.081,0 -9.692,-2.014 -13.107,-5.271 -1.265,-1.206 -2.357,-2.584 -3.253,-4.097 1.582,-0.64 3.088,-1.43 4.483,-2.376 0.897,1.459 2.05,2.739 3.404,3.778 2.351,1.807 5.284,2.894 8.473,2.894 7.69,0 13.947,-6.256 13.947,-13.947 0,-6.384 -4.317,-11.767 -10.181,-13.416 -1.2,-0.337 -2.46,-0.531 -3.766,-0.531 -0.449,0 -0.891,0.026 -1.329,0.067 -0.09,-1.826 -0.378,-3.597 -0.854,-5.294 0.725,0.062 1.441,0.155 2.183,0.155 1.03,0 2.04,-0.08 3.038,-0.2 12.553,-1.508 22.321,-12.205 22.321,-25.158 h 5.071 c 0,13.088 -8.322,24.24 -19.94,28.527"
         style="fill:#374837;fill-opacity:1;fill-rule:nonzero;stroke:none;stroke-width:0.1"
         id="path36" />
      <path
         d="m 524.509,418.879 c 0.74,0 1.457,-0.093 2.181,-0.155 -0.476,1.697 -0.762,3.468 -0.853,5.294 -0.438,-0.041 -0.88,-0.067 -1.328,-0.067 -1.307,0 -2.567,0.194 -3.767,0.531 -5.864,1.649 -10.181,7.032 -10.181,13.416 0,7.691 6.256,13.947 13.948,13.947 3.187,0 6.121,-1.087 8.472,-2.894 1.354,-1.039 2.507,-2.319 3.404,-3.778 1.395,0.946 2.901,1.736 4.483,2.376 -0.895,1.513 -1.988,2.891 -3.254,4.097 -3.415,3.257 -8.025,5.271 -13.105,5.271 -10.489,0 -19.02,-8.531 -19.02,-19.019 0,-6.612 3.396,-12.44 8.529,-15.85 -11.618,-4.287 -19.94,-15.439 -19.94,-28.527 h 5.071 c 0,12.953 9.768,23.65 22.322,25.158 0.998,0.12 2.007,0.2 3.038,0.2"
         style="fill:#374837;fill-opacity:1;fill-rule:nonzero;stroke:none;stroke-width:0.1"
         id="path38" />
      <path
         d="m 603.467,439.8 c 5.134,3.409 8.529,9.237 8.529,15.849 0,10.488 -8.531,19.019 -19.019,19.019 -5.081,0 -9.691,-2.014 -13.106,-5.271 -1.266,-1.206 -2.358,-2.585 -3.254,-4.097 1.582,-0.64 3.088,-1.43 4.483,-2.376 0.897,1.459 2.05,2.739 3.404,3.778 2.351,1.807 5.284,2.895 8.473,2.895 7.69,0 13.947,-6.257 13.947,-13.948 0,-5.62 -3.348,-10.457 -8.15,-12.661 0.214,-1.203 0.346,-2.434 0.346,-3.697 0,-1.153 -0.124,-2.274 -0.303,-3.377 11.171,-2.647 19.519,-12.673 19.519,-24.643 h 5.071 c 0,13.089 -8.322,24.241 -19.94,28.529"
         style="fill:#374837;fill-opacity:1;fill-rule:nonzero;stroke:none;stroke-width:0.1"
         id="path40" />
      <path
         d="m 500.614,439.291 c 0,1.263 0.132,2.494 0.345,3.697 -4.801,2.204 -8.149,7.041 -8.149,12.661 0,7.691 6.256,13.948 13.947,13.948 3.188,0 6.121,-1.088 8.473,-2.895 1.353,-1.039 2.507,-2.319 3.404,-3.778 1.395,0.946 2.901,1.736 4.483,2.376 -0.895,1.512 -1.989,2.891 -3.254,4.097 -3.415,3.257 -8.025,5.271 -13.106,5.271 -10.487,0 -19.019,-8.531 -19.019,-19.019 0,-6.612 3.395,-12.44 8.53,-15.849 -11.619,-4.288 -19.941,-15.44 -19.941,-28.529 h 5.071 c 0,11.97 8.347,21.996 19.519,24.643 -0.179,1.103 -0.303,2.224 -0.303,3.377"
         style="fill:#374837;fill-opacity:1;fill-rule:nonzero;stroke:none;stroke-width:0.1"
         id="path42" />
      <path
         d="m 549.867,469.597 c 6.781,0 12.387,-4.888 13.63,-11.311 2.777,1.674 4.781,2.049 4.781,2.049 -2.095,8.225 -9.543,14.333 -18.411,14.333 -8.868,0 -16.315,-6.108 -18.411,-14.333 0,0 2.004,-0.375 4.78,-2.049 1.244,6.423 6.85,11.311 13.631,11.311"
         style="fill:#374837;fill-opacity:1;fill-rule:nonzero;stroke:none;stroke-width:0.1"
         id="path44" />
      <path
         d="m 522.838,381.365 c 2.816,13.409 14.731,23.511 28.964,23.511 14.234,0 26.148,-10.102 28.965,-23.511 z m 7.785,37.113 c 2.437,2.02 4.746,4.79 4.896,8.477 0.379,9.197 7.53,16.402 16.283,16.402 8.66,0 15.512,-6.948 16.289,-16.521 0.292,-3.588 2.642,-6.214 4.952,-8.112 -2.677,-0.948 -5.51,-2.224 -8.288,-3.476 -4.856,-2.188 -9.88,-4.452 -12.953,-4.452 -2.682,0 -7.059,1.925 -11.291,3.788 -3.275,1.44 -6.613,2.909 -9.888,3.894 z m 33.576,-9.958 c 0.985,0.433 1.979,0.876 2.988,1.331 4.284,1.928 8.709,3.924 11.863,4.379 2.364,0.342 2.979,1.91 3.133,2.567 0.544,2.297 -1.278,3.559 -3.038,4.779 -1.859,1.287 -4.966,3.441 -5.151,5.74 -1.035,12.725 -10.369,21.961 -22.192,21.961 -11.938,0 -21.688,-9.698 -22.197,-22.079 -0.113,-2.71 -4.009,-5.169 -6.102,-6.489 -1.688,-1.065 -3.599,-2.27 -2.96,-4.611 0.188,-0.685 0.89,-2.284 3.399,-2.359 4.064,-0.121 9.21,-2.385 14.185,-4.574 0.464,-0.205 0.924,-0.406 1.383,-0.607 -13.537,-5.016 -23.228,-18.022 -23.228,-33.282 h 1.978 3.942 59.2 3.943 1.977 c 0,15.221 -9.64,28.198 -23.123,33.244"
         style="fill:#374837;fill-opacity:1;fill-rule:nonzero;stroke:none;stroke-width:0.1"
         id="path64" />
    </g>
  </g>
</svg>
