<?xml version="1.0" encoding="UTF-8" standalone="no"?>
<svg
   xmlns:dc="http://purl.org/dc/elements/1.1/"
   xmlns:cc="http://creativecommons.org/ns#"
   xmlns:rdf="http://www.w3.org/1999/02/22-rdf-syntax-ns#"
   xmlns:svg="http://www.w3.org/2000/svg"
   xmlns="http://www.w3.org/2000/svg"
   xmlns:sodipodi="http://sodipodi.sourceforge.net/DTD/sodipodi-0.dtd"
   xmlns:inkscape="http://www.inkscape.org/namespaces/inkscape"
   width="100"
   height="100"
   viewBox="0 0 26.458333 26.458334"
   version="1.1"
   id="svg9818"
   inkscape:version="1.0.2 (e86c870879, 2021-01-15)"
   sodipodi:docname="Espacio verde.svg">
  <defs
     id="defs9812">
    <clipPath
       clipPathUnits="userSpaceOnUse"
       id="clipPath1290">
      <path
         d="m 3584.79,2009.38 c -1.96,1.17 -3.62,2.19 -5,3.05 h 2.02 c 1.67,-1.18 2.94,-2.33 2.98,-3.05"
         id="path1288" />
    </clipPath>
    <clipPath
       clipPathUnits="userSpaceOnUse"
       id="clipPath1306">
      <path
         d="m 3584.79,2009.38 c -1.96,1.17 -3.62,2.19 -5,3.05 h 2.02 c 1.67,-1.18 2.94,-2.33 2.98,-3.05"
         id="path1304" />
    </clipPath>
    <clipPath
       clipPathUnits="userSpaceOnUse"
       id="clipPath1312">
      <path
         d="m 3429.89,2012.09 c -0.25,0 -0.43,-0.08 -0.62,-0.22 -0.17,-0.19 -0.25,-0.38 -0.25,-0.63 v -5.11 c 0,-0.25 0.08,-0.43 0.25,-0.62 0.19,-0.17 0.37,-0.25 0.62,-0.25 h 2.32 c 0.26,0 0.43,0.08 0.62,0.25 0.19,0.19 0.25,0.37 0.25,0.62 v 1 c 0,0.25 0.08,0.47 0.27,0.66 0.19,0.14 0.36,0.22 0.62,0.22 h 8.44 c 0.25,0 0.44,-0.08 0.63,-0.22 0.17,-0.19 0.25,-0.41 0.25,-0.66 v -13.39 c 0,-0.26 -0.08,-0.44 -0.25,-0.62 -0.19,-0.19 -0.38,-0.25 -0.63,-0.25 h -3.48 c -0.27,0 -0.46,-0.08 -0.63,-0.27 -0.19,-0.19 -0.26,-0.36 -0.26,-0.62 v -2.32 c 0,-0.25 0.07,-0.43 0.26,-0.62 0.17,-0.17 0.36,-0.25 0.63,-0.25 h 12.82 c 0.27,0 0.44,0.08 0.63,0.25 0.16,0.19 0.22,0.37 0.22,0.62 v 2.32 c 0,0.26 -0.06,0.43 -0.22,0.62 -0.19,0.19 -0.36,0.27 -0.63,0.27 h -3.51 c -0.27,0 -0.44,0.06 -0.63,0.25 -0.18,0.18 -0.25,0.36 -0.25,0.62 v 13.39 c 0,0.25 0.07,0.47 0.25,0.66 0.19,0.14 0.36,0.22 0.63,0.22 h 8.47 c 0.26,0 0.43,-0.08 0.62,-0.22 0.14,-0.19 0.22,-0.41 0.22,-0.66 v -0.84 c 0,-0.27 0.08,-0.44 0.27,-0.63 0.17,-0.18 0.36,-0.26 0.61,-0.26 h 2.36 c 0.25,0 0.43,0.08 0.62,0.26 0.17,0.19 0.25,0.36 0.25,0.63 v 4.95 c 0,0.25 -0.08,0.44 -0.25,0.63 -0.19,0.14 -0.37,0.22 -0.62,0.22 z m 64.56,0 c -0.25,0 -0.44,-0.08 -0.63,-0.22 -0.17,-0.19 -0.25,-0.38 -0.25,-0.63 v -2.36 c 0,-0.25 0.08,-0.43 0.25,-0.62 0.19,-0.17 0.38,-0.25 0.63,-0.25 h 3.48 c 0.27,0 0.49,-0.08 0.66,-0.22 0.16,-0.19 0.23,-0.41 0.23,-0.66 v -4.08 c 0,-0.25 -0.07,-0.43 -0.23,-0.62 -0.17,-0.17 -0.39,-0.25 -0.66,-0.25 h -18.34 c -0.25,0 -0.44,0.08 -0.61,0.25 -0.19,0.19 -0.27,0.37 -0.27,0.62 v 4.08 c 0,0.25 0.08,0.47 0.27,0.66 0.17,0.14 0.36,0.22 0.61,0.22 h 3.48 c 0.27,0 0.46,0.08 0.63,0.25 0.19,0.19 0.26,0.37 0.26,0.62 v 2.36 c 0,0.25 -0.07,0.44 -0.26,0.63 -0.17,0.14 -0.36,0.22 -0.63,0.22 h -12.79 c -0.25,0 -0.44,-0.08 -0.63,-0.22 -0.17,-0.19 -0.25,-0.38 -0.25,-0.63 v -2.36 c 0,-0.25 0.08,-0.43 0.25,-0.62 0.19,-0.17 0.38,-0.25 0.63,-0.25 h 3.48 c 0.27,0 0.44,-0.08 0.63,-0.22 0.18,-0.19 0.26,-0.41 0.26,-0.66 v -13.39 c 0,-0.26 -0.08,-0.44 -0.26,-0.62 -0.19,-0.19 -0.36,-0.25 -0.63,-0.25 h -3.48 c -0.25,0 -0.44,-0.08 -0.63,-0.27 -0.17,-0.19 -0.25,-0.36 -0.25,-0.62 v -2.32 c 0,-0.25 0.08,-0.43 0.25,-0.62 0.19,-0.17 0.38,-0.25 0.63,-0.25 h 12.79 c 0.27,0 0.46,0.08 0.63,0.25 0.19,0.19 0.26,0.37 0.26,0.62 v 2.32 c 0,0.26 -0.07,0.43 -0.26,0.62 -0.17,0.19 -0.36,0.27 -0.63,0.27 h -3.48 c -0.25,0 -0.44,0.06 -0.61,0.25 -0.19,0.18 -0.27,0.36 -0.27,0.62 v 4.06 c 0,0.27 0.08,0.46 0.27,0.63 0.17,0.19 0.36,0.27 0.61,0.27 h 18.34 c 0.27,0 0.49,-0.08 0.66,-0.27 0.16,-0.17 0.23,-0.36 0.23,-0.63 v -4.06 c 0,-0.26 -0.07,-0.44 -0.23,-0.62 -0.17,-0.19 -0.39,-0.25 -0.66,-0.25 h -3.48 c -0.25,0 -0.44,-0.08 -0.63,-0.27 -0.17,-0.19 -0.25,-0.36 -0.25,-0.62 v -2.32 c 0,-0.25 0.08,-0.43 0.25,-0.62 0.19,-0.17 0.38,-0.25 0.63,-0.25 h 12.84 c 0.25,0 0.44,0.08 0.63,0.25 0.17,0.19 0.25,0.37 0.25,0.62 v 2.32 c 0,0.26 -0.08,0.43 -0.25,0.62 -0.19,0.19 -0.38,0.27 -0.63,0.27 h -3.53 c -0.25,0 -0.44,0.06 -0.58,0.25 -0.18,0.18 -0.26,0.36 -0.26,0.62 v 13.39 c 0,0.25 0.08,0.47 0.26,0.66 0.14,0.14 0.33,0.22 0.58,0.22 h 3.53 c 0.25,0 0.44,0.08 0.63,0.25 0.17,0.19 0.25,0.37 0.25,0.62 v 2.36 c 0,0.25 -0.08,0.44 -0.25,0.63 -0.19,0.14 -0.38,0.22 -0.63,0.22 z m 23.38,0 c -0.25,0 -0.44,-0.08 -0.63,-0.22 -0.17,-0.19 -0.25,-0.38 -0.25,-0.63 v -2.36 c 0,-0.25 0.08,-0.43 0.25,-0.62 0.19,-0.17 0.38,-0.25 0.63,-0.25 h 3.48 c 0.27,0 0.44,-0.08 0.63,-0.22 0.19,-0.19 0.26,-0.41 0.26,-0.66 v -13.39 c 0,-0.26 -0.07,-0.44 -0.26,-0.62 -0.19,-0.19 -0.36,-0.25 -0.63,-0.25 h -3.48 c -0.25,0 -0.44,-0.08 -0.63,-0.27 -0.17,-0.19 -0.25,-0.36 -0.25,-0.62 v -2.32 c 0,-0.25 0.08,-0.43 0.25,-0.62 0.19,-0.17 0.38,-0.25 0.63,-0.25 h 31 c 0.25,0 0.44,0.08 0.62,0.25 0.18,0.19 0.25,0.37 0.25,0.62 v 5.5 c 0,0.27 -0.07,0.46 -0.25,0.63 -0.18,0.19 -0.37,0.26 -0.62,0.26 h -2.35 c -0.26,0 -0.45,-0.07 -0.62,-0.26 -0.19,-0.17 -0.27,-0.36 -0.27,-0.63 v -1.42 c 0,-0.26 -0.06,-0.44 -0.21,-0.62 -0.19,-0.19 -0.36,-0.25 -0.63,-0.25 h -17.61 c -0.25,0 -0.44,0.06 -0.61,0.25 -0.19,0.18 -0.26,0.36 -0.26,0.62 v 4.14 c 0,0.27 0.07,0.49 0.26,0.66 0.17,0.16 0.36,0.22 0.61,0.22 h 9.39 c 0.27,0 0.45,0.08 0.63,0.26 0.18,0.19 0.26,0.36 0.26,0.63 v 1.76 c 0,0.25 -0.08,0.44 -0.26,0.61 -0.18,0.19 -0.36,0.27 -0.63,0.27 h -9.39 c -0.25,0 -0.44,0.08 -0.61,0.25 -0.19,0.16 -0.26,0.33 -0.26,0.59 v 4 c 0,0.25 0.07,0.47 0.26,0.66 0.17,0.14 0.36,0.22 0.61,0.22 h 17.61 c 0.27,0 0.44,-0.08 0.63,-0.22 0.15,-0.19 0.21,-0.41 0.21,-0.66 v -0.89 c 0,-0.25 0.08,-0.47 0.27,-0.62 0.17,-0.17 0.36,-0.25 0.62,-0.25 h 2.35 c 0.25,0 0.44,0.08 0.62,0.25 0.18,0.15 0.25,0.37 0.25,0.62 v 4.92 c 0,0.25 -0.07,0.47 -0.25,0.66 -0.18,0.19 -0.37,0.27 -0.62,0.27 z m 91.22,0.11 c -0.26,0 -0.48,-0.08 -0.7,-0.27 -0.22,-0.19 -0.36,-0.36 -0.44,-0.58 l -0.03,-0.08 c -0.08,-0.22 -0.15,-0.32 -0.26,-0.32 -0.11,0 -0.19,0.1 -0.25,0.32 -0.08,0.22 -0.22,0.41 -0.44,0.6 -0.22,0.14 -0.45,0.22 -0.7,0.22 h -20.69 c -0.25,0 -0.52,-0.05 -0.77,-0.16 -0.29,-0.11 -0.54,-0.25 -0.73,-0.41 l -2.86,-2.59 c -0.19,-0.19 -0.38,-0.41 -0.48,-0.67 -0.11,-0.28 -0.19,-0.55 -0.19,-0.8 v -14.05 c 0,-0.26 0.08,-0.51 0.19,-0.78 0.1,-0.28 0.29,-0.5 0.48,-0.68 l 2.86,-2.57 c 0.19,-0.18 0.44,-0.29 0.73,-0.4 0.25,-0.11 0.52,-0.19 0.77,-0.19 h 21.67 c 0.27,0 0.52,0.08 0.81,0.19 0.3,0.11 0.55,0.22 0.74,0.4 l 2.86,2.57 c 0.18,0.18 0.37,0.4 0.48,0.68 0.11,0.27 0.17,0.52 0.17,0.78 v 1.36 c 0,0.25 -0.06,0.44 -0.25,0.63 -0.18,0.17 -0.37,0.25 -0.62,0.25 h -2.35 c -0.26,0 -0.43,-0.08 -0.59,-0.19 -0.19,-0.11 -0.25,-0.3 -0.25,-0.47 0,-0.19 -0.08,-0.37 -0.19,-0.59 -0.11,-0.25 -0.29,-0.44 -0.47,-0.63 l -0.37,-0.32 c -0.19,-0.19 -0.44,-0.3 -0.7,-0.41 -0.28,-0.11 -0.55,-0.17 -0.8,-0.17 h -18.56 c -0.25,0 -0.52,0.06 -0.82,0.17 -0.28,0.11 -0.5,0.22 -0.68,0.41 l -0.38,0.32 c -0.17,0.19 -0.36,0.41 -0.47,0.71 -0.11,0.25 -0.18,0.51 -0.18,0.76 v 10.42 c 0,0.25 0.07,0.52 0.18,0.8 0.11,0.27 0.3,0.49 0.47,0.67 l 0.38,0.28 c 0.18,0.19 0.4,0.35 0.68,0.46 0.3,0.11 0.57,0.14 0.82,0.14 h 20.25 c 0.25,0 0.43,-0.08 0.62,-0.22 0.14,-0.19 0.22,-0.38 0.22,-0.59 v -1.4 c 0,-0.14 0.06,-0.25 0.25,-0.35 0.16,-0.11 0.33,-0.19 0.59,-0.19 h 2.35 c 0.25,0.03 0.44,0.11 0.62,0.29 0.19,0.15 0.25,0.33 0.25,0.58 v 5.17 c 0,0.27 -0.06,0.44 -0.25,0.63 -0.18,0.19 -0.37,0.27 -0.62,0.27 z m 11.75,-3.24 c 0,-0.25 0.08,-0.47 0.25,-0.62 0.19,-0.19 0.38,-0.25 0.63,-0.25 h 3.48 c 0.27,0 0.44,-0.08 0.63,-0.27 0.18,-0.17 0.26,-0.36 0.26,-0.62 v -13.46 c 0,-0.26 -0.08,-0.44 -0.26,-0.62 -0.19,-0.19 -0.36,-0.25 -0.63,-0.25 h -3.48 c -0.25,0 -0.44,-0.08 -0.63,-0.27 -0.17,-0.19 -0.25,-0.36 -0.25,-0.62 v -2.32 c 0,-0.25 0.08,-0.43 0.25,-0.62 0.19,-0.17 0.38,-0.25 0.63,-0.25 h 12.79 c 0.27,0 0.46,0.08 0.63,0.25 0.19,0.19 0.26,0.37 0.26,0.62 v 2.32 c 0,0.26 -0.07,0.43 -0.26,0.62 -0.17,0.19 -0.36,0.27 -0.63,0.27 h -3.48 c -0.25,0 -0.44,0.06 -0.61,0.25 -0.19,0.18 -0.27,0.36 -0.27,0.62 v 13.46 c 0,0.26 0.08,0.45 0.27,0.62 0.17,0.19 0.36,0.27 0.61,0.27 h 3.48 c 0.27,0 0.46,0.06 0.63,0.25 0.19,0.15 0.26,0.37 0.26,0.62 v 2.31 c 0,0.25 -0.07,0.44 -0.26,0.63 -0.17,0.19 -0.36,0.25 -0.63,0.25 h -12.79 c -0.25,0 -0.44,-0.06 -0.63,-0.25 -0.17,-0.19 -0.25,-0.38 -0.25,-0.63 z m 23.01,3.13 c -0.25,0 -0.43,-0.08 -0.62,-0.22 -0.17,-0.19 -0.25,-0.38 -0.25,-0.63 v -5.11 c 0,-0.25 0.08,-0.43 0.25,-0.62 0.19,-0.17 0.37,-0.25 0.62,-0.25 h 2.32 c 0.26,0 0.43,0.08 0.62,0.25 0.19,0.19 0.25,0.37 0.25,0.62 v 1 c 0,0.25 0.08,0.47 0.27,0.66 0.18,0.14 0.36,0.22 0.62,0.22 h 8.44 c 0.25,0 0.44,-0.08 0.62,-0.22 0.18,-0.19 0.25,-0.41 0.25,-0.66 v -13.39 c 0,-0.26 -0.07,-0.44 -0.25,-0.62 -0.18,-0.19 -0.37,-0.25 -0.62,-0.25 h -3.49 c -0.26,0 -0.45,-0.08 -0.62,-0.27 -0.19,-0.19 -0.27,-0.36 -0.27,-0.62 v -2.32 c 0,-0.25 0.08,-0.43 0.27,-0.62 0.17,-0.17 0.36,-0.25 0.62,-0.25 h 12.83 c 0.27,0 0.44,0.08 0.63,0.25 0.15,0.19 0.22,0.37 0.22,0.62 v 2.32 c 0,0.26 -0.07,0.43 -0.22,0.62 -0.19,0.19 -0.36,0.27 -0.63,0.27 h -3.51 c -0.27,0 -0.44,0.06 -0.63,0.25 -0.19,0.18 -0.25,0.36 -0.25,0.62 v 13.39 c 0,0.25 0.06,0.47 0.25,0.66 0.19,0.14 0.36,0.22 0.63,0.22 h 8.47 c 0.26,0 0.43,-0.08 0.62,-0.22 0.14,-0.19 0.22,-0.41 0.22,-0.66 v -0.84 c 0,-0.27 0.08,-0.44 0.26,-0.63 0.18,-0.18 0.36,-0.26 0.61,-0.26 h 2.36 c 0.25,0 0.44,0.08 0.63,0.26 0.17,0.19 0.25,0.36 0.25,0.63 v 4.95 c 0,0.25 -0.08,0.44 -0.25,0.63 -0.19,0.14 -0.38,0.22 -0.63,0.22 z m 60.67,-3.21 c 0,-0.25 0.08,-0.43 0.27,-0.58 0.14,-0.18 0.36,-0.26 0.62,-0.26 h 2.16 c 0.26,0 0.4,-0.06 0.43,-0.17 0.05,-0.11 -0.03,-0.27 -0.21,-0.41 l -6.79,-6.09 c -0.18,-0.19 -0.4,-0.25 -0.65,-0.25 -0.27,0 -0.49,0.06 -0.67,0.25 l -6.78,6.09 c -0.19,0.14 -0.22,0.3 -0.19,0.41 0.04,0.11 0.19,0.17 0.45,0.17 h 2.02 c 0.25,0 0.47,0.08 0.65,0.26 0.14,0.15 0.22,0.33 0.22,0.58 v 2.36 c 0,0.25 -0.08,0.44 -0.22,0.63 -0.18,0.14 -0.4,0.22 -0.65,0.22 h -11.93 c -0.26,0 -0.43,-0.08 -0.62,-0.22 -0.19,-0.19 -0.25,-0.38 -0.25,-0.63 v -2.36 c 0,-0.25 0.06,-0.43 0.25,-0.58 0.19,-0.18 0.36,-0.26 0.62,-0.26 h 2.9 c 0.26,0 0.51,-0.03 0.81,-0.14 0.29,-0.11 0.54,-0.25 0.73,-0.44 l 10.19,-8.92 c 0.19,-0.17 0.37,-0.39 0.48,-0.66 0.11,-0.25 0.19,-0.51 0.19,-0.76 v -3.38 c 0,-0.26 -0.08,-0.44 -0.26,-0.62 -0.18,-0.19 -0.36,-0.25 -0.63,-0.25 h -4.5 c -0.26,0 -0.45,-0.08 -0.62,-0.27 -0.19,-0.19 -0.27,-0.36 -0.27,-0.62 v -2.32 c 0,-0.25 0.08,-0.43 0.27,-0.62 0.17,-0.17 0.36,-0.25 0.62,-0.25 h 14.27 c 0.25,0 0.43,0.08 0.62,0.25 0.17,0.19 0.25,0.37 0.25,0.62 v 2.32 c 0,0.26 -0.08,0.43 -0.25,0.62 -0.19,0.19 -0.37,0.27 -0.62,0.27 h -4.52 c -0.25,0 -0.44,0.06 -0.62,0.25 -0.19,0.18 -0.25,0.36 -0.25,0.62 v 3.27 c 0,0.25 0.06,0.51 0.17,0.79 0.11,0.27 0.29,0.49 0.48,0.63 l 10.31,9.03 c 0.18,0.19 0.44,0.33 0.74,0.44 0.28,0.11 0.55,0.14 0.8,0.14 h 2.79 c 0.25,0 0.44,0.08 0.61,0.26 0.19,0.15 0.27,0.33 0.27,0.58 v 2.36 c 0,0.25 -0.08,0.44 -0.27,0.63 -0.17,0.14 -0.36,0.22 -0.61,0.22 h -11.92 c -0.26,0 -0.48,-0.08 -0.62,-0.22 -0.19,-0.19 -0.27,-0.38 -0.27,-0.63 z m 44.54,3.24 c -0.25,0 -0.44,-0.08 -0.63,-0.25 -0.17,-0.19 -0.25,-0.38 -0.25,-0.63 v -2.36 c 0,-0.25 0.08,-0.43 0.25,-0.62 0.19,-0.17 0.38,-0.25 0.63,-0.25 h 3.48 c 0.27,0 0.44,-0.08 0.63,-0.25 0.19,-0.19 0.26,-0.38 0.26,-0.63 v -13.39 c 0,-0.26 -0.07,-0.44 -0.26,-0.62 -0.19,-0.19 -0.36,-0.25 -0.63,-0.25 h -3.48 c -0.25,0 -0.44,-0.08 -0.63,-0.27 -0.17,-0.19 -0.25,-0.36 -0.25,-0.62 v -2.32 c 0,-0.25 0.08,-0.43 0.25,-0.62 0.19,-0.17 0.38,-0.25 0.63,-0.25 h 27.19 c 0.25,0 0.51,0.03 0.84,0.14 0.28,0.11 0.55,0.22 0.74,0.37 l 3.43,2.61 c 0.19,0.14 0.38,0.36 0.52,0.61 0.11,0.27 0.19,0.52 0.19,0.78 v 4.66 c 0,0.25 -0.08,0.52 -0.19,0.77 -0.14,0.26 -0.33,0.48 -0.52,0.62 l -0.76,0.6 c -0.19,0.1 -0.3,0.28 -0.3,0.5 0,0.18 0.11,0.37 0.3,0.51 l 0.76,0.56 c 0.19,0.14 0.38,0.36 0.52,0.61 0.11,0.27 0.19,0.57 0.19,0.82 v 4.65 c 0,0.27 -0.08,0.52 -0.19,0.78 -0.14,0.25 -0.33,0.47 -0.52,0.61 l -3.43,2.58 c -0.19,0.14 -0.46,0.3 -0.74,0.41 -0.33,0.11 -0.59,0.14 -0.84,0.14 z m 28.83,-16.77 c 0,-0.25 -0.06,-0.51 -0.17,-0.76 -0.16,-0.3 -0.35,-0.52 -0.52,-0.63 l -0.73,-0.59 c -0.19,-0.11 -0.44,-0.22 -0.74,-0.33 -0.33,-0.11 -0.59,-0.17 -0.84,-0.17 h -16.52 c -0.25,0 -0.44,0.06 -0.61,0.25 -0.18,0.18 -0.26,0.36 -0.26,0.62 v 4.11 c 0,0.25 0.08,0.44 0.26,0.63 0.17,0.17 0.36,0.25 0.61,0.25 h 16.03 c 0.27,0 0.55,-0.03 0.85,-0.14 0.29,-0.11 0.54,-0.22 0.73,-0.38 l 1.22,-0.87 c 0.17,-0.14 0.36,-0.38 0.52,-0.63 0.11,-0.25 0.17,-0.51 0.17,-0.76 z m 0,9.61 c 0,-0.25 -0.06,-0.51 -0.17,-0.76 -0.16,-0.27 -0.35,-0.49 -0.52,-0.63 l -1.11,-0.81 c -0.17,-0.14 -0.44,-0.25 -0.73,-0.36 -0.33,-0.11 -0.58,-0.19 -0.85,-0.19 h -16.14 c -0.25,0 -0.44,0.08 -0.61,0.27 -0.18,0.17 -0.26,0.36 -0.26,0.61 v 4.04 c 0,0.25 0.08,0.44 0.26,0.63 0.17,0.17 0.36,0.25 0.61,0.25 h 16.52 c 0.25,0 0.51,-0.03 0.84,-0.14 0.3,-0.11 0.55,-0.22 0.74,-0.38 l 0.73,-0.54 c 0.17,-0.15 0.36,-0.38 0.52,-0.63 0.11,-0.25 0.17,-0.52 0.17,-0.77 z m 37.89,7.13 c -0.27,0 -0.44,-0.08 -0.63,-0.22 -0.18,-0.19 -0.25,-0.38 -0.25,-0.63 v -2.36 c 0,-0.25 0.07,-0.43 0.25,-0.62 0.19,-0.17 0.36,-0.25 0.63,-0.25 h 3.48 c 0.25,0 0.44,-0.08 0.63,-0.22 0.19,-0.19 0.25,-0.41 0.25,-0.66 v -11.78 c 0,-0.25 -0.06,-0.51 -0.17,-0.76 -0.16,-0.3 -0.35,-0.52 -0.52,-0.63 l -0.73,-0.59 c -0.19,-0.11 -0.44,-0.22 -0.74,-0.33 -0.33,-0.11 -0.59,-0.17 -0.84,-0.17 h -14.97 c -0.25,0 -0.52,0.06 -0.81,0.17 -0.33,0.11 -0.58,0.22 -0.77,0.33 l -0.73,0.59 c -0.19,0.11 -0.36,0.33 -0.47,0.63 -0.16,0.25 -0.22,0.51 -0.22,0.76 v 11.78 c 0,0.25 0.06,0.47 0.25,0.66 0.19,0.14 0.36,0.22 0.62,0.22 h 3.49 c 0.25,0 0.44,0.08 0.62,0.25 0.19,0.19 0.25,0.37 0.25,0.62 v 2.36 c 0,0.25 -0.06,0.44 -0.25,0.63 -0.18,0.14 -0.37,0.22 -0.62,0.22 h -12.8 c -0.26,0 -0.45,-0.08 -0.62,-0.22 -0.19,-0.19 -0.27,-0.38 -0.27,-0.63 v -2.36 c 0,-0.25 0.08,-0.43 0.27,-0.62 0.17,-0.17 0.36,-0.25 0.62,-0.25 h 3.49 c 0.25,0 0.43,-0.08 0.62,-0.22 0.17,-0.19 0.25,-0.41 0.25,-0.66 v -13.83 c 0,-0.26 0.08,-0.51 0.22,-0.78 0.11,-0.25 0.3,-0.47 0.48,-0.61 l 3.44,-2.61 c 0.19,-0.15 0.44,-0.26 0.78,-0.37 0.28,-0.11 0.55,-0.14 0.8,-0.14 h 17.69 c 0.25,0 0.5,0.03 0.84,0.14 0.28,0.11 0.55,0.22 0.74,0.37 l 3.43,2.61 c 0.19,0.14 0.38,0.36 0.52,0.61 0.11,0.27 0.19,0.52 0.19,0.78 v 13.83 c 0,0.25 0.07,0.47 0.25,0.66 0.18,0.14 0.37,0.22 0.62,0.22 h 3.53 c 0.25,0 0.44,0.08 0.61,0.25 0.16,0.19 0.22,0.37 0.22,0.62 v 2.36 c 0,0.25 -0.06,0.44 -0.22,0.63 -0.17,0.14 -0.36,0.22 -0.61,0.22 z m 26.97,-4.6 c 0.18,0.16 0.43,0.27 0.78,0.38 0.28,0.11 0.55,0.14 0.8,0.14 h 18.26 c 0.27,0 0.52,-0.03 0.84,-0.11 0.33,-0.11 0.6,-0.22 0.77,-0.33 l 2.09,-1.33 c 0.19,-0.11 0.41,-0.14 0.68,-0.06 0.25,0.03 0.43,0.17 0.54,0.36 l 1.21,1.98 c 0.11,0.19 0.15,0.41 0.11,0.66 -0.04,0.22 -0.19,0.41 -0.36,0.52 l -3.08,1.93 c -0.19,0.11 -0.46,0.24 -0.78,0.35 -0.33,0.06 -0.58,0.11 -0.85,0.11 h -20.79 c -0.25,0 -0.52,-0.05 -0.8,-0.16 -0.33,-0.11 -0.59,-0.22 -0.78,-0.36 l -3.44,-2.61 c -0.19,-0.11 -0.37,-0.33 -0.48,-0.58 -0.14,-0.29 -0.22,-0.56 -0.22,-0.81 v -4.66 c 0,-0.26 0.08,-0.51 0.22,-0.78 0.11,-0.25 0.29,-0.47 0.48,-0.61 l 3.44,-2.61 c 0.19,-0.11 0.45,-0.21 0.78,-0.32 0.28,-0.11 0.55,-0.19 0.8,-0.19 h 18.96 c 0.25,0 0.52,-0.03 0.82,-0.14 0.28,-0.11 0.54,-0.22 0.73,-0.38 l 0.77,-0.54 c 0.18,-0.14 0.36,-0.38 0.51,-0.63 0.11,-0.25 0.17,-0.51 0.17,-0.76 v -0.6 c 0,-0.25 -0.06,-0.51 -0.17,-0.76 -0.15,-0.3 -0.33,-0.52 -0.51,-0.63 l -0.77,-0.59 c -0.19,-0.11 -0.45,-0.22 -0.73,-0.33 -0.3,-0.11 -0.57,-0.17 -0.82,-0.17 h -17.71 c -0.25,0 -0.52,0.03 -0.85,0.14 -0.33,0.08 -0.58,0.19 -0.76,0.29 l -2.69,1.61 c -0.17,0.11 -0.39,0.14 -0.66,0.11 -0.25,-0.07 -0.43,-0.22 -0.54,-0.4 l -1.21,-1.99 c -0.12,-0.22 -0.15,-0.43 -0.08,-0.65 0.04,-0.25 0.19,-0.44 0.41,-0.55 l 3.63,-2.2 c 0.18,-0.11 0.43,-0.22 0.76,-0.3 0.33,-0.11 0.6,-0.14 0.85,-0.14 h 20.21 c 0.25,0 0.52,0.03 0.85,0.14 0.29,0.11 0.54,0.22 0.73,0.37 l 3.44,2.61 c 0.19,0.14 0.37,0.36 0.52,0.61 0.1,0.27 0.18,0.52 0.18,0.78 v 4.66 c 0,0.25 -0.08,0.52 -0.18,0.77 -0.15,0.26 -0.33,0.48 -0.52,0.62 l -3.44,2.61 c -0.19,0.14 -0.44,0.25 -0.73,0.36 -0.33,0.11 -0.6,0.16 -0.85,0.16 h -18.96 c -0.25,0 -0.52,0.06 -0.8,0.17 -0.35,0.11 -0.6,0.22 -0.78,0.37 l -0.74,0.55 c -0.17,0.14 -0.36,0.36 -0.47,0.63 -0.15,0.25 -0.21,0.51 -0.21,0.76 v 0.59 c 0,0.25 0.06,0.52 0.21,0.77 0.11,0.25 0.3,0.48 0.47,0.63 z"
         id="path1310" />
    </clipPath>
    <clipPath
       clipPathUnits="userSpaceOnUse"
       id="clipPath7786">
      <path
         d="m 3690.58,1208.17 c 0,1.81 0.95,3.09 2.4,3.94 -0.2,-0.49 -0.3,-1.04 -0.3,-1.65 7.32,0.27 11.81,0.86 14.29,1.56 1.69,-1.39 -1.43,-3.3 -16.39,-3.85"
         id="path7784" />
    </clipPath>
    <clipPath
       clipPathUnits="userSpaceOnUse"
       id="clipPath14704">
      <path
         d="m 3706.97,1212.02 c -1.06,0.88 -4.05,1.56 -7.19,1.56 -2.46,0 -5.01,-0.41 -6.8,-1.47 1.12,2.78 5.13,3.76 8.92,3.76 5.69,0 10.9,-2.21 5.07,-3.85"
         id="path14702" />
    </clipPath>
    <clipPath
       clipPathUnits="userSpaceOnUse"
       id="clipPath14720">
      <path
         d="m 3692.68,1210.46 c 0,0.61 0.1,1.16 0.3,1.65 1.79,1.06 4.34,1.47 6.8,1.47 3.14,0 6.13,-0.68 7.19,-1.56 -2.48,-0.7 -6.97,-1.29 -14.29,-1.56"
         id="path14718" />
    </clipPath>
    <clipPath
       clipPathUnits="userSpaceOnUse"
       id="clipPath27714">
      <path
         d="m 3654.18,1231.89 c -0.07,0 -0.1,0.43 -0.08,1.48 h 0.4 c -0.13,-0.89 -0.25,-1.48 -0.32,-1.48"
         id="path27712" />
    </clipPath>
    <clipPath
       clipPathUnits="userSpaceOnUse"
       id="clipPath28962">
      <path
         d="m 3494.52,1991.48 c -0.31,0 -0.32,1.81 -0.19,3.62 0.14,1.81 0.42,3.62 0.72,3.62 0.22,0 0.46,-0.97 0.64,-3.61 -0.58,-2.66 -0.95,-3.63 -1.17,-3.63"
         id="path28960" />
    </clipPath>
    <clipPath
       clipPathUnits="userSpaceOnUse"
       id="clipPath28978">
      <path
         d="m 3494.52,1991.48 c -0.31,0 -0.32,1.81 -0.19,3.62 0.14,1.81 0.42,3.62 0.72,3.62 0.22,0 0.46,-0.97 0.64,-3.61 -0.58,-2.66 -0.95,-3.63 -1.17,-3.63"
         id="path28976" />
    </clipPath>
    <clipPath
       clipPathUnits="userSpaceOnUse"
       id="clipPath28984">
      <path
         d="m 3429.89,2012.09 c -0.25,0 -0.43,-0.08 -0.62,-0.22 -0.17,-0.19 -0.25,-0.38 -0.25,-0.63 v -5.11 c 0,-0.25 0.08,-0.43 0.25,-0.62 0.19,-0.17 0.37,-0.25 0.62,-0.25 h 2.32 c 0.26,0 0.43,0.08 0.62,0.25 0.19,0.19 0.25,0.37 0.25,0.62 v 1 c 0,0.25 0.08,0.47 0.27,0.66 0.19,0.14 0.36,0.22 0.62,0.22 h 8.44 c 0.25,0 0.44,-0.08 0.63,-0.22 0.17,-0.19 0.25,-0.41 0.25,-0.66 v -13.39 c 0,-0.26 -0.08,-0.44 -0.25,-0.62 -0.19,-0.19 -0.38,-0.25 -0.63,-0.25 h -3.48 c -0.27,0 -0.46,-0.08 -0.63,-0.27 -0.19,-0.19 -0.26,-0.36 -0.26,-0.62 v -2.32 c 0,-0.25 0.07,-0.43 0.26,-0.62 0.17,-0.17 0.36,-0.25 0.63,-0.25 h 12.82 c 0.27,0 0.44,0.08 0.63,0.25 0.16,0.19 0.22,0.37 0.22,0.62 v 2.32 c 0,0.26 -0.06,0.43 -0.22,0.62 -0.19,0.19 -0.36,0.27 -0.63,0.27 h -3.51 c -0.27,0 -0.44,0.06 -0.63,0.25 -0.18,0.18 -0.25,0.36 -0.25,0.62 v 13.39 c 0,0.25 0.07,0.47 0.25,0.66 0.19,0.14 0.36,0.22 0.63,0.22 h 8.47 c 0.26,0 0.43,-0.08 0.62,-0.22 0.14,-0.19 0.22,-0.41 0.22,-0.66 v -0.84 c 0,-0.27 0.08,-0.44 0.27,-0.63 0.17,-0.18 0.36,-0.26 0.61,-0.26 h 2.36 c 0.25,0 0.43,0.08 0.62,0.26 0.17,0.19 0.25,0.36 0.25,0.63 v 4.95 c 0,0.25 -0.08,0.44 -0.25,0.63 -0.19,0.14 -0.37,0.22 -0.62,0.22 z m 64.56,0 c -0.25,0 -0.44,-0.08 -0.63,-0.22 -0.17,-0.19 -0.25,-0.38 -0.25,-0.63 v -2.36 c 0,-0.25 0.08,-0.43 0.25,-0.62 0.19,-0.17 0.38,-0.25 0.63,-0.25 h 3.48 c 0.27,0 0.49,-0.08 0.66,-0.22 0.16,-0.19 0.23,-0.41 0.23,-0.66 v -4.08 c 0,-0.25 -0.07,-0.43 -0.23,-0.62 -0.17,-0.17 -0.39,-0.25 -0.66,-0.25 h -18.34 c -0.25,0 -0.44,0.08 -0.61,0.25 -0.19,0.19 -0.27,0.37 -0.27,0.62 v 4.08 c 0,0.25 0.08,0.47 0.27,0.66 0.17,0.14 0.36,0.22 0.61,0.22 h 3.48 c 0.27,0 0.46,0.08 0.63,0.25 0.19,0.19 0.26,0.37 0.26,0.62 v 2.36 c 0,0.25 -0.07,0.44 -0.26,0.63 -0.17,0.14 -0.36,0.22 -0.63,0.22 h -12.79 c -0.25,0 -0.44,-0.08 -0.63,-0.22 -0.17,-0.19 -0.25,-0.38 -0.25,-0.63 v -2.36 c 0,-0.25 0.08,-0.43 0.25,-0.62 0.19,-0.17 0.38,-0.25 0.63,-0.25 h 3.48 c 0.27,0 0.44,-0.08 0.63,-0.22 0.18,-0.19 0.26,-0.41 0.26,-0.66 v -13.39 c 0,-0.26 -0.08,-0.44 -0.26,-0.62 -0.19,-0.19 -0.36,-0.25 -0.63,-0.25 h -3.48 c -0.25,0 -0.44,-0.08 -0.63,-0.27 -0.17,-0.19 -0.25,-0.36 -0.25,-0.62 v -2.32 c 0,-0.25 0.08,-0.43 0.25,-0.62 0.19,-0.17 0.38,-0.25 0.63,-0.25 h 12.79 c 0.27,0 0.46,0.08 0.63,0.25 0.19,0.19 0.26,0.37 0.26,0.62 v 2.32 c 0,0.26 -0.07,0.43 -0.26,0.62 -0.17,0.19 -0.36,0.27 -0.63,0.27 h -3.48 c -0.25,0 -0.44,0.06 -0.61,0.25 -0.19,0.18 -0.27,0.36 -0.27,0.62 v 4.06 c 0,0.27 0.08,0.46 0.27,0.63 0.17,0.19 0.36,0.27 0.61,0.27 h 18.34 c 0.27,0 0.49,-0.08 0.66,-0.27 0.16,-0.17 0.23,-0.36 0.23,-0.63 v -4.06 c 0,-0.26 -0.07,-0.44 -0.23,-0.62 -0.17,-0.19 -0.39,-0.25 -0.66,-0.25 h -3.48 c -0.25,0 -0.44,-0.08 -0.63,-0.27 -0.17,-0.19 -0.25,-0.36 -0.25,-0.62 v -2.32 c 0,-0.25 0.08,-0.43 0.25,-0.62 0.19,-0.17 0.38,-0.25 0.63,-0.25 h 12.84 c 0.25,0 0.44,0.08 0.63,0.25 0.17,0.19 0.25,0.37 0.25,0.62 v 2.32 c 0,0.26 -0.08,0.43 -0.25,0.62 -0.19,0.19 -0.38,0.27 -0.63,0.27 h -3.53 c -0.25,0 -0.44,0.06 -0.58,0.25 -0.18,0.18 -0.26,0.36 -0.26,0.62 v 13.39 c 0,0.25 0.08,0.47 0.26,0.66 0.14,0.14 0.33,0.22 0.58,0.22 h 3.53 c 0.25,0 0.44,0.08 0.63,0.25 0.17,0.19 0.25,0.37 0.25,0.62 v 2.36 c 0,0.25 -0.08,0.44 -0.25,0.63 -0.19,0.14 -0.38,0.22 -0.63,0.22 z m 23.38,0 c -0.25,0 -0.44,-0.08 -0.63,-0.22 -0.17,-0.19 -0.25,-0.38 -0.25,-0.63 v -2.36 c 0,-0.25 0.08,-0.43 0.25,-0.62 0.19,-0.17 0.38,-0.25 0.63,-0.25 h 3.48 c 0.27,0 0.44,-0.08 0.63,-0.22 0.19,-0.19 0.26,-0.41 0.26,-0.66 v -13.39 c 0,-0.26 -0.07,-0.44 -0.26,-0.62 -0.19,-0.19 -0.36,-0.25 -0.63,-0.25 h -3.48 c -0.25,0 -0.44,-0.08 -0.63,-0.27 -0.17,-0.19 -0.25,-0.36 -0.25,-0.62 v -2.32 c 0,-0.25 0.08,-0.43 0.25,-0.62 0.19,-0.17 0.38,-0.25 0.63,-0.25 h 31 c 0.25,0 0.44,0.08 0.62,0.25 0.18,0.19 0.25,0.37 0.25,0.62 v 5.5 c 0,0.27 -0.07,0.46 -0.25,0.63 -0.18,0.19 -0.37,0.26 -0.62,0.26 h -2.35 c -0.26,0 -0.45,-0.07 -0.62,-0.26 -0.19,-0.17 -0.27,-0.36 -0.27,-0.63 v -1.42 c 0,-0.26 -0.06,-0.44 -0.21,-0.62 -0.19,-0.19 -0.36,-0.25 -0.63,-0.25 h -17.61 c -0.25,0 -0.44,0.06 -0.61,0.25 -0.19,0.18 -0.26,0.36 -0.26,0.62 v 4.14 c 0,0.27 0.07,0.49 0.26,0.66 0.17,0.16 0.36,0.22 0.61,0.22 h 9.39 c 0.27,0 0.45,0.08 0.63,0.26 0.18,0.19 0.26,0.36 0.26,0.63 v 1.76 c 0,0.25 -0.08,0.44 -0.26,0.61 -0.18,0.19 -0.36,0.27 -0.63,0.27 h -9.39 c -0.25,0 -0.44,0.08 -0.61,0.25 -0.19,0.16 -0.26,0.33 -0.26,0.59 v 4 c 0,0.25 0.07,0.47 0.26,0.66 0.17,0.14 0.36,0.22 0.61,0.22 h 17.61 c 0.27,0 0.44,-0.08 0.63,-0.22 0.15,-0.19 0.21,-0.41 0.21,-0.66 v -0.89 c 0,-0.25 0.08,-0.47 0.27,-0.62 0.17,-0.17 0.36,-0.25 0.62,-0.25 h 2.35 c 0.25,0 0.44,0.08 0.62,0.25 0.18,0.15 0.25,0.37 0.25,0.62 v 4.92 c 0,0.25 -0.07,0.47 -0.25,0.66 -0.18,0.19 -0.37,0.27 -0.62,0.27 z m 91.22,0.11 c -0.26,0 -0.48,-0.08 -0.7,-0.27 -0.22,-0.19 -0.36,-0.36 -0.44,-0.58 l -0.03,-0.08 c -0.08,-0.22 -0.15,-0.32 -0.26,-0.32 -0.11,0 -0.19,0.1 -0.25,0.32 -0.08,0.22 -0.22,0.41 -0.44,0.6 -0.22,0.14 -0.45,0.22 -0.7,0.22 h -20.69 c -0.25,0 -0.52,-0.05 -0.77,-0.16 -0.29,-0.11 -0.54,-0.25 -0.73,-0.41 l -2.86,-2.59 c -0.19,-0.19 -0.38,-0.41 -0.48,-0.67 -0.11,-0.28 -0.19,-0.55 -0.19,-0.8 v -14.05 c 0,-0.26 0.08,-0.51 0.19,-0.78 0.1,-0.28 0.29,-0.5 0.48,-0.68 l 2.86,-2.57 c 0.19,-0.18 0.44,-0.29 0.73,-0.4 0.25,-0.11 0.52,-0.19 0.77,-0.19 h 21.67 c 0.27,0 0.52,0.08 0.81,0.19 0.3,0.11 0.55,0.22 0.74,0.4 l 2.86,2.57 c 0.18,0.18 0.37,0.4 0.48,0.68 0.11,0.27 0.17,0.52 0.17,0.78 v 1.36 c 0,0.25 -0.06,0.44 -0.25,0.63 -0.18,0.17 -0.37,0.25 -0.62,0.25 h -2.35 c -0.26,0 -0.43,-0.08 -0.59,-0.19 -0.19,-0.11 -0.25,-0.3 -0.25,-0.47 0,-0.19 -0.08,-0.37 -0.19,-0.59 -0.11,-0.25 -0.29,-0.44 -0.47,-0.63 l -0.37,-0.32 c -0.19,-0.19 -0.44,-0.3 -0.7,-0.41 -0.28,-0.11 -0.55,-0.17 -0.8,-0.17 h -18.56 c -0.25,0 -0.52,0.06 -0.82,0.17 -0.28,0.11 -0.5,0.22 -0.68,0.41 l -0.38,0.32 c -0.17,0.19 -0.36,0.41 -0.47,0.71 -0.11,0.25 -0.18,0.51 -0.18,0.76 v 10.42 c 0,0.25 0.07,0.52 0.18,0.8 0.11,0.27 0.3,0.49 0.47,0.67 l 0.38,0.28 c 0.18,0.19 0.4,0.35 0.68,0.46 0.3,0.11 0.57,0.14 0.82,0.14 h 20.25 c 0.25,0 0.43,-0.08 0.62,-0.22 0.14,-0.19 0.22,-0.38 0.22,-0.59 v -1.4 c 0,-0.14 0.06,-0.25 0.25,-0.35 0.16,-0.11 0.33,-0.19 0.59,-0.19 h 2.35 c 0.25,0.03 0.44,0.11 0.62,0.29 0.19,0.15 0.25,0.33 0.25,0.58 v 5.17 c 0,0.27 -0.06,0.44 -0.25,0.63 -0.18,0.19 -0.37,0.27 -0.62,0.27 z m 11.75,-3.24 c 0,-0.25 0.08,-0.47 0.25,-0.62 0.19,-0.19 0.38,-0.25 0.63,-0.25 h 3.48 c 0.27,0 0.44,-0.08 0.63,-0.27 0.18,-0.17 0.26,-0.36 0.26,-0.62 v -13.46 c 0,-0.26 -0.08,-0.44 -0.26,-0.62 -0.19,-0.19 -0.36,-0.25 -0.63,-0.25 h -3.48 c -0.25,0 -0.44,-0.08 -0.63,-0.27 -0.17,-0.19 -0.25,-0.36 -0.25,-0.62 v -2.32 c 0,-0.25 0.08,-0.43 0.25,-0.62 0.19,-0.17 0.38,-0.25 0.63,-0.25 h 12.79 c 0.27,0 0.46,0.08 0.63,0.25 0.19,0.19 0.26,0.37 0.26,0.62 v 2.32 c 0,0.26 -0.07,0.43 -0.26,0.62 -0.17,0.19 -0.36,0.27 -0.63,0.27 h -3.48 c -0.25,0 -0.44,0.06 -0.61,0.25 -0.19,0.18 -0.27,0.36 -0.27,0.62 v 13.46 c 0,0.26 0.08,0.45 0.27,0.62 0.17,0.19 0.36,0.27 0.61,0.27 h 3.48 c 0.27,0 0.46,0.06 0.63,0.25 0.19,0.15 0.26,0.37 0.26,0.62 v 2.31 c 0,0.25 -0.07,0.44 -0.26,0.63 -0.17,0.19 -0.36,0.25 -0.63,0.25 h -12.79 c -0.25,0 -0.44,-0.06 -0.63,-0.25 -0.17,-0.19 -0.25,-0.38 -0.25,-0.63 z m 23.01,3.13 c -0.25,0 -0.43,-0.08 -0.62,-0.22 -0.17,-0.19 -0.25,-0.38 -0.25,-0.63 v -5.11 c 0,-0.25 0.08,-0.43 0.25,-0.62 0.19,-0.17 0.37,-0.25 0.62,-0.25 h 2.32 c 0.26,0 0.43,0.08 0.62,0.25 0.19,0.19 0.25,0.37 0.25,0.62 v 1 c 0,0.25 0.08,0.47 0.27,0.66 0.18,0.14 0.36,0.22 0.62,0.22 h 8.44 c 0.25,0 0.44,-0.08 0.62,-0.22 0.18,-0.19 0.25,-0.41 0.25,-0.66 v -13.39 c 0,-0.26 -0.07,-0.44 -0.25,-0.62 -0.18,-0.19 -0.37,-0.25 -0.62,-0.25 h -3.49 c -0.26,0 -0.45,-0.08 -0.62,-0.27 -0.19,-0.19 -0.27,-0.36 -0.27,-0.62 v -2.32 c 0,-0.25 0.08,-0.43 0.27,-0.62 0.17,-0.17 0.36,-0.25 0.62,-0.25 h 12.83 c 0.27,0 0.44,0.08 0.63,0.25 0.15,0.19 0.22,0.37 0.22,0.62 v 2.32 c 0,0.26 -0.07,0.43 -0.22,0.62 -0.19,0.19 -0.36,0.27 -0.63,0.27 h -3.51 c -0.27,0 -0.44,0.06 -0.63,0.25 -0.19,0.18 -0.25,0.36 -0.25,0.62 v 13.39 c 0,0.25 0.06,0.47 0.25,0.66 0.19,0.14 0.36,0.22 0.63,0.22 h 8.47 c 0.26,0 0.43,-0.08 0.62,-0.22 0.14,-0.19 0.22,-0.41 0.22,-0.66 v -0.84 c 0,-0.27 0.08,-0.44 0.26,-0.63 0.18,-0.18 0.36,-0.26 0.61,-0.26 h 2.36 c 0.25,0 0.44,0.08 0.63,0.26 0.17,0.19 0.25,0.36 0.25,0.63 v 4.95 c 0,0.25 -0.08,0.44 -0.25,0.63 -0.19,0.14 -0.38,0.22 -0.63,0.22 z m 60.67,-3.21 c 0,-0.25 0.08,-0.43 0.27,-0.58 0.14,-0.18 0.36,-0.26 0.62,-0.26 h 2.16 c 0.26,0 0.4,-0.06 0.43,-0.17 0.05,-0.11 -0.03,-0.27 -0.21,-0.41 l -6.79,-6.09 c -0.18,-0.19 -0.4,-0.25 -0.65,-0.25 -0.27,0 -0.49,0.06 -0.67,0.25 l -6.78,6.09 c -0.19,0.14 -0.22,0.3 -0.19,0.41 0.04,0.11 0.19,0.17 0.45,0.17 h 2.02 c 0.25,0 0.47,0.08 0.65,0.26 0.14,0.15 0.22,0.33 0.22,0.58 v 2.36 c 0,0.25 -0.08,0.44 -0.22,0.63 -0.18,0.14 -0.4,0.22 -0.65,0.22 h -11.93 c -0.26,0 -0.43,-0.08 -0.62,-0.22 -0.19,-0.19 -0.25,-0.38 -0.25,-0.63 v -2.36 c 0,-0.25 0.06,-0.43 0.25,-0.58 0.19,-0.18 0.36,-0.26 0.62,-0.26 h 2.9 c 0.26,0 0.51,-0.03 0.81,-0.14 0.29,-0.11 0.54,-0.25 0.73,-0.44 l 10.19,-8.92 c 0.19,-0.17 0.37,-0.39 0.48,-0.66 0.11,-0.25 0.19,-0.51 0.19,-0.76 v -3.38 c 0,-0.26 -0.08,-0.44 -0.26,-0.62 -0.18,-0.19 -0.36,-0.25 -0.63,-0.25 h -4.5 c -0.26,0 -0.45,-0.08 -0.62,-0.27 -0.19,-0.19 -0.27,-0.36 -0.27,-0.62 v -2.32 c 0,-0.25 0.08,-0.43 0.27,-0.62 0.17,-0.17 0.36,-0.25 0.62,-0.25 h 14.27 c 0.25,0 0.43,0.08 0.62,0.25 0.17,0.19 0.25,0.37 0.25,0.62 v 2.32 c 0,0.26 -0.08,0.43 -0.25,0.62 -0.19,0.19 -0.37,0.27 -0.62,0.27 h -4.52 c -0.25,0 -0.44,0.06 -0.62,0.25 -0.19,0.18 -0.25,0.36 -0.25,0.62 v 3.27 c 0,0.25 0.06,0.51 0.17,0.79 0.11,0.27 0.29,0.49 0.48,0.63 l 10.31,9.03 c 0.18,0.19 0.44,0.33 0.74,0.44 0.28,0.11 0.55,0.14 0.8,0.14 h 2.79 c 0.25,0 0.44,0.08 0.61,0.26 0.19,0.15 0.27,0.33 0.27,0.58 v 2.36 c 0,0.25 -0.08,0.44 -0.27,0.63 -0.17,0.14 -0.36,0.22 -0.61,0.22 h -11.92 c -0.26,0 -0.48,-0.08 -0.62,-0.22 -0.19,-0.19 -0.27,-0.38 -0.27,-0.63 z m 44.54,3.24 c -0.25,0 -0.44,-0.08 -0.63,-0.25 -0.17,-0.19 -0.25,-0.38 -0.25,-0.63 v -2.36 c 0,-0.25 0.08,-0.43 0.25,-0.62 0.19,-0.17 0.38,-0.25 0.63,-0.25 h 3.48 c 0.27,0 0.44,-0.08 0.63,-0.25 0.19,-0.19 0.26,-0.38 0.26,-0.63 v -13.39 c 0,-0.26 -0.07,-0.44 -0.26,-0.62 -0.19,-0.19 -0.36,-0.25 -0.63,-0.25 h -3.48 c -0.25,0 -0.44,-0.08 -0.63,-0.27 -0.17,-0.19 -0.25,-0.36 -0.25,-0.62 v -2.32 c 0,-0.25 0.08,-0.43 0.25,-0.62 0.19,-0.17 0.38,-0.25 0.63,-0.25 h 27.19 c 0.25,0 0.51,0.03 0.84,0.14 0.28,0.11 0.55,0.22 0.74,0.37 l 3.43,2.61 c 0.19,0.14 0.38,0.36 0.52,0.61 0.11,0.27 0.19,0.52 0.19,0.78 v 4.66 c 0,0.25 -0.08,0.52 -0.19,0.77 -0.14,0.26 -0.33,0.48 -0.52,0.62 l -0.76,0.6 c -0.19,0.1 -0.3,0.28 -0.3,0.5 0,0.18 0.11,0.37 0.3,0.51 l 0.76,0.56 c 0.19,0.14 0.38,0.36 0.52,0.61 0.11,0.27 0.19,0.57 0.19,0.82 v 4.65 c 0,0.27 -0.08,0.52 -0.19,0.78 -0.14,0.25 -0.33,0.47 -0.52,0.61 l -3.43,2.58 c -0.19,0.14 -0.46,0.3 -0.74,0.41 -0.33,0.11 -0.59,0.14 -0.84,0.14 z m 28.83,-16.77 c 0,-0.25 -0.06,-0.51 -0.17,-0.76 -0.16,-0.3 -0.35,-0.52 -0.52,-0.63 l -0.73,-0.59 c -0.19,-0.11 -0.44,-0.22 -0.74,-0.33 -0.33,-0.11 -0.59,-0.17 -0.84,-0.17 h -16.52 c -0.25,0 -0.44,0.06 -0.61,0.25 -0.18,0.18 -0.26,0.36 -0.26,0.62 v 4.11 c 0,0.25 0.08,0.44 0.26,0.63 0.17,0.17 0.36,0.25 0.61,0.25 h 16.03 c 0.27,0 0.55,-0.03 0.85,-0.14 0.29,-0.11 0.54,-0.22 0.73,-0.38 l 1.22,-0.87 c 0.17,-0.14 0.36,-0.38 0.52,-0.63 0.11,-0.25 0.17,-0.51 0.17,-0.76 z m 0,9.61 c 0,-0.25 -0.06,-0.51 -0.17,-0.76 -0.16,-0.27 -0.35,-0.49 -0.52,-0.63 l -1.11,-0.81 c -0.17,-0.14 -0.44,-0.25 -0.73,-0.36 -0.33,-0.11 -0.58,-0.19 -0.85,-0.19 h -16.14 c -0.25,0 -0.44,0.08 -0.61,0.27 -0.18,0.17 -0.26,0.36 -0.26,0.61 v 4.04 c 0,0.25 0.08,0.44 0.26,0.63 0.17,0.17 0.36,0.25 0.61,0.25 h 16.52 c 0.25,0 0.51,-0.03 0.84,-0.14 0.3,-0.11 0.55,-0.22 0.74,-0.38 l 0.73,-0.54 c 0.17,-0.15 0.36,-0.38 0.52,-0.63 0.11,-0.25 0.17,-0.52 0.17,-0.77 z m 37.89,7.13 c -0.27,0 -0.44,-0.08 -0.63,-0.22 -0.18,-0.19 -0.25,-0.38 -0.25,-0.63 v -2.36 c 0,-0.25 0.07,-0.43 0.25,-0.62 0.19,-0.17 0.36,-0.25 0.63,-0.25 h 3.48 c 0.25,0 0.44,-0.08 0.63,-0.22 0.19,-0.19 0.25,-0.41 0.25,-0.66 v -11.78 c 0,-0.25 -0.06,-0.51 -0.17,-0.76 -0.16,-0.3 -0.35,-0.52 -0.52,-0.63 l -0.73,-0.59 c -0.19,-0.11 -0.44,-0.22 -0.74,-0.33 -0.33,-0.11 -0.59,-0.17 -0.84,-0.17 h -14.97 c -0.25,0 -0.52,0.06 -0.81,0.17 -0.33,0.11 -0.58,0.22 -0.77,0.33 l -0.73,0.59 c -0.19,0.11 -0.36,0.33 -0.47,0.63 -0.16,0.25 -0.22,0.51 -0.22,0.76 v 11.78 c 0,0.25 0.06,0.47 0.25,0.66 0.19,0.14 0.36,0.22 0.62,0.22 h 3.49 c 0.25,0 0.44,0.08 0.62,0.25 0.19,0.19 0.25,0.37 0.25,0.62 v 2.36 c 0,0.25 -0.06,0.44 -0.25,0.63 -0.18,0.14 -0.37,0.22 -0.62,0.22 h -12.8 c -0.26,0 -0.45,-0.08 -0.62,-0.22 -0.19,-0.19 -0.27,-0.38 -0.27,-0.63 v -2.36 c 0,-0.25 0.08,-0.43 0.27,-0.62 0.17,-0.17 0.36,-0.25 0.62,-0.25 h 3.49 c 0.25,0 0.43,-0.08 0.62,-0.22 0.17,-0.19 0.25,-0.41 0.25,-0.66 v -13.83 c 0,-0.26 0.08,-0.51 0.22,-0.78 0.11,-0.25 0.3,-0.47 0.48,-0.61 l 3.44,-2.61 c 0.19,-0.15 0.44,-0.26 0.78,-0.37 0.28,-0.11 0.55,-0.14 0.8,-0.14 h 17.69 c 0.25,0 0.5,0.03 0.84,0.14 0.28,0.11 0.55,0.22 0.74,0.37 l 3.43,2.61 c 0.19,0.14 0.38,0.36 0.52,0.61 0.11,0.27 0.19,0.52 0.19,0.78 v 13.83 c 0,0.25 0.07,0.47 0.25,0.66 0.18,0.14 0.37,0.22 0.62,0.22 h 3.53 c 0.25,0 0.44,0.08 0.61,0.25 0.16,0.19 0.22,0.37 0.22,0.62 v 2.36 c 0,0.25 -0.06,0.44 -0.22,0.63 -0.17,0.14 -0.36,0.22 -0.61,0.22 z m 26.97,-4.6 c 0.18,0.16 0.43,0.27 0.78,0.38 0.28,0.11 0.55,0.14 0.8,0.14 h 18.26 c 0.27,0 0.52,-0.03 0.84,-0.11 0.33,-0.11 0.6,-0.22 0.77,-0.33 l 2.09,-1.33 c 0.19,-0.11 0.41,-0.14 0.68,-0.06 0.25,0.03 0.43,0.17 0.54,0.36 l 1.21,1.98 c 0.11,0.19 0.15,0.41 0.11,0.66 -0.04,0.22 -0.19,0.41 -0.36,0.52 l -3.08,1.93 c -0.19,0.11 -0.46,0.24 -0.78,0.35 -0.33,0.06 -0.58,0.11 -0.85,0.11 h -20.79 c -0.25,0 -0.52,-0.05 -0.8,-0.16 -0.33,-0.11 -0.59,-0.22 -0.78,-0.36 l -3.44,-2.61 c -0.19,-0.11 -0.37,-0.33 -0.48,-0.58 -0.14,-0.29 -0.22,-0.56 -0.22,-0.81 v -4.66 c 0,-0.26 0.08,-0.51 0.22,-0.78 0.11,-0.25 0.29,-0.47 0.48,-0.61 l 3.44,-2.61 c 0.19,-0.11 0.45,-0.21 0.78,-0.32 0.28,-0.11 0.55,-0.19 0.8,-0.19 h 18.96 c 0.25,0 0.52,-0.03 0.82,-0.14 0.28,-0.11 0.54,-0.22 0.73,-0.38 l 0.77,-0.54 c 0.18,-0.14 0.36,-0.38 0.51,-0.63 0.11,-0.25 0.17,-0.51 0.17,-0.76 v -0.6 c 0,-0.25 -0.06,-0.51 -0.17,-0.76 -0.15,-0.3 -0.33,-0.52 -0.51,-0.63 l -0.77,-0.59 c -0.19,-0.11 -0.45,-0.22 -0.73,-0.33 -0.3,-0.11 -0.57,-0.17 -0.82,-0.17 h -17.71 c -0.25,0 -0.52,0.03 -0.85,0.14 -0.33,0.08 -0.58,0.19 -0.76,0.29 l -2.69,1.61 c -0.17,0.11 -0.39,0.14 -0.66,0.11 -0.25,-0.07 -0.43,-0.22 -0.54,-0.4 l -1.21,-1.99 c -0.12,-0.22 -0.15,-0.43 -0.08,-0.65 0.04,-0.25 0.19,-0.44 0.41,-0.55 l 3.63,-2.2 c 0.18,-0.11 0.43,-0.22 0.76,-0.3 0.33,-0.11 0.6,-0.14 0.85,-0.14 h 20.21 c 0.25,0 0.52,0.03 0.85,0.14 0.29,0.11 0.54,0.22 0.73,0.37 l 3.44,2.61 c 0.19,0.14 0.37,0.36 0.52,0.61 0.1,0.27 0.18,0.52 0.18,0.78 v 4.66 c 0,0.25 -0.08,0.52 -0.18,0.77 -0.15,0.26 -0.33,0.48 -0.52,0.62 l -3.44,2.61 c -0.19,0.14 -0.44,0.25 -0.73,0.36 -0.33,0.11 -0.6,0.16 -0.85,0.16 h -18.96 c -0.25,0 -0.52,0.06 -0.8,0.17 -0.35,0.11 -0.6,0.22 -0.78,0.37 l -0.74,0.55 c -0.17,0.14 -0.36,0.36 -0.47,0.63 -0.15,0.25 -0.21,0.51 -0.21,0.76 v 0.59 c 0,0.25 0.06,0.52 0.21,0.77 0.11,0.25 0.3,0.48 0.47,0.63 z"
         id="path28982" />
    </clipPath>
  </defs>
  <sodipodi:namedview
     id="base"
     pagecolor="#ffffff"
     bordercolor="#666666"
     borderopacity="1.0"
     inkscape:pageopacity="0.0"
     inkscape:pageshadow="2"
     inkscape:zoom="1.979899"
     inkscape:cx="59.035709"
     inkscape:cy="30.43696"
     inkscape:document-units="mm"
     inkscape:current-layer="layer1"
     showgrid="false"
     units="px"
     inkscape:window-width="1366"
     inkscape:window-height="703"
     inkscape:window-x="0"
     inkscape:window-y="0"
     inkscape:window-maximized="1"
     inkscape:document-rotation="0" />
  <metadata
     id="metadata9815">
    <rdf:RDF>
      <cc:Work
         rdf:about="">
        <dc:format>image/svg+xml</dc:format>
        <dc:type
           rdf:resource="http://purl.org/dc/dcmitype/StillImage" />
        <dc:title />
      </cc:Work>
    </rdf:RDF>
  </metadata>
  <g
     inkscape:label="Capa 1"
     inkscape:groupmode="layer"
     id="layer1"
     transform="translate(0,-270.54165)">
    <g
       id="g151"
       transform="matrix(0.35277777,0,0,-0.35277777,-39.514558,378.62677)">
      <g
         id="g127">
        <path
           inkscape:connector-curvature="0"
           id="path304"
           style="fill:#688623;fill-opacity:1;fill-rule:nonzero;stroke:none;stroke-width:0.16091"
           d="m 173.05,279.70826 c 0,12.99995 -10.53802,23.54441 -23.53797,23.54441 v -10.8695 c 6.9996,0 12.67652,-5.6737 12.67652,-12.67491 0,-7.00281 -5.67692,-12.67812 -12.67652,-12.67812 v -10.86306 -21.6537 c 0,0 11.10925,17.75967 15.29775,23.74071 9.30705,13.28476 8.24022,21.45417 8.24022,21.45417" />
        <path
           inkscape:connector-curvature="0"
           id="path306"
           style="fill:#8bb32f;fill-opacity:1;fill-rule:nonzero;stroke:none;stroke-width:0.16091"
           d="m 149.51203,292.38317 v 10.8695 c -12.99882,0 -23.54279,-10.54446 -23.54279,-23.54441 0,0 -1.06346,-8.16941 8.24343,-21.45417 4.19059,-5.98104 15.29936,-23.74071 15.29936,-23.74071 v 21.6537 10.86306 c -6.99976,0 -12.677,5.67531 -12.677,12.67812 0,7.00121 5.67724,12.67491 12.677,12.67491" />
      </g>
      <circle
         transform="scale(1,-1)"
         r="19.153227"
         cy="-278.2258"
         cx="149.50977"
         id="path977-3"
         style="opacity:1;vector-effect:none;fill:#ffffff;fill-opacity:1;stroke:none;stroke-width:1.29139;stroke-linecap:butt;stroke-linejoin:miter;stroke-miterlimit:4;stroke-dasharray:none;stroke-dashoffset:0;stroke-opacity:1" />
    </g>
    <g
       id="g1513"
       transform="matrix(0.07957513,0,0,-0.07957513,-8.634625,305.73831)">
      <path
         d="m 314.034,245.479 c 0,-5.428 -17.013,-9.828 -38,-9.828 -20.987,0 -38,4.4 -38,9.828 0,5.427 17.013,9.827 38,9.827 20.987,0 38,-4.4 38,-9.827"
         style="fill:#d4d4d4;fill-opacity:1;fill-rule:nonzero;stroke:none;stroke-width:0.1"
         id="path20" />
      <path
         d="m 323.659,310.847 c -0.18,0.661 -1.157,1.008 -1.695,0.559 -2.4,-2.004 -3.917,-4.754 -5.841,-7.187 -2.511,-3.176 -6.033,-5.417 -9.715,-6.977 -4.549,-1.928 -8.24,-1.268 -12.463,-1.118 1.167,1.752 2.406,3.467 3.733,5.143 3.852,4.864 8.252,9.301 12.354,13.953 3.236,3.67 7.173,7.831 7.399,12.945 0.038,0.853 -1.073,1.568 -1.837,1.211 -5.207,-2.431 -8.765,-8.38 -12.53,-12.569 -4.559,-5.072 -9.059,-10.14 -12.92,-15.775 -0.507,-0.74 -0.99,-1.49 -1.46,-2.246 0.022,1.57 0.039,3.14 0.058,4.705 0.088,7.036 -1.086,14.013 -2.655,20.847 -1.586,6.912 -3.391,14.357 -6.742,20.641 -0.492,0.923 -1.602,0.717 -2.171,0.06 -0.507,0.161 -1.079,-0.145 -1.268,-0.731 -0.631,-1.946 -0.242,-3.236 0.32,-5.168 0.935,-3.216 1.608,-6.367 2.167,-9.677 1.208,-7.161 1.364,-14.231 0.718,-21.452 -0.374,-4.174 -0.758,-8.347 -1.149,-12.52 -1.999,2.387 -4.268,4.567 -6.399,6.537 -4.991,4.618 -12.159,11.118 -19.074,12.131 -0.513,0.075 -1.003,-0.213 -1.242,-0.625 -0.647,-0.613 -0.858,-1.701 -0.005,-2.385 7.859,-6.286 16.247,-14.417 18.308,-24.639 0.764,-3.791 1.8,-18.282 -7.537,-33.025 -1.712,-2.704 -5.068,-6.517 -3.044,-9.489 1.995,-2.93 8.743,-3.642 12.034,-3.755 2.443,-0.084 10.187,1.26 12.091,2.726 1.905,1.467 -1.115,15.082 -0.153,19.892 5.582,27.921 22.517,28.28 25.279,29.214 7.043,2.382 17.79,10.1 15.439,18.774"
         style="fill:#8d613c;fill-opacity:1;fill-rule:nonzero;stroke:none;stroke-width:0.1"
         id="path278" />
      <path
         d="m 345.523,330.14 c -1.143,4.778 -5.129,7.72 -8.653,10.816 -4.145,3.64 3.041,7.682 2.549,12.118 -0.513,4.632 -3.609,7.315 -8.074,8.282 -3.205,0.694 -8.218,0.867 -12.686,-0.104 0.018,0.168 0.04,0.34 0.055,0.504 0.86,9.284 -5.53,17.333 -14.128,18.112 -0.964,4.401 -6.023,7.241 -10.504,8.412 -3.561,0.931 -7.382,0.824 -10.959,0.162 -4.074,-0.753 -6.366,-3.136 -8.856,-5.682 -4.767,5.6 -12.084,3.97 -16.784,-2.795 -3.113,-4.481 -3.619,-9.475 -2.279,-14.034 -7.82,3.132 -19.872,-6.309 -22.868,-13.277 -1.968,-4.576 -1.68,-10.376 2.531,-13.151 -3.856,-6.149 -5.37,-14.223 -3.968,-20.683 2.34,-10.781 16.947,-13.101 25.181,-7.41 5.802,-5.608 14.746,-6.558 21.104,-0.075 4.149,4.23 4.232,11.966 2.519,18.635 0.03,0.02 0.059,0.034 0.088,0.054 1.986,1.357 3.232,3.402 4.027,5.702 2.029,-2.993 4.613,-5.411 8.013,-5.908 -0.007,-2.654 0.362,-5.223 0.973,-7.213 0.373,-1.217 0.864,-2.352 1.443,-3.405 -1.562,-7.5 0.643,-16.183 7.182,-20.104 3.732,-2.238 8.895,-1.763 12.805,-0.385 3.058,1.077 5.045,3.468 7.306,5.555 3.734,-5.45 10.16,-8.631 15.916,-2.964 3.931,3.869 5.867,11.623 4.741,18.036 2.393,2.845 4.146,7.372 3.326,10.802"
         style="fill:#749b42;fill-opacity:1;fill-rule:nonzero;stroke:none;stroke-width:0.1"
         id="path280" />
      <path
         d="m 264.543,347.037 c -1.888,1.484 -2.433,3.979 -3.734,5.972 -2.438,3.734 -6.714,6.268 -11.159,4.748 -4.719,-1.613 -7.605,-9.153 -4.419,-12.413 -3.798,-0.437 -7.482,-5.047 -9.037,-7.968 -2.418,-4.54 -1.626,-10.729 0.94,-14.984 2.394,-3.97 6.709,-4.875 10.912,-3.916 1.057,0.241 2.099,0.678 3.028,1.263 3.263,-1.66 7.144,-2.213 10.54,-0.47 3.741,1.92 6.076,6.818 5.098,11.026 -0.261,1.128 -0.716,1.651 -0.124,2.343 0.877,1.024 2.161,1.63 3.048,2.682 1.52,1.802 1.73,4.88 0.377,6.876 -1.506,2.221 -3.411,3.222 -5.47,4.841"
         style="fill:#8bb342;fill-opacity:1;fill-rule:nonzero;stroke:none;stroke-width:0.1"
         id="path282" />
      <path
         d="m 310.739,340.744 c 5.544,2.239 10.605,6.931 9.852,13.373 -0.406,3.469 -3.458,5.555 -6.111,7.381 -1.637,1.127 -0.693,3.936 -0.736,5.535 -0.048,1.803 -0.993,3.669 -2.252,4.928 -2.533,2.533 -7.129,2.92 -10.511,2.994 -1.884,0.04 -1.854,0.739 -3.011,2.243 -1.24,1.612 -2.777,2.839 -4.623,3.677 -5.466,2.48 -9.546,-1.936 -12.573,-6.187 -3.958,3.042 -8.387,7.534 -13.246,5.735 -2.711,-1.003 -3.99,-4.967 -3.757,-8.298 -4.396,-2.745 -4.339,-8.259 -2.806,-13.052 1.568,-4.901 6.538,-13.3 12.683,-12.394 2.179,0.321 6.468,-3.269 8.502,-4.552 2.985,-1.883 5.868,-2.95 9.376,-1.981 1.427,0.394 2.63,1.624 4.122,1.794 1.522,0.174 4.136,-1.646 5.618,-2.168 3.199,-1.127 6.464,-0.243 9.473,0.972"
         style="fill:#8bb342;fill-opacity:1;fill-rule:nonzero;stroke:none;stroke-width:0.1"
         id="path284" />
      <path
         d="m 329.873,324.389 c 1.722,2.448 3.02,5.269 1.435,7.975 -1.93,3.294 -5.727,3.726 -9.27,3.191 -1.663,0.201 -3.393,-0.012 -4.947,-0.533 -2.2,-0.739 -4.385,-2.576 -5.365,-4.645 -1.412,-0.27 -2.802,-0.741 -4.082,-1.366 -5.844,-2.854 -8.087,-10.432 -6.443,-16.312 1.565,-5.595 8.36,-8.596 13.622,-6.604 0.729,0.277 1.366,0.682 1.92,1.164 1.362,-0.592 2.859,-0.809 4.528,-0.39 3.717,0.932 4.134,4.321 7.112,5.636 3.056,1.35 5.321,3.529 5.353,6.999 0.022,2.37 -1.869,3.74 -3.863,4.885"
         style="fill:#8bb342;fill-opacity:1;fill-rule:nonzero;stroke:none;stroke-width:0.1"
         id="path286" />
      <path
         d="m 293.665,363.139 c -0.426,1.093 -0.007,2.393 -0.517,3.56 -0.671,1.537 -1.928,2.118 -3.395,2.737 -4.032,1.7 -7.755,-0.712 -11.181,-2.788 -3.372,3.506 -8.294,0.768 -8.333,-2.682 -4.281,-1.152 -7.859,-4.205 -4.742,-8.596 0.854,-1.203 2.013,-1.736 3.402,-2.118 2.39,-0.656 3.679,-1.906 5.732,-3.242 4.432,-2.885 8.963,-2.093 13.622,-0.15 2.9,1.208 7.694,2.638 8.851,5.953 0.467,1.335 0.576,3.11 -0.252,4.367 -0.602,0.915 -2.905,2.237 -3.187,2.959"
         style="fill:#9fc951;fill-opacity:1;fill-rule:nonzero;stroke:none;stroke-width:0.1"
         id="path288" />
      <path
         d="m 324.333,319.464 c -0.323,0.421 -0.647,0.841 -0.972,1.261 -0.575,0.682 -0.092,-0.067 0.443,0.978 2.85,5.562 -1.157,8.874 -5.917,10.836 -3.675,1.515 -8.506,3.416 -10.853,-1.56 -1.087,-2.304 -1.403,-4.556 -0.499,-6.986 0.005,-0.012 0.012,-0.024 0.016,-0.035 -4.108,-0.63 -7.757,-2.353 -8.143,-6.983 -0.404,-4.841 4.692,-7.647 8.701,-8.142 4.371,-0.539 10.567,-1.104 14.423,1.382 1.885,1.215 3.677,3.952 3.677,6.245 0,1.099 -0.385,2.051 -0.876,3.004"
         style="fill:#9fc951;fill-opacity:1;fill-rule:nonzero;stroke:none;stroke-width:0.1"
         id="path290" />
      <path
         d="m 255.544,345.033 c -1.315,3.666 -5.227,5.336 -9.393,3.644 -3.531,-1.434 -6.695,-5.677 -4.985,-8.982 -2.376,-1.543 -4.517,-4.025 -5.396,-5.567 -1.38,-2.419 -1.487,-5.155 -0.151,-7.587 0.889,-1.619 2.939,-2.107 4.612,-2.108 0.219,0 0.376,0.007 0.508,0.017 0.169,-0.097 0.455,-0.263 0.642,-0.367 0.199,-0.232 0.427,-0.452 0.7,-0.646 1.794,-1.275 2.524,-2.203 4.9,-2.462 2.252,-0.246 4.417,0.562 6.34,1.66 2.936,1.677 4.61,4.542 4.503,7.573 2.898,1.742 4.547,5.282 4.012,8.719 -0.565,3.627 -3.161,5.602 -6.292,6.106"
         style="fill:#9fc951;fill-opacity:1;fill-rule:nonzero;stroke:none;stroke-width:0.1"
         id="path292" />
      <path
         d="m 317.053,352.845 c -0.021,0.246 -0.062,0.49 -0.099,0.735 -0.002,0.01 -0.002,0.008 -0.004,0.018 -0.005,0.037 -0.01,0.075 -0.015,0.113 -0.181,1.046 -1.117,1.863 -2.095,2.144 -0.338,0.097 -0.682,0.133 -1.027,0.124 -0.043,0.058 -0.079,0.12 -0.126,0.176 -0.941,1.114 -2.252,1.749 -3.659,2.018 -0.028,0.081 -0.055,0.163 -0.083,0.243 -0.629,1.781 -1.764,3.969 -3.943,4.009 -2.432,0.046 -3.907,-2.44 -3.765,-4.616 0.006,-0.091 0.027,-0.187 0.037,-0.279 -0.997,-0.481 -1.761,-1.446 -1.758,-2.746 10e-4,-0.478 0.084,-0.941 0.199,-1.395 -0.855,-0.552 -1.547,-1.327 -2.05,-2.257 -1.153,-2.129 -0.806,-4.805 1,-6.458 3.607,-3.303 9.022,-0.906 10.847,3.087 0.749,-0.149 1.603,-0.082 2.291,0.112 1.58,0.444 2.962,1.53 3.759,2.965 0.332,0.599 0.44,1.099 0.494,1.777 0.006,0.077 0.003,0.154 -0.003,0.23"
         style="fill:#9fc951;fill-opacity:1;fill-rule:nonzero;stroke:none;stroke-width:0.1"
         id="path294" />
      <path
         d="m 336.996,338.074 c -0.257,1.373 -0.938,2.706 -2.138,3.461 -0.524,0.331 -1.073,0.601 -1.629,0.872 -0.17,0.083 -0.338,0.169 -0.507,0.254 -0.492,3.143 -3.439,4.697 -6.446,3.244 -1.618,-0.782 -2.345,-2.163 -2.565,-3.704 -1.202,-1.054 -2.101,-2.455 -2.314,-3.947 -0.34,-2.388 0.95,-4.815 2.796,-6.294 3.192,-2.557 8.313,-3.112 11.358,0.022 1.612,1.66 1.851,3.92 1.445,6.092"
         style="fill:#9fc951;fill-opacity:1;fill-rule:nonzero;stroke:none;stroke-width:0.1"
         id="path296" />
    </g>
  </g>
</svg>
