<?xml version="1.0" encoding="UTF-8" standalone="no"?>
<svg
   xmlns:dc="http://purl.org/dc/elements/1.1/"
   xmlns:cc="http://creativecommons.org/ns#"
   xmlns:rdf="http://www.w3.org/1999/02/22-rdf-syntax-ns#"
   xmlns:svg="http://www.w3.org/2000/svg"
   xmlns="http://www.w3.org/2000/svg"
   xmlns:sodipodi="http://sodipodi.sourceforge.net/DTD/sodipodi-0.dtd"
   xmlns:inkscape="http://www.inkscape.org/namespaces/inkscape"
   width="100"
   height="100"
   viewBox="0 0 26.458333 26.458334"
   version="1.1"
   id="svg9818"
   inkscape:version="1.0.2 (e86c870879, 2021-01-15)"
   sodipodi:docname="sede club.svg">
  <defs
     id="defs9812">
    <clipPath
       clipPathUnits="userSpaceOnUse"
       id="clipPath1290">
      <path
         d="m 3584.79,2009.38 c -1.96,1.17 -3.62,2.19 -5,3.05 h 2.02 c 1.67,-1.18 2.94,-2.33 2.98,-3.05"
         id="path1288" />
    </clipPath>
    <clipPath
       clipPathUnits="userSpaceOnUse"
       id="clipPath1306">
      <path
         d="m 3584.79,2009.38 c -1.96,1.17 -3.62,2.19 -5,3.05 h 2.02 c 1.67,-1.18 2.94,-2.33 2.98,-3.05"
         id="path1304" />
    </clipPath>
    <clipPath
       clipPathUnits="userSpaceOnUse"
       id="clipPath1312">
      <path
         d="m 3429.89,2012.09 c -0.25,0 -0.43,-0.08 -0.62,-0.22 -0.17,-0.19 -0.25,-0.38 -0.25,-0.63 v -5.11 c 0,-0.25 0.08,-0.43 0.25,-0.62 0.19,-0.17 0.37,-0.25 0.62,-0.25 h 2.32 c 0.26,0 0.43,0.08 0.62,0.25 0.19,0.19 0.25,0.37 0.25,0.62 v 1 c 0,0.25 0.08,0.47 0.27,0.66 0.19,0.14 0.36,0.22 0.62,0.22 h 8.44 c 0.25,0 0.44,-0.08 0.63,-0.22 0.17,-0.19 0.25,-0.41 0.25,-0.66 v -13.39 c 0,-0.26 -0.08,-0.44 -0.25,-0.62 -0.19,-0.19 -0.38,-0.25 -0.63,-0.25 h -3.48 c -0.27,0 -0.46,-0.08 -0.63,-0.27 -0.19,-0.19 -0.26,-0.36 -0.26,-0.62 v -2.32 c 0,-0.25 0.07,-0.43 0.26,-0.62 0.17,-0.17 0.36,-0.25 0.63,-0.25 h 12.82 c 0.27,0 0.44,0.08 0.63,0.25 0.16,0.19 0.22,0.37 0.22,0.62 v 2.32 c 0,0.26 -0.06,0.43 -0.22,0.62 -0.19,0.19 -0.36,0.27 -0.63,0.27 h -3.51 c -0.27,0 -0.44,0.06 -0.63,0.25 -0.18,0.18 -0.25,0.36 -0.25,0.62 v 13.39 c 0,0.25 0.07,0.47 0.25,0.66 0.19,0.14 0.36,0.22 0.63,0.22 h 8.47 c 0.26,0 0.43,-0.08 0.62,-0.22 0.14,-0.19 0.22,-0.41 0.22,-0.66 v -0.84 c 0,-0.27 0.08,-0.44 0.27,-0.63 0.17,-0.18 0.36,-0.26 0.61,-0.26 h 2.36 c 0.25,0 0.43,0.08 0.62,0.26 0.17,0.19 0.25,0.36 0.25,0.63 v 4.95 c 0,0.25 -0.08,0.44 -0.25,0.63 -0.19,0.14 -0.37,0.22 -0.62,0.22 z m 64.56,0 c -0.25,0 -0.44,-0.08 -0.63,-0.22 -0.17,-0.19 -0.25,-0.38 -0.25,-0.63 v -2.36 c 0,-0.25 0.08,-0.43 0.25,-0.62 0.19,-0.17 0.38,-0.25 0.63,-0.25 h 3.48 c 0.27,0 0.49,-0.08 0.66,-0.22 0.16,-0.19 0.23,-0.41 0.23,-0.66 v -4.08 c 0,-0.25 -0.07,-0.43 -0.23,-0.62 -0.17,-0.17 -0.39,-0.25 -0.66,-0.25 h -18.34 c -0.25,0 -0.44,0.08 -0.61,0.25 -0.19,0.19 -0.27,0.37 -0.27,0.62 v 4.08 c 0,0.25 0.08,0.47 0.27,0.66 0.17,0.14 0.36,0.22 0.61,0.22 h 3.48 c 0.27,0 0.46,0.08 0.63,0.25 0.19,0.19 0.26,0.37 0.26,0.62 v 2.36 c 0,0.25 -0.07,0.44 -0.26,0.63 -0.17,0.14 -0.36,0.22 -0.63,0.22 h -12.79 c -0.25,0 -0.44,-0.08 -0.63,-0.22 -0.17,-0.19 -0.25,-0.38 -0.25,-0.63 v -2.36 c 0,-0.25 0.08,-0.43 0.25,-0.62 0.19,-0.17 0.38,-0.25 0.63,-0.25 h 3.48 c 0.27,0 0.44,-0.08 0.63,-0.22 0.18,-0.19 0.26,-0.41 0.26,-0.66 v -13.39 c 0,-0.26 -0.08,-0.44 -0.26,-0.62 -0.19,-0.19 -0.36,-0.25 -0.63,-0.25 h -3.48 c -0.25,0 -0.44,-0.08 -0.63,-0.27 -0.17,-0.19 -0.25,-0.36 -0.25,-0.62 v -2.32 c 0,-0.25 0.08,-0.43 0.25,-0.62 0.19,-0.17 0.38,-0.25 0.63,-0.25 h 12.79 c 0.27,0 0.46,0.08 0.63,0.25 0.19,0.19 0.26,0.37 0.26,0.62 v 2.32 c 0,0.26 -0.07,0.43 -0.26,0.62 -0.17,0.19 -0.36,0.27 -0.63,0.27 h -3.48 c -0.25,0 -0.44,0.06 -0.61,0.25 -0.19,0.18 -0.27,0.36 -0.27,0.62 v 4.06 c 0,0.27 0.08,0.46 0.27,0.63 0.17,0.19 0.36,0.27 0.61,0.27 h 18.34 c 0.27,0 0.49,-0.08 0.66,-0.27 0.16,-0.17 0.23,-0.36 0.23,-0.63 v -4.06 c 0,-0.26 -0.07,-0.44 -0.23,-0.62 -0.17,-0.19 -0.39,-0.25 -0.66,-0.25 h -3.48 c -0.25,0 -0.44,-0.08 -0.63,-0.27 -0.17,-0.19 -0.25,-0.36 -0.25,-0.62 v -2.32 c 0,-0.25 0.08,-0.43 0.25,-0.62 0.19,-0.17 0.38,-0.25 0.63,-0.25 h 12.84 c 0.25,0 0.44,0.08 0.63,0.25 0.17,0.19 0.25,0.37 0.25,0.62 v 2.32 c 0,0.26 -0.08,0.43 -0.25,0.62 -0.19,0.19 -0.38,0.27 -0.63,0.27 h -3.53 c -0.25,0 -0.44,0.06 -0.58,0.25 -0.18,0.18 -0.26,0.36 -0.26,0.62 v 13.39 c 0,0.25 0.08,0.47 0.26,0.66 0.14,0.14 0.33,0.22 0.58,0.22 h 3.53 c 0.25,0 0.44,0.08 0.63,0.25 0.17,0.19 0.25,0.37 0.25,0.62 v 2.36 c 0,0.25 -0.08,0.44 -0.25,0.63 -0.19,0.14 -0.38,0.22 -0.63,0.22 z m 23.38,0 c -0.25,0 -0.44,-0.08 -0.63,-0.22 -0.17,-0.19 -0.25,-0.38 -0.25,-0.63 v -2.36 c 0,-0.25 0.08,-0.43 0.25,-0.62 0.19,-0.17 0.38,-0.25 0.63,-0.25 h 3.48 c 0.27,0 0.44,-0.08 0.63,-0.22 0.19,-0.19 0.26,-0.41 0.26,-0.66 v -13.39 c 0,-0.26 -0.07,-0.44 -0.26,-0.62 -0.19,-0.19 -0.36,-0.25 -0.63,-0.25 h -3.48 c -0.25,0 -0.44,-0.08 -0.63,-0.27 -0.17,-0.19 -0.25,-0.36 -0.25,-0.62 v -2.32 c 0,-0.25 0.08,-0.43 0.25,-0.62 0.19,-0.17 0.38,-0.25 0.63,-0.25 h 31 c 0.25,0 0.44,0.08 0.62,0.25 0.18,0.19 0.25,0.37 0.25,0.62 v 5.5 c 0,0.27 -0.07,0.46 -0.25,0.63 -0.18,0.19 -0.37,0.26 -0.62,0.26 h -2.35 c -0.26,0 -0.45,-0.07 -0.62,-0.26 -0.19,-0.17 -0.27,-0.36 -0.27,-0.63 v -1.42 c 0,-0.26 -0.06,-0.44 -0.21,-0.62 -0.19,-0.19 -0.36,-0.25 -0.63,-0.25 h -17.61 c -0.25,0 -0.44,0.06 -0.61,0.25 -0.19,0.18 -0.26,0.36 -0.26,0.62 v 4.14 c 0,0.27 0.07,0.49 0.26,0.66 0.17,0.16 0.36,0.22 0.61,0.22 h 9.39 c 0.27,0 0.45,0.08 0.63,0.26 0.18,0.19 0.26,0.36 0.26,0.63 v 1.76 c 0,0.25 -0.08,0.44 -0.26,0.61 -0.18,0.19 -0.36,0.27 -0.63,0.27 h -9.39 c -0.25,0 -0.44,0.08 -0.61,0.25 -0.19,0.16 -0.26,0.33 -0.26,0.59 v 4 c 0,0.25 0.07,0.47 0.26,0.66 0.17,0.14 0.36,0.22 0.61,0.22 h 17.61 c 0.27,0 0.44,-0.08 0.63,-0.22 0.15,-0.19 0.21,-0.41 0.21,-0.66 v -0.89 c 0,-0.25 0.08,-0.47 0.27,-0.62 0.17,-0.17 0.36,-0.25 0.62,-0.25 h 2.35 c 0.25,0 0.44,0.08 0.62,0.25 0.18,0.15 0.25,0.37 0.25,0.62 v 4.92 c 0,0.25 -0.07,0.47 -0.25,0.66 -0.18,0.19 -0.37,0.27 -0.62,0.27 z m 91.22,0.11 c -0.26,0 -0.48,-0.08 -0.7,-0.27 -0.22,-0.19 -0.36,-0.36 -0.44,-0.58 l -0.03,-0.08 c -0.08,-0.22 -0.15,-0.32 -0.26,-0.32 -0.11,0 -0.19,0.1 -0.25,0.32 -0.08,0.22 -0.22,0.41 -0.44,0.6 -0.22,0.14 -0.45,0.22 -0.7,0.22 h -20.69 c -0.25,0 -0.52,-0.05 -0.77,-0.16 -0.29,-0.11 -0.54,-0.25 -0.73,-0.41 l -2.86,-2.59 c -0.19,-0.19 -0.38,-0.41 -0.48,-0.67 -0.11,-0.28 -0.19,-0.55 -0.19,-0.8 v -14.05 c 0,-0.26 0.08,-0.51 0.19,-0.78 0.1,-0.28 0.29,-0.5 0.48,-0.68 l 2.86,-2.57 c 0.19,-0.18 0.44,-0.29 0.73,-0.4 0.25,-0.11 0.52,-0.19 0.77,-0.19 h 21.67 c 0.27,0 0.52,0.08 0.81,0.19 0.3,0.11 0.55,0.22 0.74,0.4 l 2.86,2.57 c 0.18,0.18 0.37,0.4 0.48,0.68 0.11,0.27 0.17,0.52 0.17,0.78 v 1.36 c 0,0.25 -0.06,0.44 -0.25,0.63 -0.18,0.17 -0.37,0.25 -0.62,0.25 h -2.35 c -0.26,0 -0.43,-0.08 -0.59,-0.19 -0.19,-0.11 -0.25,-0.3 -0.25,-0.47 0,-0.19 -0.08,-0.37 -0.19,-0.59 -0.11,-0.25 -0.29,-0.44 -0.47,-0.63 l -0.37,-0.32 c -0.19,-0.19 -0.44,-0.3 -0.7,-0.41 -0.28,-0.11 -0.55,-0.17 -0.8,-0.17 h -18.56 c -0.25,0 -0.52,0.06 -0.82,0.17 -0.28,0.11 -0.5,0.22 -0.68,0.41 l -0.38,0.32 c -0.17,0.19 -0.36,0.41 -0.47,0.71 -0.11,0.25 -0.18,0.51 -0.18,0.76 v 10.42 c 0,0.25 0.07,0.52 0.18,0.8 0.11,0.27 0.3,0.49 0.47,0.67 l 0.38,0.28 c 0.18,0.19 0.4,0.35 0.68,0.46 0.3,0.11 0.57,0.14 0.82,0.14 h 20.25 c 0.25,0 0.43,-0.08 0.62,-0.22 0.14,-0.19 0.22,-0.38 0.22,-0.59 v -1.4 c 0,-0.14 0.06,-0.25 0.25,-0.35 0.16,-0.11 0.33,-0.19 0.59,-0.19 h 2.35 c 0.25,0.03 0.44,0.11 0.62,0.29 0.19,0.15 0.25,0.33 0.25,0.58 v 5.17 c 0,0.27 -0.06,0.44 -0.25,0.63 -0.18,0.19 -0.37,0.27 -0.62,0.27 z m 11.75,-3.24 c 0,-0.25 0.08,-0.47 0.25,-0.62 0.19,-0.19 0.38,-0.25 0.63,-0.25 h 3.48 c 0.27,0 0.44,-0.08 0.63,-0.27 0.18,-0.17 0.26,-0.36 0.26,-0.62 v -13.46 c 0,-0.26 -0.08,-0.44 -0.26,-0.62 -0.19,-0.19 -0.36,-0.25 -0.63,-0.25 h -3.48 c -0.25,0 -0.44,-0.08 -0.63,-0.27 -0.17,-0.19 -0.25,-0.36 -0.25,-0.62 v -2.32 c 0,-0.25 0.08,-0.43 0.25,-0.62 0.19,-0.17 0.38,-0.25 0.63,-0.25 h 12.79 c 0.27,0 0.46,0.08 0.63,0.25 0.19,0.19 0.26,0.37 0.26,0.62 v 2.32 c 0,0.26 -0.07,0.43 -0.26,0.62 -0.17,0.19 -0.36,0.27 -0.63,0.27 h -3.48 c -0.25,0 -0.44,0.06 -0.61,0.25 -0.19,0.18 -0.27,0.36 -0.27,0.62 v 13.46 c 0,0.26 0.08,0.45 0.27,0.62 0.17,0.19 0.36,0.27 0.61,0.27 h 3.48 c 0.27,0 0.46,0.06 0.63,0.25 0.19,0.15 0.26,0.37 0.26,0.62 v 2.31 c 0,0.25 -0.07,0.44 -0.26,0.63 -0.17,0.19 -0.36,0.25 -0.63,0.25 h -12.79 c -0.25,0 -0.44,-0.06 -0.63,-0.25 -0.17,-0.19 -0.25,-0.38 -0.25,-0.63 z m 23.01,3.13 c -0.25,0 -0.43,-0.08 -0.62,-0.22 -0.17,-0.19 -0.25,-0.38 -0.25,-0.63 v -5.11 c 0,-0.25 0.08,-0.43 0.25,-0.62 0.19,-0.17 0.37,-0.25 0.62,-0.25 h 2.32 c 0.26,0 0.43,0.08 0.62,0.25 0.19,0.19 0.25,0.37 0.25,0.62 v 1 c 0,0.25 0.08,0.47 0.27,0.66 0.18,0.14 0.36,0.22 0.62,0.22 h 8.44 c 0.25,0 0.44,-0.08 0.62,-0.22 0.18,-0.19 0.25,-0.41 0.25,-0.66 v -13.39 c 0,-0.26 -0.07,-0.44 -0.25,-0.62 -0.18,-0.19 -0.37,-0.25 -0.62,-0.25 h -3.49 c -0.26,0 -0.45,-0.08 -0.62,-0.27 -0.19,-0.19 -0.27,-0.36 -0.27,-0.62 v -2.32 c 0,-0.25 0.08,-0.43 0.27,-0.62 0.17,-0.17 0.36,-0.25 0.62,-0.25 h 12.83 c 0.27,0 0.44,0.08 0.63,0.25 0.15,0.19 0.22,0.37 0.22,0.62 v 2.32 c 0,0.26 -0.07,0.43 -0.22,0.62 -0.19,0.19 -0.36,0.27 -0.63,0.27 h -3.51 c -0.27,0 -0.44,0.06 -0.63,0.25 -0.19,0.18 -0.25,0.36 -0.25,0.62 v 13.39 c 0,0.25 0.06,0.47 0.25,0.66 0.19,0.14 0.36,0.22 0.63,0.22 h 8.47 c 0.26,0 0.43,-0.08 0.62,-0.22 0.14,-0.19 0.22,-0.41 0.22,-0.66 v -0.84 c 0,-0.27 0.08,-0.44 0.26,-0.63 0.18,-0.18 0.36,-0.26 0.61,-0.26 h 2.36 c 0.25,0 0.44,0.08 0.63,0.26 0.17,0.19 0.25,0.36 0.25,0.63 v 4.95 c 0,0.25 -0.08,0.44 -0.25,0.63 -0.19,0.14 -0.38,0.22 -0.63,0.22 z m 60.67,-3.21 c 0,-0.25 0.08,-0.43 0.27,-0.58 0.14,-0.18 0.36,-0.26 0.62,-0.26 h 2.16 c 0.26,0 0.4,-0.06 0.43,-0.17 0.05,-0.11 -0.03,-0.27 -0.21,-0.41 l -6.79,-6.09 c -0.18,-0.19 -0.4,-0.25 -0.65,-0.25 -0.27,0 -0.49,0.06 -0.67,0.25 l -6.78,6.09 c -0.19,0.14 -0.22,0.3 -0.19,0.41 0.04,0.11 0.19,0.17 0.45,0.17 h 2.02 c 0.25,0 0.47,0.08 0.65,0.26 0.14,0.15 0.22,0.33 0.22,0.58 v 2.36 c 0,0.25 -0.08,0.44 -0.22,0.63 -0.18,0.14 -0.4,0.22 -0.65,0.22 h -11.93 c -0.26,0 -0.43,-0.08 -0.62,-0.22 -0.19,-0.19 -0.25,-0.38 -0.25,-0.63 v -2.36 c 0,-0.25 0.06,-0.43 0.25,-0.58 0.19,-0.18 0.36,-0.26 0.62,-0.26 h 2.9 c 0.26,0 0.51,-0.03 0.81,-0.14 0.29,-0.11 0.54,-0.25 0.73,-0.44 l 10.19,-8.92 c 0.19,-0.17 0.37,-0.39 0.48,-0.66 0.11,-0.25 0.19,-0.51 0.19,-0.76 v -3.38 c 0,-0.26 -0.08,-0.44 -0.26,-0.62 -0.18,-0.19 -0.36,-0.25 -0.63,-0.25 h -4.5 c -0.26,0 -0.45,-0.08 -0.62,-0.27 -0.19,-0.19 -0.27,-0.36 -0.27,-0.62 v -2.32 c 0,-0.25 0.08,-0.43 0.27,-0.62 0.17,-0.17 0.36,-0.25 0.62,-0.25 h 14.27 c 0.25,0 0.43,0.08 0.62,0.25 0.17,0.19 0.25,0.37 0.25,0.62 v 2.32 c 0,0.26 -0.08,0.43 -0.25,0.62 -0.19,0.19 -0.37,0.27 -0.62,0.27 h -4.52 c -0.25,0 -0.44,0.06 -0.62,0.25 -0.19,0.18 -0.25,0.36 -0.25,0.62 v 3.27 c 0,0.25 0.06,0.51 0.17,0.79 0.11,0.27 0.29,0.49 0.48,0.63 l 10.31,9.03 c 0.18,0.19 0.44,0.33 0.74,0.44 0.28,0.11 0.55,0.14 0.8,0.14 h 2.79 c 0.25,0 0.44,0.08 0.61,0.26 0.19,0.15 0.27,0.33 0.27,0.58 v 2.36 c 0,0.25 -0.08,0.44 -0.27,0.63 -0.17,0.14 -0.36,0.22 -0.61,0.22 h -11.92 c -0.26,0 -0.48,-0.08 -0.62,-0.22 -0.19,-0.19 -0.27,-0.38 -0.27,-0.63 z m 44.54,3.24 c -0.25,0 -0.44,-0.08 -0.63,-0.25 -0.17,-0.19 -0.25,-0.38 -0.25,-0.63 v -2.36 c 0,-0.25 0.08,-0.43 0.25,-0.62 0.19,-0.17 0.38,-0.25 0.63,-0.25 h 3.48 c 0.27,0 0.44,-0.08 0.63,-0.25 0.19,-0.19 0.26,-0.38 0.26,-0.63 v -13.39 c 0,-0.26 -0.07,-0.44 -0.26,-0.62 -0.19,-0.19 -0.36,-0.25 -0.63,-0.25 h -3.48 c -0.25,0 -0.44,-0.08 -0.63,-0.27 -0.17,-0.19 -0.25,-0.36 -0.25,-0.62 v -2.32 c 0,-0.25 0.08,-0.43 0.25,-0.62 0.19,-0.17 0.38,-0.25 0.63,-0.25 h 27.19 c 0.25,0 0.51,0.03 0.84,0.14 0.28,0.11 0.55,0.22 0.74,0.37 l 3.43,2.61 c 0.19,0.14 0.38,0.36 0.52,0.61 0.11,0.27 0.19,0.52 0.19,0.78 v 4.66 c 0,0.25 -0.08,0.52 -0.19,0.77 -0.14,0.26 -0.33,0.48 -0.52,0.62 l -0.76,0.6 c -0.19,0.1 -0.3,0.28 -0.3,0.5 0,0.18 0.11,0.37 0.3,0.51 l 0.76,0.56 c 0.19,0.14 0.38,0.36 0.52,0.61 0.11,0.27 0.19,0.57 0.19,0.82 v 4.65 c 0,0.27 -0.08,0.52 -0.19,0.78 -0.14,0.25 -0.33,0.47 -0.52,0.61 l -3.43,2.58 c -0.19,0.14 -0.46,0.3 -0.74,0.41 -0.33,0.11 -0.59,0.14 -0.84,0.14 z m 28.83,-16.77 c 0,-0.25 -0.06,-0.51 -0.17,-0.76 -0.16,-0.3 -0.35,-0.52 -0.52,-0.63 l -0.73,-0.59 c -0.19,-0.11 -0.44,-0.22 -0.74,-0.33 -0.33,-0.11 -0.59,-0.17 -0.84,-0.17 h -16.52 c -0.25,0 -0.44,0.06 -0.61,0.25 -0.18,0.18 -0.26,0.36 -0.26,0.62 v 4.11 c 0,0.25 0.08,0.44 0.26,0.63 0.17,0.17 0.36,0.25 0.61,0.25 h 16.03 c 0.27,0 0.55,-0.03 0.85,-0.14 0.29,-0.11 0.54,-0.22 0.73,-0.38 l 1.22,-0.87 c 0.17,-0.14 0.36,-0.38 0.52,-0.63 0.11,-0.25 0.17,-0.51 0.17,-0.76 z m 0,9.61 c 0,-0.25 -0.06,-0.51 -0.17,-0.76 -0.16,-0.27 -0.35,-0.49 -0.52,-0.63 l -1.11,-0.81 c -0.17,-0.14 -0.44,-0.25 -0.73,-0.36 -0.33,-0.11 -0.58,-0.19 -0.85,-0.19 h -16.14 c -0.25,0 -0.44,0.08 -0.61,0.27 -0.18,0.17 -0.26,0.36 -0.26,0.61 v 4.04 c 0,0.25 0.08,0.44 0.26,0.63 0.17,0.17 0.36,0.25 0.61,0.25 h 16.52 c 0.25,0 0.51,-0.03 0.84,-0.14 0.3,-0.11 0.55,-0.22 0.74,-0.38 l 0.73,-0.54 c 0.17,-0.15 0.36,-0.38 0.52,-0.63 0.11,-0.25 0.17,-0.52 0.17,-0.77 z m 37.89,7.13 c -0.27,0 -0.44,-0.08 -0.63,-0.22 -0.18,-0.19 -0.25,-0.38 -0.25,-0.63 v -2.36 c 0,-0.25 0.07,-0.43 0.25,-0.62 0.19,-0.17 0.36,-0.25 0.63,-0.25 h 3.48 c 0.25,0 0.44,-0.08 0.63,-0.22 0.19,-0.19 0.25,-0.41 0.25,-0.66 v -11.78 c 0,-0.25 -0.06,-0.51 -0.17,-0.76 -0.16,-0.3 -0.35,-0.52 -0.52,-0.63 l -0.73,-0.59 c -0.19,-0.11 -0.44,-0.22 -0.74,-0.33 -0.33,-0.11 -0.59,-0.17 -0.84,-0.17 h -14.97 c -0.25,0 -0.52,0.06 -0.81,0.17 -0.33,0.11 -0.58,0.22 -0.77,0.33 l -0.73,0.59 c -0.19,0.11 -0.36,0.33 -0.47,0.63 -0.16,0.25 -0.22,0.51 -0.22,0.76 v 11.78 c 0,0.25 0.06,0.47 0.25,0.66 0.19,0.14 0.36,0.22 0.62,0.22 h 3.49 c 0.25,0 0.44,0.08 0.62,0.25 0.19,0.19 0.25,0.37 0.25,0.62 v 2.36 c 0,0.25 -0.06,0.44 -0.25,0.63 -0.18,0.14 -0.37,0.22 -0.62,0.22 h -12.8 c -0.26,0 -0.45,-0.08 -0.62,-0.22 -0.19,-0.19 -0.27,-0.38 -0.27,-0.63 v -2.36 c 0,-0.25 0.08,-0.43 0.27,-0.62 0.17,-0.17 0.36,-0.25 0.62,-0.25 h 3.49 c 0.25,0 0.43,-0.08 0.62,-0.22 0.17,-0.19 0.25,-0.41 0.25,-0.66 v -13.83 c 0,-0.26 0.08,-0.51 0.22,-0.78 0.11,-0.25 0.3,-0.47 0.48,-0.61 l 3.44,-2.61 c 0.19,-0.15 0.44,-0.26 0.78,-0.37 0.28,-0.11 0.55,-0.14 0.8,-0.14 h 17.69 c 0.25,0 0.5,0.03 0.84,0.14 0.28,0.11 0.55,0.22 0.74,0.37 l 3.43,2.61 c 0.19,0.14 0.38,0.36 0.52,0.61 0.11,0.27 0.19,0.52 0.19,0.78 v 13.83 c 0,0.25 0.07,0.47 0.25,0.66 0.18,0.14 0.37,0.22 0.62,0.22 h 3.53 c 0.25,0 0.44,0.08 0.61,0.25 0.16,0.19 0.22,0.37 0.22,0.62 v 2.36 c 0,0.25 -0.06,0.44 -0.22,0.63 -0.17,0.14 -0.36,0.22 -0.61,0.22 z m 26.97,-4.6 c 0.18,0.16 0.43,0.27 0.78,0.38 0.28,0.11 0.55,0.14 0.8,0.14 h 18.26 c 0.27,0 0.52,-0.03 0.84,-0.11 0.33,-0.11 0.6,-0.22 0.77,-0.33 l 2.09,-1.33 c 0.19,-0.11 0.41,-0.14 0.68,-0.06 0.25,0.03 0.43,0.17 0.54,0.36 l 1.21,1.98 c 0.11,0.19 0.15,0.41 0.11,0.66 -0.04,0.22 -0.19,0.41 -0.36,0.52 l -3.08,1.93 c -0.19,0.11 -0.46,0.24 -0.78,0.35 -0.33,0.06 -0.58,0.11 -0.85,0.11 h -20.79 c -0.25,0 -0.52,-0.05 -0.8,-0.16 -0.33,-0.11 -0.59,-0.22 -0.78,-0.36 l -3.44,-2.61 c -0.19,-0.11 -0.37,-0.33 -0.48,-0.58 -0.14,-0.29 -0.22,-0.56 -0.22,-0.81 v -4.66 c 0,-0.26 0.08,-0.51 0.22,-0.78 0.11,-0.25 0.29,-0.47 0.48,-0.61 l 3.44,-2.61 c 0.19,-0.11 0.45,-0.21 0.78,-0.32 0.28,-0.11 0.55,-0.19 0.8,-0.19 h 18.96 c 0.25,0 0.52,-0.03 0.82,-0.14 0.28,-0.11 0.54,-0.22 0.73,-0.38 l 0.77,-0.54 c 0.18,-0.14 0.36,-0.38 0.51,-0.63 0.11,-0.25 0.17,-0.51 0.17,-0.76 v -0.6 c 0,-0.25 -0.06,-0.51 -0.17,-0.76 -0.15,-0.3 -0.33,-0.52 -0.51,-0.63 l -0.77,-0.59 c -0.19,-0.11 -0.45,-0.22 -0.73,-0.33 -0.3,-0.11 -0.57,-0.17 -0.82,-0.17 h -17.71 c -0.25,0 -0.52,0.03 -0.85,0.14 -0.33,0.08 -0.58,0.19 -0.76,0.29 l -2.69,1.61 c -0.17,0.11 -0.39,0.14 -0.66,0.11 -0.25,-0.07 -0.43,-0.22 -0.54,-0.4 l -1.21,-1.99 c -0.12,-0.22 -0.15,-0.43 -0.08,-0.65 0.04,-0.25 0.19,-0.44 0.41,-0.55 l 3.63,-2.2 c 0.18,-0.11 0.43,-0.22 0.76,-0.3 0.33,-0.11 0.6,-0.14 0.85,-0.14 h 20.21 c 0.25,0 0.52,0.03 0.85,0.14 0.29,0.11 0.54,0.22 0.73,0.37 l 3.44,2.61 c 0.19,0.14 0.37,0.36 0.52,0.61 0.1,0.27 0.18,0.52 0.18,0.78 v 4.66 c 0,0.25 -0.08,0.52 -0.18,0.77 -0.15,0.26 -0.33,0.48 -0.52,0.62 l -3.44,2.61 c -0.19,0.14 -0.44,0.25 -0.73,0.36 -0.33,0.11 -0.6,0.16 -0.85,0.16 h -18.96 c -0.25,0 -0.52,0.06 -0.8,0.17 -0.35,0.11 -0.6,0.22 -0.78,0.37 l -0.74,0.55 c -0.17,0.14 -0.36,0.36 -0.47,0.63 -0.15,0.25 -0.21,0.51 -0.21,0.76 v 0.59 c 0,0.25 0.06,0.52 0.21,0.77 0.11,0.25 0.3,0.48 0.47,0.63 z"
         id="path1310" />
    </clipPath>
    <clipPath
       clipPathUnits="userSpaceOnUse"
       id="clipPath7786">
      <path
         d="m 3690.58,1208.17 c 0,1.81 0.95,3.09 2.4,3.94 -0.2,-0.49 -0.3,-1.04 -0.3,-1.65 7.32,0.27 11.81,0.86 14.29,1.56 1.69,-1.39 -1.43,-3.3 -16.39,-3.85"
         id="path7784" />
    </clipPath>
    <clipPath
       clipPathUnits="userSpaceOnUse"
       id="clipPath14704">
      <path
         d="m 3706.97,1212.02 c -1.06,0.88 -4.05,1.56 -7.19,1.56 -2.46,0 -5.01,-0.41 -6.8,-1.47 1.12,2.78 5.13,3.76 8.92,3.76 5.69,0 10.9,-2.21 5.07,-3.85"
         id="path14702" />
    </clipPath>
    <clipPath
       clipPathUnits="userSpaceOnUse"
       id="clipPath14720">
      <path
         d="m 3692.68,1210.46 c 0,0.61 0.1,1.16 0.3,1.65 1.79,1.06 4.34,1.47 6.8,1.47 3.14,0 6.13,-0.68 7.19,-1.56 -2.48,-0.7 -6.97,-1.29 -14.29,-1.56"
         id="path14718" />
    </clipPath>
    <clipPath
       clipPathUnits="userSpaceOnUse"
       id="clipPath27714">
      <path
         d="m 3654.18,1231.89 c -0.07,0 -0.1,0.43 -0.08,1.48 h 0.4 c -0.13,-0.89 -0.25,-1.48 -0.32,-1.48"
         id="path27712" />
    </clipPath>
    <clipPath
       clipPathUnits="userSpaceOnUse"
       id="clipPath28962">
      <path
         d="m 3494.52,1991.48 c -0.31,0 -0.32,1.81 -0.19,3.62 0.14,1.81 0.42,3.62 0.72,3.62 0.22,0 0.46,-0.97 0.64,-3.61 -0.58,-2.66 -0.95,-3.63 -1.17,-3.63"
         id="path28960" />
    </clipPath>
    <clipPath
       clipPathUnits="userSpaceOnUse"
       id="clipPath28978">
      <path
         d="m 3494.52,1991.48 c -0.31,0 -0.32,1.81 -0.19,3.62 0.14,1.81 0.42,3.62 0.72,3.62 0.22,0 0.46,-0.97 0.64,-3.61 -0.58,-2.66 -0.95,-3.63 -1.17,-3.63"
         id="path28976" />
    </clipPath>
    <clipPath
       clipPathUnits="userSpaceOnUse"
       id="clipPath28984">
      <path
         d="m 3429.89,2012.09 c -0.25,0 -0.43,-0.08 -0.62,-0.22 -0.17,-0.19 -0.25,-0.38 -0.25,-0.63 v -5.11 c 0,-0.25 0.08,-0.43 0.25,-0.62 0.19,-0.17 0.37,-0.25 0.62,-0.25 h 2.32 c 0.26,0 0.43,0.08 0.62,0.25 0.19,0.19 0.25,0.37 0.25,0.62 v 1 c 0,0.25 0.08,0.47 0.27,0.66 0.19,0.14 0.36,0.22 0.62,0.22 h 8.44 c 0.25,0 0.44,-0.08 0.63,-0.22 0.17,-0.19 0.25,-0.41 0.25,-0.66 v -13.39 c 0,-0.26 -0.08,-0.44 -0.25,-0.62 -0.19,-0.19 -0.38,-0.25 -0.63,-0.25 h -3.48 c -0.27,0 -0.46,-0.08 -0.63,-0.27 -0.19,-0.19 -0.26,-0.36 -0.26,-0.62 v -2.32 c 0,-0.25 0.07,-0.43 0.26,-0.62 0.17,-0.17 0.36,-0.25 0.63,-0.25 h 12.82 c 0.27,0 0.44,0.08 0.63,0.25 0.16,0.19 0.22,0.37 0.22,0.62 v 2.32 c 0,0.26 -0.06,0.43 -0.22,0.62 -0.19,0.19 -0.36,0.27 -0.63,0.27 h -3.51 c -0.27,0 -0.44,0.06 -0.63,0.25 -0.18,0.18 -0.25,0.36 -0.25,0.62 v 13.39 c 0,0.25 0.07,0.47 0.25,0.66 0.19,0.14 0.36,0.22 0.63,0.22 h 8.47 c 0.26,0 0.43,-0.08 0.62,-0.22 0.14,-0.19 0.22,-0.41 0.22,-0.66 v -0.84 c 0,-0.27 0.08,-0.44 0.27,-0.63 0.17,-0.18 0.36,-0.26 0.61,-0.26 h 2.36 c 0.25,0 0.43,0.08 0.62,0.26 0.17,0.19 0.25,0.36 0.25,0.63 v 4.95 c 0,0.25 -0.08,0.44 -0.25,0.63 -0.19,0.14 -0.37,0.22 -0.62,0.22 z m 64.56,0 c -0.25,0 -0.44,-0.08 -0.63,-0.22 -0.17,-0.19 -0.25,-0.38 -0.25,-0.63 v -2.36 c 0,-0.25 0.08,-0.43 0.25,-0.62 0.19,-0.17 0.38,-0.25 0.63,-0.25 h 3.48 c 0.27,0 0.49,-0.08 0.66,-0.22 0.16,-0.19 0.23,-0.41 0.23,-0.66 v -4.08 c 0,-0.25 -0.07,-0.43 -0.23,-0.62 -0.17,-0.17 -0.39,-0.25 -0.66,-0.25 h -18.34 c -0.25,0 -0.44,0.08 -0.61,0.25 -0.19,0.19 -0.27,0.37 -0.27,0.62 v 4.08 c 0,0.25 0.08,0.47 0.27,0.66 0.17,0.14 0.36,0.22 0.61,0.22 h 3.48 c 0.27,0 0.46,0.08 0.63,0.25 0.19,0.19 0.26,0.37 0.26,0.62 v 2.36 c 0,0.25 -0.07,0.44 -0.26,0.63 -0.17,0.14 -0.36,0.22 -0.63,0.22 h -12.79 c -0.25,0 -0.44,-0.08 -0.63,-0.22 -0.17,-0.19 -0.25,-0.38 -0.25,-0.63 v -2.36 c 0,-0.25 0.08,-0.43 0.25,-0.62 0.19,-0.17 0.38,-0.25 0.63,-0.25 h 3.48 c 0.27,0 0.44,-0.08 0.63,-0.22 0.18,-0.19 0.26,-0.41 0.26,-0.66 v -13.39 c 0,-0.26 -0.08,-0.44 -0.26,-0.62 -0.19,-0.19 -0.36,-0.25 -0.63,-0.25 h -3.48 c -0.25,0 -0.44,-0.08 -0.63,-0.27 -0.17,-0.19 -0.25,-0.36 -0.25,-0.62 v -2.32 c 0,-0.25 0.08,-0.43 0.25,-0.62 0.19,-0.17 0.38,-0.25 0.63,-0.25 h 12.79 c 0.27,0 0.46,0.08 0.63,0.25 0.19,0.19 0.26,0.37 0.26,0.62 v 2.32 c 0,0.26 -0.07,0.43 -0.26,0.62 -0.17,0.19 -0.36,0.27 -0.63,0.27 h -3.48 c -0.25,0 -0.44,0.06 -0.61,0.25 -0.19,0.18 -0.27,0.36 -0.27,0.62 v 4.06 c 0,0.27 0.08,0.46 0.27,0.63 0.17,0.19 0.36,0.27 0.61,0.27 h 18.34 c 0.27,0 0.49,-0.08 0.66,-0.27 0.16,-0.17 0.23,-0.36 0.23,-0.63 v -4.06 c 0,-0.26 -0.07,-0.44 -0.23,-0.62 -0.17,-0.19 -0.39,-0.25 -0.66,-0.25 h -3.48 c -0.25,0 -0.44,-0.08 -0.63,-0.27 -0.17,-0.19 -0.25,-0.36 -0.25,-0.62 v -2.32 c 0,-0.25 0.08,-0.43 0.25,-0.62 0.19,-0.17 0.38,-0.25 0.63,-0.25 h 12.84 c 0.25,0 0.44,0.08 0.63,0.25 0.17,0.19 0.25,0.37 0.25,0.62 v 2.32 c 0,0.26 -0.08,0.43 -0.25,0.62 -0.19,0.19 -0.38,0.27 -0.63,0.27 h -3.53 c -0.25,0 -0.44,0.06 -0.58,0.25 -0.18,0.18 -0.26,0.36 -0.26,0.62 v 13.39 c 0,0.25 0.08,0.47 0.26,0.66 0.14,0.14 0.33,0.22 0.58,0.22 h 3.53 c 0.25,0 0.44,0.08 0.63,0.25 0.17,0.19 0.25,0.37 0.25,0.62 v 2.36 c 0,0.25 -0.08,0.44 -0.25,0.63 -0.19,0.14 -0.38,0.22 -0.63,0.22 z m 23.38,0 c -0.25,0 -0.44,-0.08 -0.63,-0.22 -0.17,-0.19 -0.25,-0.38 -0.25,-0.63 v -2.36 c 0,-0.25 0.08,-0.43 0.25,-0.62 0.19,-0.17 0.38,-0.25 0.63,-0.25 h 3.48 c 0.27,0 0.44,-0.08 0.63,-0.22 0.19,-0.19 0.26,-0.41 0.26,-0.66 v -13.39 c 0,-0.26 -0.07,-0.44 -0.26,-0.62 -0.19,-0.19 -0.36,-0.25 -0.63,-0.25 h -3.48 c -0.25,0 -0.44,-0.08 -0.63,-0.27 -0.17,-0.19 -0.25,-0.36 -0.25,-0.62 v -2.32 c 0,-0.25 0.08,-0.43 0.25,-0.62 0.19,-0.17 0.38,-0.25 0.63,-0.25 h 31 c 0.25,0 0.44,0.08 0.62,0.25 0.18,0.19 0.25,0.37 0.25,0.62 v 5.5 c 0,0.27 -0.07,0.46 -0.25,0.63 -0.18,0.19 -0.37,0.26 -0.62,0.26 h -2.35 c -0.26,0 -0.45,-0.07 -0.62,-0.26 -0.19,-0.17 -0.27,-0.36 -0.27,-0.63 v -1.42 c 0,-0.26 -0.06,-0.44 -0.21,-0.62 -0.19,-0.19 -0.36,-0.25 -0.63,-0.25 h -17.61 c -0.25,0 -0.44,0.06 -0.61,0.25 -0.19,0.18 -0.26,0.36 -0.26,0.62 v 4.14 c 0,0.27 0.07,0.49 0.26,0.66 0.17,0.16 0.36,0.22 0.61,0.22 h 9.39 c 0.27,0 0.45,0.08 0.63,0.26 0.18,0.19 0.26,0.36 0.26,0.63 v 1.76 c 0,0.25 -0.08,0.44 -0.26,0.61 -0.18,0.19 -0.36,0.27 -0.63,0.27 h -9.39 c -0.25,0 -0.44,0.08 -0.61,0.25 -0.19,0.16 -0.26,0.33 -0.26,0.59 v 4 c 0,0.25 0.07,0.47 0.26,0.66 0.17,0.14 0.36,0.22 0.61,0.22 h 17.61 c 0.27,0 0.44,-0.08 0.63,-0.22 0.15,-0.19 0.21,-0.41 0.21,-0.66 v -0.89 c 0,-0.25 0.08,-0.47 0.27,-0.62 0.17,-0.17 0.36,-0.25 0.62,-0.25 h 2.35 c 0.25,0 0.44,0.08 0.62,0.25 0.18,0.15 0.25,0.37 0.25,0.62 v 4.92 c 0,0.25 -0.07,0.47 -0.25,0.66 -0.18,0.19 -0.37,0.27 -0.62,0.27 z m 91.22,0.11 c -0.26,0 -0.48,-0.08 -0.7,-0.27 -0.22,-0.19 -0.36,-0.36 -0.44,-0.58 l -0.03,-0.08 c -0.08,-0.22 -0.15,-0.32 -0.26,-0.32 -0.11,0 -0.19,0.1 -0.25,0.32 -0.08,0.22 -0.22,0.41 -0.44,0.6 -0.22,0.14 -0.45,0.22 -0.7,0.22 h -20.69 c -0.25,0 -0.52,-0.05 -0.77,-0.16 -0.29,-0.11 -0.54,-0.25 -0.73,-0.41 l -2.86,-2.59 c -0.19,-0.19 -0.38,-0.41 -0.48,-0.67 -0.11,-0.28 -0.19,-0.55 -0.19,-0.8 v -14.05 c 0,-0.26 0.08,-0.51 0.19,-0.78 0.1,-0.28 0.29,-0.5 0.48,-0.68 l 2.86,-2.57 c 0.19,-0.18 0.44,-0.29 0.73,-0.4 0.25,-0.11 0.52,-0.19 0.77,-0.19 h 21.67 c 0.27,0 0.52,0.08 0.81,0.19 0.3,0.11 0.55,0.22 0.74,0.4 l 2.86,2.57 c 0.18,0.18 0.37,0.4 0.48,0.68 0.11,0.27 0.17,0.52 0.17,0.78 v 1.36 c 0,0.25 -0.06,0.44 -0.25,0.63 -0.18,0.17 -0.37,0.25 -0.62,0.25 h -2.35 c -0.26,0 -0.43,-0.08 -0.59,-0.19 -0.19,-0.11 -0.25,-0.3 -0.25,-0.47 0,-0.19 -0.08,-0.37 -0.19,-0.59 -0.11,-0.25 -0.29,-0.44 -0.47,-0.63 l -0.37,-0.32 c -0.19,-0.19 -0.44,-0.3 -0.7,-0.41 -0.28,-0.11 -0.55,-0.17 -0.8,-0.17 h -18.56 c -0.25,0 -0.52,0.06 -0.82,0.17 -0.28,0.11 -0.5,0.22 -0.68,0.41 l -0.38,0.32 c -0.17,0.19 -0.36,0.41 -0.47,0.71 -0.11,0.25 -0.18,0.51 -0.18,0.76 v 10.42 c 0,0.25 0.07,0.52 0.18,0.8 0.11,0.27 0.3,0.49 0.47,0.67 l 0.38,0.28 c 0.18,0.19 0.4,0.35 0.68,0.46 0.3,0.11 0.57,0.14 0.82,0.14 h 20.25 c 0.25,0 0.43,-0.08 0.62,-0.22 0.14,-0.19 0.22,-0.38 0.22,-0.59 v -1.4 c 0,-0.14 0.06,-0.25 0.25,-0.35 0.16,-0.11 0.33,-0.19 0.59,-0.19 h 2.35 c 0.25,0.03 0.44,0.11 0.62,0.29 0.19,0.15 0.25,0.33 0.25,0.58 v 5.17 c 0,0.27 -0.06,0.44 -0.25,0.63 -0.18,0.19 -0.37,0.27 -0.62,0.27 z m 11.75,-3.24 c 0,-0.25 0.08,-0.47 0.25,-0.62 0.19,-0.19 0.38,-0.25 0.63,-0.25 h 3.48 c 0.27,0 0.44,-0.08 0.63,-0.27 0.18,-0.17 0.26,-0.36 0.26,-0.62 v -13.46 c 0,-0.26 -0.08,-0.44 -0.26,-0.62 -0.19,-0.19 -0.36,-0.25 -0.63,-0.25 h -3.48 c -0.25,0 -0.44,-0.08 -0.63,-0.27 -0.17,-0.19 -0.25,-0.36 -0.25,-0.62 v -2.32 c 0,-0.25 0.08,-0.43 0.25,-0.62 0.19,-0.17 0.38,-0.25 0.63,-0.25 h 12.79 c 0.27,0 0.46,0.08 0.63,0.25 0.19,0.19 0.26,0.37 0.26,0.62 v 2.32 c 0,0.26 -0.07,0.43 -0.26,0.62 -0.17,0.19 -0.36,0.27 -0.63,0.27 h -3.48 c -0.25,0 -0.44,0.06 -0.61,0.25 -0.19,0.18 -0.27,0.36 -0.27,0.62 v 13.46 c 0,0.26 0.08,0.45 0.27,0.62 0.17,0.19 0.36,0.27 0.61,0.27 h 3.48 c 0.27,0 0.46,0.06 0.63,0.25 0.19,0.15 0.26,0.37 0.26,0.62 v 2.31 c 0,0.25 -0.07,0.44 -0.26,0.63 -0.17,0.19 -0.36,0.25 -0.63,0.25 h -12.79 c -0.25,0 -0.44,-0.06 -0.63,-0.25 -0.17,-0.19 -0.25,-0.38 -0.25,-0.63 z m 23.01,3.13 c -0.25,0 -0.43,-0.08 -0.62,-0.22 -0.17,-0.19 -0.25,-0.38 -0.25,-0.63 v -5.11 c 0,-0.25 0.08,-0.43 0.25,-0.62 0.19,-0.17 0.37,-0.25 0.62,-0.25 h 2.32 c 0.26,0 0.43,0.08 0.62,0.25 0.19,0.19 0.25,0.37 0.25,0.62 v 1 c 0,0.25 0.08,0.47 0.27,0.66 0.18,0.14 0.36,0.22 0.62,0.22 h 8.44 c 0.25,0 0.44,-0.08 0.62,-0.22 0.18,-0.19 0.25,-0.41 0.25,-0.66 v -13.39 c 0,-0.26 -0.07,-0.44 -0.25,-0.62 -0.18,-0.19 -0.37,-0.25 -0.62,-0.25 h -3.49 c -0.26,0 -0.45,-0.08 -0.62,-0.27 -0.19,-0.19 -0.27,-0.36 -0.27,-0.62 v -2.32 c 0,-0.25 0.08,-0.43 0.27,-0.62 0.17,-0.17 0.36,-0.25 0.62,-0.25 h 12.83 c 0.27,0 0.44,0.08 0.63,0.25 0.15,0.19 0.22,0.37 0.22,0.62 v 2.32 c 0,0.26 -0.07,0.43 -0.22,0.62 -0.19,0.19 -0.36,0.27 -0.63,0.27 h -3.51 c -0.27,0 -0.44,0.06 -0.63,0.25 -0.19,0.18 -0.25,0.36 -0.25,0.62 v 13.39 c 0,0.25 0.06,0.47 0.25,0.66 0.19,0.14 0.36,0.22 0.63,0.22 h 8.47 c 0.26,0 0.43,-0.08 0.62,-0.22 0.14,-0.19 0.22,-0.41 0.22,-0.66 v -0.84 c 0,-0.27 0.08,-0.44 0.26,-0.63 0.18,-0.18 0.36,-0.26 0.61,-0.26 h 2.36 c 0.25,0 0.44,0.08 0.63,0.26 0.17,0.19 0.25,0.36 0.25,0.63 v 4.95 c 0,0.25 -0.08,0.44 -0.25,0.63 -0.19,0.14 -0.38,0.22 -0.63,0.22 z m 60.67,-3.21 c 0,-0.25 0.08,-0.43 0.27,-0.58 0.14,-0.18 0.36,-0.26 0.62,-0.26 h 2.16 c 0.26,0 0.4,-0.06 0.43,-0.17 0.05,-0.11 -0.03,-0.27 -0.21,-0.41 l -6.79,-6.09 c -0.18,-0.19 -0.4,-0.25 -0.65,-0.25 -0.27,0 -0.49,0.06 -0.67,0.25 l -6.78,6.09 c -0.19,0.14 -0.22,0.3 -0.19,0.41 0.04,0.11 0.19,0.17 0.45,0.17 h 2.02 c 0.25,0 0.47,0.08 0.65,0.26 0.14,0.15 0.22,0.33 0.22,0.58 v 2.36 c 0,0.25 -0.08,0.44 -0.22,0.63 -0.18,0.14 -0.4,0.22 -0.65,0.22 h -11.93 c -0.26,0 -0.43,-0.08 -0.62,-0.22 -0.19,-0.19 -0.25,-0.38 -0.25,-0.63 v -2.36 c 0,-0.25 0.06,-0.43 0.25,-0.58 0.19,-0.18 0.36,-0.26 0.62,-0.26 h 2.9 c 0.26,0 0.51,-0.03 0.81,-0.14 0.29,-0.11 0.54,-0.25 0.73,-0.44 l 10.19,-8.92 c 0.19,-0.17 0.37,-0.39 0.48,-0.66 0.11,-0.25 0.19,-0.51 0.19,-0.76 v -3.38 c 0,-0.26 -0.08,-0.44 -0.26,-0.62 -0.18,-0.19 -0.36,-0.25 -0.63,-0.25 h -4.5 c -0.26,0 -0.45,-0.08 -0.62,-0.27 -0.19,-0.19 -0.27,-0.36 -0.27,-0.62 v -2.32 c 0,-0.25 0.08,-0.43 0.27,-0.62 0.17,-0.17 0.36,-0.25 0.62,-0.25 h 14.27 c 0.25,0 0.43,0.08 0.62,0.25 0.17,0.19 0.25,0.37 0.25,0.62 v 2.32 c 0,0.26 -0.08,0.43 -0.25,0.62 -0.19,0.19 -0.37,0.27 -0.62,0.27 h -4.52 c -0.25,0 -0.44,0.06 -0.62,0.25 -0.19,0.18 -0.25,0.36 -0.25,0.62 v 3.27 c 0,0.25 0.06,0.51 0.17,0.79 0.11,0.27 0.29,0.49 0.48,0.63 l 10.31,9.03 c 0.18,0.19 0.44,0.33 0.74,0.44 0.28,0.11 0.55,0.14 0.8,0.14 h 2.79 c 0.25,0 0.44,0.08 0.61,0.26 0.19,0.15 0.27,0.33 0.27,0.58 v 2.36 c 0,0.25 -0.08,0.44 -0.27,0.63 -0.17,0.14 -0.36,0.22 -0.61,0.22 h -11.92 c -0.26,0 -0.48,-0.08 -0.62,-0.22 -0.19,-0.19 -0.27,-0.38 -0.27,-0.63 z m 44.54,3.24 c -0.25,0 -0.44,-0.08 -0.63,-0.25 -0.17,-0.19 -0.25,-0.38 -0.25,-0.63 v -2.36 c 0,-0.25 0.08,-0.43 0.25,-0.62 0.19,-0.17 0.38,-0.25 0.63,-0.25 h 3.48 c 0.27,0 0.44,-0.08 0.63,-0.25 0.19,-0.19 0.26,-0.38 0.26,-0.63 v -13.39 c 0,-0.26 -0.07,-0.44 -0.26,-0.62 -0.19,-0.19 -0.36,-0.25 -0.63,-0.25 h -3.48 c -0.25,0 -0.44,-0.08 -0.63,-0.27 -0.17,-0.19 -0.25,-0.36 -0.25,-0.62 v -2.32 c 0,-0.25 0.08,-0.43 0.25,-0.62 0.19,-0.17 0.38,-0.25 0.63,-0.25 h 27.19 c 0.25,0 0.51,0.03 0.84,0.14 0.28,0.11 0.55,0.22 0.74,0.37 l 3.43,2.61 c 0.19,0.14 0.38,0.36 0.52,0.61 0.11,0.27 0.19,0.52 0.19,0.78 v 4.66 c 0,0.25 -0.08,0.52 -0.19,0.77 -0.14,0.26 -0.33,0.48 -0.52,0.62 l -0.76,0.6 c -0.19,0.1 -0.3,0.28 -0.3,0.5 0,0.18 0.11,0.37 0.3,0.51 l 0.76,0.56 c 0.19,0.14 0.38,0.36 0.52,0.61 0.11,0.27 0.19,0.57 0.19,0.82 v 4.65 c 0,0.27 -0.08,0.52 -0.19,0.78 -0.14,0.25 -0.33,0.47 -0.52,0.61 l -3.43,2.58 c -0.19,0.14 -0.46,0.3 -0.74,0.41 -0.33,0.11 -0.59,0.14 -0.84,0.14 z m 28.83,-16.77 c 0,-0.25 -0.06,-0.51 -0.17,-0.76 -0.16,-0.3 -0.35,-0.52 -0.52,-0.63 l -0.73,-0.59 c -0.19,-0.11 -0.44,-0.22 -0.74,-0.33 -0.33,-0.11 -0.59,-0.17 -0.84,-0.17 h -16.52 c -0.25,0 -0.44,0.06 -0.61,0.25 -0.18,0.18 -0.26,0.36 -0.26,0.62 v 4.11 c 0,0.25 0.08,0.44 0.26,0.63 0.17,0.17 0.36,0.25 0.61,0.25 h 16.03 c 0.27,0 0.55,-0.03 0.85,-0.14 0.29,-0.11 0.54,-0.22 0.73,-0.38 l 1.22,-0.87 c 0.17,-0.14 0.36,-0.38 0.52,-0.63 0.11,-0.25 0.17,-0.51 0.17,-0.76 z m 0,9.61 c 0,-0.25 -0.06,-0.51 -0.17,-0.76 -0.16,-0.27 -0.35,-0.49 -0.52,-0.63 l -1.11,-0.81 c -0.17,-0.14 -0.44,-0.25 -0.73,-0.36 -0.33,-0.11 -0.58,-0.19 -0.85,-0.19 h -16.14 c -0.25,0 -0.44,0.08 -0.61,0.27 -0.18,0.17 -0.26,0.36 -0.26,0.61 v 4.04 c 0,0.25 0.08,0.44 0.26,0.63 0.17,0.17 0.36,0.25 0.61,0.25 h 16.52 c 0.25,0 0.51,-0.03 0.84,-0.14 0.3,-0.11 0.55,-0.22 0.74,-0.38 l 0.73,-0.54 c 0.17,-0.15 0.36,-0.38 0.52,-0.63 0.11,-0.25 0.17,-0.52 0.17,-0.77 z m 37.89,7.13 c -0.27,0 -0.44,-0.08 -0.63,-0.22 -0.18,-0.19 -0.25,-0.38 -0.25,-0.63 v -2.36 c 0,-0.25 0.07,-0.43 0.25,-0.62 0.19,-0.17 0.36,-0.25 0.63,-0.25 h 3.48 c 0.25,0 0.44,-0.08 0.63,-0.22 0.19,-0.19 0.25,-0.41 0.25,-0.66 v -11.78 c 0,-0.25 -0.06,-0.51 -0.17,-0.76 -0.16,-0.3 -0.35,-0.52 -0.52,-0.63 l -0.73,-0.59 c -0.19,-0.11 -0.44,-0.22 -0.74,-0.33 -0.33,-0.11 -0.59,-0.17 -0.84,-0.17 h -14.97 c -0.25,0 -0.52,0.06 -0.81,0.17 -0.33,0.11 -0.58,0.22 -0.77,0.33 l -0.73,0.59 c -0.19,0.11 -0.36,0.33 -0.47,0.63 -0.16,0.25 -0.22,0.51 -0.22,0.76 v 11.78 c 0,0.25 0.06,0.47 0.25,0.66 0.19,0.14 0.36,0.22 0.62,0.22 h 3.49 c 0.25,0 0.44,0.08 0.62,0.25 0.19,0.19 0.25,0.37 0.25,0.62 v 2.36 c 0,0.25 -0.06,0.44 -0.25,0.63 -0.18,0.14 -0.37,0.22 -0.62,0.22 h -12.8 c -0.26,0 -0.45,-0.08 -0.62,-0.22 -0.19,-0.19 -0.27,-0.38 -0.27,-0.63 v -2.36 c 0,-0.25 0.08,-0.43 0.27,-0.62 0.17,-0.17 0.36,-0.25 0.62,-0.25 h 3.49 c 0.25,0 0.43,-0.08 0.62,-0.22 0.17,-0.19 0.25,-0.41 0.25,-0.66 v -13.83 c 0,-0.26 0.08,-0.51 0.22,-0.78 0.11,-0.25 0.3,-0.47 0.48,-0.61 l 3.44,-2.61 c 0.19,-0.15 0.44,-0.26 0.78,-0.37 0.28,-0.11 0.55,-0.14 0.8,-0.14 h 17.69 c 0.25,0 0.5,0.03 0.84,0.14 0.28,0.11 0.55,0.22 0.74,0.37 l 3.43,2.61 c 0.19,0.14 0.38,0.36 0.52,0.61 0.11,0.27 0.19,0.52 0.19,0.78 v 13.83 c 0,0.25 0.07,0.47 0.25,0.66 0.18,0.14 0.37,0.22 0.62,0.22 h 3.53 c 0.25,0 0.44,0.08 0.61,0.25 0.16,0.19 0.22,0.37 0.22,0.62 v 2.36 c 0,0.25 -0.06,0.44 -0.22,0.63 -0.17,0.14 -0.36,0.22 -0.61,0.22 z m 26.97,-4.6 c 0.18,0.16 0.43,0.27 0.78,0.38 0.28,0.11 0.55,0.14 0.8,0.14 h 18.26 c 0.27,0 0.52,-0.03 0.84,-0.11 0.33,-0.11 0.6,-0.22 0.77,-0.33 l 2.09,-1.33 c 0.19,-0.11 0.41,-0.14 0.68,-0.06 0.25,0.03 0.43,0.17 0.54,0.36 l 1.21,1.98 c 0.11,0.19 0.15,0.41 0.11,0.66 -0.04,0.22 -0.19,0.41 -0.36,0.52 l -3.08,1.93 c -0.19,0.11 -0.46,0.24 -0.78,0.35 -0.33,0.06 -0.58,0.11 -0.85,0.11 h -20.79 c -0.25,0 -0.52,-0.05 -0.8,-0.16 -0.33,-0.11 -0.59,-0.22 -0.78,-0.36 l -3.44,-2.61 c -0.19,-0.11 -0.37,-0.33 -0.48,-0.58 -0.14,-0.29 -0.22,-0.56 -0.22,-0.81 v -4.66 c 0,-0.26 0.08,-0.51 0.22,-0.78 0.11,-0.25 0.29,-0.47 0.48,-0.61 l 3.44,-2.61 c 0.19,-0.11 0.45,-0.21 0.78,-0.32 0.28,-0.11 0.55,-0.19 0.8,-0.19 h 18.96 c 0.25,0 0.52,-0.03 0.82,-0.14 0.28,-0.11 0.54,-0.22 0.73,-0.38 l 0.77,-0.54 c 0.18,-0.14 0.36,-0.38 0.51,-0.63 0.11,-0.25 0.17,-0.51 0.17,-0.76 v -0.6 c 0,-0.25 -0.06,-0.51 -0.17,-0.76 -0.15,-0.3 -0.33,-0.52 -0.51,-0.63 l -0.77,-0.59 c -0.19,-0.11 -0.45,-0.22 -0.73,-0.33 -0.3,-0.11 -0.57,-0.17 -0.82,-0.17 h -17.71 c -0.25,0 -0.52,0.03 -0.85,0.14 -0.33,0.08 -0.58,0.19 -0.76,0.29 l -2.69,1.61 c -0.17,0.11 -0.39,0.14 -0.66,0.11 -0.25,-0.07 -0.43,-0.22 -0.54,-0.4 l -1.21,-1.99 c -0.12,-0.22 -0.15,-0.43 -0.08,-0.65 0.04,-0.25 0.19,-0.44 0.41,-0.55 l 3.63,-2.2 c 0.18,-0.11 0.43,-0.22 0.76,-0.3 0.33,-0.11 0.6,-0.14 0.85,-0.14 h 20.21 c 0.25,0 0.52,0.03 0.85,0.14 0.29,0.11 0.54,0.22 0.73,0.37 l 3.44,2.61 c 0.19,0.14 0.37,0.36 0.52,0.61 0.1,0.27 0.18,0.52 0.18,0.78 v 4.66 c 0,0.25 -0.08,0.52 -0.18,0.77 -0.15,0.26 -0.33,0.48 -0.52,0.62 l -3.44,2.61 c -0.19,0.14 -0.44,0.25 -0.73,0.36 -0.33,0.11 -0.6,0.16 -0.85,0.16 h -18.96 c -0.25,0 -0.52,0.06 -0.8,0.17 -0.35,0.11 -0.6,0.22 -0.78,0.37 l -0.74,0.55 c -0.17,0.14 -0.36,0.36 -0.47,0.63 -0.15,0.25 -0.21,0.51 -0.21,0.76 v 0.59 c 0,0.25 0.06,0.52 0.21,0.77 0.11,0.25 0.3,0.48 0.47,0.63 z"
         id="path28982" />
    </clipPath>
  </defs>
  <sodipodi:namedview
     id="base"
     pagecolor="#ffffff"
     bordercolor="#666666"
     borderopacity="1.0"
     inkscape:pageopacity="0.0"
     inkscape:pageshadow="2"
     inkscape:zoom="1.4"
     inkscape:cx="73.432158"
     inkscape:cy="37.579817"
     inkscape:document-units="mm"
     inkscape:current-layer="layer1"
     showgrid="false"
     units="px"
     inkscape:window-width="1366"
     inkscape:window-height="703"
     inkscape:window-x="0"
     inkscape:window-y="0"
     inkscape:window-maximized="1"
     inkscape:document-rotation="0" />
  <metadata
     id="metadata9815">
    <rdf:RDF>
      <cc:Work
         rdf:about="">
        <dc:format>image/svg+xml</dc:format>
        <dc:type
           rdf:resource="http://purl.org/dc/dcmitype/StillImage" />
        <dc:title></dc:title>
      </cc:Work>
    </rdf:RDF>
  </metadata>
  <g
     inkscape:label="Capa 1"
     inkscape:groupmode="layer"
     id="layer1"
     transform="translate(0,-270.54165)">
    <g
       id="g163"
       transform="matrix(0.35277777,0,0,-0.35277777,-115.21114,378.62677)">
      <g
         id="g135">
        <path
           inkscape:connector-curvature="0"
           id="path460"
           style="fill:#1a1a1a;fill-opacity:1;fill-rule:nonzero;stroke:none;stroke-width:0.16091"
           d="m 387.62394,279.70826 c 0,13.008 -10.53802,23.54441 -23.53957,23.54441 v -10.86628 c 7.0012,0 12.6749,-5.6737 12.6749,-12.67813 0,-6.99799 -5.6737,-12.6749 -12.6749,-12.6749 v -10.85984 -21.66014 c 0,0 11.10764,17.76128 15.29613,23.74232 9.30706,13.28797 8.24344,21.45256 8.24344,21.45256" />
        <path
           inkscape:connector-curvature="0"
           id="path462"
           style="fill:#666666;fill-opacity:1;fill-rule:nonzero;stroke:none;stroke-width:0.16091"
           d="m 364.08437,292.38639 v 10.86628 c -13.00156,0 -23.5428,-10.53641 -23.5428,-23.54441 0,0 -1.06361,-8.16459 8.24344,-21.45256 4.19011,-5.98104 15.29936,-23.74232 15.29936,-23.74232 v 21.66014 10.85984 c -7.00282,0 -12.67652,5.67691 -12.67652,12.6749 0,7.00443 5.6737,12.67813 12.67652,12.67813" />
      </g>
      <circle
         transform="scale(1,-1)"
         r="19.153227"
         cy="-278.2258"
         cx="364.08276"
         id="path977-7"
         style="opacity:1;vector-effect:none;fill:#ffffff;fill-opacity:1;stroke:none;stroke-width:1.29139;stroke-linecap:butt;stroke-linejoin:miter;stroke-miterlimit:4;stroke-dasharray:none;stroke-dashoffset:0;stroke-opacity:1" />
    </g>
    <g
       id="g12575"
       transform="translate(-0.35713109)">
      <g
         transform="matrix(0.00926367,0,0,-0.00926367,-18.694072,427.36702)"
         id="g1168">
        <path
           inkscape:connector-curvature="0"
           id="path1170"
           style="fill:#f46b17;fill-opacity:1;fill-rule:nonzero;stroke:none"
           d="m 3937.92,16250.2 c 0,0 -2.44,-302.1 -272.46,-403.1 -22.75,-8.5 -47.39,-15.6 -74.09,-21 l 8.61,69.9 c 0,0 53.26,0.6 113.81,34.7 66.87,37.5 142.62,115.6 165.74,278.3 0,0 5.74,34.5 -37.35,37.4 h -96.69 l -1.92,53.6 h 156.06 c 0,0 38.29,-9.6 38.29,-49.8" />
      </g>
      <g
         transform="matrix(0.00926367,0,0,-0.00926367,-18.694072,427.36702)"
         id="g1172">
        <path
           inkscape:connector-curvature="0"
           id="path1174"
           style="fill:#f46b17;fill-opacity:1;fill-rule:nonzero;stroke:none"
           d="m 3377.86,15826.1 c -34.24,6.9 -65.11,16.6 -92.92,28.5 -251.29,107.7 -253.62,395.6 -253.62,395.6 0,40.2 38.29,49.8 38.29,49.8 h 156.06 l -1.92,-53.6 h -96.69 c -43.1,-2.9 -37.34,-37.4 -37.34,-37.4 20.97,-147.8 85.46,-225.8 147.2,-267 67.8,-45.2 132.34,-46 132.34,-46 l 8.6,-69.9" />
      </g>
      <g
         transform="matrix(0.00876637,0,0,-0.00876637,-18.694072,427.36702)"
         id="g1176">
        <path
           inkscape:connector-curvature="0"
           id="path1178"
           style="fill:#fbcf45;fill-opacity:1;fill-rule:nonzero;stroke:none"
           d="m 3935.71,16178.9 c 0,-15.9 -12.91,-28.7 -28.85,-28.7 h -458.25 c -15.93,0 -28.85,12.8 -28.85,28.7 0,12.2 7.65,22.5 18.39,26.7 0,0 6.72,2 10.2,2 105.65,20.4 155.65,56.3 179.29,85.7 28.76,-0.3 60.68,1.5 95.2,6.7 21.26,-30.4 70.5,-70.5 184.28,-92.4 3.49,-0.1 10.21,-2 10.21,-2 10.74,-4.2 18.38,-14.5 18.38,-26.7" />
      </g>
      <g
         transform="matrix(0.00933499,0,0,-0.00933499,-18.694072,427.36702)"
         id="g1180">
        <path
           inkscape:connector-curvature="0"
           id="path1182"
           style="fill:#f58719;fill-opacity:1;fill-rule:nonzero;stroke:none"
           d="m 3509.29,15634.4 c 0,0 -23.93,-6.2 -28.2,-24 -0.28,-1.1 -0.07,-2.2 -0.16,-3.4 -0.2,-2.1 0.66,-4.4 0.66,-6.8 v -254.4 c 0,-0.2 -0.37,-16.8 14.89,-38.7 -32.43,-4.8 -62.83,-6.5 -89.84,-6.2 19.95,24.9 19.56,44.8 19.56,44.9 v 254.4 c 0,1.4 0.58,2.7 0.61,4 0.06,2.9 -0.26,5.6 -1.06,8 -5.43,16.5 -27.65,22.2 -27.65,22.2 -243.69,122.6 -236.53,624.9 -236.53,624.9 0,32.8 38.49,40.7 38.49,40.7 h 507.31 c 0,0 38.48,-7.9 38.48,-40.7 0,0 7.14,-502.3 -236.56,-624.9" />
      </g>
      <g
         transform="matrix(0.00934554,0,0,-0.00934554,-18.694072,427.36702)"
         id="g1184">
        <path
           inkscape:connector-curvature="0"
           id="path1186"
           style="fill:#fbcf45;fill-opacity:1;fill-rule:nonzero;stroke:none"
           d="m 3754.14,16274.5 c -1.85,14.4 -14.15,25.5 -29.01,25.5 h -35.79 -3.24 -64.81 -68.05 -68.04 -68.03 -68.05 -68.04 -68.06 -40.41 c -12.79,0 -23.66,-8.2 -27.63,-19.6 v -65 -14.3 c 0,-15.5 12.57,-28.1 28.08,-28.1 h 11.88 c 13.7,0 25.08,9.8 27.59,22.8 h 1.73 c 3.5,-11.5 14.19,-19.9 26.85,-19.9 h 11.88 c 12.66,0 23.35,8.4 26.85,19.9 h 2.46 c 3.5,-11.5 14.2,-19.9 26.86,-19.9 h 11.88 c 12.66,0 23.35,8.4 26.85,19.9 h 2.46 c 3.5,-11.5 14.2,-19.9 26.86,-19.9 h 11.88 c 12.66,0 23.35,8.4 26.85,19.9 h 2.46 c 3.5,-11.5 14.19,-19.9 26.85,-19.9 h 11.86 c 12.66,0 23.36,8.4 26.88,19.9 h 2.42 c 3.52,-11.5 14.21,-19.9 26.87,-19.9 h 11.88 c 12.66,0 23.35,8.4 26.87,19.9 h 2.42 c 3.52,-11.5 14.21,-19.9 26.87,-19.9 h 11.89 c 12.66,0 23.35,8.4 26.87,19.9 h 1.71 c 2.51,-13 13.89,-22.8 27.58,-22.8 h 11.88 c 12.21,0 22.6,7.8 26.47,18.7 3.85,-10.9 14.26,-18.7 26.46,-18.7 h 11.88 c 15.51,0 28.08,12.5 28.08,28 v 20.2 c 0.18,1.2 0.26,2.5 0.26,3.8 v 45.8 c 0,1.3 -0.08,2.5 -0.26,3.7" />
      </g>
    </g>
  </g>
</svg>
