<svg id="Layer_1" enable-background="new 0 0 464.028 464.028" height="512" viewBox="0 0 464.028 464.028" width="512" xmlns="http://www.w3.org/2000/svg"><path d="m232.014.029c-112.11 0-203 90.89-203 203 0 94.46 64.52 173.85 151.89 196.51l37.2 56.96c6.56 10.04 21.26 10.04 27.82 0l37.2-56.96c87.37-22.66 151.89-102.05 151.89-196.51 0-112.11-90.89-203-203-203z" fill="#80aaff"/><path d="m234.37 448.528c6.021 9.218-7.673 21.117-16.266 7.97l-22.589-34.594c-4.479-6.86 1.959-15.519 9.85-13.32 2.275.634 4.091 1.799 5.382 3.776z" fill="#9cbcff"/><path d="m56.014 220.216c.029 31.735 7.34 61.765 20.351 88.508 4.056 8.336-7.751 15.137-12.924 7.445-22.55-33.532-35.36-74.162-34.374-117.835 2.727-120.751 111.122-213.836 232.446-196.178 9.198 1.339 8.199 14.94-1.095 14.878-113.025-.766-204.506 89.988-204.404 203.182z" fill="#9cbcff"/><path d="m232.01 43.029c-88.37 0-159.996 71.63-159.996 160s71.63 160 160 160 160-71.63 160-160-71.634-160-160.004-160z" fill="#cbe3fa"/><path d="m102.014 223.029c0 12.546 1.444 24.755 4.174 36.47 3.105 13.321-15.699 19.489-21.123 6.933-8.398-19.441-13.051-40.878-13.051-63.402 0-89.544 72.814-161.24 162.29-159.984 13.638.191 15.216 19.878 1.768 22.153-72.579 12.278-134.058 74.087-134.058 157.83z" fill="#eef7ff"/><path d="m164.014 115.029v178c0 4.418 3.582 8 8 8h120c4.418 0 8-3.582 8-8v-178z" fill="#80aaff"/><path d="m183.072 301.029h-11.058c-4.418 0-8-3.582-8-8v-178h23v181.876c.012 2.249-1.692 4.124-3.942 4.124z" fill="#9cbcff"/><path d="m306.885 123.029h-149.742c-4.418 0-8-3.582-8-8s3.582-8 8-8h149.742c4.418 0 8 3.582 8 8s-3.582 8-8 8z" fill="#fff"/><path d="m264.014 166.029h-64c-4.418 0-8-3.582-8-8s3.582-8 8-8h64c4.418 0 8 3.582 8 8s-3.582 8-8 8z" fill="#719efa"/><path d="m258.684 212.029h-53.34c-4.418 0-8-3.582-8-8s3.582-8 8-8h53.34c4.418 0 8 3.582 8 8s-3.582 8-8 8z" fill="#719efa"/><path d="m259.724 251.209v41.82c0 4.418-3.582 8-8 8h-39.42c-4.418 0-8-3.582-8-8v-41.82c0-4.418 3.582-8 8-8h39.42c4.418 0 8 3.581 8 8z" fill="#585966"/><path d="m259.724 251.209c0 2.209-1.791 4-4 4h-27.42c-4.418 0-8 3.582-8 8v33.82c0 2.209-1.791 4-4 4h-4c-4.418 0-8-3.582-8-8v-41.82c0-4.418 3.582-8 8-8h39.42c4.418 0 8 3.581 8 8z" fill="#6e6f80"/></svg>