<?xml version="1.0" encoding="UTF-8" standalone="no"?>
<svg
   xmlns:dc="http://purl.org/dc/elements/1.1/"
   xmlns:cc="http://creativecommons.org/ns#"
   xmlns:rdf="http://www.w3.org/1999/02/22-rdf-syntax-ns#"
   xmlns:svg="http://www.w3.org/2000/svg"
   xmlns="http://www.w3.org/2000/svg"
   xmlns:sodipodi="http://sodipodi.sourceforge.net/DTD/sodipodi-0.dtd"
   xmlns:inkscape="http://www.inkscape.org/namespaces/inkscape"
   width="100"
   height="100"
   viewBox="0 0 26.458333 26.458334"
   version="1.1"
   id="svg9818"
   inkscape:version="1.0.2 (e86c870879, 2021-01-15)"
   sodipodi:docname="justicia.svg">
  <defs
     id="defs9812" />
  <sodipodi:namedview
     id="base"
     pagecolor="#ffffff"
     bordercolor="#666666"
     borderopacity="1.0"
     inkscape:pageopacity="0.0"
     inkscape:pageshadow="2"
     inkscape:zoom="0.9899495"
     inkscape:cx="41.658588"
     inkscape:cy="49.180581"
     inkscape:document-units="mm"
     inkscape:current-layer="layer1"
     showgrid="false"
     units="px"
     inkscape:window-width="1366"
     inkscape:window-height="703"
     inkscape:window-x="0"
     inkscape:window-y="0"
     inkscape:window-maximized="1"
     inkscape:document-rotation="0" />
  <metadata
     id="metadata9815">
    <rdf:RDF>
      <cc:Work
         rdf:about="">
        <dc:format>image/svg+xml</dc:format>
        <dc:type
           rdf:resource="http://purl.org/dc/dcmitype/StillImage" />
        <dc:title></dc:title>
      </cc:Work>
    </rdf:RDF>
  </metadata>
  <g
     inkscape:label="Capa 1"
     inkscape:groupmode="layer"
     id="layer1"
     transform="translate(0,-270.54165)">
    <g
       id="g169"
       transform="matrix(0.35277777,0,0,-0.35277777,-151.68876,378.62677)">
      <g
         id="g139">
        <path
           inkscape:connector-curvature="0"
           id="path530"
           style="fill:#1c75bc;fill-opacity:1;fill-rule:nonzero;stroke:none;stroke-width:0.16091"
           d="m 491.02332,279.70826 c 0,12.99995 -10.53802,23.54441 -23.54118,23.54441 v -10.8695 c 7.00603,0 12.67812,-5.6737 12.67812,-12.67491 0,-7.00281 -5.67209,-12.67812 -12.67812,-12.67812 v -10.86306 -21.6537 c 0,0 11.11407,17.75967 15.30096,23.74071 9.30705,13.28476 8.24022,21.45417 8.24022,21.45417" />
        <path
           inkscape:connector-curvature="0"
           id="path532"
           style="fill:#27aae1;fill-opacity:1;fill-rule:nonzero;stroke:none;stroke-width:0.16091"
           d="m 467.48214,292.38317 v 10.8695 c -12.99352,0 -23.53797,-10.54446 -23.53797,-23.54441 0,0 -1.06362,-8.16941 8.24183,-21.45417 4.18849,-5.98104 15.29614,-23.74071 15.29614,-23.74071 v 21.6537 10.86306 c -6.99639,0 -12.67491,5.67531 -12.67491,12.67812 0,7.00121 5.67852,12.67491 12.67491,12.67491" />
      </g>
      <circle
         transform="scale(1,-1)"
         r="19.153227"
         cy="-278.2258"
         cx="467.48389"
         id="path977-5"
         style="opacity:1;vector-effect:none;fill:#ffffff;fill-opacity:1;stroke:none;stroke-width:1.29139;stroke-linecap:butt;stroke-linejoin:miter;stroke-miterlimit:4;stroke-dasharray:none;stroke-dashoffset:0;stroke-opacity:1" />
    </g>
    <g
       id="g7616"
       transform="matrix(0.10007952,0,0,0.10007952,11.665343,252.10916)">
      <g
         transform="matrix(0.0996763,0,0,-0.0996763,-1460.4492,1933.4651)"
         id="g748">
        <path
           inkscape:connector-curvature="0"
           id="path750"
           style="fill:#c7e88e;fill-opacity:1;fill-rule:nonzero;stroke:none"
           d="m 15340.5,16229.7 c -6.8,23.8 -19.2,42.4 -44.7,49.1 -4.4,1.1 -9.1,1.1 -13.5,2.4 -2.4,0.8 -5.6,2.6 -6.4,4.7 -4.1,11.3 -12.6,14.1 -23.6,14.1 -49,-0.2 -98,-0.1 -147,-0.1 -86.9,0 -173.8,-0.1 -260.7,0.1 -12.6,0 -23.8,-0.8 -28.2,-15.6 -0.6,-1.7 -4.8,-3 -7.5,-3.4 -38.9,-5.7 -62.2,-36.4 -56.5,-75 1.6,-10.8 8.8,-16.3 22.4,-16.4 37.6,-0.1 75.1,-0.1 112.6,-0.1 142.4,0 284.8,0.1 427.1,-0.1 11.3,0 20.4,2.4 26,12.7 0,9.2 0,18.4 0,27.6" />
      </g>
      <g
         transform="matrix(0.10380662,0,0,-0.10380662,-1460.4492,1933.4651)"
         id="g752">
        <path
           inkscape:connector-curvature="0"
           id="path754"
           style="fill:#acd51c;fill-opacity:1;fill-rule:nonzero;stroke:none"
           d="m 14243.4,15934.5 c 14.2,-17.3 25.9,-15.5 35.3,4.5 0.9,1.9 3.4,3.8 5.4,4.2 6.9,1.1 13.8,1.6 21.6,2.4 4.4,-13.5 8.9,-26.6 12.9,-39.8 0.8,-2.4 -1.1,-5.5 -0.9,-8.2 0.6,-6.5 -0.6,-14.9 3,-18.9 3.7,-4.1 12.5,-6 18.6,-5.1 15.4,2.2 27.4,-10 22.7,-25.3 -0.9,-2.9 -4.3,-5.7 -7.2,-7.3 -18.2,-10.2 -24.8,-25.6 -18.8,-45.3 1,-3.6 2.3,-7 3.5,-10.5 8,-24.4 25.3,-33.5 49.5,-25.7 54.2,17.4 108.3,35.1 162.4,52.7 11.8,3.8 23.8,7.5 35.5,11.7 19.1,6.9 28,24.7 22.4,44.1 -1.6,5.7 -3.3,11.3 -5.3,16.8 -6.2,17.1 -20.7,25.9 -38.8,23.9 -13.9,-1.5 -25.9,14.4 -20.1,27.6 1.3,3 5.6,5.5 9.1,6.6 8.1,2.7 13.7,7.3 14.8,15.9 0.9,8.3 -3.3,13.7 -10.2,18.1 -2.7,1.7 -4.8,5.3 -5.8,8.5 -17.3,52.7 -34.5,105.3 -51.5,158.1 -1.1,3.4 0.8,7.6 0.4,11.4 -0.7,6.5 -0.1,14.9 -3.8,18.9 -3.8,3.9 -12.6,5.2 -18.7,4.3 -12.3,-1.8 -16.1,-1 -20.3,10.2 -3.8,10.2 -4.2,19 6.9,23.9 16.4,7.4 22.9,24.3 18,41.6 -1.5,5.3 -3.3,10.5 -5.1,15.7 -7.4,21 -25.3,30.5 -46.3,23.7 -66,-21.2 -132,-42.7 -197.9,-64.3 -21.8,-7.2 -30.7,-25.1 -24.2,-46.9 1.8,-6 3.6,-12.1 6,-17.8 6.5,-15.3 22,-23.6 38.4,-21 11.3,1.8 15.4,-1.5 19.4,-15.2 2.7,-9.6 1.1,-15.6 -9.5,-19.7 -5.8,-2.2 -11.5,-8.9 -13.8,-14.9 -2.9,-7.5 2.2,-13.7 9.1,-18.1 2.8,-1.7 5.1,-5.2 6.2,-8.3 4.2,-11.8 7.8,-23.7 12,-36.9 -7.3,-4.3 -14.8,-8.7 -19.5,-11.5 -9.6,2.6 -17.1,6.9 -23.4,5.5 -5.2,-1.1 -11.4,-8.4 -12.7,-14 -1.4,-6.6 -3.8,-9.1 -9.6,-10.9 -164.2,-50.4 -328.4,-100.9 -492.6,-151.2 -5,-1.6 -10.8,-1.5 -16.2,-1 -25.3,2.7 -48.1,-11 -56.5,-34.5 -8.3,-23 0.1,-48.6 20.5,-62 20.7,-13.7 47.6,-11.1 66.1,5.9 3.7,3.4 8,6.7 12.6,8.3 164.2,56.4 328.4,112.5 492.7,168.7 1,0.4 2.1,0.6 3.7,1.1" />
      </g>
      <g
         transform="matrix(0.10195172,0,0,-0.10195172,-1460.4492,1933.4651)"
         id="g756">
        <path
           inkscape:connector-curvature="0"
           id="path758"
           style="fill:#d98824;fill-opacity:1;fill-rule:nonzero;stroke:none"
           d="m 14447.6,16194 -372.8,-126.5 c -17.1,-5.8 -35.8,3.4 -41.5,20.4 l -13,38.2 c -5.8,17.1 3.4,35.8 20.5,41.5 l 372.8,126.6 c 17.1,5.8 35.7,-3.4 41.5,-20.5 l 13,-38.1 c 5.8,-17.1 -3.4,-35.8 -20.5,-41.6" />
      </g>
      <g
         transform="matrix(0.10308131,0,0,-0.10308131,-1460.4492,1933.4651)"
         id="g760">
        <path
           inkscape:connector-curvature="0"
           id="path762"
           style="fill:#d98824;fill-opacity:1;fill-rule:nonzero;stroke:none"
           d="m 14658.3,16052.3 -216.8,-70.1 c -11.1,-3.6 -23.2,2.6 -26.9,13.8 l -65.7,203.5 c -3.6,11.2 2.6,23.3 13.8,26.9 l 216.7,70 c 11.2,3.6 23.3,-2.6 26.9,-13.8 l 65.7,-203.5 c 3.6,-11.1 -2.6,-23.2 -13.7,-26.8" />
      </g>
    </g>
  </g>
</svg>
