<?xml version="1.0" encoding="UTF-8" standalone="no"?>
<svg
   xmlns:dc="http://purl.org/dc/elements/1.1/"
   xmlns:cc="http://creativecommons.org/ns#"
   xmlns:rdf="http://www.w3.org/1999/02/22-rdf-syntax-ns#"
   xmlns:svg="http://www.w3.org/2000/svg"
   xmlns="http://www.w3.org/2000/svg"
   xmlns:sodipodi="http://sodipodi.sourceforge.net/DTD/sodipodi-0.dtd"
   xmlns:inkscape="http://www.inkscape.org/namespaces/inkscape"
   width="100"
   height="100"
   viewBox="0 0 26.458333 26.458334"
   version="1.1"
   id="svg9818"
   inkscape:version="1.0.2 (e86c870879, 2021-01-15)"
   sodipodi:docname="poliocia.svg">
  <defs
     id="defs9812" />
  <sodipodi:namedview
     id="base"
     pagecolor="#ffffff"
     bordercolor="#666666"
     borderopacity="1.0"
     inkscape:pageopacity="0.0"
     inkscape:pageshadow="2"
     inkscape:zoom="1.979899"
     inkscape:cx="41.658588"
     inkscape:cy="49.180581"
     inkscape:document-units="mm"
     inkscape:current-layer="layer1"
     showgrid="false"
     units="px"
     inkscape:window-width="1366"
     inkscape:window-height="703"
     inkscape:window-x="0"
     inkscape:window-y="0"
     inkscape:window-maximized="1"
     inkscape:document-rotation="0" />
  <metadata
     id="metadata9815">
    <rdf:RDF>
      <cc:Work
         rdf:about="">
        <dc:format>image/svg+xml</dc:format>
        <dc:type
           rdf:resource="http://purl.org/dc/dcmitype/StillImage" />
        <dc:title></dc:title>
      </cc:Work>
    </rdf:RDF>
  </metadata>
  <g
     inkscape:label="Capa 1"
     inkscape:groupmode="layer"
     id="layer1"
     transform="translate(0,-270.54165)">
    <g
       id="g169"
       transform="matrix(0.35277777,0,0,-0.35277777,-151.68876,378.62677)">
      <g
         id="g139">
        <path
           inkscape:connector-curvature="0"
           id="path530"
           style="fill:#1c75bc;fill-opacity:1;fill-rule:nonzero;stroke:none;stroke-width:0.16091"
           d="m 491.02332,279.70826 c 0,12.99995 -10.53802,23.54441 -23.54118,23.54441 v -10.8695 c 7.00603,0 12.67812,-5.6737 12.67812,-12.67491 0,-7.00281 -5.67209,-12.67812 -12.67812,-12.67812 v -10.86306 -21.6537 c 0,0 11.11407,17.75967 15.30096,23.74071 9.30705,13.28476 8.24022,21.45417 8.24022,21.45417" />
        <path
           inkscape:connector-curvature="0"
           id="path532"
           style="fill:#27aae1;fill-opacity:1;fill-rule:nonzero;stroke:none;stroke-width:0.16091"
           d="m 467.48214,292.38317 v 10.8695 c -12.99352,0 -23.53797,-10.54446 -23.53797,-23.54441 0,0 -1.06362,-8.16941 8.24183,-21.45417 4.18849,-5.98104 15.29614,-23.74071 15.29614,-23.74071 v 21.6537 10.86306 c -6.99639,0 -12.67491,5.67531 -12.67491,12.67812 0,7.00121 5.67852,12.67491 12.67491,12.67491" />
      </g>
      <circle
         transform="scale(1,-1)"
         r="19.153227"
         cy="-278.2258"
         cx="467.48389"
         id="path977-5"
         style="opacity:1;vector-effect:none;fill:#ffffff;fill-opacity:1;stroke:none;stroke-width:1.29139;stroke-linecap:butt;stroke-linejoin:miter;stroke-miterlimit:4;stroke-dasharray:none;stroke-dashoffset:0;stroke-opacity:1" />
    </g>
    <path
       inkscape:connector-curvature="0"
       id="path4632"
       style="fill:#2f495e;fill-opacity:1;fill-rule:evenodd;stroke:none;stroke-width:0.00407833"
       d="m 15.076591,277.11444 c 0.02354,-0.0563 0.05293,-0.19455 0.05612,-0.25041 0.02488,-0.40661 -0.319743,-1.0718 -0.745236,-1.36136 -0.877825,-0.59747 -1.718535,-0.15257 -2.298108,0.57341 -0.143111,0.39195 -0.232913,0.68599 -0.173625,1.01143 0.04849,0.26429 0.204163,0.60971 0.341685,0.77571 0.451146,0.5465 1.240102,0.72839 1.783175,0.48369 0.350615,-0.32016 0.799845,-0.6611 1.035982,-1.23247 z m -4.264807,4.5506 c -0.432509,0.0245 -1.0936091,0.35768 -1.3753822,0.73739 -0.2480457,0.33441 -0.3404611,0.88092 -0.2430695,1.14355 0.025049,0.0677 0.1057902,0.1354 0.1442493,0.22514 0.073132,0.16972 0.08822,0.3703 0.1614645,0.47635 0.1774486,0.25692 0.7279029,0.53181 1.0852479,0.60399 0.262279,0.0529 0.777454,-0.002 0.941444,-0.0866 0.57419,-0.29487 0.873745,-1.37972 0.781085,-1.85158 -0.09087,-0.46371 -0.504695,-0.77653 -0.89744,-1.14194 -0.20143,-0.0168 -0.407956,-0.1175 -0.597599,-0.1065 z m 4.396088,-0.72839 c -0.09968,-0.29323 -0.615952,-0.53915 -0.75225,-0.16842 0.03262,0.0653 0.118025,0.0289 0.183398,0.077 0.116757,0.12311 0.103104,0.29487 0.0071,0.45148 0.112038,0.0959 0.192947,0.20107 0.357549,0.281 0.0287,-0.21738 0.02337,-0.40335 0.204244,-0.64112 z m 0.171257,0.35115 c -0.005,0.047 -0.03859,0.10198 0.02705,0.12646 0.01381,-0.0498 0.02173,-0.0966 -0.02705,-0.12646 z m 1.290511,-1.78998 c 0.05843,0.0289 0.100252,0.005 0.148091,0.002 -0.05898,-0.033 -0.116272,-0.0575 -0.148091,-0.002 z m -0.20294,1.42457 c 0.01175,0.0334 0.100489,0.0914 0.117783,0.0245 -0.01361,-0.0378 -0.08843,-0.0506 -0.117783,-0.0245 z m 0.460568,-0.91721 c -0.107823,0.0351 -0.243843,-0.0199 -0.355264,10e-4 -0.06129,0.20717 -0.113997,0.41191 -0.08496,0.59094 0.07985,0.0841 0.223982,0.0358 0.33891,0.10198 0.122837,-0.25939 0.138224,-0.48451 0.101311,-0.69414 z m -0.223452,1.32137 c -0.01846,-0.009 -0.01045,-0.0293 -0.03678,-0.0371 -0.09837,-0.0168 -0.150367,0.005 -0.214152,-0.0192 -0.170436,-0.0639 -0.233813,-0.29811 -0.341563,-0.34625 -0.142496,-0.0649 -0.300493,0.10444 -0.446988,0.13988 0.09469,0.17458 0.08781,0.38134 0.01846,0.60686 0.358815,-0.031 0.817015,0.0494 1.021015,-0.34421 z m -2.288646,0.055 c -0.04453,-0.0112 -0.07826,0.0131 -0.119331,0.0131 -0.04482,0.0951 -0.05795,0.17905 -0.136751,0.22676 -0.04817,0.0845 0.09132,0.20799 -0.05559,0.21372 -0.0058,0.0632 0.01361,0.11824 0.04128,0.17121 0.03299,0.0149 0.03857,-0.0591 0.06052,-0.0808 0.243927,0.20024 -0.125728,0.58686 -0.308241,0.6611 -0.0456,0.0412 -0.02664,0.0168 -0.0451,0.0506 -0.155962,0.28466 -0.40645,0.46941 -0.516889,0.73899 -0.118194,0.28753 -0.01585,0.61094 -0.104784,0.87929 -0.113046,0.12888 -0.335485,0.0708 -0.447068,0.17662 -0.116516,0.10967 -0.161707,0.29568 -0.251594,0.41027 -0.503919,0.63867 -1.127131,0.8116 -1.865189,0.78019 -0.08784,-0.004 -0.115247,-0.013 -0.138916,-0.0168 -0.202368,-0.0168 -0.413585,-0.0664 -0.6567785,-0.21168 -0.3957208,-0.23856 -0.9411171,-0.65212 -1.1086564,-0.9164 -0.037843,-0.0584 -0.075239,-0.0836 -0.1038319,-0.14641 -0.043887,-0.0543 -0.038944,-0.0636 -0.06942,-0.0929 -0.07619,-0.0983 -0.099953,-0.21371 -0.1503296,-0.32057 0.067872,-0.47227 0.084994,-0.91437 0.2708022,-1.447 0.014549,-0.0756 0.02434,-0.0914 0.039969,-0.14716 0.5062044,-1.1876 1.4286862,-1.3536 2.3278382,-1.41681 0.06457,-0.13504 0.154004,-0.13746 0.18944,-0.25571 0.03667,-0.11918 -0.09449,-0.24388 0.09527,-0.32382 0.317988,-0.0224 0.53826,0.4837 0.736997,0.55344 0.106891,0.0378 0.316847,-0.0987 0.432346,-0.14772 0.274675,-0.11508 0.51799,-0.15126 0.796827,-0.23694 0.386096,0.13857 0.361544,0.55221 0.699844,0.58971 0.147065,-0.15611 0.109334,-0.30995 0.178344,-0.44821 0.271252,-0.54201 0.960328,-0.36051 1.219304,0.13299 0.248696,-0.0131 0.483977,-0.0729 0.72003,-0.12758 0.06434,-0.33117 0.0587,-0.66192 0.240134,-0.99553 -0.110155,-0.0584 -0.232384,-0.0832 -0.150609,-0.24674 -0.154452,0.1216 -0.28369,0.32178 -0.444499,0.4213 -0.06163,0.0192 -0.09242,0.0306 -0.149154,0.0343 -0.338015,0.049 -0.736265,-0.39153 -1.064165,-0.50041 -0.140873,0.0539 -0.239072,0.20841 -0.390379,0.31892 -0.104764,0.0759 -0.313909,0.21044 -0.43936,0.12515 -0.165251,-0.1121 -0.02186,-0.52733 -0.196372,-0.62562 -0.170678,-0.0959 -0.368478,-0.0416 -0.575414,-0.077 -0.790954,-0.13429 -1.424157,-0.70516 -1.642594,-1.28754 -0.04886,-0.13 -0.08211,-0.31362 -0.124963,-0.47636 -0.03973,-0.14884 -0.07977,-0.32788 -0.0805,-0.4898 -8.1e-5,-0.30629 0.01063,-0.73574 0.212399,-1.08444 0.07716,-0.13373 0.317256,-0.35603 0.482428,-0.49471 0.557714,-0.47022 1.365104,-0.92986 2.131834,-0.79078 0.478388,0.0859 0.857879,0.20595 1.300707,0.54854 0.326512,0.25367 0.411177,0.55912 0.612364,0.9368 0.107301,0.0673 0.215987,0.0685 0.293844,0.15293 0.0575,0.30914 -0.172264,0.60401 -0.1051,0.87929 0.0797,0.32627 0.286747,0.72921 0.499637,1.00898 0.08953,0.1162 0.218599,0.19903 0.253469,0.33728 -0.04409,0.19698 -0.207424,0.48533 -0.330141,0.66763 0.03426,0.0811 0.07572,-0.0767 0.133395,-0.0415 0.113138,0.0705 0.05591,0.21084 0.136097,0.27609 0.08923,0.0726 0.209138,0.0168 0.309506,0.0869 0.153016,0.10762 0.08981,0.27 0.08834,0.43883 -0.0012,0.12645 0.05678,0.25409 0.05265,0.36379 -0.0091,0.25041 -0.147886,0.58647 -0.201632,0.92131 -0.03344,0.2088 0.03227,0.4168 -0.144529,0.59747 -0.145387,0.14921 -0.572561,0.28019 -0.789568,0.2965 -0.238664,0.0168 -0.476513,-0.0494 -0.680717,-0.0559 -0.0885,-0.004 -0.195067,0.0433 -0.288339,0.0167 -0.336015,-0.0976 -0.447354,-0.32586 -0.679126,-0.52285" />
  </g>
</svg>
