<?xml version="1.0" encoding="UTF-8" standalone="no"?>
<svg
   xmlns:dc="http://purl.org/dc/elements/1.1/"
   xmlns:cc="http://creativecommons.org/ns#"
   xmlns:rdf="http://www.w3.org/1999/02/22-rdf-syntax-ns#"
   xmlns:svg="http://www.w3.org/2000/svg"
   xmlns="http://www.w3.org/2000/svg"
   xmlns:sodipodi="http://sodipodi.sourceforge.net/DTD/sodipodi-0.dtd"
   xmlns:inkscape="http://www.inkscape.org/namespaces/inkscape"
   width="100"
   height="100"
   viewBox="0 0 26.458333 26.458334"
   version="1.1"
   id="svg9818"
   inkscape:version="1.0.2 (e86c870879, 2021-01-15)"
   sodipodi:docname="poliocia.svg">
  <defs
     id="defs9812" />
  <sodipodi:namedview
     id="base"
     pagecolor="#ffffff"
     bordercolor="#666666"
     borderopacity="1.0"
     inkscape:pageopacity="0.0"
     inkscape:pageshadow="2"
     inkscape:zoom="1.979899"
     inkscape:cx="41.658588"
     inkscape:cy="49.180581"
     inkscape:document-units="mm"
     inkscape:current-layer="layer1"
     showgrid="false"
     units="px"
     inkscape:window-width="1366"
     inkscape:window-height="703"
     inkscape:window-x="0"
     inkscape:window-y="0"
     inkscape:window-maximized="1"
     inkscape:document-rotation="0" />
  <metadata
     id="metadata9815">
    <rdf:RDF>
      <cc:Work
         rdf:about="">
        <dc:format>image/svg+xml</dc:format>
        <dc:type
           rdf:resource="http://purl.org/dc/dcmitype/StillImage" />
        <dc:title />
      </cc:Work>
    </rdf:RDF>
  </metadata>
  <g
     inkscape:label="Capa 1"
     inkscape:groupmode="layer"
     id="layer1"
     transform="translate(0,-270.54165)">
    <g
       id="g169"
       transform="matrix(0.35277777,0,0,-0.35277777,-151.68876,378.62677)">
      <g
         id="g139">
        <path
           inkscape:connector-curvature="0"
           id="path530"
           style="fill:#1c75bc;fill-opacity:1;fill-rule:nonzero;stroke:none;stroke-width:0.16091"
           d="m 491.02332,279.70826 c 0,12.99995 -10.53802,23.54441 -23.54118,23.54441 v -10.8695 c 7.00603,0 12.67812,-5.6737 12.67812,-12.67491 0,-7.00281 -5.67209,-12.67812 -12.67812,-12.67812 v -10.86306 -21.6537 c 0,0 11.11407,17.75967 15.30096,23.74071 9.30705,13.28476 8.24022,21.45417 8.24022,21.45417" />
        <path
           inkscape:connector-curvature="0"
           id="path532"
           style="fill:#27aae1;fill-opacity:1;fill-rule:nonzero;stroke:none;stroke-width:0.16091"
           d="m 467.48214,292.38317 v 10.8695 c -12.99352,0 -23.53797,-10.54446 -23.53797,-23.54441 0,0 -1.06362,-8.16941 8.24183,-21.45417 4.18849,-5.98104 15.29614,-23.74071 15.29614,-23.74071 v 21.6537 10.86306 c -6.99639,0 -12.67491,5.67531 -12.67491,12.67812 0,7.00121 5.67852,12.67491 12.67491,12.67491" />
      </g>
      <circle
         transform="scale(1,-1)"
         r="19.153227"
         cy="-278.2258"
         cx="467.48389"
         id="path977-5"
         style="opacity:1;vector-effect:none;fill:#ffffff;fill-opacity:1;stroke:none;stroke-width:1.29139;stroke-linecap:butt;stroke-linejoin:miter;stroke-miterlimit:4;stroke-dasharray:none;stroke-dashoffset:0;stroke-opacity:1" />
    </g>
    <g
       id="g2520"
       transform="matrix(0.14677335,0,0,-0.14677335,-25.078898,303.21642)">
      <path
         d="m 265.546,140.648 h -9.127 v 17.525 h 9.127 v -17.525"
         style="fill:#bb7b70;fill-opacity:1;fill-rule:nonzero;stroke:none;stroke-width:0.1"
         id="path634" />
      <path
         d="m 248.108,170.362 c -1.979,-3.714 2.429,-16.658 5.482,-16.658 3.054,0 11.644,0 14.662,0 3.037,0 8.313,13.847 5.606,16.571 -3.367,2.29 -11.782,5.155 -11.782,5.155 0,0 -11.436,-2.881 -13.968,-5.068"
         style="fill:#60362b;fill-opacity:1;fill-rule:nonzero;stroke:none;stroke-width:0.1"
         id="path636" />
      <path
         d="m 249.686,162.849 c -1.734,-0.348 -3.47,0.937 -3.87,2.881 -0.398,1.944 0.677,3.816 2.413,4.181 1.734,0.348 3.211,-6.697 1.457,-7.062"
         style="fill:#f9a79b;fill-opacity:1;fill-rule:nonzero;stroke:none;stroke-width:0.1"
         id="path638" />
      <path
         d="m 272.053,162.849 c 1.736,-0.348 3.47,0.937 3.87,2.881 0.416,1.944 -0.659,3.816 -2.413,4.181 -1.734,0.348 -3.191,-6.697 -1.457,-7.062"
         style="fill:#f9a79b;fill-opacity:1;fill-rule:nonzero;stroke:none;stroke-width:0.1"
         id="path640" />
      <path
         d="m 260.966,149.956 c 13.552,0 12.093,24.709 12.093,24.709 0,0 -0.59,8.087 -11.781,8.087 -9.769,0 -12.164,-8.294 -12.164,-8.294 0,0 -1.493,-24.502 11.852,-24.502"
         style="fill:#f9a79b;fill-opacity:1;fill-rule:nonzero;stroke:none;stroke-width:0.1"
         id="path642" />
      <path
         d="m 247.552,169.669 c 1.18,0.259 2.447,-1.979 2.447,-1.979 l 0.476,8.307 c 0,0 0.378,3.775 4.537,3.775 0,-5.63 11.388,-5.822 11.388,0.064 4.607,0 4.873,-3.557 4.873,-3.557 0,0 1.024,-9.369 0.988,-9.005 0.608,2.411 2.326,2.169 2.326,2.169 0,0 3.678,17.195 -13.534,17.195 -17.197,0 -13.519,-16.484 -13.501,-16.969"
         style="fill:#60362b;fill-opacity:1;fill-rule:nonzero;stroke:none;stroke-width:0.1"
         id="path644" />
      <path
         d="m 290.201,124.233 c -0.105,11.278 -4.029,16.761 -4.029,16.761 -0.382,3.906 -19.672,7.358 -19.915,7.099 l -5.188,-6.925 -5.05,6.741 -0.137,0.184 c -0.217,0.231 -15.205,-2.488 -19.101,-5.848 -0.474,-0.409 -0.771,-0.827 -0.814,-1.251 0,0 -2.838,-4.824 -4.13,-16.587 l -0.018,-0.035 -0.017,-0.139 h 58.399"
         style="fill:#459da9;fill-opacity:1;fill-rule:nonzero;stroke:none;stroke-width:0.1"
         id="path646" />
      <path
         d="m 254.359,142.343 -1.034,5.444 3.094,2.379 2.455,-4.876 -4.515,-2.947"
         style="fill:#317381;fill-opacity:1;fill-rule:nonzero;stroke:none;stroke-width:0.1"
         id="path648" />
      <path
         d="m 258.874,145.29 2.195,-4.122 -4.308,2.743 z"
         style="fill:#2a5e6a;fill-opacity:1;fill-rule:nonzero;stroke:none;stroke-width:0.1"
         id="path650" />
      <path
         d="m 267.778,142.343 0.788,5.506 -3.02,2.317 -2.283,-4.876 4.515,-2.947"
         style="fill:#317381;fill-opacity:1;fill-rule:nonzero;stroke:none;stroke-width:0.1"
         id="path652" />
      <path
         d="m 263.263,145.29 -2.194,-4.122 4.308,2.743 z"
         style="fill:#2a5e6a;fill-opacity:1;fill-rule:nonzero;stroke:none;stroke-width:0.1"
         id="path654" />
      <path
         d="m 269.545,147.618 c -0.662,0.123 0,-1.036 0,-1.036 0,0 11.402,-2.998 16.107,-5.934 0.317,0.211 0.52,0.346 0.52,0.346 0,0 0.1,3.572 -16.627,6.624"
         style="fill:#1b3136;fill-opacity:1;fill-rule:nonzero;stroke:none;stroke-width:0.1"
         id="path656" />
      <path
         d="m 252.463,147.618 c 0.663,0.123 0,-1.036 0,-1.036 0,0 -11.402,-2.998 -16.106,-5.934 -0.317,0.211 -0.52,0.346 -0.52,0.346 0,0 -0.1,3.572 16.626,6.624"
         style="fill:#1b3136;fill-opacity:1;fill-rule:nonzero;stroke:none;stroke-width:0.1"
         id="path658" />
      <path
         d="m 281.582,126.49 h -11.139 v 1.999 h 11.139 v -1.999"
         style="fill:#22464f;fill-opacity:1;fill-rule:nonzero;stroke:none;stroke-width:0.1"
         id="path660" />
      <path
         d="m 278.351,134 h -3.389 c -1.026,0 -1.857,0.832 -1.857,1.858 v 4.628 c 0,1.026 0.831,1.857 1.857,1.857 h 3.389 c 1.026,0 1.857,-0.831 1.857,-1.857 v -4.628 c 0,-1.026 -0.831,-1.858 -1.857,-1.858"
         style="fill:#161413;fill-opacity:1;fill-rule:nonzero;stroke:none;stroke-width:0.1"
         id="path662" />
      <path
         d="m 277.952,143.229 h -2.99 v -0.886 h 2.99 v 0.886"
         style="fill:#363535;fill-opacity:1;fill-rule:nonzero;stroke:none;stroke-width:0.1"
         id="path664" />
      <path
         d="m 278.351,134 h -3.434 v 1.093 c 0,0.429 0.478,0.778 1.067,0.778 h 1.3 c 0.589,0 1.067,-0.349 1.067,-0.778 V 134"
         style="fill:#2c2a2a;fill-opacity:1;fill-rule:nonzero;stroke:none;stroke-width:0.1"
         id="path666" />
      <path
         d="m 276.457,145.494 h -0.954 v -2.265 h 0.954 v 2.265"
         style="fill:#161413;fill-opacity:1;fill-rule:nonzero;stroke:none;stroke-width:0.1"
         id="path668" />
      <path
         d="m 275.98,145.04 c -0.132,0 -0.242,0.103 -0.25,0.236 -0.001,0.017 -0.108,1.765 -1.099,2.277 -0.562,0.292 -1.334,0.134 -2.289,-0.468 -0.114,-0.071 -0.27,-0.04 -0.344,0.08 -0.074,0.116 -0.039,0.271 0.079,0.344 1.118,0.704 2.056,0.866 2.786,0.488 1.243,-0.645 1.362,-2.611 1.367,-2.694 0.007,-0.137 -0.099,-0.256 -0.236,-0.263 h -0.014"
         style="fill:#161413;fill-opacity:1;fill-rule:nonzero;stroke:none;stroke-width:0.1"
         id="path670" />
      <path
         d="m 277.665,187.414 -16.238,2.899 c -0.227,0.041 -0.46,0.041 -0.687,0.001 l -16.277,-2.901 c -1.487,-0.265 -2.125,-2.043 -1.146,-3.193 l 3.946,-4.636 c 0.371,-0.437 0.916,-0.689 1.489,-0.689 h 24.623 c 0.573,0 1.118,0.252 1.489,0.689 l 3.947,4.637 c 0.978,1.15 0.34,2.928 -1.146,3.193"
         style="fill:#459da9;fill-opacity:1;fill-rule:nonzero;stroke:none;stroke-width:0.1"
         id="path672" />
      <path
         d="M 274.962,175.43 H 247.21 v 6.088 h 27.752 v -6.088"
         style="fill:#1b3136;fill-opacity:1;fill-rule:nonzero;stroke:none;stroke-width:0.1"
         id="path674" />
      <path
         d="m 261.001,169.923 c -9.026,0 -13.791,2.744 -13.791,5.457 v 0.05 h 27.752 v -0.05 c 0,-2.713 -4.935,-5.457 -13.961,-5.457"
         style="fill:#181615;fill-opacity:1;fill-rule:nonzero;stroke:none;stroke-width:0.1"
         id="path676" />
      <path
         d="m 263.034,178.548 c 0,-1.214 -0.861,-2.198 -1.924,-2.198 -1.062,0 -1.923,0.984 -1.923,2.198 0,1.215 0.861,2.199 1.923,2.199 1.063,0 1.924,-0.984 1.924,-2.199"
         style="fill:#459da9;fill-opacity:1;fill-rule:nonzero;stroke:none;stroke-width:0.1"
         id="path678" />
      <path
         d="m 262.732,124.186 h -3.325 v 16.982 h 3.325 v -16.982"
         style="fill:#317381;fill-opacity:1;fill-rule:nonzero;stroke:none;stroke-width:0.1"
         id="path680" />
      <path
         d="m 250.766,132.781 c 0.045,0.733 0.654,1.003 0.71,1.218 0.057,0.214 -1.41,1.466 -1.579,1.5 -0.169,0.033 -0.936,-0.485 -1.308,-0.485 -0.372,0 -1.078,0.485 -1.379,0.485 -0.301,0 -1.007,-0.485 -1.379,-0.485 -0.372,0 -1.139,0.518 -1.308,0.485 -0.17,-0.034 -1.636,-1.286 -1.579,-1.5 0.056,-0.215 0.665,-0.485 0.71,-1.218 0.034,-0.552 -1.522,-3.108 -0.868,-5.067 0.654,-1.96 3.135,-1.971 3.451,-2.095 0.316,-0.124 0.672,-0.654 0.973,-0.654 0.301,0 0.657,0.53 0.973,0.654 0.316,0.124 2.797,0.135 3.451,2.095 0.654,1.959 -0.902,4.515 -0.868,5.067"
         style="fill:#f8a032;fill-opacity:1;fill-rule:nonzero;stroke:none;stroke-width:0.1"
         id="path682" />
      <path
         d="m 244.758,135.028 -0.013,-0.001 c -0.141,-0.029 -1.161,-1.105 -1.119,-1.291 0.043,-0.186 0.55,-0.421 0.574,-1.063 0.018,-0.487 -1.376,-2.789 -0.86,-4.605 0.529,-1.864 2.728,-1.875 3.007,-1.995 0.28,-0.12 0.595,-0.634 0.863,-0.634 0.268,0 0.583,0.514 0.863,0.634 0.279,0.12 2.478,0.131 3.007,1.995 0.515,1.816 -0.878,4.118 -0.86,4.605 0.024,0.642 0.531,0.877 0.574,1.063 0.042,0.186 -0.959,1.26 -1.1,1.289 l -0.013,0.001 c -0.176,0 -1.018,-0.493 -1.32,-0.493 -0.311,0 -0.901,0.413 -1.151,0.413 -0.25,0 -0.84,-0.413 -1.151,-0.413 -0.302,0 -1.127,0.495 -1.301,0.495 z m 0.046,-0.336 c 0.086,-0.035 0.214,-0.095 0.316,-0.143 0.421,-0.198 0.714,-0.328 0.939,-0.328 0.234,0 0.505,0.129 0.767,0.254 0.126,0.06 0.316,0.15 0.384,0.159 0.068,-0.009 0.258,-0.099 0.384,-0.159 0.262,-0.125 0.533,-0.254 0.767,-0.254 0.223,0 0.52,0.129 0.946,0.325 0.105,0.048 0.238,0.109 0.326,0.144 0.211,-0.181 0.659,-0.678 0.811,-0.913 l -0.031,-0.033 c -0.181,-0.19 -0.484,-0.507 -0.505,-1.059 -0.007,-0.198 0.087,-0.45 0.283,-0.957 0.346,-0.893 0.925,-2.389 0.589,-3.575 -0.386,-1.361 -1.795,-1.598 -2.472,-1.712 -0.172,-0.029 -0.277,-0.046 -0.358,-0.081 -0.176,-0.076 -0.327,-0.225 -0.474,-0.37 l -0.266,-0.233 -0.266,0.233 c -0.147,0.145 -0.299,0.294 -0.474,0.37 -0.081,0.035 -0.186,0.052 -0.358,0.081 -0.677,0.114 -2.086,0.351 -2.472,1.712 -0.337,1.186 0.243,2.682 0.589,3.575 0.196,0.507 0.29,0.759 0.283,0.957 -0.021,0.552 -0.324,0.869 -0.505,1.059 l -0.03,0.032 c 0.156,0.236 0.613,0.735 0.827,0.916"
         style="fill:#bd6c28;fill-opacity:1;fill-rule:nonzero;stroke:none;stroke-width:0.1"
         id="path684" />
      <path
         d="m 249.367,127.269 h -4.329 v 1.486 h 4.329 v -1.486"
         style="fill:#bd6c28;fill-opacity:1;fill-rule:nonzero;stroke:none;stroke-width:0.1"
         id="path686" />
      <path
         d="m 245.731,127.756 0.215,-0.057 c 0.111,0 0.169,0.054 0.169,0.124 0,0.091 -0.091,0.132 -0.187,0.132 h -0.088 v 0.154 h 0.084 l 0.164,0.106 c 0,0.056 -0.045,0.097 -0.135,0.097 l -0.194,-0.056 -0.044,0.157 c 0.056,0.036 0.166,0.07 0.285,0.07 0.198,0 0.307,-0.105 0.307,-0.231 0,-0.097 -0.055,-0.174 -0.169,-0.213 v -0.003 c 0.112,-0.021 0.2,-0.104 0.2,-0.225 0,-0.163 -0.143,-0.282 -0.377,-0.282 -0.119,0 -0.22,0.031 -0.274,0.065 l 0.044,0.162"
         style="fill:#f79135;fill-opacity:1;fill-rule:nonzero;stroke:none;stroke-width:0.1"
         id="path688" />
      <path
         d="m 246.476,127.544 v 0.131 l 0.119,0.108 c 0.201,0.18 0.3,0.284 0.303,0.391 0,0.075 -0.046,0.135 -0.152,0.135 l -0.198,-0.076 -0.06,0.154 c 0.069,0.053 0.177,0.096 0.302,0.096 0.209,0 0.323,-0.122 0.323,-0.29 0,-0.154 -0.112,-0.278 -0.245,-0.398 l -0.085,-0.07 v -0.003 h 0.347 v -0.178 h -0.654"
         style="fill:#f79135;fill-opacity:1;fill-rule:nonzero;stroke:none;stroke-width:0.1"
         id="path690" />
      <path
         d="m 247.458,128.164 0.131,-0.149 0.119,0.062 0.012,0.053 c 0,0.098 -0.037,0.195 -0.135,0.195 -0.074,0 -0.127,-0.066 -0.127,-0.161 z m -0.129,-0.463 h 0.093 l 0.182,0.056 0.116,0.17 -0.005,0.002 -0.183,-0.067 c -0.157,0 -0.288,0.109 -0.288,0.288 0,0.181 0.144,0.333 0.347,0.333 0.237,0 0.349,-0.182 0.349,-0.398 0,-0.192 -0.061,-0.332 -0.162,-0.424 -0.088,-0.079 -0.208,-0.123 -0.352,-0.129 h -0.097 v 0.169"
         style="fill:#f79135;fill-opacity:1;fill-rule:nonzero;stroke:none;stroke-width:0.1"
         id="path692" />
      <path
         d="m 248.514,127.851 c 0,0.085 -0.045,0.159 -0.137,0.159 l -0.127,-0.083 -0.009,-0.053 c 0.004,-0.098 0.051,-0.186 0.149,-0.186 0.076,0 0.124,0.069 0.124,0.163 z m 0.118,0.463 -0.084,-0.003 c -0.191,-0.016 -0.276,-0.114 -0.3,-0.222 h 0.004 l 0.196,0.075 c 0.155,0 0.285,-0.11 0.285,-0.302 0,-0.183 -0.141,-0.333 -0.34,-0.333 -0.246,0 -0.366,0.182 -0.366,0.403 0,0.173 0.063,0.317 0.163,0.41 0.092,0.083 0.211,0.129 0.355,0.136 l 0.087,0.002 v -0.166"
         style="fill:#f79135;fill-opacity:1;fill-rule:nonzero;stroke:none;stroke-width:0.1"
         id="path694" />
      <path
         d="m 245.33,132.853 0.069,-0.005 c 0.109,0 0.178,0.056 0.178,0.15 0,0.084 -0.059,0.133 -0.162,0.133 l -0.085,-0.007 z m -0.205,0.416 c 0.063,0.011 0.153,0.019 0.279,0.019 0.128,0 0.219,-0.025 0.28,-0.074 l 0.098,-0.212 -0.084,-0.216 c -0.072,-0.067 -0.176,-0.097 -0.298,-0.097 l -0.07,0.004 v -0.327 h -0.205 v 0.903"
         style="fill:#bd6c28;fill-opacity:1;fill-rule:nonzero;stroke:none;stroke-width:0.1"
         id="path696" />
      <path
         d="m 246.087,132.821 c 0,-0.18 0.084,-0.306 0.223,-0.306 0.14,0 0.22,0.133 0.22,0.311 0,0.165 -0.079,0.305 -0.222,0.305 -0.14,0 -0.221,-0.132 -0.221,-0.31 z m 0.662,0.011 c 0,-0.299 -0.183,-0.481 -0.45,-0.481 -0.272,0 -0.43,0.205 -0.43,0.466 0,0.274 0.174,0.479 0.445,0.479 0.281,0 0.435,-0.211 0.435,-0.464"
         style="fill:#bd6c28;fill-opacity:1;fill-rule:nonzero;stroke:none;stroke-width:0.1"
         id="path698" />
      <path
         d="m 246.881,133.281 h 0.208 v -0.741 h 0.364 v -0.174 h -0.572 v 0.915"
         style="fill:#bd6c28;fill-opacity:1;fill-rule:nonzero;stroke:none;stroke-width:0.1"
         id="path700" />
      <path
         d="m 247.781,133.281 v -0.915 h -0.208 v 0.915 h 0.208"
         style="fill:#bd6c28;fill-opacity:1;fill-rule:nonzero;stroke:none;stroke-width:0.1"
         id="path702" />
      <path
         d="m 248.63,132.391 c -0.038,-0.018 -0.123,-0.039 -0.234,-0.039 -0.316,0 -0.479,0.197 -0.479,0.458 0,0.313 0.222,0.486 0.499,0.486 0.107,0 0.189,-0.022 0.225,-0.041 l -0.042,-0.164 -0.174,0.033 c -0.164,0 -0.292,-0.098 -0.292,-0.302 0,-0.183 0.109,-0.299 0.294,-0.299 l 0.172,0.03 0.031,-0.162"
         style="fill:#bd6c28;fill-opacity:1;fill-rule:nonzero;stroke:none;stroke-width:0.1"
         id="path704" />
      <path
         d="m 249.307,132.752 h -0.336 v -0.216 h 0.376 v -0.17 h -0.584 v 0.915 h 0.565 v -0.17 h -0.357 v -0.19 h 0.336 v -0.169"
         style="fill:#bd6c28;fill-opacity:1;fill-rule:nonzero;stroke:none;stroke-width:0.1"
         id="path706" />
      <path
         d="m 247.204,131.69 0.337,-0.684 0.756,-0.11 -0.547,-0.533 0.129,-0.752 -0.675,0.356 -0.676,-0.356 0.129,0.752 -0.546,0.533 0.755,0.11 0.338,0.684"
         style="fill:#bd6c28;fill-opacity:1;fill-rule:nonzero;stroke:none;stroke-width:0.1"
         id="path708" />
      <path
         d="m 247.217,131.612 c -0.603,0 -1.093,-0.49 -1.093,-1.093 0,-0.603 0.49,-1.093 1.093,-1.093 0.603,0 1.093,0.49 1.093,1.093 0,0.603 -0.49,1.093 -1.093,1.093 z m 0,-2.342 c -0.689,0 -1.249,0.56 -1.249,1.249 0,0.689 0.56,1.249 1.249,1.249 0.689,0 1.249,-0.56 1.249,-1.249 0,-0.689 -0.56,-1.249 -1.249,-1.249"
         style="fill:#bd6c28;fill-opacity:1;fill-rule:nonzero;stroke:none;stroke-width:0.1"
         id="path710" />
    </g>
  </g>
</svg>
