<?xml version="1.0" encoding="UTF-8" standalone="no"?>
<svg
   xmlns:dc="http://purl.org/dc/elements/1.1/"
   xmlns:cc="http://creativecommons.org/ns#"
   xmlns:rdf="http://www.w3.org/1999/02/22-rdf-syntax-ns#"
   xmlns:svg="http://www.w3.org/2000/svg"
   xmlns="http://www.w3.org/2000/svg"
   xmlns:sodipodi="http://sodipodi.sourceforge.net/DTD/sodipodi-0.dtd"
   xmlns:inkscape="http://www.inkscape.org/namespaces/inkscape"
   width="100"
   height="100"
   viewBox="0 0 26.458333 26.458334"
   version="1.1"
   id="svg9818"
   inkscape:version="1.0.2 (e86c870879, 2021-01-15)"
   sodipodi:docname="estadio.svg">
  <defs
     id="defs9812">
    <clipPath
       clipPathUnits="userSpaceOnUse"
       id="clipPath1290">
      <path
         d="m 3584.79,2009.38 c -1.96,1.17 -3.62,2.19 -5,3.05 h 2.02 c 1.67,-1.18 2.94,-2.33 2.98,-3.05"
         id="path1288" />
    </clipPath>
    <clipPath
       clipPathUnits="userSpaceOnUse"
       id="clipPath1306">
      <path
         d="m 3584.79,2009.38 c -1.96,1.17 -3.62,2.19 -5,3.05 h 2.02 c 1.67,-1.18 2.94,-2.33 2.98,-3.05"
         id="path1304" />
    </clipPath>
    <clipPath
       clipPathUnits="userSpaceOnUse"
       id="clipPath1312">
      <path
         d="m 3429.89,2012.09 c -0.25,0 -0.43,-0.08 -0.62,-0.22 -0.17,-0.19 -0.25,-0.38 -0.25,-0.63 v -5.11 c 0,-0.25 0.08,-0.43 0.25,-0.62 0.19,-0.17 0.37,-0.25 0.62,-0.25 h 2.32 c 0.26,0 0.43,0.08 0.62,0.25 0.19,0.19 0.25,0.37 0.25,0.62 v 1 c 0,0.25 0.08,0.47 0.27,0.66 0.19,0.14 0.36,0.22 0.62,0.22 h 8.44 c 0.25,0 0.44,-0.08 0.63,-0.22 0.17,-0.19 0.25,-0.41 0.25,-0.66 v -13.39 c 0,-0.26 -0.08,-0.44 -0.25,-0.62 -0.19,-0.19 -0.38,-0.25 -0.63,-0.25 h -3.48 c -0.27,0 -0.46,-0.08 -0.63,-0.27 -0.19,-0.19 -0.26,-0.36 -0.26,-0.62 v -2.32 c 0,-0.25 0.07,-0.43 0.26,-0.62 0.17,-0.17 0.36,-0.25 0.63,-0.25 h 12.82 c 0.27,0 0.44,0.08 0.63,0.25 0.16,0.19 0.22,0.37 0.22,0.62 v 2.32 c 0,0.26 -0.06,0.43 -0.22,0.62 -0.19,0.19 -0.36,0.27 -0.63,0.27 h -3.51 c -0.27,0 -0.44,0.06 -0.63,0.25 -0.18,0.18 -0.25,0.36 -0.25,0.62 v 13.39 c 0,0.25 0.07,0.47 0.25,0.66 0.19,0.14 0.36,0.22 0.63,0.22 h 8.47 c 0.26,0 0.43,-0.08 0.62,-0.22 0.14,-0.19 0.22,-0.41 0.22,-0.66 v -0.84 c 0,-0.27 0.08,-0.44 0.27,-0.63 0.17,-0.18 0.36,-0.26 0.61,-0.26 h 2.36 c 0.25,0 0.43,0.08 0.62,0.26 0.17,0.19 0.25,0.36 0.25,0.63 v 4.95 c 0,0.25 -0.08,0.44 -0.25,0.63 -0.19,0.14 -0.37,0.22 -0.62,0.22 z m 64.56,0 c -0.25,0 -0.44,-0.08 -0.63,-0.22 -0.17,-0.19 -0.25,-0.38 -0.25,-0.63 v -2.36 c 0,-0.25 0.08,-0.43 0.25,-0.62 0.19,-0.17 0.38,-0.25 0.63,-0.25 h 3.48 c 0.27,0 0.49,-0.08 0.66,-0.22 0.16,-0.19 0.23,-0.41 0.23,-0.66 v -4.08 c 0,-0.25 -0.07,-0.43 -0.23,-0.62 -0.17,-0.17 -0.39,-0.25 -0.66,-0.25 h -18.34 c -0.25,0 -0.44,0.08 -0.61,0.25 -0.19,0.19 -0.27,0.37 -0.27,0.62 v 4.08 c 0,0.25 0.08,0.47 0.27,0.66 0.17,0.14 0.36,0.22 0.61,0.22 h 3.48 c 0.27,0 0.46,0.08 0.63,0.25 0.19,0.19 0.26,0.37 0.26,0.62 v 2.36 c 0,0.25 -0.07,0.44 -0.26,0.63 -0.17,0.14 -0.36,0.22 -0.63,0.22 h -12.79 c -0.25,0 -0.44,-0.08 -0.63,-0.22 -0.17,-0.19 -0.25,-0.38 -0.25,-0.63 v -2.36 c 0,-0.25 0.08,-0.43 0.25,-0.62 0.19,-0.17 0.38,-0.25 0.63,-0.25 h 3.48 c 0.27,0 0.44,-0.08 0.63,-0.22 0.18,-0.19 0.26,-0.41 0.26,-0.66 v -13.39 c 0,-0.26 -0.08,-0.44 -0.26,-0.62 -0.19,-0.19 -0.36,-0.25 -0.63,-0.25 h -3.48 c -0.25,0 -0.44,-0.08 -0.63,-0.27 -0.17,-0.19 -0.25,-0.36 -0.25,-0.62 v -2.32 c 0,-0.25 0.08,-0.43 0.25,-0.62 0.19,-0.17 0.38,-0.25 0.63,-0.25 h 12.79 c 0.27,0 0.46,0.08 0.63,0.25 0.19,0.19 0.26,0.37 0.26,0.62 v 2.32 c 0,0.26 -0.07,0.43 -0.26,0.62 -0.17,0.19 -0.36,0.27 -0.63,0.27 h -3.48 c -0.25,0 -0.44,0.06 -0.61,0.25 -0.19,0.18 -0.27,0.36 -0.27,0.62 v 4.06 c 0,0.27 0.08,0.46 0.27,0.63 0.17,0.19 0.36,0.27 0.61,0.27 h 18.34 c 0.27,0 0.49,-0.08 0.66,-0.27 0.16,-0.17 0.23,-0.36 0.23,-0.63 v -4.06 c 0,-0.26 -0.07,-0.44 -0.23,-0.62 -0.17,-0.19 -0.39,-0.25 -0.66,-0.25 h -3.48 c -0.25,0 -0.44,-0.08 -0.63,-0.27 -0.17,-0.19 -0.25,-0.36 -0.25,-0.62 v -2.32 c 0,-0.25 0.08,-0.43 0.25,-0.62 0.19,-0.17 0.38,-0.25 0.63,-0.25 h 12.84 c 0.25,0 0.44,0.08 0.63,0.25 0.17,0.19 0.25,0.37 0.25,0.62 v 2.32 c 0,0.26 -0.08,0.43 -0.25,0.62 -0.19,0.19 -0.38,0.27 -0.63,0.27 h -3.53 c -0.25,0 -0.44,0.06 -0.58,0.25 -0.18,0.18 -0.26,0.36 -0.26,0.62 v 13.39 c 0,0.25 0.08,0.47 0.26,0.66 0.14,0.14 0.33,0.22 0.58,0.22 h 3.53 c 0.25,0 0.44,0.08 0.63,0.25 0.17,0.19 0.25,0.37 0.25,0.62 v 2.36 c 0,0.25 -0.08,0.44 -0.25,0.63 -0.19,0.14 -0.38,0.22 -0.63,0.22 z m 23.38,0 c -0.25,0 -0.44,-0.08 -0.63,-0.22 -0.17,-0.19 -0.25,-0.38 -0.25,-0.63 v -2.36 c 0,-0.25 0.08,-0.43 0.25,-0.62 0.19,-0.17 0.38,-0.25 0.63,-0.25 h 3.48 c 0.27,0 0.44,-0.08 0.63,-0.22 0.19,-0.19 0.26,-0.41 0.26,-0.66 v -13.39 c 0,-0.26 -0.07,-0.44 -0.26,-0.62 -0.19,-0.19 -0.36,-0.25 -0.63,-0.25 h -3.48 c -0.25,0 -0.44,-0.08 -0.63,-0.27 -0.17,-0.19 -0.25,-0.36 -0.25,-0.62 v -2.32 c 0,-0.25 0.08,-0.43 0.25,-0.62 0.19,-0.17 0.38,-0.25 0.63,-0.25 h 31 c 0.25,0 0.44,0.08 0.62,0.25 0.18,0.19 0.25,0.37 0.25,0.62 v 5.5 c 0,0.27 -0.07,0.46 -0.25,0.63 -0.18,0.19 -0.37,0.26 -0.62,0.26 h -2.35 c -0.26,0 -0.45,-0.07 -0.62,-0.26 -0.19,-0.17 -0.27,-0.36 -0.27,-0.63 v -1.42 c 0,-0.26 -0.06,-0.44 -0.21,-0.62 -0.19,-0.19 -0.36,-0.25 -0.63,-0.25 h -17.61 c -0.25,0 -0.44,0.06 -0.61,0.25 -0.19,0.18 -0.26,0.36 -0.26,0.62 v 4.14 c 0,0.27 0.07,0.49 0.26,0.66 0.17,0.16 0.36,0.22 0.61,0.22 h 9.39 c 0.27,0 0.45,0.08 0.63,0.26 0.18,0.19 0.26,0.36 0.26,0.63 v 1.76 c 0,0.25 -0.08,0.44 -0.26,0.61 -0.18,0.19 -0.36,0.27 -0.63,0.27 h -9.39 c -0.25,0 -0.44,0.08 -0.61,0.25 -0.19,0.16 -0.26,0.33 -0.26,0.59 v 4 c 0,0.25 0.07,0.47 0.26,0.66 0.17,0.14 0.36,0.22 0.61,0.22 h 17.61 c 0.27,0 0.44,-0.08 0.63,-0.22 0.15,-0.19 0.21,-0.41 0.21,-0.66 v -0.89 c 0,-0.25 0.08,-0.47 0.27,-0.62 0.17,-0.17 0.36,-0.25 0.62,-0.25 h 2.35 c 0.25,0 0.44,0.08 0.62,0.25 0.18,0.15 0.25,0.37 0.25,0.62 v 4.92 c 0,0.25 -0.07,0.47 -0.25,0.66 -0.18,0.19 -0.37,0.27 -0.62,0.27 z m 91.22,0.11 c -0.26,0 -0.48,-0.08 -0.7,-0.27 -0.22,-0.19 -0.36,-0.36 -0.44,-0.58 l -0.03,-0.08 c -0.08,-0.22 -0.15,-0.32 -0.26,-0.32 -0.11,0 -0.19,0.1 -0.25,0.32 -0.08,0.22 -0.22,0.41 -0.44,0.6 -0.22,0.14 -0.45,0.22 -0.7,0.22 h -20.69 c -0.25,0 -0.52,-0.05 -0.77,-0.16 -0.29,-0.11 -0.54,-0.25 -0.73,-0.41 l -2.86,-2.59 c -0.19,-0.19 -0.38,-0.41 -0.48,-0.67 -0.11,-0.28 -0.19,-0.55 -0.19,-0.8 v -14.05 c 0,-0.26 0.08,-0.51 0.19,-0.78 0.1,-0.28 0.29,-0.5 0.48,-0.68 l 2.86,-2.57 c 0.19,-0.18 0.44,-0.29 0.73,-0.4 0.25,-0.11 0.52,-0.19 0.77,-0.19 h 21.67 c 0.27,0 0.52,0.08 0.81,0.19 0.3,0.11 0.55,0.22 0.74,0.4 l 2.86,2.57 c 0.18,0.18 0.37,0.4 0.48,0.68 0.11,0.27 0.17,0.52 0.17,0.78 v 1.36 c 0,0.25 -0.06,0.44 -0.25,0.63 -0.18,0.17 -0.37,0.25 -0.62,0.25 h -2.35 c -0.26,0 -0.43,-0.08 -0.59,-0.19 -0.19,-0.11 -0.25,-0.3 -0.25,-0.47 0,-0.19 -0.08,-0.37 -0.19,-0.59 -0.11,-0.25 -0.29,-0.44 -0.47,-0.63 l -0.37,-0.32 c -0.19,-0.19 -0.44,-0.3 -0.7,-0.41 -0.28,-0.11 -0.55,-0.17 -0.8,-0.17 h -18.56 c -0.25,0 -0.52,0.06 -0.82,0.17 -0.28,0.11 -0.5,0.22 -0.68,0.41 l -0.38,0.32 c -0.17,0.19 -0.36,0.41 -0.47,0.71 -0.11,0.25 -0.18,0.51 -0.18,0.76 v 10.42 c 0,0.25 0.07,0.52 0.18,0.8 0.11,0.27 0.3,0.49 0.47,0.67 l 0.38,0.28 c 0.18,0.19 0.4,0.35 0.68,0.46 0.3,0.11 0.57,0.14 0.82,0.14 h 20.25 c 0.25,0 0.43,-0.08 0.62,-0.22 0.14,-0.19 0.22,-0.38 0.22,-0.59 v -1.4 c 0,-0.14 0.06,-0.25 0.25,-0.35 0.16,-0.11 0.33,-0.19 0.59,-0.19 h 2.35 c 0.25,0.03 0.44,0.11 0.62,0.29 0.19,0.15 0.25,0.33 0.25,0.58 v 5.17 c 0,0.27 -0.06,0.44 -0.25,0.63 -0.18,0.19 -0.37,0.27 -0.62,0.27 z m 11.75,-3.24 c 0,-0.25 0.08,-0.47 0.25,-0.62 0.19,-0.19 0.38,-0.25 0.63,-0.25 h 3.48 c 0.27,0 0.44,-0.08 0.63,-0.27 0.18,-0.17 0.26,-0.36 0.26,-0.62 v -13.46 c 0,-0.26 -0.08,-0.44 -0.26,-0.62 -0.19,-0.19 -0.36,-0.25 -0.63,-0.25 h -3.48 c -0.25,0 -0.44,-0.08 -0.63,-0.27 -0.17,-0.19 -0.25,-0.36 -0.25,-0.62 v -2.32 c 0,-0.25 0.08,-0.43 0.25,-0.62 0.19,-0.17 0.38,-0.25 0.63,-0.25 h 12.79 c 0.27,0 0.46,0.08 0.63,0.25 0.19,0.19 0.26,0.37 0.26,0.62 v 2.32 c 0,0.26 -0.07,0.43 -0.26,0.62 -0.17,0.19 -0.36,0.27 -0.63,0.27 h -3.48 c -0.25,0 -0.44,0.06 -0.61,0.25 -0.19,0.18 -0.27,0.36 -0.27,0.62 v 13.46 c 0,0.26 0.08,0.45 0.27,0.62 0.17,0.19 0.36,0.27 0.61,0.27 h 3.48 c 0.27,0 0.46,0.06 0.63,0.25 0.19,0.15 0.26,0.37 0.26,0.62 v 2.31 c 0,0.25 -0.07,0.44 -0.26,0.63 -0.17,0.19 -0.36,0.25 -0.63,0.25 h -12.79 c -0.25,0 -0.44,-0.06 -0.63,-0.25 -0.17,-0.19 -0.25,-0.38 -0.25,-0.63 z m 23.01,3.13 c -0.25,0 -0.43,-0.08 -0.62,-0.22 -0.17,-0.19 -0.25,-0.38 -0.25,-0.63 v -5.11 c 0,-0.25 0.08,-0.43 0.25,-0.62 0.19,-0.17 0.37,-0.25 0.62,-0.25 h 2.32 c 0.26,0 0.43,0.08 0.62,0.25 0.19,0.19 0.25,0.37 0.25,0.62 v 1 c 0,0.25 0.08,0.47 0.27,0.66 0.18,0.14 0.36,0.22 0.62,0.22 h 8.44 c 0.25,0 0.44,-0.08 0.62,-0.22 0.18,-0.19 0.25,-0.41 0.25,-0.66 v -13.39 c 0,-0.26 -0.07,-0.44 -0.25,-0.62 -0.18,-0.19 -0.37,-0.25 -0.62,-0.25 h -3.49 c -0.26,0 -0.45,-0.08 -0.62,-0.27 -0.19,-0.19 -0.27,-0.36 -0.27,-0.62 v -2.32 c 0,-0.25 0.08,-0.43 0.27,-0.62 0.17,-0.17 0.36,-0.25 0.62,-0.25 h 12.83 c 0.27,0 0.44,0.08 0.63,0.25 0.15,0.19 0.22,0.37 0.22,0.62 v 2.32 c 0,0.26 -0.07,0.43 -0.22,0.62 -0.19,0.19 -0.36,0.27 -0.63,0.27 h -3.51 c -0.27,0 -0.44,0.06 -0.63,0.25 -0.19,0.18 -0.25,0.36 -0.25,0.62 v 13.39 c 0,0.25 0.06,0.47 0.25,0.66 0.19,0.14 0.36,0.22 0.63,0.22 h 8.47 c 0.26,0 0.43,-0.08 0.62,-0.22 0.14,-0.19 0.22,-0.41 0.22,-0.66 v -0.84 c 0,-0.27 0.08,-0.44 0.26,-0.63 0.18,-0.18 0.36,-0.26 0.61,-0.26 h 2.36 c 0.25,0 0.44,0.08 0.63,0.26 0.17,0.19 0.25,0.36 0.25,0.63 v 4.95 c 0,0.25 -0.08,0.44 -0.25,0.63 -0.19,0.14 -0.38,0.22 -0.63,0.22 z m 60.67,-3.21 c 0,-0.25 0.08,-0.43 0.27,-0.58 0.14,-0.18 0.36,-0.26 0.62,-0.26 h 2.16 c 0.26,0 0.4,-0.06 0.43,-0.17 0.05,-0.11 -0.03,-0.27 -0.21,-0.41 l -6.79,-6.09 c -0.18,-0.19 -0.4,-0.25 -0.65,-0.25 -0.27,0 -0.49,0.06 -0.67,0.25 l -6.78,6.09 c -0.19,0.14 -0.22,0.3 -0.19,0.41 0.04,0.11 0.19,0.17 0.45,0.17 h 2.02 c 0.25,0 0.47,0.08 0.65,0.26 0.14,0.15 0.22,0.33 0.22,0.58 v 2.36 c 0,0.25 -0.08,0.44 -0.22,0.63 -0.18,0.14 -0.4,0.22 -0.65,0.22 h -11.93 c -0.26,0 -0.43,-0.08 -0.62,-0.22 -0.19,-0.19 -0.25,-0.38 -0.25,-0.63 v -2.36 c 0,-0.25 0.06,-0.43 0.25,-0.58 0.19,-0.18 0.36,-0.26 0.62,-0.26 h 2.9 c 0.26,0 0.51,-0.03 0.81,-0.14 0.29,-0.11 0.54,-0.25 0.73,-0.44 l 10.19,-8.92 c 0.19,-0.17 0.37,-0.39 0.48,-0.66 0.11,-0.25 0.19,-0.51 0.19,-0.76 v -3.38 c 0,-0.26 -0.08,-0.44 -0.26,-0.62 -0.18,-0.19 -0.36,-0.25 -0.63,-0.25 h -4.5 c -0.26,0 -0.45,-0.08 -0.62,-0.27 -0.19,-0.19 -0.27,-0.36 -0.27,-0.62 v -2.32 c 0,-0.25 0.08,-0.43 0.27,-0.62 0.17,-0.17 0.36,-0.25 0.62,-0.25 h 14.27 c 0.25,0 0.43,0.08 0.62,0.25 0.17,0.19 0.25,0.37 0.25,0.62 v 2.32 c 0,0.26 -0.08,0.43 -0.25,0.62 -0.19,0.19 -0.37,0.27 -0.62,0.27 h -4.52 c -0.25,0 -0.44,0.06 -0.62,0.25 -0.19,0.18 -0.25,0.36 -0.25,0.62 v 3.27 c 0,0.25 0.06,0.51 0.17,0.79 0.11,0.27 0.29,0.49 0.48,0.63 l 10.31,9.03 c 0.18,0.19 0.44,0.33 0.74,0.44 0.28,0.11 0.55,0.14 0.8,0.14 h 2.79 c 0.25,0 0.44,0.08 0.61,0.26 0.19,0.15 0.27,0.33 0.27,0.58 v 2.36 c 0,0.25 -0.08,0.44 -0.27,0.63 -0.17,0.14 -0.36,0.22 -0.61,0.22 h -11.92 c -0.26,0 -0.48,-0.08 -0.62,-0.22 -0.19,-0.19 -0.27,-0.38 -0.27,-0.63 z m 44.54,3.24 c -0.25,0 -0.44,-0.08 -0.63,-0.25 -0.17,-0.19 -0.25,-0.38 -0.25,-0.63 v -2.36 c 0,-0.25 0.08,-0.43 0.25,-0.62 0.19,-0.17 0.38,-0.25 0.63,-0.25 h 3.48 c 0.27,0 0.44,-0.08 0.63,-0.25 0.19,-0.19 0.26,-0.38 0.26,-0.63 v -13.39 c 0,-0.26 -0.07,-0.44 -0.26,-0.62 -0.19,-0.19 -0.36,-0.25 -0.63,-0.25 h -3.48 c -0.25,0 -0.44,-0.08 -0.63,-0.27 -0.17,-0.19 -0.25,-0.36 -0.25,-0.62 v -2.32 c 0,-0.25 0.08,-0.43 0.25,-0.62 0.19,-0.17 0.38,-0.25 0.63,-0.25 h 27.19 c 0.25,0 0.51,0.03 0.84,0.14 0.28,0.11 0.55,0.22 0.74,0.37 l 3.43,2.61 c 0.19,0.14 0.38,0.36 0.52,0.61 0.11,0.27 0.19,0.52 0.19,0.78 v 4.66 c 0,0.25 -0.08,0.52 -0.19,0.77 -0.14,0.26 -0.33,0.48 -0.52,0.62 l -0.76,0.6 c -0.19,0.1 -0.3,0.28 -0.3,0.5 0,0.18 0.11,0.37 0.3,0.51 l 0.76,0.56 c 0.19,0.14 0.38,0.36 0.52,0.61 0.11,0.27 0.19,0.57 0.19,0.82 v 4.65 c 0,0.27 -0.08,0.52 -0.19,0.78 -0.14,0.25 -0.33,0.47 -0.52,0.61 l -3.43,2.58 c -0.19,0.14 -0.46,0.3 -0.74,0.41 -0.33,0.11 -0.59,0.14 -0.84,0.14 z m 28.83,-16.77 c 0,-0.25 -0.06,-0.51 -0.17,-0.76 -0.16,-0.3 -0.35,-0.52 -0.52,-0.63 l -0.73,-0.59 c -0.19,-0.11 -0.44,-0.22 -0.74,-0.33 -0.33,-0.11 -0.59,-0.17 -0.84,-0.17 h -16.52 c -0.25,0 -0.44,0.06 -0.61,0.25 -0.18,0.18 -0.26,0.36 -0.26,0.62 v 4.11 c 0,0.25 0.08,0.44 0.26,0.63 0.17,0.17 0.36,0.25 0.61,0.25 h 16.03 c 0.27,0 0.55,-0.03 0.85,-0.14 0.29,-0.11 0.54,-0.22 0.73,-0.38 l 1.22,-0.87 c 0.17,-0.14 0.36,-0.38 0.52,-0.63 0.11,-0.25 0.17,-0.51 0.17,-0.76 z m 0,9.61 c 0,-0.25 -0.06,-0.51 -0.17,-0.76 -0.16,-0.27 -0.35,-0.49 -0.52,-0.63 l -1.11,-0.81 c -0.17,-0.14 -0.44,-0.25 -0.73,-0.36 -0.33,-0.11 -0.58,-0.19 -0.85,-0.19 h -16.14 c -0.25,0 -0.44,0.08 -0.61,0.27 -0.18,0.17 -0.26,0.36 -0.26,0.61 v 4.04 c 0,0.25 0.08,0.44 0.26,0.63 0.17,0.17 0.36,0.25 0.61,0.25 h 16.52 c 0.25,0 0.51,-0.03 0.84,-0.14 0.3,-0.11 0.55,-0.22 0.74,-0.38 l 0.73,-0.54 c 0.17,-0.15 0.36,-0.38 0.52,-0.63 0.11,-0.25 0.17,-0.52 0.17,-0.77 z m 37.89,7.13 c -0.27,0 -0.44,-0.08 -0.63,-0.22 -0.18,-0.19 -0.25,-0.38 -0.25,-0.63 v -2.36 c 0,-0.25 0.07,-0.43 0.25,-0.62 0.19,-0.17 0.36,-0.25 0.63,-0.25 h 3.48 c 0.25,0 0.44,-0.08 0.63,-0.22 0.19,-0.19 0.25,-0.41 0.25,-0.66 v -11.78 c 0,-0.25 -0.06,-0.51 -0.17,-0.76 -0.16,-0.3 -0.35,-0.52 -0.52,-0.63 l -0.73,-0.59 c -0.19,-0.11 -0.44,-0.22 -0.74,-0.33 -0.33,-0.11 -0.59,-0.17 -0.84,-0.17 h -14.97 c -0.25,0 -0.52,0.06 -0.81,0.17 -0.33,0.11 -0.58,0.22 -0.77,0.33 l -0.73,0.59 c -0.19,0.11 -0.36,0.33 -0.47,0.63 -0.16,0.25 -0.22,0.51 -0.22,0.76 v 11.78 c 0,0.25 0.06,0.47 0.25,0.66 0.19,0.14 0.36,0.22 0.62,0.22 h 3.49 c 0.25,0 0.44,0.08 0.62,0.25 0.19,0.19 0.25,0.37 0.25,0.62 v 2.36 c 0,0.25 -0.06,0.44 -0.25,0.63 -0.18,0.14 -0.37,0.22 -0.62,0.22 h -12.8 c -0.26,0 -0.45,-0.08 -0.62,-0.22 -0.19,-0.19 -0.27,-0.38 -0.27,-0.63 v -2.36 c 0,-0.25 0.08,-0.43 0.27,-0.62 0.17,-0.17 0.36,-0.25 0.62,-0.25 h 3.49 c 0.25,0 0.43,-0.08 0.62,-0.22 0.17,-0.19 0.25,-0.41 0.25,-0.66 v -13.83 c 0,-0.26 0.08,-0.51 0.22,-0.78 0.11,-0.25 0.3,-0.47 0.48,-0.61 l 3.44,-2.61 c 0.19,-0.15 0.44,-0.26 0.78,-0.37 0.28,-0.11 0.55,-0.14 0.8,-0.14 h 17.69 c 0.25,0 0.5,0.03 0.84,0.14 0.28,0.11 0.55,0.22 0.74,0.37 l 3.43,2.61 c 0.19,0.14 0.38,0.36 0.52,0.61 0.11,0.27 0.19,0.52 0.19,0.78 v 13.83 c 0,0.25 0.07,0.47 0.25,0.66 0.18,0.14 0.37,0.22 0.62,0.22 h 3.53 c 0.25,0 0.44,0.08 0.61,0.25 0.16,0.19 0.22,0.37 0.22,0.62 v 2.36 c 0,0.25 -0.06,0.44 -0.22,0.63 -0.17,0.14 -0.36,0.22 -0.61,0.22 z m 26.97,-4.6 c 0.18,0.16 0.43,0.27 0.78,0.38 0.28,0.11 0.55,0.14 0.8,0.14 h 18.26 c 0.27,0 0.52,-0.03 0.84,-0.11 0.33,-0.11 0.6,-0.22 0.77,-0.33 l 2.09,-1.33 c 0.19,-0.11 0.41,-0.14 0.68,-0.06 0.25,0.03 0.43,0.17 0.54,0.36 l 1.21,1.98 c 0.11,0.19 0.15,0.41 0.11,0.66 -0.04,0.22 -0.19,0.41 -0.36,0.52 l -3.08,1.93 c -0.19,0.11 -0.46,0.24 -0.78,0.35 -0.33,0.06 -0.58,0.11 -0.85,0.11 h -20.79 c -0.25,0 -0.52,-0.05 -0.8,-0.16 -0.33,-0.11 -0.59,-0.22 -0.78,-0.36 l -3.44,-2.61 c -0.19,-0.11 -0.37,-0.33 -0.48,-0.58 -0.14,-0.29 -0.22,-0.56 -0.22,-0.81 v -4.66 c 0,-0.26 0.08,-0.51 0.22,-0.78 0.11,-0.25 0.29,-0.47 0.48,-0.61 l 3.44,-2.61 c 0.19,-0.11 0.45,-0.21 0.78,-0.32 0.28,-0.11 0.55,-0.19 0.8,-0.19 h 18.96 c 0.25,0 0.52,-0.03 0.82,-0.14 0.28,-0.11 0.54,-0.22 0.73,-0.38 l 0.77,-0.54 c 0.18,-0.14 0.36,-0.38 0.51,-0.63 0.11,-0.25 0.17,-0.51 0.17,-0.76 v -0.6 c 0,-0.25 -0.06,-0.51 -0.17,-0.76 -0.15,-0.3 -0.33,-0.52 -0.51,-0.63 l -0.77,-0.59 c -0.19,-0.11 -0.45,-0.22 -0.73,-0.33 -0.3,-0.11 -0.57,-0.17 -0.82,-0.17 h -17.71 c -0.25,0 -0.52,0.03 -0.85,0.14 -0.33,0.08 -0.58,0.19 -0.76,0.29 l -2.69,1.61 c -0.17,0.11 -0.39,0.14 -0.66,0.11 -0.25,-0.07 -0.43,-0.22 -0.54,-0.4 l -1.21,-1.99 c -0.12,-0.22 -0.15,-0.43 -0.08,-0.65 0.04,-0.25 0.19,-0.44 0.41,-0.55 l 3.63,-2.2 c 0.18,-0.11 0.43,-0.22 0.76,-0.3 0.33,-0.11 0.6,-0.14 0.85,-0.14 h 20.21 c 0.25,0 0.52,0.03 0.85,0.14 0.29,0.11 0.54,0.22 0.73,0.37 l 3.44,2.61 c 0.19,0.14 0.37,0.36 0.52,0.61 0.1,0.27 0.18,0.52 0.18,0.78 v 4.66 c 0,0.25 -0.08,0.52 -0.18,0.77 -0.15,0.26 -0.33,0.48 -0.52,0.62 l -3.44,2.61 c -0.19,0.14 -0.44,0.25 -0.73,0.36 -0.33,0.11 -0.6,0.16 -0.85,0.16 h -18.96 c -0.25,0 -0.52,0.06 -0.8,0.17 -0.35,0.11 -0.6,0.22 -0.78,0.37 l -0.74,0.55 c -0.17,0.14 -0.36,0.36 -0.47,0.63 -0.15,0.25 -0.21,0.51 -0.21,0.76 v 0.59 c 0,0.25 0.06,0.52 0.21,0.77 0.11,0.25 0.3,0.48 0.47,0.63 z"
         id="path1310" />
    </clipPath>
    <clipPath
       clipPathUnits="userSpaceOnUse"
       id="clipPath7786">
      <path
         d="m 3690.58,1208.17 c 0,1.81 0.95,3.09 2.4,3.94 -0.2,-0.49 -0.3,-1.04 -0.3,-1.65 7.32,0.27 11.81,0.86 14.29,1.56 1.69,-1.39 -1.43,-3.3 -16.39,-3.85"
         id="path7784" />
    </clipPath>
    <clipPath
       clipPathUnits="userSpaceOnUse"
       id="clipPath14704">
      <path
         d="m 3706.97,1212.02 c -1.06,0.88 -4.05,1.56 -7.19,1.56 -2.46,0 -5.01,-0.41 -6.8,-1.47 1.12,2.78 5.13,3.76 8.92,3.76 5.69,0 10.9,-2.21 5.07,-3.85"
         id="path14702" />
    </clipPath>
    <clipPath
       clipPathUnits="userSpaceOnUse"
       id="clipPath14720">
      <path
         d="m 3692.68,1210.46 c 0,0.61 0.1,1.16 0.3,1.65 1.79,1.06 4.34,1.47 6.8,1.47 3.14,0 6.13,-0.68 7.19,-1.56 -2.48,-0.7 -6.97,-1.29 -14.29,-1.56"
         id="path14718" />
    </clipPath>
    <clipPath
       clipPathUnits="userSpaceOnUse"
       id="clipPath27714">
      <path
         d="m 3654.18,1231.89 c -0.07,0 -0.1,0.43 -0.08,1.48 h 0.4 c -0.13,-0.89 -0.25,-1.48 -0.32,-1.48"
         id="path27712" />
    </clipPath>
    <clipPath
       clipPathUnits="userSpaceOnUse"
       id="clipPath28962">
      <path
         d="m 3494.52,1991.48 c -0.31,0 -0.32,1.81 -0.19,3.62 0.14,1.81 0.42,3.62 0.72,3.62 0.22,0 0.46,-0.97 0.64,-3.61 -0.58,-2.66 -0.95,-3.63 -1.17,-3.63"
         id="path28960" />
    </clipPath>
    <clipPath
       clipPathUnits="userSpaceOnUse"
       id="clipPath28978">
      <path
         d="m 3494.52,1991.48 c -0.31,0 -0.32,1.81 -0.19,3.62 0.14,1.81 0.42,3.62 0.72,3.62 0.22,0 0.46,-0.97 0.64,-3.61 -0.58,-2.66 -0.95,-3.63 -1.17,-3.63"
         id="path28976" />
    </clipPath>
    <clipPath
       clipPathUnits="userSpaceOnUse"
       id="clipPath28984">
      <path
         d="m 3429.89,2012.09 c -0.25,0 -0.43,-0.08 -0.62,-0.22 -0.17,-0.19 -0.25,-0.38 -0.25,-0.63 v -5.11 c 0,-0.25 0.08,-0.43 0.25,-0.62 0.19,-0.17 0.37,-0.25 0.62,-0.25 h 2.32 c 0.26,0 0.43,0.08 0.62,0.25 0.19,0.19 0.25,0.37 0.25,0.62 v 1 c 0,0.25 0.08,0.47 0.27,0.66 0.19,0.14 0.36,0.22 0.62,0.22 h 8.44 c 0.25,0 0.44,-0.08 0.63,-0.22 0.17,-0.19 0.25,-0.41 0.25,-0.66 v -13.39 c 0,-0.26 -0.08,-0.44 -0.25,-0.62 -0.19,-0.19 -0.38,-0.25 -0.63,-0.25 h -3.48 c -0.27,0 -0.46,-0.08 -0.63,-0.27 -0.19,-0.19 -0.26,-0.36 -0.26,-0.62 v -2.32 c 0,-0.25 0.07,-0.43 0.26,-0.62 0.17,-0.17 0.36,-0.25 0.63,-0.25 h 12.82 c 0.27,0 0.44,0.08 0.63,0.25 0.16,0.19 0.22,0.37 0.22,0.62 v 2.32 c 0,0.26 -0.06,0.43 -0.22,0.62 -0.19,0.19 -0.36,0.27 -0.63,0.27 h -3.51 c -0.27,0 -0.44,0.06 -0.63,0.25 -0.18,0.18 -0.25,0.36 -0.25,0.62 v 13.39 c 0,0.25 0.07,0.47 0.25,0.66 0.19,0.14 0.36,0.22 0.63,0.22 h 8.47 c 0.26,0 0.43,-0.08 0.62,-0.22 0.14,-0.19 0.22,-0.41 0.22,-0.66 v -0.84 c 0,-0.27 0.08,-0.44 0.27,-0.63 0.17,-0.18 0.36,-0.26 0.61,-0.26 h 2.36 c 0.25,0 0.43,0.08 0.62,0.26 0.17,0.19 0.25,0.36 0.25,0.63 v 4.95 c 0,0.25 -0.08,0.44 -0.25,0.63 -0.19,0.14 -0.37,0.22 -0.62,0.22 z m 64.56,0 c -0.25,0 -0.44,-0.08 -0.63,-0.22 -0.17,-0.19 -0.25,-0.38 -0.25,-0.63 v -2.36 c 0,-0.25 0.08,-0.43 0.25,-0.62 0.19,-0.17 0.38,-0.25 0.63,-0.25 h 3.48 c 0.27,0 0.49,-0.08 0.66,-0.22 0.16,-0.19 0.23,-0.41 0.23,-0.66 v -4.08 c 0,-0.25 -0.07,-0.43 -0.23,-0.62 -0.17,-0.17 -0.39,-0.25 -0.66,-0.25 h -18.34 c -0.25,0 -0.44,0.08 -0.61,0.25 -0.19,0.19 -0.27,0.37 -0.27,0.62 v 4.08 c 0,0.25 0.08,0.47 0.27,0.66 0.17,0.14 0.36,0.22 0.61,0.22 h 3.48 c 0.27,0 0.46,0.08 0.63,0.25 0.19,0.19 0.26,0.37 0.26,0.62 v 2.36 c 0,0.25 -0.07,0.44 -0.26,0.63 -0.17,0.14 -0.36,0.22 -0.63,0.22 h -12.79 c -0.25,0 -0.44,-0.08 -0.63,-0.22 -0.17,-0.19 -0.25,-0.38 -0.25,-0.63 v -2.36 c 0,-0.25 0.08,-0.43 0.25,-0.62 0.19,-0.17 0.38,-0.25 0.63,-0.25 h 3.48 c 0.27,0 0.44,-0.08 0.63,-0.22 0.18,-0.19 0.26,-0.41 0.26,-0.66 v -13.39 c 0,-0.26 -0.08,-0.44 -0.26,-0.62 -0.19,-0.19 -0.36,-0.25 -0.63,-0.25 h -3.48 c -0.25,0 -0.44,-0.08 -0.63,-0.27 -0.17,-0.19 -0.25,-0.36 -0.25,-0.62 v -2.32 c 0,-0.25 0.08,-0.43 0.25,-0.62 0.19,-0.17 0.38,-0.25 0.63,-0.25 h 12.79 c 0.27,0 0.46,0.08 0.63,0.25 0.19,0.19 0.26,0.37 0.26,0.62 v 2.32 c 0,0.26 -0.07,0.43 -0.26,0.62 -0.17,0.19 -0.36,0.27 -0.63,0.27 h -3.48 c -0.25,0 -0.44,0.06 -0.61,0.25 -0.19,0.18 -0.27,0.36 -0.27,0.62 v 4.06 c 0,0.27 0.08,0.46 0.27,0.63 0.17,0.19 0.36,0.27 0.61,0.27 h 18.34 c 0.27,0 0.49,-0.08 0.66,-0.27 0.16,-0.17 0.23,-0.36 0.23,-0.63 v -4.06 c 0,-0.26 -0.07,-0.44 -0.23,-0.62 -0.17,-0.19 -0.39,-0.25 -0.66,-0.25 h -3.48 c -0.25,0 -0.44,-0.08 -0.63,-0.27 -0.17,-0.19 -0.25,-0.36 -0.25,-0.62 v -2.32 c 0,-0.25 0.08,-0.43 0.25,-0.62 0.19,-0.17 0.38,-0.25 0.63,-0.25 h 12.84 c 0.25,0 0.44,0.08 0.63,0.25 0.17,0.19 0.25,0.37 0.25,0.62 v 2.32 c 0,0.26 -0.08,0.43 -0.25,0.62 -0.19,0.19 -0.38,0.27 -0.63,0.27 h -3.53 c -0.25,0 -0.44,0.06 -0.58,0.25 -0.18,0.18 -0.26,0.36 -0.26,0.62 v 13.39 c 0,0.25 0.08,0.47 0.26,0.66 0.14,0.14 0.33,0.22 0.58,0.22 h 3.53 c 0.25,0 0.44,0.08 0.63,0.25 0.17,0.19 0.25,0.37 0.25,0.62 v 2.36 c 0,0.25 -0.08,0.44 -0.25,0.63 -0.19,0.14 -0.38,0.22 -0.63,0.22 z m 23.38,0 c -0.25,0 -0.44,-0.08 -0.63,-0.22 -0.17,-0.19 -0.25,-0.38 -0.25,-0.63 v -2.36 c 0,-0.25 0.08,-0.43 0.25,-0.62 0.19,-0.17 0.38,-0.25 0.63,-0.25 h 3.48 c 0.27,0 0.44,-0.08 0.63,-0.22 0.19,-0.19 0.26,-0.41 0.26,-0.66 v -13.39 c 0,-0.26 -0.07,-0.44 -0.26,-0.62 -0.19,-0.19 -0.36,-0.25 -0.63,-0.25 h -3.48 c -0.25,0 -0.44,-0.08 -0.63,-0.27 -0.17,-0.19 -0.25,-0.36 -0.25,-0.62 v -2.32 c 0,-0.25 0.08,-0.43 0.25,-0.62 0.19,-0.17 0.38,-0.25 0.63,-0.25 h 31 c 0.25,0 0.44,0.08 0.62,0.25 0.18,0.19 0.25,0.37 0.25,0.62 v 5.5 c 0,0.27 -0.07,0.46 -0.25,0.63 -0.18,0.19 -0.37,0.26 -0.62,0.26 h -2.35 c -0.26,0 -0.45,-0.07 -0.62,-0.26 -0.19,-0.17 -0.27,-0.36 -0.27,-0.63 v -1.42 c 0,-0.26 -0.06,-0.44 -0.21,-0.62 -0.19,-0.19 -0.36,-0.25 -0.63,-0.25 h -17.61 c -0.25,0 -0.44,0.06 -0.61,0.25 -0.19,0.18 -0.26,0.36 -0.26,0.62 v 4.14 c 0,0.27 0.07,0.49 0.26,0.66 0.17,0.16 0.36,0.22 0.61,0.22 h 9.39 c 0.27,0 0.45,0.08 0.63,0.26 0.18,0.19 0.26,0.36 0.26,0.63 v 1.76 c 0,0.25 -0.08,0.44 -0.26,0.61 -0.18,0.19 -0.36,0.27 -0.63,0.27 h -9.39 c -0.25,0 -0.44,0.08 -0.61,0.25 -0.19,0.16 -0.26,0.33 -0.26,0.59 v 4 c 0,0.25 0.07,0.47 0.26,0.66 0.17,0.14 0.36,0.22 0.61,0.22 h 17.61 c 0.27,0 0.44,-0.08 0.63,-0.22 0.15,-0.19 0.21,-0.41 0.21,-0.66 v -0.89 c 0,-0.25 0.08,-0.47 0.27,-0.62 0.17,-0.17 0.36,-0.25 0.62,-0.25 h 2.35 c 0.25,0 0.44,0.08 0.62,0.25 0.18,0.15 0.25,0.37 0.25,0.62 v 4.92 c 0,0.25 -0.07,0.47 -0.25,0.66 -0.18,0.19 -0.37,0.27 -0.62,0.27 z m 91.22,0.11 c -0.26,0 -0.48,-0.08 -0.7,-0.27 -0.22,-0.19 -0.36,-0.36 -0.44,-0.58 l -0.03,-0.08 c -0.08,-0.22 -0.15,-0.32 -0.26,-0.32 -0.11,0 -0.19,0.1 -0.25,0.32 -0.08,0.22 -0.22,0.41 -0.44,0.6 -0.22,0.14 -0.45,0.22 -0.7,0.22 h -20.69 c -0.25,0 -0.52,-0.05 -0.77,-0.16 -0.29,-0.11 -0.54,-0.25 -0.73,-0.41 l -2.86,-2.59 c -0.19,-0.19 -0.38,-0.41 -0.48,-0.67 -0.11,-0.28 -0.19,-0.55 -0.19,-0.8 v -14.05 c 0,-0.26 0.08,-0.51 0.19,-0.78 0.1,-0.28 0.29,-0.5 0.48,-0.68 l 2.86,-2.57 c 0.19,-0.18 0.44,-0.29 0.73,-0.4 0.25,-0.11 0.52,-0.19 0.77,-0.19 h 21.67 c 0.27,0 0.52,0.08 0.81,0.19 0.3,0.11 0.55,0.22 0.74,0.4 l 2.86,2.57 c 0.18,0.18 0.37,0.4 0.48,0.68 0.11,0.27 0.17,0.52 0.17,0.78 v 1.36 c 0,0.25 -0.06,0.44 -0.25,0.63 -0.18,0.17 -0.37,0.25 -0.62,0.25 h -2.35 c -0.26,0 -0.43,-0.08 -0.59,-0.19 -0.19,-0.11 -0.25,-0.3 -0.25,-0.47 0,-0.19 -0.08,-0.37 -0.19,-0.59 -0.11,-0.25 -0.29,-0.44 -0.47,-0.63 l -0.37,-0.32 c -0.19,-0.19 -0.44,-0.3 -0.7,-0.41 -0.28,-0.11 -0.55,-0.17 -0.8,-0.17 h -18.56 c -0.25,0 -0.52,0.06 -0.82,0.17 -0.28,0.11 -0.5,0.22 -0.68,0.41 l -0.38,0.32 c -0.17,0.19 -0.36,0.41 -0.47,0.71 -0.11,0.25 -0.18,0.51 -0.18,0.76 v 10.42 c 0,0.25 0.07,0.52 0.18,0.8 0.11,0.27 0.3,0.49 0.47,0.67 l 0.38,0.28 c 0.18,0.19 0.4,0.35 0.68,0.46 0.3,0.11 0.57,0.14 0.82,0.14 h 20.25 c 0.25,0 0.43,-0.08 0.62,-0.22 0.14,-0.19 0.22,-0.38 0.22,-0.59 v -1.4 c 0,-0.14 0.06,-0.25 0.25,-0.35 0.16,-0.11 0.33,-0.19 0.59,-0.19 h 2.35 c 0.25,0.03 0.44,0.11 0.62,0.29 0.19,0.15 0.25,0.33 0.25,0.58 v 5.17 c 0,0.27 -0.06,0.44 -0.25,0.63 -0.18,0.19 -0.37,0.27 -0.62,0.27 z m 11.75,-3.24 c 0,-0.25 0.08,-0.47 0.25,-0.62 0.19,-0.19 0.38,-0.25 0.63,-0.25 h 3.48 c 0.27,0 0.44,-0.08 0.63,-0.27 0.18,-0.17 0.26,-0.36 0.26,-0.62 v -13.46 c 0,-0.26 -0.08,-0.44 -0.26,-0.62 -0.19,-0.19 -0.36,-0.25 -0.63,-0.25 h -3.48 c -0.25,0 -0.44,-0.08 -0.63,-0.27 -0.17,-0.19 -0.25,-0.36 -0.25,-0.62 v -2.32 c 0,-0.25 0.08,-0.43 0.25,-0.62 0.19,-0.17 0.38,-0.25 0.63,-0.25 h 12.79 c 0.27,0 0.46,0.08 0.63,0.25 0.19,0.19 0.26,0.37 0.26,0.62 v 2.32 c 0,0.26 -0.07,0.43 -0.26,0.62 -0.17,0.19 -0.36,0.27 -0.63,0.27 h -3.48 c -0.25,0 -0.44,0.06 -0.61,0.25 -0.19,0.18 -0.27,0.36 -0.27,0.62 v 13.46 c 0,0.26 0.08,0.45 0.27,0.62 0.17,0.19 0.36,0.27 0.61,0.27 h 3.48 c 0.27,0 0.46,0.06 0.63,0.25 0.19,0.15 0.26,0.37 0.26,0.62 v 2.31 c 0,0.25 -0.07,0.44 -0.26,0.63 -0.17,0.19 -0.36,0.25 -0.63,0.25 h -12.79 c -0.25,0 -0.44,-0.06 -0.63,-0.25 -0.17,-0.19 -0.25,-0.38 -0.25,-0.63 z m 23.01,3.13 c -0.25,0 -0.43,-0.08 -0.62,-0.22 -0.17,-0.19 -0.25,-0.38 -0.25,-0.63 v -5.11 c 0,-0.25 0.08,-0.43 0.25,-0.62 0.19,-0.17 0.37,-0.25 0.62,-0.25 h 2.32 c 0.26,0 0.43,0.08 0.62,0.25 0.19,0.19 0.25,0.37 0.25,0.62 v 1 c 0,0.25 0.08,0.47 0.27,0.66 0.18,0.14 0.36,0.22 0.62,0.22 h 8.44 c 0.25,0 0.44,-0.08 0.62,-0.22 0.18,-0.19 0.25,-0.41 0.25,-0.66 v -13.39 c 0,-0.26 -0.07,-0.44 -0.25,-0.62 -0.18,-0.19 -0.37,-0.25 -0.62,-0.25 h -3.49 c -0.26,0 -0.45,-0.08 -0.62,-0.27 -0.19,-0.19 -0.27,-0.36 -0.27,-0.62 v -2.32 c 0,-0.25 0.08,-0.43 0.27,-0.62 0.17,-0.17 0.36,-0.25 0.62,-0.25 h 12.83 c 0.27,0 0.44,0.08 0.63,0.25 0.15,0.19 0.22,0.37 0.22,0.62 v 2.32 c 0,0.26 -0.07,0.43 -0.22,0.62 -0.19,0.19 -0.36,0.27 -0.63,0.27 h -3.51 c -0.27,0 -0.44,0.06 -0.63,0.25 -0.19,0.18 -0.25,0.36 -0.25,0.62 v 13.39 c 0,0.25 0.06,0.47 0.25,0.66 0.19,0.14 0.36,0.22 0.63,0.22 h 8.47 c 0.26,0 0.43,-0.08 0.62,-0.22 0.14,-0.19 0.22,-0.41 0.22,-0.66 v -0.84 c 0,-0.27 0.08,-0.44 0.26,-0.63 0.18,-0.18 0.36,-0.26 0.61,-0.26 h 2.36 c 0.25,0 0.44,0.08 0.63,0.26 0.17,0.19 0.25,0.36 0.25,0.63 v 4.95 c 0,0.25 -0.08,0.44 -0.25,0.63 -0.19,0.14 -0.38,0.22 -0.63,0.22 z m 60.67,-3.21 c 0,-0.25 0.08,-0.43 0.27,-0.58 0.14,-0.18 0.36,-0.26 0.62,-0.26 h 2.16 c 0.26,0 0.4,-0.06 0.43,-0.17 0.05,-0.11 -0.03,-0.27 -0.21,-0.41 l -6.79,-6.09 c -0.18,-0.19 -0.4,-0.25 -0.65,-0.25 -0.27,0 -0.49,0.06 -0.67,0.25 l -6.78,6.09 c -0.19,0.14 -0.22,0.3 -0.19,0.41 0.04,0.11 0.19,0.17 0.45,0.17 h 2.02 c 0.25,0 0.47,0.08 0.65,0.26 0.14,0.15 0.22,0.33 0.22,0.58 v 2.36 c 0,0.25 -0.08,0.44 -0.22,0.63 -0.18,0.14 -0.4,0.22 -0.65,0.22 h -11.93 c -0.26,0 -0.43,-0.08 -0.62,-0.22 -0.19,-0.19 -0.25,-0.38 -0.25,-0.63 v -2.36 c 0,-0.25 0.06,-0.43 0.25,-0.58 0.19,-0.18 0.36,-0.26 0.62,-0.26 h 2.9 c 0.26,0 0.51,-0.03 0.81,-0.14 0.29,-0.11 0.54,-0.25 0.73,-0.44 l 10.19,-8.92 c 0.19,-0.17 0.37,-0.39 0.48,-0.66 0.11,-0.25 0.19,-0.51 0.19,-0.76 v -3.38 c 0,-0.26 -0.08,-0.44 -0.26,-0.62 -0.18,-0.19 -0.36,-0.25 -0.63,-0.25 h -4.5 c -0.26,0 -0.45,-0.08 -0.62,-0.27 -0.19,-0.19 -0.27,-0.36 -0.27,-0.62 v -2.32 c 0,-0.25 0.08,-0.43 0.27,-0.62 0.17,-0.17 0.36,-0.25 0.62,-0.25 h 14.27 c 0.25,0 0.43,0.08 0.62,0.25 0.17,0.19 0.25,0.37 0.25,0.62 v 2.32 c 0,0.26 -0.08,0.43 -0.25,0.62 -0.19,0.19 -0.37,0.27 -0.62,0.27 h -4.52 c -0.25,0 -0.44,0.06 -0.62,0.25 -0.19,0.18 -0.25,0.36 -0.25,0.62 v 3.27 c 0,0.25 0.06,0.51 0.17,0.79 0.11,0.27 0.29,0.49 0.48,0.63 l 10.31,9.03 c 0.18,0.19 0.44,0.33 0.74,0.44 0.28,0.11 0.55,0.14 0.8,0.14 h 2.79 c 0.25,0 0.44,0.08 0.61,0.26 0.19,0.15 0.27,0.33 0.27,0.58 v 2.36 c 0,0.25 -0.08,0.44 -0.27,0.63 -0.17,0.14 -0.36,0.22 -0.61,0.22 h -11.92 c -0.26,0 -0.48,-0.08 -0.62,-0.22 -0.19,-0.19 -0.27,-0.38 -0.27,-0.63 z m 44.54,3.24 c -0.25,0 -0.44,-0.08 -0.63,-0.25 -0.17,-0.19 -0.25,-0.38 -0.25,-0.63 v -2.36 c 0,-0.25 0.08,-0.43 0.25,-0.62 0.19,-0.17 0.38,-0.25 0.63,-0.25 h 3.48 c 0.27,0 0.44,-0.08 0.63,-0.25 0.19,-0.19 0.26,-0.38 0.26,-0.63 v -13.39 c 0,-0.26 -0.07,-0.44 -0.26,-0.62 -0.19,-0.19 -0.36,-0.25 -0.63,-0.25 h -3.48 c -0.25,0 -0.44,-0.08 -0.63,-0.27 -0.17,-0.19 -0.25,-0.36 -0.25,-0.62 v -2.32 c 0,-0.25 0.08,-0.43 0.25,-0.62 0.19,-0.17 0.38,-0.25 0.63,-0.25 h 27.19 c 0.25,0 0.51,0.03 0.84,0.14 0.28,0.11 0.55,0.22 0.74,0.37 l 3.43,2.61 c 0.19,0.14 0.38,0.36 0.52,0.61 0.11,0.27 0.19,0.52 0.19,0.78 v 4.66 c 0,0.25 -0.08,0.52 -0.19,0.77 -0.14,0.26 -0.33,0.48 -0.52,0.62 l -0.76,0.6 c -0.19,0.1 -0.3,0.28 -0.3,0.5 0,0.18 0.11,0.37 0.3,0.51 l 0.76,0.56 c 0.19,0.14 0.38,0.36 0.52,0.61 0.11,0.27 0.19,0.57 0.19,0.82 v 4.65 c 0,0.27 -0.08,0.52 -0.19,0.78 -0.14,0.25 -0.33,0.47 -0.52,0.61 l -3.43,2.58 c -0.19,0.14 -0.46,0.3 -0.74,0.41 -0.33,0.11 -0.59,0.14 -0.84,0.14 z m 28.83,-16.77 c 0,-0.25 -0.06,-0.51 -0.17,-0.76 -0.16,-0.3 -0.35,-0.52 -0.52,-0.63 l -0.73,-0.59 c -0.19,-0.11 -0.44,-0.22 -0.74,-0.33 -0.33,-0.11 -0.59,-0.17 -0.84,-0.17 h -16.52 c -0.25,0 -0.44,0.06 -0.61,0.25 -0.18,0.18 -0.26,0.36 -0.26,0.62 v 4.11 c 0,0.25 0.08,0.44 0.26,0.63 0.17,0.17 0.36,0.25 0.61,0.25 h 16.03 c 0.27,0 0.55,-0.03 0.85,-0.14 0.29,-0.11 0.54,-0.22 0.73,-0.38 l 1.22,-0.87 c 0.17,-0.14 0.36,-0.38 0.52,-0.63 0.11,-0.25 0.17,-0.51 0.17,-0.76 z m 0,9.61 c 0,-0.25 -0.06,-0.51 -0.17,-0.76 -0.16,-0.27 -0.35,-0.49 -0.52,-0.63 l -1.11,-0.81 c -0.17,-0.14 -0.44,-0.25 -0.73,-0.36 -0.33,-0.11 -0.58,-0.19 -0.85,-0.19 h -16.14 c -0.25,0 -0.44,0.08 -0.61,0.27 -0.18,0.17 -0.26,0.36 -0.26,0.61 v 4.04 c 0,0.25 0.08,0.44 0.26,0.63 0.17,0.17 0.36,0.25 0.61,0.25 h 16.52 c 0.25,0 0.51,-0.03 0.84,-0.14 0.3,-0.11 0.55,-0.22 0.74,-0.38 l 0.73,-0.54 c 0.17,-0.15 0.36,-0.38 0.52,-0.63 0.11,-0.25 0.17,-0.52 0.17,-0.77 z m 37.89,7.13 c -0.27,0 -0.44,-0.08 -0.63,-0.22 -0.18,-0.19 -0.25,-0.38 -0.25,-0.63 v -2.36 c 0,-0.25 0.07,-0.43 0.25,-0.62 0.19,-0.17 0.36,-0.25 0.63,-0.25 h 3.48 c 0.25,0 0.44,-0.08 0.63,-0.22 0.19,-0.19 0.25,-0.41 0.25,-0.66 v -11.78 c 0,-0.25 -0.06,-0.51 -0.17,-0.76 -0.16,-0.3 -0.35,-0.52 -0.52,-0.63 l -0.73,-0.59 c -0.19,-0.11 -0.44,-0.22 -0.74,-0.33 -0.33,-0.11 -0.59,-0.17 -0.84,-0.17 h -14.97 c -0.25,0 -0.52,0.06 -0.81,0.17 -0.33,0.11 -0.58,0.22 -0.77,0.33 l -0.73,0.59 c -0.19,0.11 -0.36,0.33 -0.47,0.63 -0.16,0.25 -0.22,0.51 -0.22,0.76 v 11.78 c 0,0.25 0.06,0.47 0.25,0.66 0.19,0.14 0.36,0.22 0.62,0.22 h 3.49 c 0.25,0 0.44,0.08 0.62,0.25 0.19,0.19 0.25,0.37 0.25,0.62 v 2.36 c 0,0.25 -0.06,0.44 -0.25,0.63 -0.18,0.14 -0.37,0.22 -0.62,0.22 h -12.8 c -0.26,0 -0.45,-0.08 -0.62,-0.22 -0.19,-0.19 -0.27,-0.38 -0.27,-0.63 v -2.36 c 0,-0.25 0.08,-0.43 0.27,-0.62 0.17,-0.17 0.36,-0.25 0.62,-0.25 h 3.49 c 0.25,0 0.43,-0.08 0.62,-0.22 0.17,-0.19 0.25,-0.41 0.25,-0.66 v -13.83 c 0,-0.26 0.08,-0.51 0.22,-0.78 0.11,-0.25 0.3,-0.47 0.48,-0.61 l 3.44,-2.61 c 0.19,-0.15 0.44,-0.26 0.78,-0.37 0.28,-0.11 0.55,-0.14 0.8,-0.14 h 17.69 c 0.25,0 0.5,0.03 0.84,0.14 0.28,0.11 0.55,0.22 0.74,0.37 l 3.43,2.61 c 0.19,0.14 0.38,0.36 0.52,0.61 0.11,0.27 0.19,0.52 0.19,0.78 v 13.83 c 0,0.25 0.07,0.47 0.25,0.66 0.18,0.14 0.37,0.22 0.62,0.22 h 3.53 c 0.25,0 0.44,0.08 0.61,0.25 0.16,0.19 0.22,0.37 0.22,0.62 v 2.36 c 0,0.25 -0.06,0.44 -0.22,0.63 -0.17,0.14 -0.36,0.22 -0.61,0.22 z m 26.97,-4.6 c 0.18,0.16 0.43,0.27 0.78,0.38 0.28,0.11 0.55,0.14 0.8,0.14 h 18.26 c 0.27,0 0.52,-0.03 0.84,-0.11 0.33,-0.11 0.6,-0.22 0.77,-0.33 l 2.09,-1.33 c 0.19,-0.11 0.41,-0.14 0.68,-0.06 0.25,0.03 0.43,0.17 0.54,0.36 l 1.21,1.98 c 0.11,0.19 0.15,0.41 0.11,0.66 -0.04,0.22 -0.19,0.41 -0.36,0.52 l -3.08,1.93 c -0.19,0.11 -0.46,0.24 -0.78,0.35 -0.33,0.06 -0.58,0.11 -0.85,0.11 h -20.79 c -0.25,0 -0.52,-0.05 -0.8,-0.16 -0.33,-0.11 -0.59,-0.22 -0.78,-0.36 l -3.44,-2.61 c -0.19,-0.11 -0.37,-0.33 -0.48,-0.58 -0.14,-0.29 -0.22,-0.56 -0.22,-0.81 v -4.66 c 0,-0.26 0.08,-0.51 0.22,-0.78 0.11,-0.25 0.29,-0.47 0.48,-0.61 l 3.44,-2.61 c 0.19,-0.11 0.45,-0.21 0.78,-0.32 0.28,-0.11 0.55,-0.19 0.8,-0.19 h 18.96 c 0.25,0 0.52,-0.03 0.82,-0.14 0.28,-0.11 0.54,-0.22 0.73,-0.38 l 0.77,-0.54 c 0.18,-0.14 0.36,-0.38 0.51,-0.63 0.11,-0.25 0.17,-0.51 0.17,-0.76 v -0.6 c 0,-0.25 -0.06,-0.51 -0.17,-0.76 -0.15,-0.3 -0.33,-0.52 -0.51,-0.63 l -0.77,-0.59 c -0.19,-0.11 -0.45,-0.22 -0.73,-0.33 -0.3,-0.11 -0.57,-0.17 -0.82,-0.17 h -17.71 c -0.25,0 -0.52,0.03 -0.85,0.14 -0.33,0.08 -0.58,0.19 -0.76,0.29 l -2.69,1.61 c -0.17,0.11 -0.39,0.14 -0.66,0.11 -0.25,-0.07 -0.43,-0.22 -0.54,-0.4 l -1.21,-1.99 c -0.12,-0.22 -0.15,-0.43 -0.08,-0.65 0.04,-0.25 0.19,-0.44 0.41,-0.55 l 3.63,-2.2 c 0.18,-0.11 0.43,-0.22 0.76,-0.3 0.33,-0.11 0.6,-0.14 0.85,-0.14 h 20.21 c 0.25,0 0.52,0.03 0.85,0.14 0.29,0.11 0.54,0.22 0.73,0.37 l 3.44,2.61 c 0.19,0.14 0.37,0.36 0.52,0.61 0.1,0.27 0.18,0.52 0.18,0.78 v 4.66 c 0,0.25 -0.08,0.52 -0.18,0.77 -0.15,0.26 -0.33,0.48 -0.52,0.62 l -3.44,2.61 c -0.19,0.14 -0.44,0.25 -0.73,0.36 -0.33,0.11 -0.6,0.16 -0.85,0.16 h -18.96 c -0.25,0 -0.52,0.06 -0.8,0.17 -0.35,0.11 -0.6,0.22 -0.78,0.37 l -0.74,0.55 c -0.17,0.14 -0.36,0.36 -0.47,0.63 -0.15,0.25 -0.21,0.51 -0.21,0.76 v 0.59 c 0,0.25 0.06,0.52 0.21,0.77 0.11,0.25 0.3,0.48 0.47,0.63 z"
         id="path28982" />
    </clipPath>
  </defs>
  <sodipodi:namedview
     id="base"
     pagecolor="#ffffff"
     bordercolor="#666666"
     borderopacity="1.0"
     inkscape:pageopacity="0.0"
     inkscape:pageshadow="2"
     inkscape:zoom="1.979899"
     inkscape:cx="59.035709"
     inkscape:cy="30.43696"
     inkscape:document-units="mm"
     inkscape:current-layer="layer1"
     showgrid="false"
     units="px"
     inkscape:window-width="1366"
     inkscape:window-height="703"
     inkscape:window-x="0"
     inkscape:window-y="0"
     inkscape:window-maximized="1"
     inkscape:document-rotation="0" />
  <metadata
     id="metadata9815">
    <rdf:RDF>
      <cc:Work
         rdf:about="">
        <dc:format>image/svg+xml</dc:format>
        <dc:type
           rdf:resource="http://purl.org/dc/dcmitype/StillImage" />
        <dc:title />
      </cc:Work>
    </rdf:RDF>
  </metadata>
  <g
     inkscape:label="Capa 1"
     inkscape:groupmode="layer"
     id="layer1"
     transform="translate(0,-270.54165)">
    <g
       id="g163"
       transform="matrix(0.35277777,0,0,-0.35277777,-115.21114,378.62677)">
      <g
         id="g135">
        <path
           inkscape:connector-curvature="0"
           id="path460"
           style="fill:#1a1a1a;fill-opacity:1;fill-rule:nonzero;stroke:none;stroke-width:0.16091"
           d="m 387.62394,279.70826 c 0,13.008 -10.53802,23.54441 -23.53957,23.54441 v -10.86628 c 7.0012,0 12.6749,-5.6737 12.6749,-12.67813 0,-6.99799 -5.6737,-12.6749 -12.6749,-12.6749 v -10.85984 -21.66014 c 0,0 11.10764,17.76128 15.29613,23.74232 9.30706,13.28797 8.24344,21.45256 8.24344,21.45256" />
        <path
           inkscape:connector-curvature="0"
           id="path462"
           style="fill:#666666;fill-opacity:1;fill-rule:nonzero;stroke:none;stroke-width:0.16091"
           d="m 364.08437,292.38639 v 10.86628 c -13.00156,0 -23.5428,-10.53641 -23.5428,-23.54441 0,0 -1.06361,-8.16459 8.24344,-21.45256 4.19011,-5.98104 15.29936,-23.74232 15.29936,-23.74232 v 21.66014 10.85984 c -7.00282,0 -12.67652,5.67691 -12.67652,12.6749 0,7.00443 5.6737,12.67813 12.67652,12.67813" />
      </g>
      <circle
         transform="scale(1,-1)"
         r="19.153227"
         cy="-278.2258"
         cx="364.08276"
         id="path977-7"
         style="opacity:1;vector-effect:none;fill:#ffffff;fill-opacity:1;stroke:none;stroke-width:1.29139;stroke-linecap:butt;stroke-linejoin:miter;stroke-miterlimit:4;stroke-dasharray:none;stroke-dashoffset:0;stroke-opacity:1" />
    </g>
    <g
       id="g1686"
       transform="matrix(0.06610571,0,0,-0.06610571,6.1104995,302.98554)">
      <path
         d="m 193.107,364.488 c -0.048,-0.285 -0.107,-0.58 -0.177,-0.865 -1.001,3.211 -4.515,6.804 -9.827,9.868 l -21.601,12.479 c -9.003,5.184 -21.777,8.169 -35.052,8.169 -13.275,0 -26.048,-2.985 -35.0418,-8.169 L 27.6469,349.161 c -2.366,-1.365 -4.3789,-2.838 -5.9696,-4.34 0.5793,4.84 4.7422,9.789 11.7133,13.804 l 58.7145,33.884 c 8.9939,5.204 21.6499,8.189 34.7179,8.189 13.069,0 25.724,-2.985 34.728,-8.189 l 19.892,-11.477 c 8.336,-4.812 12.587,-10.83 11.664,-16.544"
         style="fill:#185f89;fill-opacity:1;fill-rule:nonzero;stroke:none;stroke-width:0.1"
         id="path14" />
      <path
         d="m 192.93,363.623 c -1.099,-4.418 -5.135,-8.816 -11.477,-12.479 l -58.714,-33.903 c -9.004,-5.184 -21.66,-8.169 -34.7285,-8.169 -13.0679,0 -25.7238,2.985 -34.7175,8.169 l -19.8922,11.497 c -7.1867,4.144 -11.4684,9.367 -11.7723,14.345 -0.0394,0.58 -0.0195,1.159 0.0488,1.738 1.5907,1.502 3.6036,2.975 5.9696,4.34 l 63.7613,36.809 c 8.9938,5.184 21.7668,8.169 35.0418,8.169 13.275,0 26.049,-2.985 35.052,-8.169 l 21.601,-12.479 c 5.312,-3.064 8.826,-6.657 9.827,-9.868"
         style="fill:#98acb2;fill-opacity:1;fill-rule:nonzero;stroke:none;stroke-width:0.1"
         id="path16" />
      <path
         d="m 180.167,355.375 -63.761,-36.809 c -8.14,-4.693 -19.8435,-7.383 -32.1068,-7.383 -12.2832,0 -23.9762,2.69 -32.0863,7.374 l -21.6008,12.489 c -5.1351,2.955 -6.882,5.616 -7.1773,6.51 0.1082,0.303 0.55,1.354 2.2785,2.974 1.2762,1.208 2.9551,2.425 4.8797,3.525 l 63.7605,36.809 c 8.1395,4.694 19.8335,7.384 32.0965,7.384 12.263,0 23.967,-2.69 32.116,-7.384 l 21.591,-12.479 c 4.939,-2.837 6.834,-5.508 7.147,-6.519 0.011,-0.01 0.011,-0.03 0.02,-0.039 -0.314,-0.992 -2.366,-3.693 -7.157,-6.452 z m 12.763,8.248 c -1.001,3.211 -4.515,6.804 -9.827,9.868 l -21.601,12.479 c -9.003,5.184 -21.777,8.169 -35.052,8.169 -13.275,0 -26.048,-2.985 -35.0418,-8.169 L 27.6469,349.161 c -2.366,-1.365 -4.3789,-2.838 -5.9696,-4.34 -2.7785,-2.612 -4.2906,-5.292 -4.1429,-7.599 0.1664,-2.73 2.916,-7.129 10.132,-11.282 l 21.6012,-12.479 c 8.984,-5.194 21.7574,-8.169 35.0316,-8.169 13.275,0 26.0488,2.985 35.0518,8.169 l 63.761,36.81 c 5.744,3.318 9.504,7.324 10.055,10.731 0.137,0.834 0.048,1.708 -0.237,2.621"
         style="fill:#1478aa;fill-opacity:1;fill-rule:nonzero;stroke:none;stroke-width:0.1"
         id="path18" />
      <path
         d="m 187.324,361.827 c -0.314,-0.992 -2.366,-3.693 -7.157,-6.452 l -63.761,-36.809 c -8.14,-4.693 -19.8435,-7.383 -32.1068,-7.383 -12.2832,0 -23.9762,2.69 -32.0863,7.374 l -21.6008,12.489 c -5.1351,2.955 -6.882,5.616 -7.1773,6.51 0.1082,0.303 0.55,1.354 2.2785,2.974 1.2762,1.208 2.9551,2.425 4.8797,3.525 l 63.7605,36.809 c 8.1395,4.694 19.8335,7.384 32.0965,7.384 12.263,0 23.967,-2.69 32.116,-7.384 l 21.591,-12.479 c 4.939,-2.837 6.834,-5.508 7.147,-6.519 0.011,-0.01 0.011,-0.03 0.02,-0.039"
         style="fill:#98acb2;fill-opacity:1;fill-rule:nonzero;stroke:none;stroke-width:0.1"
         id="path20" />
      <path
         d="m 187.324,361.827 c -0.157,-0.501 -0.756,-1.433 -1.924,-2.582 -3.692,1.806 -7.727,3.77 -8.189,4.035 l -21.581,12.479 c -7.285,4.193 -17.919,6.598 -29.18,6.598 -11.262,0 -21.886,-2.405 -29.1508,-6.598 l -63.7804,-36.82 c -0.3141,-0.176 -3.7508,-2.15 -7.7274,-4.437 -1.532,1.424 -2.1894,2.533 -2.3566,3.054 0.1082,0.303 0.55,1.354 2.2785,2.974 1.2762,1.208 2.9551,2.425 4.8797,3.525 l 63.7605,36.809 c 8.1395,4.694 19.8335,7.384 32.0965,7.384 12.263,0 23.967,-2.69 32.116,-7.384 l 21.591,-12.479 c 4.939,-2.837 6.834,-5.508 7.147,-6.519 0.011,-0.01 0.011,-0.03 0.02,-0.039"
         style="fill:#1180cd;fill-opacity:1;fill-rule:nonzero;stroke:none;stroke-width:0.1"
         id="path22" />
      <path
         d="m 185.4,359.245 c -0.285,-0.286 -0.599,-0.58 -0.962,-0.884 -1.07,-0.933 -2.484,-1.954 -4.271,-2.986 l -63.761,-36.809 c -8.14,-4.693 -19.8435,-7.383 -32.1068,-7.383 -12.2832,0 -23.9762,2.69 -32.0863,7.374 l -21.6008,12.489 c -1.4629,0.844 -2.6512,1.659 -3.6137,2.425 -0.4511,0.363 -0.8535,0.707 -1.207,1.031 3.9766,2.287 7.4133,4.261 7.7274,4.437 l 63.7804,36.82 c 7.2648,4.193 17.8888,6.598 29.1508,6.598 11.261,0 21.895,-2.405 29.18,-6.598 l 21.581,-12.479 c 0.462,-0.265 4.497,-2.229 8.189,-4.035"
         style="fill:#98acb2;fill-opacity:1;fill-rule:nonzero;stroke:none;stroke-width:0.1"
         id="path24" />
      <path
         d="m 184.968,352.371 c -3.25,-1.041 -5.027,-4.546 -7.108,-9.229 l -0.168,0.737 -62.13,-28.424 -0.246,-0.138 c -2.67,-1.542 -10.261,-4.134 -31.0168,-4.134 -9.2097,0 -20.5691,0.462 -26.9219,4.065 L 38.634,327.324 c -0.6777,1.885 -1.5219,4.154 -2.6902,6.215 0.255,0.148 64.3012,37.115 64.3012,37.115 6.401,3.691 15.945,5.811 26.205,5.811 10.26,0 19.823,-2.12 26.245,-5.811 l 21.571,-12.47 c 0.491,-0.284 1.748,-0.913 6.49,-3.23 0,0 3.682,-1.797 4.32,-2.111 -0.04,-0.167 -0.069,-0.324 -0.108,-0.472 z m 0.432,6.874 c -3.692,1.806 -7.727,3.77 -8.189,4.035 l -21.581,12.479 c -7.285,4.193 -17.919,6.598 -29.18,6.598 -11.262,0 -21.886,-2.405 -29.1508,-6.598 l -63.7804,-36.82 c -0.3141,-0.176 -3.7508,-2.15 -7.7274,-4.437 -5.6461,-3.25 -12.3711,-7.129 -12.7543,-7.403 0.3734,-0.275 8.1008,3.603 13.9613,6.372 3.4371,1.62 6.5004,-9.867 6.8246,-10.054 L 54.3141,310.21 c 7.2461,-4.191 18.714,-4.918 29.9851,-4.918 11.2617,0 26.6968,0.727 33.9618,4.918 l 55.308,25.303 c 3.995,-17.398 10.358,12.45 13.755,11.262 3.456,-1.227 4.026,9.121 4.33,9.337 -0.274,0.197 -3.142,1.61 -6.254,3.133"
         style="fill:#0a93d4;fill-opacity:1;fill-rule:nonzero;stroke:none;stroke-width:0.1"
         id="path26" />
      <path
         d="m 185.076,352.843 c -0.04,-0.167 -0.069,-0.324 -0.108,-0.472 -3.25,-1.041 -5.027,-4.546 -7.108,-9.229 l -0.168,0.737 -62.13,-28.424 -0.246,-0.138 c -2.67,-1.542 -10.261,-4.134 -31.0168,-4.134 -9.2097,0 -20.5691,0.462 -26.9219,4.065 L 38.634,327.324 c -0.6777,1.885 -1.5219,4.154 -2.6902,6.215 0.255,0.148 64.3012,37.115 64.3012,37.115 6.401,3.691 15.945,5.811 26.205,5.811 10.26,0 19.823,-2.12 26.245,-5.811 l 21.571,-12.47 c 0.491,-0.284 1.748,-0.913 6.49,-3.23 0,0 3.682,-1.797 4.32,-2.111"
         style="fill:#98acb2;fill-opacity:1;fill-rule:nonzero;stroke:none;stroke-width:0.1"
         id="path28" />
      <path
         d="m 185.076,352.843 c -0.04,-0.167 -0.069,-0.324 -0.108,-0.472 -3.25,-1.041 -5.027,-4.546 -7.108,-9.229 l -0.168,0.737 -62.13,-28.424 -0.246,-0.138 c -2.67,-1.542 -10.261,-4.134 -31.0168,-4.134 -9.2097,0 -20.5691,0.462 -26.9219,4.065 L 38.634,327.324 c -0.6777,1.885 -1.5219,4.154 -2.6902,6.215 0.255,0.148 64.3012,37.115 64.3012,37.115 6.401,3.691 15.945,5.811 26.205,5.811 10.26,0 19.823,-2.12 26.245,-5.811 l 21.571,-12.47 c 0.491,-0.284 1.748,-0.913 6.49,-3.23 0,0 3.682,-1.797 4.32,-2.111"
         style="fill:#98acb2;fill-opacity:1;fill-rule:nonzero;stroke:none;stroke-width:0.1"
         id="path30" />
      <path
         d="m 188.335,339.789 -99.808,-57.625 -62.3231,35.982 99.8091,57.625 62.322,-35.982"
         style="fill:#6bb52f;fill-opacity:1;fill-rule:nonzero;stroke:none;stroke-width:0.1"
         id="path32" />
      <path
         d="m 88.527,287.073 -53.82,31.073 91.306,52.716 53.82,-31.073 -45.865,-26.48 -45.441,-26.236"
         style="fill:#6bb52f;fill-opacity:1;fill-rule:nonzero;stroke:none;stroke-width:0.1"
         id="path34" />
      <path
         d="m 88.5273,287.564 90.4537,52.225 -52.969,30.582 -90.455,-52.225 z m 92.1557,52.224 -92.1557,-53.205 -54.6703,31.563 92.155,53.206 54.671,-31.564"
         style="fill:#ffffff;fill-opacity:1;fill-rule:nonzero;stroke:none;stroke-width:0.1"
         id="path36" />
      <path
         d="m 74.691,295.553 13.2871,7.672 -25.2965,14.605 -13.2875,-7.672 z m 14.9863,7.671 -14.9863,-8.653 -26.9976,15.587 14.9879,8.653 26.996,-15.587"
         style="fill:#ffffff;fill-opacity:1;fill-rule:nonzero;stroke:none;stroke-width:0.1"
         id="path38" />
      <path
         d="m 69.4648,298.569 3.3512,1.936 -14.8457,8.572 -3.3512,-1.935 z m 5.0524,1.936 -5.0524,-2.917 -16.5468,9.554 5.0523,2.917 16.5469,-9.554"
         style="fill:#ffffff;fill-opacity:1;fill-rule:nonzero;stroke:none;stroke-width:0.1"
         id="path40" />
      <path
         d="m 63.2574,299.968 1.0422,0.602 -6.2168,3.59 -1.0418,-0.602 z m 2.743,0.602 -2.7414,-1.583 -7.9184,4.571 2.743,1.584 7.9168,-4.572"
         style="fill:#ffffff;fill-opacity:1;fill-rule:nonzero;stroke:none;stroke-width:0.1"
         id="path42" />
      <path
         d="m 152.007,340.191 13.287,7.672 -25.296,14.605 -13.287,-7.672 z m 14.989,7.672 -14.989,-8.653 -26.997,15.586 14.988,8.654 26.998,-15.587"
         style="fill:#ffffff;fill-opacity:1;fill-rule:nonzero;stroke:none;stroke-width:0.1"
         id="path44" />
      <path
         d="m 156.717,348.945 3.352,1.935 -14.846,8.572 -3.352,-1.936 z m 5.053,1.936 -5.052,-2.918 -16.547,9.554 5.052,2.917 16.547,-9.553"
         style="fill:#ffffff;fill-opacity:1;fill-rule:nonzero;stroke:none;stroke-width:0.1"
         id="path46" />
      <path
         d="m 156.605,353.863 1.041,0.601 -6.217,3.589 -1.041,-0.602 z m 2.742,0.601 -2.743,-1.584 -7.917,4.571 2.742,1.584 7.918,-4.571"
         style="fill:#ffffff;fill-opacity:1;fill-rule:nonzero;stroke:none;stroke-width:0.1"
         id="path48" />
      <path
         d="m 80.148,344.381 53.82,-31.072"
         style="fill:#6bb52f;fill-opacity:1;fill-rule:nonzero;stroke:none;stroke-width:0.1"
         id="path50" />
      <path
         d="m 134.393,313.553 -0.851,-0.489 -53.8201,31.072 0.8508,0.491 53.8203,-31.074"
         style="fill:#ffffff;fill-opacity:1;fill-rule:nonzero;stroke:none;stroke-width:0.1"
         id="path52" />
      <path
         d="m 99.8297,332.956 c -3.9567,-2.284 -3.9559,-6 4e-4,-8.284 3.9559,-2.284 10.3919,-2.284 14.3479,0 3.957,2.284 3.956,6 0,8.284 -3.956,2.284 -10.392,2.284 -14.3483,0 z m 15.1983,-8.775 c -4.424,-2.555 -11.623,-2.554 -16.0479,0 -4.4258,2.555 -4.4258,6.711 -0.0012,9.266 4.4251,2.555 11.6251,2.555 16.0491,0 4.426,-2.555 4.426,-6.711 0,-9.266"
         style="fill:#ffffff;fill-opacity:1;fill-rule:nonzero;stroke:none;stroke-width:0.1"
         id="path54" />
      <path
         d="m 145.634,343.129 c -3.879,-0.579 -8.045,0.076 -10.875,1.709 -2.829,1.634 -3.964,4.04 -2.96,6.279 l 1.164,-0.174 c -0.898,-2.002 0.117,-4.152 2.647,-5.613 2.529,-1.46 6.255,-2.046 9.724,-1.529 l 0.3,-0.672"
         style="fill:#ffffff;fill-opacity:1;fill-rule:nonzero;stroke:none;stroke-width:0.1"
         id="path56" />
      <path
         d="m 82.8883,306.903 -1.1637,0.173 c 0.8961,2.003 -0.1183,4.154 -2.6476,5.614 -2.5301,1.461 -6.2555,2.046 -9.7235,1.529 l -0.3008,0.672 c 3.8774,0.579 8.0446,-0.076 10.8743,-1.71 2.8289,-1.634 3.9632,-4.039 2.9613,-6.278"
         style="fill:#ffffff;fill-opacity:1;fill-rule:nonzero;stroke:none;stroke-width:0.1"
         id="path58" />
      <path
         d="m 186.137,310.206 -58.714,-33.893 c -21.62,-12.479 -56.6625,-12.479 -78.2824,0 L 29.248,287.801 c -9.8867,5.714 -15.2378,13.038 -16.082,20.511 h -0.1379 v 30.191 h 0.0496 c 0.4711,-7.786 5.8614,-15.513 16.1703,-21.463 l 19.8926,-11.487 c 21.6199,-12.479 56.6624,-12.479 78.2824,0 l 58.714,33.892 c 9.485,5.469 14.807,12.44 15.965,19.598 v -23.24 c 1.482,-9.151 -3.839,-18.586 -15.965,-25.597"
         style="fill:#98acb2;fill-opacity:1;fill-rule:nonzero;stroke:none;stroke-width:0.1"
         id="path60" />
      <path
         d="m 186.126,384.645 -19.892,11.487 c -21.62,12.479 -56.662,12.479 -78.2824,0 L 29.2473,362.239 C 17.9363,355.71 12.5465,347.06 13.0766,338.508 c 0.4714,-7.786 5.8613,-15.514 16.1707,-21.473 l 19.8922,-11.478 c 10.8593,-6.264 25.0964,-9.387 39.3132,-9.357 l 0.9821,18.027 c -11.9196,0.009 -23.4469,2.739 -31.6551,7.472 l -18.1836,10.506 c -6.5688,3.789 -10.4856,8.561 -10.7606,13.117 -0.3046,4.909 3.6125,10.093 10.7508,14.207 l 53.6774,30.987 c 8.2273,4.752 19.7943,7.482 31.7433,7.482 11.949,0 23.525,-2.73 31.753,-7.482 l 18.183,-10.496 c 6.451,-3.731 10.231,-8.247 10.722,-12.714 l 16.564,-3.26 c -0.805,7.511 -6.176,14.875 -16.103,20.599"
         style="fill:#eaeae7;fill-opacity:1;fill-rule:nonzero;stroke:none;stroke-width:0.1"
         id="path62" />
      <path
         d="m 202.102,359.048 c -1.159,-7.158 -6.481,-14.129 -15.966,-19.598 l -58.714,-33.893 c -10.761,-6.215 -24.86,-9.327 -38.9693,-9.357 l 0.9821,18.027 h 0.0882 c 11.949,0 23.515,2.73 31.753,7.472 l 53.678,30.987 c 6.174,3.564 9.955,7.903 10.652,12.214 0.128,0.795 0.148,1.6 0.059,2.406 l 16.564,-3.26 c 0.186,-1.66 0.138,-3.339 -0.127,-4.998"
         style="fill:#ecece9;fill-opacity:1;fill-rule:nonzero;stroke:none;stroke-width:0.1"
         id="path64" />
    </g>
  </g>
</svg>
