<?xml version="1.0" encoding="UTF-8" standalone="no"?>
<svg
   xmlns:dc="http://purl.org/dc/elements/1.1/"
   xmlns:cc="http://creativecommons.org/ns#"
   xmlns:rdf="http://www.w3.org/1999/02/22-rdf-syntax-ns#"
   xmlns:svg="http://www.w3.org/2000/svg"
   xmlns="http://www.w3.org/2000/svg"
   xmlns:sodipodi="http://sodipodi.sourceforge.net/DTD/sodipodi-0.dtd"
   xmlns:inkscape="http://www.inkscape.org/namespaces/inkscape"
   width="100"
   height="100"
   viewBox="0 0 26.458333 26.458334"
   version="1.1"
   id="svg9818"
   inkscape:version="1.0.2 (e86c870879, 2021-01-15)"
   sodipodi:docname="estadio.svg">
  <defs
     id="defs9812">
    <clipPath
       clipPathUnits="userSpaceOnUse"
       id="clipPath1290">
      <path
         d="m 3584.79,2009.38 c -1.96,1.17 -3.62,2.19 -5,3.05 h 2.02 c 1.67,-1.18 2.94,-2.33 2.98,-3.05"
         id="path1288" />
    </clipPath>
    <clipPath
       clipPathUnits="userSpaceOnUse"
       id="clipPath1306">
      <path
         d="m 3584.79,2009.38 c -1.96,1.17 -3.62,2.19 -5,3.05 h 2.02 c 1.67,-1.18 2.94,-2.33 2.98,-3.05"
         id="path1304" />
    </clipPath>
    <clipPath
       clipPathUnits="userSpaceOnUse"
       id="clipPath1312">
      <path
         d="m 3429.89,2012.09 c -0.25,0 -0.43,-0.08 -0.62,-0.22 -0.17,-0.19 -0.25,-0.38 -0.25,-0.63 v -5.11 c 0,-0.25 0.08,-0.43 0.25,-0.62 0.19,-0.17 0.37,-0.25 0.62,-0.25 h 2.32 c 0.26,0 0.43,0.08 0.62,0.25 0.19,0.19 0.25,0.37 0.25,0.62 v 1 c 0,0.25 0.08,0.47 0.27,0.66 0.19,0.14 0.36,0.22 0.62,0.22 h 8.44 c 0.25,0 0.44,-0.08 0.63,-0.22 0.17,-0.19 0.25,-0.41 0.25,-0.66 v -13.39 c 0,-0.26 -0.08,-0.44 -0.25,-0.62 -0.19,-0.19 -0.38,-0.25 -0.63,-0.25 h -3.48 c -0.27,0 -0.46,-0.08 -0.63,-0.27 -0.19,-0.19 -0.26,-0.36 -0.26,-0.62 v -2.32 c 0,-0.25 0.07,-0.43 0.26,-0.62 0.17,-0.17 0.36,-0.25 0.63,-0.25 h 12.82 c 0.27,0 0.44,0.08 0.63,0.25 0.16,0.19 0.22,0.37 0.22,0.62 v 2.32 c 0,0.26 -0.06,0.43 -0.22,0.62 -0.19,0.19 -0.36,0.27 -0.63,0.27 h -3.51 c -0.27,0 -0.44,0.06 -0.63,0.25 -0.18,0.18 -0.25,0.36 -0.25,0.62 v 13.39 c 0,0.25 0.07,0.47 0.25,0.66 0.19,0.14 0.36,0.22 0.63,0.22 h 8.47 c 0.26,0 0.43,-0.08 0.62,-0.22 0.14,-0.19 0.22,-0.41 0.22,-0.66 v -0.84 c 0,-0.27 0.08,-0.44 0.27,-0.63 0.17,-0.18 0.36,-0.26 0.61,-0.26 h 2.36 c 0.25,0 0.43,0.08 0.62,0.26 0.17,0.19 0.25,0.36 0.25,0.63 v 4.95 c 0,0.25 -0.08,0.44 -0.25,0.63 -0.19,0.14 -0.37,0.22 -0.62,0.22 z m 64.56,0 c -0.25,0 -0.44,-0.08 -0.63,-0.22 -0.17,-0.19 -0.25,-0.38 -0.25,-0.63 v -2.36 c 0,-0.25 0.08,-0.43 0.25,-0.62 0.19,-0.17 0.38,-0.25 0.63,-0.25 h 3.48 c 0.27,0 0.49,-0.08 0.66,-0.22 0.16,-0.19 0.23,-0.41 0.23,-0.66 v -4.08 c 0,-0.25 -0.07,-0.43 -0.23,-0.62 -0.17,-0.17 -0.39,-0.25 -0.66,-0.25 h -18.34 c -0.25,0 -0.44,0.08 -0.61,0.25 -0.19,0.19 -0.27,0.37 -0.27,0.62 v 4.08 c 0,0.25 0.08,0.47 0.27,0.66 0.17,0.14 0.36,0.22 0.61,0.22 h 3.48 c 0.27,0 0.46,0.08 0.63,0.25 0.19,0.19 0.26,0.37 0.26,0.62 v 2.36 c 0,0.25 -0.07,0.44 -0.26,0.63 -0.17,0.14 -0.36,0.22 -0.63,0.22 h -12.79 c -0.25,0 -0.44,-0.08 -0.63,-0.22 -0.17,-0.19 -0.25,-0.38 -0.25,-0.63 v -2.36 c 0,-0.25 0.08,-0.43 0.25,-0.62 0.19,-0.17 0.38,-0.25 0.63,-0.25 h 3.48 c 0.27,0 0.44,-0.08 0.63,-0.22 0.18,-0.19 0.26,-0.41 0.26,-0.66 v -13.39 c 0,-0.26 -0.08,-0.44 -0.26,-0.62 -0.19,-0.19 -0.36,-0.25 -0.63,-0.25 h -3.48 c -0.25,0 -0.44,-0.08 -0.63,-0.27 -0.17,-0.19 -0.25,-0.36 -0.25,-0.62 v -2.32 c 0,-0.25 0.08,-0.43 0.25,-0.62 0.19,-0.17 0.38,-0.25 0.63,-0.25 h 12.79 c 0.27,0 0.46,0.08 0.63,0.25 0.19,0.19 0.26,0.37 0.26,0.62 v 2.32 c 0,0.26 -0.07,0.43 -0.26,0.62 -0.17,0.19 -0.36,0.27 -0.63,0.27 h -3.48 c -0.25,0 -0.44,0.06 -0.61,0.25 -0.19,0.18 -0.27,0.36 -0.27,0.62 v 4.06 c 0,0.27 0.08,0.46 0.27,0.63 0.17,0.19 0.36,0.27 0.61,0.27 h 18.34 c 0.27,0 0.49,-0.08 0.66,-0.27 0.16,-0.17 0.23,-0.36 0.23,-0.63 v -4.06 c 0,-0.26 -0.07,-0.44 -0.23,-0.62 -0.17,-0.19 -0.39,-0.25 -0.66,-0.25 h -3.48 c -0.25,0 -0.44,-0.08 -0.63,-0.27 -0.17,-0.19 -0.25,-0.36 -0.25,-0.62 v -2.32 c 0,-0.25 0.08,-0.43 0.25,-0.62 0.19,-0.17 0.38,-0.25 0.63,-0.25 h 12.84 c 0.25,0 0.44,0.08 0.63,0.25 0.17,0.19 0.25,0.37 0.25,0.62 v 2.32 c 0,0.26 -0.08,0.43 -0.25,0.62 -0.19,0.19 -0.38,0.27 -0.63,0.27 h -3.53 c -0.25,0 -0.44,0.06 -0.58,0.25 -0.18,0.18 -0.26,0.36 -0.26,0.62 v 13.39 c 0,0.25 0.08,0.47 0.26,0.66 0.14,0.14 0.33,0.22 0.58,0.22 h 3.53 c 0.25,0 0.44,0.08 0.63,0.25 0.17,0.19 0.25,0.37 0.25,0.62 v 2.36 c 0,0.25 -0.08,0.44 -0.25,0.63 -0.19,0.14 -0.38,0.22 -0.63,0.22 z m 23.38,0 c -0.25,0 -0.44,-0.08 -0.63,-0.22 -0.17,-0.19 -0.25,-0.38 -0.25,-0.63 v -2.36 c 0,-0.25 0.08,-0.43 0.25,-0.62 0.19,-0.17 0.38,-0.25 0.63,-0.25 h 3.48 c 0.27,0 0.44,-0.08 0.63,-0.22 0.19,-0.19 0.26,-0.41 0.26,-0.66 v -13.39 c 0,-0.26 -0.07,-0.44 -0.26,-0.62 -0.19,-0.19 -0.36,-0.25 -0.63,-0.25 h -3.48 c -0.25,0 -0.44,-0.08 -0.63,-0.27 -0.17,-0.19 -0.25,-0.36 -0.25,-0.62 v -2.32 c 0,-0.25 0.08,-0.43 0.25,-0.62 0.19,-0.17 0.38,-0.25 0.63,-0.25 h 31 c 0.25,0 0.44,0.08 0.62,0.25 0.18,0.19 0.25,0.37 0.25,0.62 v 5.5 c 0,0.27 -0.07,0.46 -0.25,0.63 -0.18,0.19 -0.37,0.26 -0.62,0.26 h -2.35 c -0.26,0 -0.45,-0.07 -0.62,-0.26 -0.19,-0.17 -0.27,-0.36 -0.27,-0.63 v -1.42 c 0,-0.26 -0.06,-0.44 -0.21,-0.62 -0.19,-0.19 -0.36,-0.25 -0.63,-0.25 h -17.61 c -0.25,0 -0.44,0.06 -0.61,0.25 -0.19,0.18 -0.26,0.36 -0.26,0.62 v 4.14 c 0,0.27 0.07,0.49 0.26,0.66 0.17,0.16 0.36,0.22 0.61,0.22 h 9.39 c 0.27,0 0.45,0.08 0.63,0.26 0.18,0.19 0.26,0.36 0.26,0.63 v 1.76 c 0,0.25 -0.08,0.44 -0.26,0.61 -0.18,0.19 -0.36,0.27 -0.63,0.27 h -9.39 c -0.25,0 -0.44,0.08 -0.61,0.25 -0.19,0.16 -0.26,0.33 -0.26,0.59 v 4 c 0,0.25 0.07,0.47 0.26,0.66 0.17,0.14 0.36,0.22 0.61,0.22 h 17.61 c 0.27,0 0.44,-0.08 0.63,-0.22 0.15,-0.19 0.21,-0.41 0.21,-0.66 v -0.89 c 0,-0.25 0.08,-0.47 0.27,-0.62 0.17,-0.17 0.36,-0.25 0.62,-0.25 h 2.35 c 0.25,0 0.44,0.08 0.62,0.25 0.18,0.15 0.25,0.37 0.25,0.62 v 4.92 c 0,0.25 -0.07,0.47 -0.25,0.66 -0.18,0.19 -0.37,0.27 -0.62,0.27 z m 91.22,0.11 c -0.26,0 -0.48,-0.08 -0.7,-0.27 -0.22,-0.19 -0.36,-0.36 -0.44,-0.58 l -0.03,-0.08 c -0.08,-0.22 -0.15,-0.32 -0.26,-0.32 -0.11,0 -0.19,0.1 -0.25,0.32 -0.08,0.22 -0.22,0.41 -0.44,0.6 -0.22,0.14 -0.45,0.22 -0.7,0.22 h -20.69 c -0.25,0 -0.52,-0.05 -0.77,-0.16 -0.29,-0.11 -0.54,-0.25 -0.73,-0.41 l -2.86,-2.59 c -0.19,-0.19 -0.38,-0.41 -0.48,-0.67 -0.11,-0.28 -0.19,-0.55 -0.19,-0.8 v -14.05 c 0,-0.26 0.08,-0.51 0.19,-0.78 0.1,-0.28 0.29,-0.5 0.48,-0.68 l 2.86,-2.57 c 0.19,-0.18 0.44,-0.29 0.73,-0.4 0.25,-0.11 0.52,-0.19 0.77,-0.19 h 21.67 c 0.27,0 0.52,0.08 0.81,0.19 0.3,0.11 0.55,0.22 0.74,0.4 l 2.86,2.57 c 0.18,0.18 0.37,0.4 0.48,0.68 0.11,0.27 0.17,0.52 0.17,0.78 v 1.36 c 0,0.25 -0.06,0.44 -0.25,0.63 -0.18,0.17 -0.37,0.25 -0.62,0.25 h -2.35 c -0.26,0 -0.43,-0.08 -0.59,-0.19 -0.19,-0.11 -0.25,-0.3 -0.25,-0.47 0,-0.19 -0.08,-0.37 -0.19,-0.59 -0.11,-0.25 -0.29,-0.44 -0.47,-0.63 l -0.37,-0.32 c -0.19,-0.19 -0.44,-0.3 -0.7,-0.41 -0.28,-0.11 -0.55,-0.17 -0.8,-0.17 h -18.56 c -0.25,0 -0.52,0.06 -0.82,0.17 -0.28,0.11 -0.5,0.22 -0.68,0.41 l -0.38,0.32 c -0.17,0.19 -0.36,0.41 -0.47,0.71 -0.11,0.25 -0.18,0.51 -0.18,0.76 v 10.42 c 0,0.25 0.07,0.52 0.18,0.8 0.11,0.27 0.3,0.49 0.47,0.67 l 0.38,0.28 c 0.18,0.19 0.4,0.35 0.68,0.46 0.3,0.11 0.57,0.14 0.82,0.14 h 20.25 c 0.25,0 0.43,-0.08 0.62,-0.22 0.14,-0.19 0.22,-0.38 0.22,-0.59 v -1.4 c 0,-0.14 0.06,-0.25 0.25,-0.35 0.16,-0.11 0.33,-0.19 0.59,-0.19 h 2.35 c 0.25,0.03 0.44,0.11 0.62,0.29 0.19,0.15 0.25,0.33 0.25,0.58 v 5.17 c 0,0.27 -0.06,0.44 -0.25,0.63 -0.18,0.19 -0.37,0.27 -0.62,0.27 z m 11.75,-3.24 c 0,-0.25 0.08,-0.47 0.25,-0.62 0.19,-0.19 0.38,-0.25 0.63,-0.25 h 3.48 c 0.27,0 0.44,-0.08 0.63,-0.27 0.18,-0.17 0.26,-0.36 0.26,-0.62 v -13.46 c 0,-0.26 -0.08,-0.44 -0.26,-0.62 -0.19,-0.19 -0.36,-0.25 -0.63,-0.25 h -3.48 c -0.25,0 -0.44,-0.08 -0.63,-0.27 -0.17,-0.19 -0.25,-0.36 -0.25,-0.62 v -2.32 c 0,-0.25 0.08,-0.43 0.25,-0.62 0.19,-0.17 0.38,-0.25 0.63,-0.25 h 12.79 c 0.27,0 0.46,0.08 0.63,0.25 0.19,0.19 0.26,0.37 0.26,0.62 v 2.32 c 0,0.26 -0.07,0.43 -0.26,0.62 -0.17,0.19 -0.36,0.27 -0.63,0.27 h -3.48 c -0.25,0 -0.44,0.06 -0.61,0.25 -0.19,0.18 -0.27,0.36 -0.27,0.62 v 13.46 c 0,0.26 0.08,0.45 0.27,0.62 0.17,0.19 0.36,0.27 0.61,0.27 h 3.48 c 0.27,0 0.46,0.06 0.63,0.25 0.19,0.15 0.26,0.37 0.26,0.62 v 2.31 c 0,0.25 -0.07,0.44 -0.26,0.63 -0.17,0.19 -0.36,0.25 -0.63,0.25 h -12.79 c -0.25,0 -0.44,-0.06 -0.63,-0.25 -0.17,-0.19 -0.25,-0.38 -0.25,-0.63 z m 23.01,3.13 c -0.25,0 -0.43,-0.08 -0.62,-0.22 -0.17,-0.19 -0.25,-0.38 -0.25,-0.63 v -5.11 c 0,-0.25 0.08,-0.43 0.25,-0.62 0.19,-0.17 0.37,-0.25 0.62,-0.25 h 2.32 c 0.26,0 0.43,0.08 0.62,0.25 0.19,0.19 0.25,0.37 0.25,0.62 v 1 c 0,0.25 0.08,0.47 0.27,0.66 0.18,0.14 0.36,0.22 0.62,0.22 h 8.44 c 0.25,0 0.44,-0.08 0.62,-0.22 0.18,-0.19 0.25,-0.41 0.25,-0.66 v -13.39 c 0,-0.26 -0.07,-0.44 -0.25,-0.62 -0.18,-0.19 -0.37,-0.25 -0.62,-0.25 h -3.49 c -0.26,0 -0.45,-0.08 -0.62,-0.27 -0.19,-0.19 -0.27,-0.36 -0.27,-0.62 v -2.32 c 0,-0.25 0.08,-0.43 0.27,-0.62 0.17,-0.17 0.36,-0.25 0.62,-0.25 h 12.83 c 0.27,0 0.44,0.08 0.63,0.25 0.15,0.19 0.22,0.37 0.22,0.62 v 2.32 c 0,0.26 -0.07,0.43 -0.22,0.62 -0.19,0.19 -0.36,0.27 -0.63,0.27 h -3.51 c -0.27,0 -0.44,0.06 -0.63,0.25 -0.19,0.18 -0.25,0.36 -0.25,0.62 v 13.39 c 0,0.25 0.06,0.47 0.25,0.66 0.19,0.14 0.36,0.22 0.63,0.22 h 8.47 c 0.26,0 0.43,-0.08 0.62,-0.22 0.14,-0.19 0.22,-0.41 0.22,-0.66 v -0.84 c 0,-0.27 0.08,-0.44 0.26,-0.63 0.18,-0.18 0.36,-0.26 0.61,-0.26 h 2.36 c 0.25,0 0.44,0.08 0.63,0.26 0.17,0.19 0.25,0.36 0.25,0.63 v 4.95 c 0,0.25 -0.08,0.44 -0.25,0.63 -0.19,0.14 -0.38,0.22 -0.63,0.22 z m 60.67,-3.21 c 0,-0.25 0.08,-0.43 0.27,-0.58 0.14,-0.18 0.36,-0.26 0.62,-0.26 h 2.16 c 0.26,0 0.4,-0.06 0.43,-0.17 0.05,-0.11 -0.03,-0.27 -0.21,-0.41 l -6.79,-6.09 c -0.18,-0.19 -0.4,-0.25 -0.65,-0.25 -0.27,0 -0.49,0.06 -0.67,0.25 l -6.78,6.09 c -0.19,0.14 -0.22,0.3 -0.19,0.41 0.04,0.11 0.19,0.17 0.45,0.17 h 2.02 c 0.25,0 0.47,0.08 0.65,0.26 0.14,0.15 0.22,0.33 0.22,0.58 v 2.36 c 0,0.25 -0.08,0.44 -0.22,0.63 -0.18,0.14 -0.4,0.22 -0.65,0.22 h -11.93 c -0.26,0 -0.43,-0.08 -0.62,-0.22 -0.19,-0.19 -0.25,-0.38 -0.25,-0.63 v -2.36 c 0,-0.25 0.06,-0.43 0.25,-0.58 0.19,-0.18 0.36,-0.26 0.62,-0.26 h 2.9 c 0.26,0 0.51,-0.03 0.81,-0.14 0.29,-0.11 0.54,-0.25 0.73,-0.44 l 10.19,-8.92 c 0.19,-0.17 0.37,-0.39 0.48,-0.66 0.11,-0.25 0.19,-0.51 0.19,-0.76 v -3.38 c 0,-0.26 -0.08,-0.44 -0.26,-0.62 -0.18,-0.19 -0.36,-0.25 -0.63,-0.25 h -4.5 c -0.26,0 -0.45,-0.08 -0.62,-0.27 -0.19,-0.19 -0.27,-0.36 -0.27,-0.62 v -2.32 c 0,-0.25 0.08,-0.43 0.27,-0.62 0.17,-0.17 0.36,-0.25 0.62,-0.25 h 14.27 c 0.25,0 0.43,0.08 0.62,0.25 0.17,0.19 0.25,0.37 0.25,0.62 v 2.32 c 0,0.26 -0.08,0.43 -0.25,0.62 -0.19,0.19 -0.37,0.27 -0.62,0.27 h -4.52 c -0.25,0 -0.44,0.06 -0.62,0.25 -0.19,0.18 -0.25,0.36 -0.25,0.62 v 3.27 c 0,0.25 0.06,0.51 0.17,0.79 0.11,0.27 0.29,0.49 0.48,0.63 l 10.31,9.03 c 0.18,0.19 0.44,0.33 0.74,0.44 0.28,0.11 0.55,0.14 0.8,0.14 h 2.79 c 0.25,0 0.44,0.08 0.61,0.26 0.19,0.15 0.27,0.33 0.27,0.58 v 2.36 c 0,0.25 -0.08,0.44 -0.27,0.63 -0.17,0.14 -0.36,0.22 -0.61,0.22 h -11.92 c -0.26,0 -0.48,-0.08 -0.62,-0.22 -0.19,-0.19 -0.27,-0.38 -0.27,-0.63 z m 44.54,3.24 c -0.25,0 -0.44,-0.08 -0.63,-0.25 -0.17,-0.19 -0.25,-0.38 -0.25,-0.63 v -2.36 c 0,-0.25 0.08,-0.43 0.25,-0.62 0.19,-0.17 0.38,-0.25 0.63,-0.25 h 3.48 c 0.27,0 0.44,-0.08 0.63,-0.25 0.19,-0.19 0.26,-0.38 0.26,-0.63 v -13.39 c 0,-0.26 -0.07,-0.44 -0.26,-0.62 -0.19,-0.19 -0.36,-0.25 -0.63,-0.25 h -3.48 c -0.25,0 -0.44,-0.08 -0.63,-0.27 -0.17,-0.19 -0.25,-0.36 -0.25,-0.62 v -2.32 c 0,-0.25 0.08,-0.43 0.25,-0.62 0.19,-0.17 0.38,-0.25 0.63,-0.25 h 27.19 c 0.25,0 0.51,0.03 0.84,0.14 0.28,0.11 0.55,0.22 0.74,0.37 l 3.43,2.61 c 0.19,0.14 0.38,0.36 0.52,0.61 0.11,0.27 0.19,0.52 0.19,0.78 v 4.66 c 0,0.25 -0.08,0.52 -0.19,0.77 -0.14,0.26 -0.33,0.48 -0.52,0.62 l -0.76,0.6 c -0.19,0.1 -0.3,0.28 -0.3,0.5 0,0.18 0.11,0.37 0.3,0.51 l 0.76,0.56 c 0.19,0.14 0.38,0.36 0.52,0.61 0.11,0.27 0.19,0.57 0.19,0.82 v 4.65 c 0,0.27 -0.08,0.52 -0.19,0.78 -0.14,0.25 -0.33,0.47 -0.52,0.61 l -3.43,2.58 c -0.19,0.14 -0.46,0.3 -0.74,0.41 -0.33,0.11 -0.59,0.14 -0.84,0.14 z m 28.83,-16.77 c 0,-0.25 -0.06,-0.51 -0.17,-0.76 -0.16,-0.3 -0.35,-0.52 -0.52,-0.63 l -0.73,-0.59 c -0.19,-0.11 -0.44,-0.22 -0.74,-0.33 -0.33,-0.11 -0.59,-0.17 -0.84,-0.17 h -16.52 c -0.25,0 -0.44,0.06 -0.61,0.25 -0.18,0.18 -0.26,0.36 -0.26,0.62 v 4.11 c 0,0.25 0.08,0.44 0.26,0.63 0.17,0.17 0.36,0.25 0.61,0.25 h 16.03 c 0.27,0 0.55,-0.03 0.85,-0.14 0.29,-0.11 0.54,-0.22 0.73,-0.38 l 1.22,-0.87 c 0.17,-0.14 0.36,-0.38 0.52,-0.63 0.11,-0.25 0.17,-0.51 0.17,-0.76 z m 0,9.61 c 0,-0.25 -0.06,-0.51 -0.17,-0.76 -0.16,-0.27 -0.35,-0.49 -0.52,-0.63 l -1.11,-0.81 c -0.17,-0.14 -0.44,-0.25 -0.73,-0.36 -0.33,-0.11 -0.58,-0.19 -0.85,-0.19 h -16.14 c -0.25,0 -0.44,0.08 -0.61,0.27 -0.18,0.17 -0.26,0.36 -0.26,0.61 v 4.04 c 0,0.25 0.08,0.44 0.26,0.63 0.17,0.17 0.36,0.25 0.61,0.25 h 16.52 c 0.25,0 0.51,-0.03 0.84,-0.14 0.3,-0.11 0.55,-0.22 0.74,-0.38 l 0.73,-0.54 c 0.17,-0.15 0.36,-0.38 0.52,-0.63 0.11,-0.25 0.17,-0.52 0.17,-0.77 z m 37.89,7.13 c -0.27,0 -0.44,-0.08 -0.63,-0.22 -0.18,-0.19 -0.25,-0.38 -0.25,-0.63 v -2.36 c 0,-0.25 0.07,-0.43 0.25,-0.62 0.19,-0.17 0.36,-0.25 0.63,-0.25 h 3.48 c 0.25,0 0.44,-0.08 0.63,-0.22 0.19,-0.19 0.25,-0.41 0.25,-0.66 v -11.78 c 0,-0.25 -0.06,-0.51 -0.17,-0.76 -0.16,-0.3 -0.35,-0.52 -0.52,-0.63 l -0.73,-0.59 c -0.19,-0.11 -0.44,-0.22 -0.74,-0.33 -0.33,-0.11 -0.59,-0.17 -0.84,-0.17 h -14.97 c -0.25,0 -0.52,0.06 -0.81,0.17 -0.33,0.11 -0.58,0.22 -0.77,0.33 l -0.73,0.59 c -0.19,0.11 -0.36,0.33 -0.47,0.63 -0.16,0.25 -0.22,0.51 -0.22,0.76 v 11.78 c 0,0.25 0.06,0.47 0.25,0.66 0.19,0.14 0.36,0.22 0.62,0.22 h 3.49 c 0.25,0 0.44,0.08 0.62,0.25 0.19,0.19 0.25,0.37 0.25,0.62 v 2.36 c 0,0.25 -0.06,0.44 -0.25,0.63 -0.18,0.14 -0.37,0.22 -0.62,0.22 h -12.8 c -0.26,0 -0.45,-0.08 -0.62,-0.22 -0.19,-0.19 -0.27,-0.38 -0.27,-0.63 v -2.36 c 0,-0.25 0.08,-0.43 0.27,-0.62 0.17,-0.17 0.36,-0.25 0.62,-0.25 h 3.49 c 0.25,0 0.43,-0.08 0.62,-0.22 0.17,-0.19 0.25,-0.41 0.25,-0.66 v -13.83 c 0,-0.26 0.08,-0.51 0.22,-0.78 0.11,-0.25 0.3,-0.47 0.48,-0.61 l 3.44,-2.61 c 0.19,-0.15 0.44,-0.26 0.78,-0.37 0.28,-0.11 0.55,-0.14 0.8,-0.14 h 17.69 c 0.25,0 0.5,0.03 0.84,0.14 0.28,0.11 0.55,0.22 0.74,0.37 l 3.43,2.61 c 0.19,0.14 0.38,0.36 0.52,0.61 0.11,0.27 0.19,0.52 0.19,0.78 v 13.83 c 0,0.25 0.07,0.47 0.25,0.66 0.18,0.14 0.37,0.22 0.62,0.22 h 3.53 c 0.25,0 0.44,0.08 0.61,0.25 0.16,0.19 0.22,0.37 0.22,0.62 v 2.36 c 0,0.25 -0.06,0.44 -0.22,0.63 -0.17,0.14 -0.36,0.22 -0.61,0.22 z m 26.97,-4.6 c 0.18,0.16 0.43,0.27 0.78,0.38 0.28,0.11 0.55,0.14 0.8,0.14 h 18.26 c 0.27,0 0.52,-0.03 0.84,-0.11 0.33,-0.11 0.6,-0.22 0.77,-0.33 l 2.09,-1.33 c 0.19,-0.11 0.41,-0.14 0.68,-0.06 0.25,0.03 0.43,0.17 0.54,0.36 l 1.21,1.98 c 0.11,0.19 0.15,0.41 0.11,0.66 -0.04,0.22 -0.19,0.41 -0.36,0.52 l -3.08,1.93 c -0.19,0.11 -0.46,0.24 -0.78,0.35 -0.33,0.06 -0.58,0.11 -0.85,0.11 h -20.79 c -0.25,0 -0.52,-0.05 -0.8,-0.16 -0.33,-0.11 -0.59,-0.22 -0.78,-0.36 l -3.44,-2.61 c -0.19,-0.11 -0.37,-0.33 -0.48,-0.58 -0.14,-0.29 -0.22,-0.56 -0.22,-0.81 v -4.66 c 0,-0.26 0.08,-0.51 0.22,-0.78 0.11,-0.25 0.29,-0.47 0.48,-0.61 l 3.44,-2.61 c 0.19,-0.11 0.45,-0.21 0.78,-0.32 0.28,-0.11 0.55,-0.19 0.8,-0.19 h 18.96 c 0.25,0 0.52,-0.03 0.82,-0.14 0.28,-0.11 0.54,-0.22 0.73,-0.38 l 0.77,-0.54 c 0.18,-0.14 0.36,-0.38 0.51,-0.63 0.11,-0.25 0.17,-0.51 0.17,-0.76 v -0.6 c 0,-0.25 -0.06,-0.51 -0.17,-0.76 -0.15,-0.3 -0.33,-0.52 -0.51,-0.63 l -0.77,-0.59 c -0.19,-0.11 -0.45,-0.22 -0.73,-0.33 -0.3,-0.11 -0.57,-0.17 -0.82,-0.17 h -17.71 c -0.25,0 -0.52,0.03 -0.85,0.14 -0.33,0.08 -0.58,0.19 -0.76,0.29 l -2.69,1.61 c -0.17,0.11 -0.39,0.14 -0.66,0.11 -0.25,-0.07 -0.43,-0.22 -0.54,-0.4 l -1.21,-1.99 c -0.12,-0.22 -0.15,-0.43 -0.08,-0.65 0.04,-0.25 0.19,-0.44 0.41,-0.55 l 3.63,-2.2 c 0.18,-0.11 0.43,-0.22 0.76,-0.3 0.33,-0.11 0.6,-0.14 0.85,-0.14 h 20.21 c 0.25,0 0.52,0.03 0.85,0.14 0.29,0.11 0.54,0.22 0.73,0.37 l 3.44,2.61 c 0.19,0.14 0.37,0.36 0.52,0.61 0.1,0.27 0.18,0.52 0.18,0.78 v 4.66 c 0,0.25 -0.08,0.52 -0.18,0.77 -0.15,0.26 -0.33,0.48 -0.52,0.62 l -3.44,2.61 c -0.19,0.14 -0.44,0.25 -0.73,0.36 -0.33,0.11 -0.6,0.16 -0.85,0.16 h -18.96 c -0.25,0 -0.52,0.06 -0.8,0.17 -0.35,0.11 -0.6,0.22 -0.78,0.37 l -0.74,0.55 c -0.17,0.14 -0.36,0.36 -0.47,0.63 -0.15,0.25 -0.21,0.51 -0.21,0.76 v 0.59 c 0,0.25 0.06,0.52 0.21,0.77 0.11,0.25 0.3,0.48 0.47,0.63 z"
         id="path1310" />
    </clipPath>
    <clipPath
       clipPathUnits="userSpaceOnUse"
       id="clipPath7786">
      <path
         d="m 3690.58,1208.17 c 0,1.81 0.95,3.09 2.4,3.94 -0.2,-0.49 -0.3,-1.04 -0.3,-1.65 7.32,0.27 11.81,0.86 14.29,1.56 1.69,-1.39 -1.43,-3.3 -16.39,-3.85"
         id="path7784" />
    </clipPath>
    <clipPath
       clipPathUnits="userSpaceOnUse"
       id="clipPath14704">
      <path
         d="m 3706.97,1212.02 c -1.06,0.88 -4.05,1.56 -7.19,1.56 -2.46,0 -5.01,-0.41 -6.8,-1.47 1.12,2.78 5.13,3.76 8.92,3.76 5.69,0 10.9,-2.21 5.07,-3.85"
         id="path14702" />
    </clipPath>
    <clipPath
       clipPathUnits="userSpaceOnUse"
       id="clipPath14720">
      <path
         d="m 3692.68,1210.46 c 0,0.61 0.1,1.16 0.3,1.65 1.79,1.06 4.34,1.47 6.8,1.47 3.14,0 6.13,-0.68 7.19,-1.56 -2.48,-0.7 -6.97,-1.29 -14.29,-1.56"
         id="path14718" />
    </clipPath>
    <clipPath
       clipPathUnits="userSpaceOnUse"
       id="clipPath27714">
      <path
         d="m 3654.18,1231.89 c -0.07,0 -0.1,0.43 -0.08,1.48 h 0.4 c -0.13,-0.89 -0.25,-1.48 -0.32,-1.48"
         id="path27712" />
    </clipPath>
    <clipPath
       clipPathUnits="userSpaceOnUse"
       id="clipPath28962">
      <path
         d="m 3494.52,1991.48 c -0.31,0 -0.32,1.81 -0.19,3.62 0.14,1.81 0.42,3.62 0.72,3.62 0.22,0 0.46,-0.97 0.64,-3.61 -0.58,-2.66 -0.95,-3.63 -1.17,-3.63"
         id="path28960" />
    </clipPath>
    <clipPath
       clipPathUnits="userSpaceOnUse"
       id="clipPath28978">
      <path
         d="m 3494.52,1991.48 c -0.31,0 -0.32,1.81 -0.19,3.62 0.14,1.81 0.42,3.62 0.72,3.62 0.22,0 0.46,-0.97 0.64,-3.61 -0.58,-2.66 -0.95,-3.63 -1.17,-3.63"
         id="path28976" />
    </clipPath>
    <clipPath
       clipPathUnits="userSpaceOnUse"
       id="clipPath28984">
      <path
         d="m 3429.89,2012.09 c -0.25,0 -0.43,-0.08 -0.62,-0.22 -0.17,-0.19 -0.25,-0.38 -0.25,-0.63 v -5.11 c 0,-0.25 0.08,-0.43 0.25,-0.62 0.19,-0.17 0.37,-0.25 0.62,-0.25 h 2.32 c 0.26,0 0.43,0.08 0.62,0.25 0.19,0.19 0.25,0.37 0.25,0.62 v 1 c 0,0.25 0.08,0.47 0.27,0.66 0.19,0.14 0.36,0.22 0.62,0.22 h 8.44 c 0.25,0 0.44,-0.08 0.63,-0.22 0.17,-0.19 0.25,-0.41 0.25,-0.66 v -13.39 c 0,-0.26 -0.08,-0.44 -0.25,-0.62 -0.19,-0.19 -0.38,-0.25 -0.63,-0.25 h -3.48 c -0.27,0 -0.46,-0.08 -0.63,-0.27 -0.19,-0.19 -0.26,-0.36 -0.26,-0.62 v -2.32 c 0,-0.25 0.07,-0.43 0.26,-0.62 0.17,-0.17 0.36,-0.25 0.63,-0.25 h 12.82 c 0.27,0 0.44,0.08 0.63,0.25 0.16,0.19 0.22,0.37 0.22,0.62 v 2.32 c 0,0.26 -0.06,0.43 -0.22,0.62 -0.19,0.19 -0.36,0.27 -0.63,0.27 h -3.51 c -0.27,0 -0.44,0.06 -0.63,0.25 -0.18,0.18 -0.25,0.36 -0.25,0.62 v 13.39 c 0,0.25 0.07,0.47 0.25,0.66 0.19,0.14 0.36,0.22 0.63,0.22 h 8.47 c 0.26,0 0.43,-0.08 0.62,-0.22 0.14,-0.19 0.22,-0.41 0.22,-0.66 v -0.84 c 0,-0.27 0.08,-0.44 0.27,-0.63 0.17,-0.18 0.36,-0.26 0.61,-0.26 h 2.36 c 0.25,0 0.43,0.08 0.62,0.26 0.17,0.19 0.25,0.36 0.25,0.63 v 4.95 c 0,0.25 -0.08,0.44 -0.25,0.63 -0.19,0.14 -0.37,0.22 -0.62,0.22 z m 64.56,0 c -0.25,0 -0.44,-0.08 -0.63,-0.22 -0.17,-0.19 -0.25,-0.38 -0.25,-0.63 v -2.36 c 0,-0.25 0.08,-0.43 0.25,-0.62 0.19,-0.17 0.38,-0.25 0.63,-0.25 h 3.48 c 0.27,0 0.49,-0.08 0.66,-0.22 0.16,-0.19 0.23,-0.41 0.23,-0.66 v -4.08 c 0,-0.25 -0.07,-0.43 -0.23,-0.62 -0.17,-0.17 -0.39,-0.25 -0.66,-0.25 h -18.34 c -0.25,0 -0.44,0.08 -0.61,0.25 -0.19,0.19 -0.27,0.37 -0.27,0.62 v 4.08 c 0,0.25 0.08,0.47 0.27,0.66 0.17,0.14 0.36,0.22 0.61,0.22 h 3.48 c 0.27,0 0.46,0.08 0.63,0.25 0.19,0.19 0.26,0.37 0.26,0.62 v 2.36 c 0,0.25 -0.07,0.44 -0.26,0.63 -0.17,0.14 -0.36,0.22 -0.63,0.22 h -12.79 c -0.25,0 -0.44,-0.08 -0.63,-0.22 -0.17,-0.19 -0.25,-0.38 -0.25,-0.63 v -2.36 c 0,-0.25 0.08,-0.43 0.25,-0.62 0.19,-0.17 0.38,-0.25 0.63,-0.25 h 3.48 c 0.27,0 0.44,-0.08 0.63,-0.22 0.18,-0.19 0.26,-0.41 0.26,-0.66 v -13.39 c 0,-0.26 -0.08,-0.44 -0.26,-0.62 -0.19,-0.19 -0.36,-0.25 -0.63,-0.25 h -3.48 c -0.25,0 -0.44,-0.08 -0.63,-0.27 -0.17,-0.19 -0.25,-0.36 -0.25,-0.62 v -2.32 c 0,-0.25 0.08,-0.43 0.25,-0.62 0.19,-0.17 0.38,-0.25 0.63,-0.25 h 12.79 c 0.27,0 0.46,0.08 0.63,0.25 0.19,0.19 0.26,0.37 0.26,0.62 v 2.32 c 0,0.26 -0.07,0.43 -0.26,0.62 -0.17,0.19 -0.36,0.27 -0.63,0.27 h -3.48 c -0.25,0 -0.44,0.06 -0.61,0.25 -0.19,0.18 -0.27,0.36 -0.27,0.62 v 4.06 c 0,0.27 0.08,0.46 0.27,0.63 0.17,0.19 0.36,0.27 0.61,0.27 h 18.34 c 0.27,0 0.49,-0.08 0.66,-0.27 0.16,-0.17 0.23,-0.36 0.23,-0.63 v -4.06 c 0,-0.26 -0.07,-0.44 -0.23,-0.62 -0.17,-0.19 -0.39,-0.25 -0.66,-0.25 h -3.48 c -0.25,0 -0.44,-0.08 -0.63,-0.27 -0.17,-0.19 -0.25,-0.36 -0.25,-0.62 v -2.32 c 0,-0.25 0.08,-0.43 0.25,-0.62 0.19,-0.17 0.38,-0.25 0.63,-0.25 h 12.84 c 0.25,0 0.44,0.08 0.63,0.25 0.17,0.19 0.25,0.37 0.25,0.62 v 2.32 c 0,0.26 -0.08,0.43 -0.25,0.62 -0.19,0.19 -0.38,0.27 -0.63,0.27 h -3.53 c -0.25,0 -0.44,0.06 -0.58,0.25 -0.18,0.18 -0.26,0.36 -0.26,0.62 v 13.39 c 0,0.25 0.08,0.47 0.26,0.66 0.14,0.14 0.33,0.22 0.58,0.22 h 3.53 c 0.25,0 0.44,0.08 0.63,0.25 0.17,0.19 0.25,0.37 0.25,0.62 v 2.36 c 0,0.25 -0.08,0.44 -0.25,0.63 -0.19,0.14 -0.38,0.22 -0.63,0.22 z m 23.38,0 c -0.25,0 -0.44,-0.08 -0.63,-0.22 -0.17,-0.19 -0.25,-0.38 -0.25,-0.63 v -2.36 c 0,-0.25 0.08,-0.43 0.25,-0.62 0.19,-0.17 0.38,-0.25 0.63,-0.25 h 3.48 c 0.27,0 0.44,-0.08 0.63,-0.22 0.19,-0.19 0.26,-0.41 0.26,-0.66 v -13.39 c 0,-0.26 -0.07,-0.44 -0.26,-0.62 -0.19,-0.19 -0.36,-0.25 -0.63,-0.25 h -3.48 c -0.25,0 -0.44,-0.08 -0.63,-0.27 -0.17,-0.19 -0.25,-0.36 -0.25,-0.62 v -2.32 c 0,-0.25 0.08,-0.43 0.25,-0.62 0.19,-0.17 0.38,-0.25 0.63,-0.25 h 31 c 0.25,0 0.44,0.08 0.62,0.25 0.18,0.19 0.25,0.37 0.25,0.62 v 5.5 c 0,0.27 -0.07,0.46 -0.25,0.63 -0.18,0.19 -0.37,0.26 -0.62,0.26 h -2.35 c -0.26,0 -0.45,-0.07 -0.62,-0.26 -0.19,-0.17 -0.27,-0.36 -0.27,-0.63 v -1.42 c 0,-0.26 -0.06,-0.44 -0.21,-0.62 -0.19,-0.19 -0.36,-0.25 -0.63,-0.25 h -17.61 c -0.25,0 -0.44,0.06 -0.61,0.25 -0.19,0.18 -0.26,0.36 -0.26,0.62 v 4.14 c 0,0.27 0.07,0.49 0.26,0.66 0.17,0.16 0.36,0.22 0.61,0.22 h 9.39 c 0.27,0 0.45,0.08 0.63,0.26 0.18,0.19 0.26,0.36 0.26,0.63 v 1.76 c 0,0.25 -0.08,0.44 -0.26,0.61 -0.18,0.19 -0.36,0.27 -0.63,0.27 h -9.39 c -0.25,0 -0.44,0.08 -0.61,0.25 -0.19,0.16 -0.26,0.33 -0.26,0.59 v 4 c 0,0.25 0.07,0.47 0.26,0.66 0.17,0.14 0.36,0.22 0.61,0.22 h 17.61 c 0.27,0 0.44,-0.08 0.63,-0.22 0.15,-0.19 0.21,-0.41 0.21,-0.66 v -0.89 c 0,-0.25 0.08,-0.47 0.27,-0.62 0.17,-0.17 0.36,-0.25 0.62,-0.25 h 2.35 c 0.25,0 0.44,0.08 0.62,0.25 0.18,0.15 0.25,0.37 0.25,0.62 v 4.92 c 0,0.25 -0.07,0.47 -0.25,0.66 -0.18,0.19 -0.37,0.27 -0.62,0.27 z m 91.22,0.11 c -0.26,0 -0.48,-0.08 -0.7,-0.27 -0.22,-0.19 -0.36,-0.36 -0.44,-0.58 l -0.03,-0.08 c -0.08,-0.22 -0.15,-0.32 -0.26,-0.32 -0.11,0 -0.19,0.1 -0.25,0.32 -0.08,0.22 -0.22,0.41 -0.44,0.6 -0.22,0.14 -0.45,0.22 -0.7,0.22 h -20.69 c -0.25,0 -0.52,-0.05 -0.77,-0.16 -0.29,-0.11 -0.54,-0.25 -0.73,-0.41 l -2.86,-2.59 c -0.19,-0.19 -0.38,-0.41 -0.48,-0.67 -0.11,-0.28 -0.19,-0.55 -0.19,-0.8 v -14.05 c 0,-0.26 0.08,-0.51 0.19,-0.78 0.1,-0.28 0.29,-0.5 0.48,-0.68 l 2.86,-2.57 c 0.19,-0.18 0.44,-0.29 0.73,-0.4 0.25,-0.11 0.52,-0.19 0.77,-0.19 h 21.67 c 0.27,0 0.52,0.08 0.81,0.19 0.3,0.11 0.55,0.22 0.74,0.4 l 2.86,2.57 c 0.18,0.18 0.37,0.4 0.48,0.68 0.11,0.27 0.17,0.52 0.17,0.78 v 1.36 c 0,0.25 -0.06,0.44 -0.25,0.63 -0.18,0.17 -0.37,0.25 -0.62,0.25 h -2.35 c -0.26,0 -0.43,-0.08 -0.59,-0.19 -0.19,-0.11 -0.25,-0.3 -0.25,-0.47 0,-0.19 -0.08,-0.37 -0.19,-0.59 -0.11,-0.25 -0.29,-0.44 -0.47,-0.63 l -0.37,-0.32 c -0.19,-0.19 -0.44,-0.3 -0.7,-0.41 -0.28,-0.11 -0.55,-0.17 -0.8,-0.17 h -18.56 c -0.25,0 -0.52,0.06 -0.82,0.17 -0.28,0.11 -0.5,0.22 -0.68,0.41 l -0.38,0.32 c -0.17,0.19 -0.36,0.41 -0.47,0.71 -0.11,0.25 -0.18,0.51 -0.18,0.76 v 10.42 c 0,0.25 0.07,0.52 0.18,0.8 0.11,0.27 0.3,0.49 0.47,0.67 l 0.38,0.28 c 0.18,0.19 0.4,0.35 0.68,0.46 0.3,0.11 0.57,0.14 0.82,0.14 h 20.25 c 0.25,0 0.43,-0.08 0.62,-0.22 0.14,-0.19 0.22,-0.38 0.22,-0.59 v -1.4 c 0,-0.14 0.06,-0.25 0.25,-0.35 0.16,-0.11 0.33,-0.19 0.59,-0.19 h 2.35 c 0.25,0.03 0.44,0.11 0.62,0.29 0.19,0.15 0.25,0.33 0.25,0.58 v 5.17 c 0,0.27 -0.06,0.44 -0.25,0.63 -0.18,0.19 -0.37,0.27 -0.62,0.27 z m 11.75,-3.24 c 0,-0.25 0.08,-0.47 0.25,-0.62 0.19,-0.19 0.38,-0.25 0.63,-0.25 h 3.48 c 0.27,0 0.44,-0.08 0.63,-0.27 0.18,-0.17 0.26,-0.36 0.26,-0.62 v -13.46 c 0,-0.26 -0.08,-0.44 -0.26,-0.62 -0.19,-0.19 -0.36,-0.25 -0.63,-0.25 h -3.48 c -0.25,0 -0.44,-0.08 -0.63,-0.27 -0.17,-0.19 -0.25,-0.36 -0.25,-0.62 v -2.32 c 0,-0.25 0.08,-0.43 0.25,-0.62 0.19,-0.17 0.38,-0.25 0.63,-0.25 h 12.79 c 0.27,0 0.46,0.08 0.63,0.25 0.19,0.19 0.26,0.37 0.26,0.62 v 2.32 c 0,0.26 -0.07,0.43 -0.26,0.62 -0.17,0.19 -0.36,0.27 -0.63,0.27 h -3.48 c -0.25,0 -0.44,0.06 -0.61,0.25 -0.19,0.18 -0.27,0.36 -0.27,0.62 v 13.46 c 0,0.26 0.08,0.45 0.27,0.62 0.17,0.19 0.36,0.27 0.61,0.27 h 3.48 c 0.27,0 0.46,0.06 0.63,0.25 0.19,0.15 0.26,0.37 0.26,0.62 v 2.31 c 0,0.25 -0.07,0.44 -0.26,0.63 -0.17,0.19 -0.36,0.25 -0.63,0.25 h -12.79 c -0.25,0 -0.44,-0.06 -0.63,-0.25 -0.17,-0.19 -0.25,-0.38 -0.25,-0.63 z m 23.01,3.13 c -0.25,0 -0.43,-0.08 -0.62,-0.22 -0.17,-0.19 -0.25,-0.38 -0.25,-0.63 v -5.11 c 0,-0.25 0.08,-0.43 0.25,-0.62 0.19,-0.17 0.37,-0.25 0.62,-0.25 h 2.32 c 0.26,0 0.43,0.08 0.62,0.25 0.19,0.19 0.25,0.37 0.25,0.62 v 1 c 0,0.25 0.08,0.47 0.27,0.66 0.18,0.14 0.36,0.22 0.62,0.22 h 8.44 c 0.25,0 0.44,-0.08 0.62,-0.22 0.18,-0.19 0.25,-0.41 0.25,-0.66 v -13.39 c 0,-0.26 -0.07,-0.44 -0.25,-0.62 -0.18,-0.19 -0.37,-0.25 -0.62,-0.25 h -3.49 c -0.26,0 -0.45,-0.08 -0.62,-0.27 -0.19,-0.19 -0.27,-0.36 -0.27,-0.62 v -2.32 c 0,-0.25 0.08,-0.43 0.27,-0.62 0.17,-0.17 0.36,-0.25 0.62,-0.25 h 12.83 c 0.27,0 0.44,0.08 0.63,0.25 0.15,0.19 0.22,0.37 0.22,0.62 v 2.32 c 0,0.26 -0.07,0.43 -0.22,0.62 -0.19,0.19 -0.36,0.27 -0.63,0.27 h -3.51 c -0.27,0 -0.44,0.06 -0.63,0.25 -0.19,0.18 -0.25,0.36 -0.25,0.62 v 13.39 c 0,0.25 0.06,0.47 0.25,0.66 0.19,0.14 0.36,0.22 0.63,0.22 h 8.47 c 0.26,0 0.43,-0.08 0.62,-0.22 0.14,-0.19 0.22,-0.41 0.22,-0.66 v -0.84 c 0,-0.27 0.08,-0.44 0.26,-0.63 0.18,-0.18 0.36,-0.26 0.61,-0.26 h 2.36 c 0.25,0 0.44,0.08 0.63,0.26 0.17,0.19 0.25,0.36 0.25,0.63 v 4.95 c 0,0.25 -0.08,0.44 -0.25,0.63 -0.19,0.14 -0.38,0.22 -0.63,0.22 z m 60.67,-3.21 c 0,-0.25 0.08,-0.43 0.27,-0.58 0.14,-0.18 0.36,-0.26 0.62,-0.26 h 2.16 c 0.26,0 0.4,-0.06 0.43,-0.17 0.05,-0.11 -0.03,-0.27 -0.21,-0.41 l -6.79,-6.09 c -0.18,-0.19 -0.4,-0.25 -0.65,-0.25 -0.27,0 -0.49,0.06 -0.67,0.25 l -6.78,6.09 c -0.19,0.14 -0.22,0.3 -0.19,0.41 0.04,0.11 0.19,0.17 0.45,0.17 h 2.02 c 0.25,0 0.47,0.08 0.65,0.26 0.14,0.15 0.22,0.33 0.22,0.58 v 2.36 c 0,0.25 -0.08,0.44 -0.22,0.63 -0.18,0.14 -0.4,0.22 -0.65,0.22 h -11.93 c -0.26,0 -0.43,-0.08 -0.62,-0.22 -0.19,-0.19 -0.25,-0.38 -0.25,-0.63 v -2.36 c 0,-0.25 0.06,-0.43 0.25,-0.58 0.19,-0.18 0.36,-0.26 0.62,-0.26 h 2.9 c 0.26,0 0.51,-0.03 0.81,-0.14 0.29,-0.11 0.54,-0.25 0.73,-0.44 l 10.19,-8.92 c 0.19,-0.17 0.37,-0.39 0.48,-0.66 0.11,-0.25 0.19,-0.51 0.19,-0.76 v -3.38 c 0,-0.26 -0.08,-0.44 -0.26,-0.62 -0.18,-0.19 -0.36,-0.25 -0.63,-0.25 h -4.5 c -0.26,0 -0.45,-0.08 -0.62,-0.27 -0.19,-0.19 -0.27,-0.36 -0.27,-0.62 v -2.32 c 0,-0.25 0.08,-0.43 0.27,-0.62 0.17,-0.17 0.36,-0.25 0.62,-0.25 h 14.27 c 0.25,0 0.43,0.08 0.62,0.25 0.17,0.19 0.25,0.37 0.25,0.62 v 2.32 c 0,0.26 -0.08,0.43 -0.25,0.62 -0.19,0.19 -0.37,0.27 -0.62,0.27 h -4.52 c -0.25,0 -0.44,0.06 -0.62,0.25 -0.19,0.18 -0.25,0.36 -0.25,0.62 v 3.27 c 0,0.25 0.06,0.51 0.17,0.79 0.11,0.27 0.29,0.49 0.48,0.63 l 10.31,9.03 c 0.18,0.19 0.44,0.33 0.74,0.44 0.28,0.11 0.55,0.14 0.8,0.14 h 2.79 c 0.25,0 0.44,0.08 0.61,0.26 0.19,0.15 0.27,0.33 0.27,0.58 v 2.36 c 0,0.25 -0.08,0.44 -0.27,0.63 -0.17,0.14 -0.36,0.22 -0.61,0.22 h -11.92 c -0.26,0 -0.48,-0.08 -0.62,-0.22 -0.19,-0.19 -0.27,-0.38 -0.27,-0.63 z m 44.54,3.24 c -0.25,0 -0.44,-0.08 -0.63,-0.25 -0.17,-0.19 -0.25,-0.38 -0.25,-0.63 v -2.36 c 0,-0.25 0.08,-0.43 0.25,-0.62 0.19,-0.17 0.38,-0.25 0.63,-0.25 h 3.48 c 0.27,0 0.44,-0.08 0.63,-0.25 0.19,-0.19 0.26,-0.38 0.26,-0.63 v -13.39 c 0,-0.26 -0.07,-0.44 -0.26,-0.62 -0.19,-0.19 -0.36,-0.25 -0.63,-0.25 h -3.48 c -0.25,0 -0.44,-0.08 -0.63,-0.27 -0.17,-0.19 -0.25,-0.36 -0.25,-0.62 v -2.32 c 0,-0.25 0.08,-0.43 0.25,-0.62 0.19,-0.17 0.38,-0.25 0.63,-0.25 h 27.19 c 0.25,0 0.51,0.03 0.84,0.14 0.28,0.11 0.55,0.22 0.74,0.37 l 3.43,2.61 c 0.19,0.14 0.38,0.36 0.52,0.61 0.11,0.27 0.19,0.52 0.19,0.78 v 4.66 c 0,0.25 -0.08,0.52 -0.19,0.77 -0.14,0.26 -0.33,0.48 -0.52,0.62 l -0.76,0.6 c -0.19,0.1 -0.3,0.28 -0.3,0.5 0,0.18 0.11,0.37 0.3,0.51 l 0.76,0.56 c 0.19,0.14 0.38,0.36 0.52,0.61 0.11,0.27 0.19,0.57 0.19,0.82 v 4.65 c 0,0.27 -0.08,0.52 -0.19,0.78 -0.14,0.25 -0.33,0.47 -0.52,0.61 l -3.43,2.58 c -0.19,0.14 -0.46,0.3 -0.74,0.41 -0.33,0.11 -0.59,0.14 -0.84,0.14 z m 28.83,-16.77 c 0,-0.25 -0.06,-0.51 -0.17,-0.76 -0.16,-0.3 -0.35,-0.52 -0.52,-0.63 l -0.73,-0.59 c -0.19,-0.11 -0.44,-0.22 -0.74,-0.33 -0.33,-0.11 -0.59,-0.17 -0.84,-0.17 h -16.52 c -0.25,0 -0.44,0.06 -0.61,0.25 -0.18,0.18 -0.26,0.36 -0.26,0.62 v 4.11 c 0,0.25 0.08,0.44 0.26,0.63 0.17,0.17 0.36,0.25 0.61,0.25 h 16.03 c 0.27,0 0.55,-0.03 0.85,-0.14 0.29,-0.11 0.54,-0.22 0.73,-0.38 l 1.22,-0.87 c 0.17,-0.14 0.36,-0.38 0.52,-0.63 0.11,-0.25 0.17,-0.51 0.17,-0.76 z m 0,9.61 c 0,-0.25 -0.06,-0.51 -0.17,-0.76 -0.16,-0.27 -0.35,-0.49 -0.52,-0.63 l -1.11,-0.81 c -0.17,-0.14 -0.44,-0.25 -0.73,-0.36 -0.33,-0.11 -0.58,-0.19 -0.85,-0.19 h -16.14 c -0.25,0 -0.44,0.08 -0.61,0.27 -0.18,0.17 -0.26,0.36 -0.26,0.61 v 4.04 c 0,0.25 0.08,0.44 0.26,0.63 0.17,0.17 0.36,0.25 0.61,0.25 h 16.52 c 0.25,0 0.51,-0.03 0.84,-0.14 0.3,-0.11 0.55,-0.22 0.74,-0.38 l 0.73,-0.54 c 0.17,-0.15 0.36,-0.38 0.52,-0.63 0.11,-0.25 0.17,-0.52 0.17,-0.77 z m 37.89,7.13 c -0.27,0 -0.44,-0.08 -0.63,-0.22 -0.18,-0.19 -0.25,-0.38 -0.25,-0.63 v -2.36 c 0,-0.25 0.07,-0.43 0.25,-0.62 0.19,-0.17 0.36,-0.25 0.63,-0.25 h 3.48 c 0.25,0 0.44,-0.08 0.63,-0.22 0.19,-0.19 0.25,-0.41 0.25,-0.66 v -11.78 c 0,-0.25 -0.06,-0.51 -0.17,-0.76 -0.16,-0.3 -0.35,-0.52 -0.52,-0.63 l -0.73,-0.59 c -0.19,-0.11 -0.44,-0.22 -0.74,-0.33 -0.33,-0.11 -0.59,-0.17 -0.84,-0.17 h -14.97 c -0.25,0 -0.52,0.06 -0.81,0.17 -0.33,0.11 -0.58,0.22 -0.77,0.33 l -0.73,0.59 c -0.19,0.11 -0.36,0.33 -0.47,0.63 -0.16,0.25 -0.22,0.51 -0.22,0.76 v 11.78 c 0,0.25 0.06,0.47 0.25,0.66 0.19,0.14 0.36,0.22 0.62,0.22 h 3.49 c 0.25,0 0.44,0.08 0.62,0.25 0.19,0.19 0.25,0.37 0.25,0.62 v 2.36 c 0,0.25 -0.06,0.44 -0.25,0.63 -0.18,0.14 -0.37,0.22 -0.62,0.22 h -12.8 c -0.26,0 -0.45,-0.08 -0.62,-0.22 -0.19,-0.19 -0.27,-0.38 -0.27,-0.63 v -2.36 c 0,-0.25 0.08,-0.43 0.27,-0.62 0.17,-0.17 0.36,-0.25 0.62,-0.25 h 3.49 c 0.25,0 0.43,-0.08 0.62,-0.22 0.17,-0.19 0.25,-0.41 0.25,-0.66 v -13.83 c 0,-0.26 0.08,-0.51 0.22,-0.78 0.11,-0.25 0.3,-0.47 0.48,-0.61 l 3.44,-2.61 c 0.19,-0.15 0.44,-0.26 0.78,-0.37 0.28,-0.11 0.55,-0.14 0.8,-0.14 h 17.69 c 0.25,0 0.5,0.03 0.84,0.14 0.28,0.11 0.55,0.22 0.74,0.37 l 3.43,2.61 c 0.19,0.14 0.38,0.36 0.52,0.61 0.11,0.27 0.19,0.52 0.19,0.78 v 13.83 c 0,0.25 0.07,0.47 0.25,0.66 0.18,0.14 0.37,0.22 0.62,0.22 h 3.53 c 0.25,0 0.44,0.08 0.61,0.25 0.16,0.19 0.22,0.37 0.22,0.62 v 2.36 c 0,0.25 -0.06,0.44 -0.22,0.63 -0.17,0.14 -0.36,0.22 -0.61,0.22 z m 26.97,-4.6 c 0.18,0.16 0.43,0.27 0.78,0.38 0.28,0.11 0.55,0.14 0.8,0.14 h 18.26 c 0.27,0 0.52,-0.03 0.84,-0.11 0.33,-0.11 0.6,-0.22 0.77,-0.33 l 2.09,-1.33 c 0.19,-0.11 0.41,-0.14 0.68,-0.06 0.25,0.03 0.43,0.17 0.54,0.36 l 1.21,1.98 c 0.11,0.19 0.15,0.41 0.11,0.66 -0.04,0.22 -0.19,0.41 -0.36,0.52 l -3.08,1.93 c -0.19,0.11 -0.46,0.24 -0.78,0.35 -0.33,0.06 -0.58,0.11 -0.85,0.11 h -20.79 c -0.25,0 -0.52,-0.05 -0.8,-0.16 -0.33,-0.11 -0.59,-0.22 -0.78,-0.36 l -3.44,-2.61 c -0.19,-0.11 -0.37,-0.33 -0.48,-0.58 -0.14,-0.29 -0.22,-0.56 -0.22,-0.81 v -4.66 c 0,-0.26 0.08,-0.51 0.22,-0.78 0.11,-0.25 0.29,-0.47 0.48,-0.61 l 3.44,-2.61 c 0.19,-0.11 0.45,-0.21 0.78,-0.32 0.28,-0.11 0.55,-0.19 0.8,-0.19 h 18.96 c 0.25,0 0.52,-0.03 0.82,-0.14 0.28,-0.11 0.54,-0.22 0.73,-0.38 l 0.77,-0.54 c 0.18,-0.14 0.36,-0.38 0.51,-0.63 0.11,-0.25 0.17,-0.51 0.17,-0.76 v -0.6 c 0,-0.25 -0.06,-0.51 -0.17,-0.76 -0.15,-0.3 -0.33,-0.52 -0.51,-0.63 l -0.77,-0.59 c -0.19,-0.11 -0.45,-0.22 -0.73,-0.33 -0.3,-0.11 -0.57,-0.17 -0.82,-0.17 h -17.71 c -0.25,0 -0.52,0.03 -0.85,0.14 -0.33,0.08 -0.58,0.19 -0.76,0.29 l -2.69,1.61 c -0.17,0.11 -0.39,0.14 -0.66,0.11 -0.25,-0.07 -0.43,-0.22 -0.54,-0.4 l -1.21,-1.99 c -0.12,-0.22 -0.15,-0.43 -0.08,-0.65 0.04,-0.25 0.19,-0.44 0.41,-0.55 l 3.63,-2.2 c 0.18,-0.11 0.43,-0.22 0.76,-0.3 0.33,-0.11 0.6,-0.14 0.85,-0.14 h 20.21 c 0.25,0 0.52,0.03 0.85,0.14 0.29,0.11 0.54,0.22 0.73,0.37 l 3.44,2.61 c 0.19,0.14 0.37,0.36 0.52,0.61 0.1,0.27 0.18,0.52 0.18,0.78 v 4.66 c 0,0.25 -0.08,0.52 -0.18,0.77 -0.15,0.26 -0.33,0.48 -0.52,0.62 l -3.44,2.61 c -0.19,0.14 -0.44,0.25 -0.73,0.36 -0.33,0.11 -0.6,0.16 -0.85,0.16 h -18.96 c -0.25,0 -0.52,0.06 -0.8,0.17 -0.35,0.11 -0.6,0.22 -0.78,0.37 l -0.74,0.55 c -0.17,0.14 -0.36,0.36 -0.47,0.63 -0.15,0.25 -0.21,0.51 -0.21,0.76 v 0.59 c 0,0.25 0.06,0.52 0.21,0.77 0.11,0.25 0.3,0.48 0.47,0.63 z"
         id="path28982" />
    </clipPath>
  </defs>
  <sodipodi:namedview
     id="base"
     pagecolor="#ffffff"
     bordercolor="#666666"
     borderopacity="1.0"
     inkscape:pageopacity="0.0"
     inkscape:pageshadow="2"
     inkscape:zoom="7.919596"
     inkscape:cx="59.035709"
     inkscape:cy="30.43696"
     inkscape:document-units="mm"
     inkscape:current-layer="layer1"
     showgrid="false"
     units="px"
     inkscape:window-width="1366"
     inkscape:window-height="703"
     inkscape:window-x="0"
     inkscape:window-y="0"
     inkscape:window-maximized="1"
     inkscape:document-rotation="0" />
  <metadata
     id="metadata9815">
    <rdf:RDF>
      <cc:Work
         rdf:about="">
        <dc:format>image/svg+xml</dc:format>
        <dc:type
           rdf:resource="http://purl.org/dc/dcmitype/StillImage" />
        <dc:title></dc:title>
      </cc:Work>
    </rdf:RDF>
  </metadata>
  <g
     inkscape:label="Capa 1"
     inkscape:groupmode="layer"
     id="layer1"
     transform="translate(0,-270.54165)">
    <g
       id="g163"
       transform="matrix(0.35277777,0,0,-0.35277777,-115.21114,378.62677)">
      <g
         id="g135">
        <path
           inkscape:connector-curvature="0"
           id="path460"
           style="fill:#1a1a1a;fill-opacity:1;fill-rule:nonzero;stroke:none;stroke-width:0.16091"
           d="m 387.62394,279.70826 c 0,13.008 -10.53802,23.54441 -23.53957,23.54441 v -10.86628 c 7.0012,0 12.6749,-5.6737 12.6749,-12.67813 0,-6.99799 -5.6737,-12.6749 -12.6749,-12.6749 v -10.85984 -21.66014 c 0,0 11.10764,17.76128 15.29613,23.74232 9.30706,13.28797 8.24344,21.45256 8.24344,21.45256" />
        <path
           inkscape:connector-curvature="0"
           id="path462"
           style="fill:#666666;fill-opacity:1;fill-rule:nonzero;stroke:none;stroke-width:0.16091"
           d="m 364.08437,292.38639 v 10.86628 c -13.00156,0 -23.5428,-10.53641 -23.5428,-23.54441 0,0 -1.06361,-8.16459 8.24344,-21.45256 4.19011,-5.98104 15.29936,-23.74232 15.29936,-23.74232 v 21.66014 10.85984 c -7.00282,0 -12.67652,5.67691 -12.67652,12.6749 0,7.00443 5.6737,12.67813 12.67652,12.67813" />
      </g>
      <circle
         transform="scale(1,-1)"
         r="19.153227"
         cy="-278.2258"
         cx="364.08276"
         id="path977-7"
         style="opacity:1;vector-effect:none;fill:#ffffff;fill-opacity:1;stroke:none;stroke-width:1.29139;stroke-linecap:butt;stroke-linejoin:miter;stroke-miterlimit:4;stroke-dasharray:none;stroke-dashoffset:0;stroke-opacity:1" />
    </g>
    <path
       d="m 18.644793,279.09482 c -0.003,0.0181 -0.0068,0.0368 -0.01122,0.0548 -0.06346,-0.20358 -0.286248,-0.43137 -0.623025,-0.62563 l -1.369489,-0.79116 c -0.570784,-0.32866 -1.380647,-0.5179 -2.222273,-0.5179 -0.841626,0 -1.651425,0.18924 -2.221626,0.5179 l -4.0424232,2.33367 c -0.1500028,0.0865 -0.2776193,0.17993 -0.3784686,0.27515 0.036727,-0.30685 0.3006522,-0.62061 0.7426152,-0.87516 l 3.7224596,-2.14822 c 0.570207,-0.32993 1.372589,-0.51918 2.201091,-0.51918 0.828566,0 1.630884,0.18925 2.201732,0.51918 l 1.261139,0.72763 c 0.528497,0.30508 0.798007,0.68661 0.73949,1.04888"
       style="fill:#185f89;fill-opacity:1;fill-rule:nonzero;stroke:none;stroke-width:0.00633993"
       id="path14" />
    <path
       d="m 18.633571,279.14966 c -0.06968,0.2801 -0.325556,0.55893 -0.727634,0.79116 l -3.722428,2.14943 c -0.570847,0.32866 -1.373229,0.51791 -2.201763,0.51791 -0.828496,0 -1.630871,-0.18925 -2.2010659,-0.51791 l -1.261152,-0.72891 c -0.4556319,-0.26272 -0.7270888,-0.59386 -0.7463558,-0.90946 -0.0025,-0.0368 -0.00124,-0.0735 0.00309,-0.11019 0.1008493,-0.0952 0.2284658,-0.18861 0.3784686,-0.27515 l 4.0424231,-2.33367 c 0.570201,-0.32866 1.38,-0.5179 2.221626,-0.5179 0.841626,0 1.651489,0.18924 2.222273,0.5179 l 1.369489,0.79116 c 0.336777,0.19426 0.559562,0.42205 0.623025,0.62563"
       style="fill:#98acb2;fill-opacity:1;fill-rule:nonzero;stroke:none;stroke-width:0.00633993"
       id="path16" />
    <path
       d="m 17.824405,279.67258 -4.042404,2.33366 c -0.51607,0.29754 -1.258064,0.46808 -2.035549,0.46808 -0.778746,0 -1.520075,-0.17054 -2.0342495,-0.46751 l -1.3694761,-0.79179 c -0.3255618,-0.18735 -0.4363141,-0.35605 -0.4550359,-0.41273 0.00686,-0.0192 0.03487,-0.0858 0.1444553,-0.18855 0.08091,-0.0766 0.1873514,-0.15374 0.3093697,-0.22348 l 4.0423725,-2.33367 c 0.516039,-0.2976 1.25743,-0.46814 2.034896,-0.46814 0.777466,0 1.519492,0.17054 2.036133,0.46814 l 1.368854,0.79116 c 0.31313,0.17987 0.433271,0.3492 0.453115,0.4133 6.98e-4,6.4e-4 6.98e-4,0.002 0.0013,0.002 -0.01991,0.0629 -0.150002,0.23414 -0.453749,0.40906 z m 0.809166,-0.52292 c -0.06346,-0.20358 -0.286248,-0.43137 -0.623025,-0.62563 l -1.369489,-0.79116 c -0.570784,-0.32866 -1.380647,-0.5179 -2.222273,-0.5179 -0.841626,0 -1.651425,0.18924 -2.221626,0.5179 l -4.0424232,2.33367 c -0.1500028,0.0865 -0.2776193,0.17993 -0.3784686,0.27515 -0.176155,0.1656 -0.2720211,0.33551 -0.2626571,0.48177 0.01055,0.17308 0.1848725,0.45198 0.6423619,0.71528 l 1.3695014,0.79116 c 0.5695796,0.32929 1.3794046,0.5179 2.2209796,0.5179 0.841626,0 1.651476,-0.18924 2.22226,-0.5179 l 4.042404,-2.33373 c 0.364166,-0.21036 0.602548,-0.46434 0.637481,-0.68034 0.0087,-0.0529 0.003,-0.10829 -0.01503,-0.16617"
       style="fill:#1478aa;fill-opacity:1;fill-rule:nonzero;stroke:none;stroke-width:0.00633993"
       id="path18" />
    <path
       d="m 18.278154,279.26352 c -0.01991,0.0629 -0.150002,0.23414 -0.453749,0.40906 l -4.042404,2.33366 c -0.51607,0.29754 -1.258064,0.46808 -2.035549,0.46808 -0.778746,0 -1.520075,-0.17054 -2.0342495,-0.46751 l -1.3694761,-0.79179 c -0.3255618,-0.18735 -0.4363141,-0.35605 -0.4550359,-0.41273 0.00686,-0.0192 0.03487,-0.0858 0.1444553,-0.18855 0.08091,-0.0766 0.1873514,-0.15374 0.3093697,-0.22348 l 4.0423725,-2.33367 c 0.516039,-0.2976 1.25743,-0.46814 2.034896,-0.46814 0.777466,0 1.519492,0.17054 2.036133,0.46814 l 1.368854,0.79116 c 0.31313,0.17987 0.433271,0.3492 0.453115,0.4133 6.98e-4,6.4e-4 6.98e-4,0.002 0.0013,0.002"
       style="fill:#98acb2;fill-opacity:1;fill-rule:nonzero;stroke:none;stroke-width:0.00633993"
       id="path20" />
    <path
       d="m 18.278154,279.26352 c -0.01,0.0318 -0.04793,0.0909 -0.12198,0.1637 -0.23407,-0.1145 -0.489887,-0.23901 -0.519177,-0.25581 l -1.368221,-0.79117 c -0.461864,-0.26583 -1.136052,-0.4183 -1.849992,-0.4183 -0.714003,0 -1.387557,0.15247 -1.848141,0.4183 l -4.0436338,2.33437 c -0.019914,0.0112 -0.2377981,0.13631 -0.4899119,0.2813 -0.097128,-0.0903 -0.1388064,-0.16059 -0.1494068,-0.19362 0.00686,-0.0192 0.03487,-0.0858 0.1444553,-0.18855 0.08091,-0.0766 0.1873514,-0.15374 0.3093697,-0.22348 l 4.0423725,-2.33367 c 0.516039,-0.2976 1.25743,-0.46814 2.034896,-0.46814 0.777466,0 1.519492,0.17054 2.036133,0.46814 l 1.368854,0.79116 c 0.31313,0.17987 0.433271,0.3492 0.453115,0.4133 6.98e-4,6.4e-4 6.98e-4,0.002 0.0013,0.002"
       style="fill:#1180cd;fill-opacity:1;fill-rule:nonzero;stroke:none;stroke-width:0.00633993"
       id="path22" />
    <path
       d="m 18.156174,279.42722 c -0.01807,0.0181 -0.03798,0.0368 -0.06099,0.0561 -0.06784,0.0591 -0.157484,0.12388 -0.270779,0.18931 l -4.042404,2.33366 c -0.51607,0.29754 -1.258064,0.46808 -2.035549,0.46808 -0.778746,0 -1.520075,-0.17054 -2.0342495,-0.46751 l -1.3694761,-0.79179 c -0.092747,-0.0535 -0.1680843,-0.10518 -0.2291061,-0.15374 -0.028599,-0.023 -0.054111,-0.0448 -0.076523,-0.0654 0.2521138,-0.14499 0.4699982,-0.27014 0.4899119,-0.2813 l 4.0436338,-2.33437 c 0.460584,-0.26583 1.134138,-0.4183 1.848141,-0.4183 0.71394,0 1.388128,0.15247 1.849992,0.4183 l 1.368221,0.79117 c 0.02929,0.0168 0.285107,0.14131 0.519177,0.25581"
       style="fill:#98acb2;fill-opacity:1;fill-rule:nonzero;stroke:none;stroke-width:0.00633993"
       id="path24" />
    <path
       d="m 18.128786,279.86303 c -0.206048,0.066 -0.318709,0.28821 -0.450643,0.58511 l -0.01065,-0.0467 -3.939,1.80206 -0.0156,0.009 c -0.169276,0.0978 -0.65054,0.26209 -1.966444,0.26209 -0.583889,0 -1.304067,-0.0293 -1.70683,-0.25772 l -1.1883126,-0.76561 c -0.042966,-0.11951 -0.096487,-0.26336 -0.1705568,-0.39403 0.016167,-0.009 4.0766524,-2.35306 4.0766524,-2.35306 0.405819,-0.23401 1.010902,-0.36842 1.661379,-0.36842 0.650477,0 1.256765,0.13441 1.663915,0.36842 l 1.367587,0.79059 c 0.03113,0.018 0.110822,0.0579 0.411462,0.20478 0,0 0.233436,0.11393 0.273885,0.13383 -0.0025,0.0106 -0.0044,0.0206 -0.0068,0.0299 z m 0.02739,-0.43581 c -0.23407,-0.1145 -0.489887,-0.23901 -0.519177,-0.25581 l -1.368221,-0.79117 c -0.461864,-0.26583 -1.136052,-0.4183 -1.849992,-0.4183 -0.714003,0 -1.387557,0.15247 -1.848141,0.4183 l -4.0436338,2.33437 c -0.019914,0.0112 -0.2377981,0.13631 -0.4899119,0.2813 -0.3579589,0.20605 -0.7843193,0.45197 -0.8086139,0.46935 0.023673,0.0174 0.5135852,-0.22843 0.8851369,-0.40398 0.2179098,-0.10271 0.4121209,0.62556 0.432675,0.63741 l 1.2991218,0.83732 c 0.4593979,0.2657 1.1864549,0.31179 1.9010349,0.31179 0.713984,0 1.692559,-0.0461 2.153155,-0.31179 l 3.50649,-1.6042 c 0.25328,1.10303 0.65669,-0.78932 0.872057,-0.714 0.219108,0.0778 0.255246,-0.57826 0.274519,-0.59196 -0.01737,-0.0125 -0.1992,-0.10207 -0.396499,-0.19863"
       style="fill:#0a93d4;fill-opacity:1;fill-rule:nonzero;stroke:none;stroke-width:0.00633993"
       id="path26" />
    <path
       d="m 18.135633,279.8331 c -0.0025,0.0106 -0.0044,0.0206 -0.0068,0.0299 -0.206048,0.066 -0.318709,0.28821 -0.450643,0.58511 l -0.01065,-0.0467 -3.939,1.80206 -0.0156,0.009 c -0.169276,0.0978 -0.65054,0.26209 -1.966444,0.26209 -0.583889,0 -1.304067,-0.0293 -1.70683,-0.25772 l -1.1883126,-0.76561 c -0.042966,-0.11951 -0.096487,-0.26336 -0.1705568,-0.39403 0.016167,-0.009 4.0766524,-2.35306 4.0766524,-2.35306 0.405819,-0.23401 1.010902,-0.36842 1.661379,-0.36842 0.650477,0 1.256765,0.13441 1.663915,0.36842 l 1.367587,0.79059 c 0.03113,0.018 0.110822,0.0579 0.411462,0.20478 0,0 0.233436,0.11393 0.273885,0.13383"
       style="fill:#98acb2;fill-opacity:1;fill-rule:nonzero;stroke:none;stroke-width:0.00633993"
       id="path28" />
    <path
       d="m 18.135633,279.8331 c -0.0025,0.0106 -0.0044,0.0206 -0.0068,0.0299 -0.206048,0.066 -0.318709,0.28821 -0.450643,0.58511 l -0.01065,-0.0467 -3.939,1.80206 -0.0156,0.009 c -0.169276,0.0978 -0.65054,0.26209 -1.966444,0.26209 -0.583889,0 -1.304067,-0.0293 -1.70683,-0.25772 l -1.1883126,-0.76561 c -0.042966,-0.11951 -0.096487,-0.26336 -0.1705568,-0.39403 0.016167,-0.009 4.0766524,-2.35306 4.0766524,-2.35306 0.405819,-0.23401 1.010902,-0.36842 1.661379,-0.36842 0.650477,0 1.256765,0.13441 1.663915,0.36842 l 1.367587,0.79059 c 0.03113,0.018 0.110822,0.0579 0.411462,0.20478 0,0 0.233436,0.11393 0.273885,0.13383"
       style="fill:#98acb2;fill-opacity:1;fill-rule:nonzero;stroke:none;stroke-width:0.00633993"
       id="path30" />
    <path
       d="m 18.342251,280.66072 -6.327759,3.65338 -3.9512425,-2.28123 6.3278295,-3.65339 3.951172,2.28124"
       style="fill:#6bb52f;fill-opacity:1;fill-rule:nonzero;stroke:none;stroke-width:0.00633993"
       id="path32" />
    <path
       d="m 12.014492,284.00288 -3.4121517,-1.97001 5.7887387,-3.34216 3.412151,1.97001 -2.90781,1.67881 -2.880928,1.66335"
       style="fill:#6bb52f;fill-opacity:1;fill-rule:nonzero;stroke:none;stroke-width:0.00633993"
       id="path34" />
    <path
       d="m 12.014511,283.97175 5.734703,-3.31103 -3.358199,-1.93888 -5.7347853,3.31103 z m 5.842608,-3.31097 -5.842608,3.37316 -3.4660601,-2.00107 5.8425641,-3.37322 3.466104,2.00113"
       style="fill:#ffffff;fill-opacity:1;fill-rule:nonzero;stroke:none;stroke-width:0.00633993"
       id="path36" />
    <path
       d="m 11.137299,283.46525 0.842393,-0.4864 -1.603781,-0.92595 -0.8424185,0.4864 z m 0.950121,-0.48634 -0.950121,0.5486 -1.7116298,-0.98821 0.9502228,-0.54859 1.711528,0.9882"
       style="fill:#ffffff;fill-opacity:1;fill-rule:nonzero;stroke:none;stroke-width:0.00633993"
       id="path38" />
    <path
       d="m 10.805961,283.27404 0.212464,-0.12274 -0.941207,-0.54346 -0.2124641,0.12268 z m 0.320319,-0.12274 -0.320319,0.18493 -1.0490557,-0.60571 0.3203127,-0.18494 1.049062,0.60572"
       style="fill:#ffffff;fill-opacity:1;fill-rule:nonzero;stroke:none;stroke-width:0.00633993"
       id="path40" />
    <path
       d="m 10.412416,283.18534 0.06607,-0.0382 -0.394141,-0.22761 -0.06605,0.0382 z m 0.173905,-0.0382 -0.173803,0.10036 -0.5020215,-0.2898 0.1739045,-0.10043 0.50192,0.28987"
       style="fill:#ffffff;fill-opacity:1;fill-rule:nonzero;stroke:none;stroke-width:0.00633993"
       id="path42" />
    <path
       d="m 16.039081,280.63523 0.842386,-0.4864 -1.603749,-0.92594 -0.842387,0.48639 z m 0.950292,-0.4864 -0.950292,0.5486 -1.711592,-0.98815 0.950229,-0.54865 1.711655,0.9882"
       style="fill:#ffffff;fill-opacity:1;fill-rule:nonzero;stroke:none;stroke-width:0.00633993"
       id="path44" />
    <path
       d="m 16.337691,280.08023 0.212515,-0.12267 -0.941226,-0.54346 -0.212515,0.12274 z m 0.320357,-0.12274 -0.320293,0.185 -1.049069,-0.60571 0.320294,-0.18494 1.049068,0.60565"
       style="fill:#ffffff;fill-opacity:1;fill-rule:nonzero;stroke:none;stroke-width:0.00633993"
       id="path46" />
    <path
       d="m 16.330591,279.76844 0.066,-0.0381 -0.394153,-0.22754 -0.066,0.0382 z m 0.173841,-0.0381 -0.173905,0.10043 -0.501932,-0.2898 0.173841,-0.10042 0.501996,0.28979"
       style="fill:#ffffff;fill-opacity:1;fill-rule:nonzero;stroke:none;stroke-width:0.00633993"
       id="path48" />
    <path
       d="m 11.483269,280.36959 3.412151,1.96994"
       style="fill:#6bb52f;fill-opacity:1;fill-rule:nonzero;stroke:none;stroke-width:0.00633993"
       id="path50" />
    <path
       d="m 14.922365,282.32406 -0.05395,0.031 -3.412158,-1.96995 0.05394,-0.0311 3.412171,1.97007"
       style="fill:#ffffff;fill-opacity:1;fill-rule:nonzero;stroke:none;stroke-width:0.00633993"
       id="path52" />
    <path
       d="m 12.731075,281.09393 c -0.250852,0.1448 -0.250801,0.38039 2.6e-5,0.5252 0.250801,0.1448 0.658839,0.1448 0.909647,0 0.250871,-0.14481 0.250807,-0.3804 0,-0.5252 -0.250808,-0.14481 -0.658846,-0.14481 -0.909673,0 z m 0.963562,0.55633 c -0.280479,0.16198 -0.73689,0.16192 -1.017426,0 -0.280593,-0.16199 -0.280593,-0.42548 -7.6e-5,-0.58746 0.280548,-0.16199 0.737023,-0.16199 1.017502,0 0.280605,0.16198 0.280605,0.42547 0,0.58746"
       style="fill:#ffffff;fill-opacity:1;fill-rule:nonzero;stroke:none;stroke-width:0.00633993"
       id="path54" />
    <path
       d="m 15.635037,280.44896 c -0.245926,0.0367 -0.510048,-0.005 -0.689468,-0.10834 -0.179357,-0.1036 -0.251315,-0.25614 -0.187662,-0.39809 l 0.0738,0.011 c -0.05693,0.12693 0.0074,0.26324 0.167818,0.35586 0.160337,0.0926 0.396563,0.12972 0.616495,0.0969 l 0.01902,0.0426"
       style="fill:#ffffff;fill-opacity:1;fill-rule:nonzero;stroke:none;stroke-width:0.00633993"
       id="path56" />
    <path
       d="m 11.657002,282.74567 -0.07378,-0.011 c 0.05681,-0.12699 -0.0075,-0.26336 -0.167856,-0.35592 -0.160406,-0.0926 -0.396594,-0.12972 -0.616463,-0.0969 l -0.01907,-0.0426 c 0.245825,-0.0367 0.510022,0.005 0.689424,0.10842 0.17935,0.10359 0.251264,0.25607 0.187744,0.39802"
       style="fill:#ffffff;fill-opacity:1;fill-rule:nonzero;stroke:none;stroke-width:0.00633993"
       id="path58" />
    <path
       d="m 18.202899,283.06555 -3.722427,1.73404 c -1.370694,0.63844 -3.592364,0.63844 -4.9630513,0 l -1.2611773,-0.58776 c -0.62681,-0.29233 -0.9660661,-0.66704 -1.0195879,-1.04938 h -0.00874 v -1.54463 h 0.00314 c 0.029867,0.39835 0.3716088,0.79368 1.025186,1.09809 l 1.2611773,0.5877 c 1.3706872,0.63845 3.5923572,0.63845 4.9630512,0 l 3.722427,-1.73399 c 0.601343,-0.2798 0.938754,-0.63646 1.01217,-1.00267 v 1.18901 c 0.09396,0.46818 -0.24339,0.95089 -1.01217,1.30959"
       style="fill:#98acb2;fill-opacity:1;fill-rule:nonzero;stroke:none;stroke-width:0.00569529"
       id="path60" />
    <g
       id="g13096"
       transform="matrix(1.0703944,0.0677787,-0.07402848,1.1690941,19.820476,-47.874093)">
      <g
         id="g13091">
        <path
           d="m 18.202202,277.81688 -1.261139,-0.72827 c -1.370694,-0.79116 -3.592333,-0.79116 -4.963051,0 l -3.721813,2.14879 c -0.7171097,0.41394 -1.0588193,0.96234 -1.0252114,1.50453 0.029886,0.49363 0.3716025,0.98358 1.0252114,1.36138 l 1.261152,0.72769 c 0.688472,0.39714 1.591095,0.59513 2.49243,0.59323 l 0.06227,-1.1429 c -0.755695,-5.7e-4 -1.486518,-0.17365 -2.006912,-0.47372 l -1.1528281,-0.66607 c -0.4164574,-0.24022 -0.6647799,-0.54276 -0.6822147,-0.83161 -0.019311,-0.31123 0.22903,-0.63989 0.6815934,-0.90071 L 12.3148,277.44466 c 0.521605,-0.30127 1.254945,-0.47435 2.012504,-0.47435 0.757558,0 1.491469,0.17308 2.013119,0.47435 l 1.152789,0.66544 c 0.408989,0.23654 0.648639,0.52285 0.679768,0.80606 l 1.050146,0.20668 c -0.05104,-0.47619 -0.391554,-0.94306 -1.020919,-1.30596"
           style="fill:#eaeae7;fill-opacity:1;fill-rule:nonzero;stroke:none;stroke-width:0.00633993"
           id="path62" />
      </g>
      <path
         d="m 19.215069,279.43971 c -0.07348,0.45381 -0.410891,0.89577 -1.012233,1.2425 l -3.722428,2.14879 c -0.68224,0.39403 -1.576107,0.59133 -2.470627,0.59323 l 0.06227,-1.1429 h 0.0056 c 0.757559,0 1.490835,-0.17308 2.013119,-0.47372 l 3.403149,-1.96455 c 0.391427,-0.22596 0.63114,-0.50105 0.675329,-0.77436 0.0081,-0.0504 0.0094,-0.10144 0.0037,-0.15254 l 1.050146,0.20668 c 0.01179,0.10524 0.0087,0.21169 -0.0081,0.31687"
         style="fill:#ecece9;fill-opacity:1;fill-rule:nonzero;stroke:none;stroke-width:0.00633993"
         id="path64" />
    </g>
  </g>
</svg>
