<?xml version="1.0" encoding="UTF-8" standalone="no"?>
<svg
   xmlns:dc="http://purl.org/dc/elements/1.1/"
   xmlns:cc="http://creativecommons.org/ns#"
   xmlns:rdf="http://www.w3.org/1999/02/22-rdf-syntax-ns#"
   xmlns:svg="http://www.w3.org/2000/svg"
   xmlns="http://www.w3.org/2000/svg"
   xmlns:sodipodi="http://sodipodi.sourceforge.net/DTD/sodipodi-0.dtd"
   xmlns:inkscape="http://www.inkscape.org/namespaces/inkscape"
   width="100"
   height="100"
   viewBox="0 0 26.458333 26.458334"
   version="1.1"
   id="svg9818"
   inkscape:version="1.0.2 (e86c870879, 2021-01-15)"
   sodipodi:docname="trenes.svg">
  <defs
     id="defs9812" />
  <sodipodi:namedview
     id="base"
     pagecolor="#ffffff"
     bordercolor="#666666"
     borderopacity="1.0"
     inkscape:pageopacity="0.0"
     inkscape:pageshadow="2"
     inkscape:zoom="3.959798"
     inkscape:cx="41.658588"
     inkscape:cy="49.180581"
     inkscape:document-units="mm"
     inkscape:current-layer="layer1"
     showgrid="false"
     units="px"
     inkscape:window-width="1366"
     inkscape:window-height="703"
     inkscape:window-x="0"
     inkscape:window-y="0"
     inkscape:window-maximized="1"
     inkscape:document-rotation="0" />
  <metadata
     id="metadata9815">
    <rdf:RDF>
      <cc:Work
         rdf:about="">
        <dc:format>image/svg+xml</dc:format>
        <dc:type
           rdf:resource="http://purl.org/dc/dcmitype/StillImage" />
        <dc:title></dc:title>
      </cc:Work>
    </rdf:RDF>
  </metadata>
  <g
     inkscape:label="Capa 1"
     inkscape:groupmode="layer"
     id="layer1"
     transform="translate(0,-270.54165)">
    <g
       id="g157"
       transform="matrix(0.35277777,0,0,-0.35277777,-75.57797,378.62677)">
      <g
         id="g131">
        <path
           inkscape:connector-curvature="0"
           id="path332"
           style="fill:#f28a13;fill-opacity:1;fill-rule:nonzero;stroke:none;stroke-width:0.16091"
           d="m 275.27956,279.70826 c 0,13.00317 -10.54607,23.5428 -23.54119,23.5428 v -10.86628 c 6.99799,0 12.6733,-5.6737 12.6733,-12.67652 0,-6.99799 -5.67531,-12.67973 -12.6733,-12.67973 v -10.85984 -21.65371 c 0,0 11.10925,17.75968 15.29775,23.73911 9.30544,13.28636 8.24344,21.45417 8.24344,21.45417" />
        <path
           inkscape:connector-curvature="0"
           id="path334"
           style="fill:#fbb040;fill-opacity:1;fill-rule:nonzero;stroke:none;stroke-width:0.16091"
           d="m 251.73837,292.38478 v 10.86628 c -13.00316,0 -23.5444,-10.53963 -23.5444,-23.5428 0,0 -1.06201,-8.16781 8.24505,-21.45417 4.1901,-5.97943 15.29935,-23.73911 15.29935,-23.73911 v 21.65371 10.85984 c -6.9996,0 -12.67651,5.68174 -12.67651,12.67973 0,7.00282 5.67691,12.67652 12.67651,12.67652" />
      </g>
      <circle
         transform="scale(1,-1)"
         r="19.153227"
         cy="-278.2258"
         cx="251.73677"
         id="path977-6"
         style="opacity:1;vector-effect:none;fill:#ffffff;fill-opacity:1;stroke:none;stroke-width:1.29139;stroke-linecap:butt;stroke-linejoin:miter;stroke-miterlimit:4;stroke-dasharray:none;stroke-dashoffset:0;stroke-opacity:1" />
    </g>
    <path
       d="m 11.877103,278.43698 h -1.128751 v 0.19507 h 1.347614 z m 2.705443,0 -0.218988,0.19507 h 1.345969 v -0.19507 z m -0.889332,-1.45475 c -0.179928,0 -0.325905,-0.14586 -0.325905,-0.32589 v -0.66525 c 0,-0.0915 0.04077,-0.17986 0.108515,-0.24269 0.06966,-0.0611 0.163039,-0.0899 0.254538,-0.0798 l 1.237454,0.14258 c 0.164637,0.0186 0.288569,0.15777 0.288569,0.32244 v 0.52267 c 0,0.18003 -0.145977,0.32589 -0.324307,0.32589 z m -0.463483,1.47324 c -0.315799,0 -0.570212,-0.25444 -0.570212,-0.57015 0,-0.31398 0.254413,-0.56858 0.570212,-0.56858 0.314154,0 0.568566,0.2546 0.568566,0.56858 0,0.31571 -0.254412,0.57015 -0.568566,0.57015 z m -1.700561,-1.47324 c -0.179929,0 -0.325905,-0.14586 -0.325905,-0.32589 v -0.52267 c 0,-0.16467 0.123885,-0.3038 0.288506,-0.32244 l 1.237266,-0.14258 c 0.09169,-0.0102 0.184895,0.0186 0.254538,0.0798 0.068,0.0628 0.108765,0.15119 0.108765,0.24269 v 0.66525 c 0,0.18003 -0.145976,0.32589 -0.325904,0.32589 z m 1.700561,-2.03148 c 0.201973,0 0.365011,0.0882 0.365011,0.19679 0,0.10858 -0.163038,0.19694 -0.365011,0.19694 -0.203618,0 -0.366657,-0.0884 -0.366657,-0.19694 0,-0.10858 0.163039,-0.19679 0.366657,-0.19679 z m 2.189441,0.27999 -2.046896,-0.71978 c -0.09327,-0.0321 -0.193465,-0.0321 -0.286735,0 l -2.046897,0.71978 c -0.174805,0.0611 -0.290292,0.22577 -0.290292,0.40908 v 2.58157 h 1.211869 l 0.46165,0.41066 h 1.615673 l 0.461822,-0.41066 h 1.210161 v -2.58157 c 0,-0.18331 -0.11555,-0.34798 -0.290355,-0.40908"
       style="fill:#37abc8;fill-opacity:1;fill-rule:nonzero;stroke:none;stroke-width:0.0156677"
       id="path72" />
    <path
       d="m 14.981886,283.15611 h -0.203242 v -0.66432 h 0.203242 z m -0.440468,0 h -0.203429 v -0.66432 h 0.203429 z m -2.419804,0 h -0.203446 v -0.66432 h 0.203446 z m -0.440655,0 h -0.203446 v -0.66432 h 0.203446 z m 3.355591,-0.79827 h -3.615096 c -0.139913,0 -0.274123,-0.024 -0.399715,-0.0664 l 0.318384,1.00838 h 1.048516 v -0.5244 h 1.680789 v 0.5244 h 1.048516 l 0.318369,-1.00838 c -0.125828,0.0425 -0.259865,0.0664 -0.399763,0.0664"
       style="fill:#5c5d5f;fill-opacity:1;fill-rule:nonzero;stroke:none;stroke-width:0.0156677"
       id="path74" />
    <path
       d="m 14.582546,278.43698 -0.218988,0.19507 -1.133827,1.00822 -1.133765,-1.00822 -0.218863,-0.19507 H 10.33756 v 1.52745 h 5.782681 v -1.52745 z m -1.352815,-1.12024 c 0.314154,0 0.568566,0.2546 0.568566,0.56858 0,0.31571 -0.254412,0.57015 -0.568566,0.57015 -0.315799,0 -0.570212,-0.25444 -0.570212,-0.57015 0,-0.31398 0.254413,-0.56858 0.570212,-0.56858 z m 2.479796,-0.31743 c -0.04241,-0.0119 -0.08495,-0.0171 -0.130669,-0.0171 h -4.6999 c -0.04572,0 -0.08826,0.005 -0.130606,0.0171 -0.235987,0.0577 -0.410792,0.27152 -0.410792,0.52612 v 0.69596 h 1.622661 l 0.46165,0.41066 0.80786,0.71789 0.807813,-0.71789 0.461822,-0.41066 h 1.620875 v -0.69596 c 0,-0.2546 -0.174789,-0.46846 -0.410714,-0.52612 z m 0.07289,4.19394 c 0,0.0594 -0.04749,0.10858 -0.108577,0.10858 h -0.938592 c -0.06126,0 -0.108577,-0.0492 -0.108577,-0.10858 v -0.36145 c 0,-0.0595 0.04732,-0.10858 0.108577,-0.10858 h 0.938592 c 0.06109,0 0.108577,0.049 0.108577,0.10858 z m -3.94943,0 c 0,0.0594 -0.0494,0.10858 -0.108828,0.10858 h -0.938404 c -0.02032,0 -0.0374,-0.005 -0.05275,-0.0136 -0.03397,-0.0185 -0.05582,-0.0542 -0.05582,-0.0949 v -0.36145 c 0,-0.0595 0.04909,-0.10701 0.108577,-0.10701 h 0.938404 c 0.05943,0 0.108828,0.0475 0.108828,0.10701 z m -1.495423,-1.01151 v 0.92158 c 0,0.59913 0.485339,1.08452 1.084568,1.08452 h 3.615269 c 0.59727,0 1.082844,-0.48539 1.082844,-1.08452 v -0.92158 H 10.33756"
       style="fill:#37abc8;fill-opacity:1;fill-rule:nonzero;stroke:none;stroke-width:0.0156677"
       id="path76" />
    <path
       d="m 13.66824,277.88595 c 0,0.24269 -0.196631,0.43932 -0.439246,0.43932 -0.242599,0 -0.439245,-0.19663 -0.439245,-0.43932 0,-0.24254 0.196646,-0.43917 0.439245,-0.43917 0.242615,0 0.439246,0.19663 0.439246,0.43917"
       style="fill:#ffcc00;fill-opacity:1;fill-rule:nonzero;stroke:none;stroke-width:0.0156677"
       id="path78" />
    <path
       d="M 16.766661,284.24345 H 9.7401173 l 0.5607957,-0.56169 h 5.903856 l 0.561892,0.56169"
       style="fill:#5c5d5f;fill-opacity:1;fill-rule:nonzero;stroke:none;stroke-width:0.0156677"
       id="path80" />
    <path
       d="m 15.218986,282.34248 c 0.02331,-0.004 0.04572,-0.009 0.06855,-0.0136 -0.02264,0.005 -0.04547,0.01 -0.06855,0.0136"
       style="fill:#5c5d5f;fill-opacity:1;fill-rule:nonzero;stroke:none;stroke-width:0.0156677"
       id="path82" />
    <path
       d="m 17.847375,284.40937 -2.206958,-2.20712 c -0.0385,0.0213 -0.07796,0.0406 -0.11848,0.0578 l 2.229097,2.22921 c 0.03184,0.0318 0.03184,0.0832 0,0.11484 -0.01578,0.016 -0.0366,0.024 -0.05747,0.024 -0.02087,0 -0.04168,-0.008 -0.05747,-0.024 l -2.226825,-2.22686 -0.160234,0.50732 2.061531,2.06172 c 0.07406,0.074 0.171373,0.11109 0.268372,0.11109 0.09719,0 0.194374,-0.0371 0.268436,-0.11109 0.14817,-0.14837 0.14817,-0.38871 0,-0.53693"
       style="fill:#5c5d5f;fill-opacity:1;fill-rule:nonzero;stroke:none;stroke-width:0.0156677"
       id="path84" />
    <path
       d="m 11.206273,282.33809 c 0.0081,10e-4 0.01634,0.002 0.02454,0.004 -0.0082,-10e-4 -0.0164,-0.002 -0.02454,-0.004"
       style="fill:#5c5d5f;fill-opacity:1;fill-rule:nonzero;stroke:none;stroke-width:0.0156677"
       id="path86" />
    <path
       d="m 11.067097,282.43539 -2.1688858,2.16873 c -0.015793,0.016 -0.0366,0.024 -0.057595,0.024 -0.020619,0 -0.041425,-0.008 -0.057344,-0.024 -0.031821,-0.0317 -0.031821,-0.083 0,-0.11484 l 2.2087288,-2.20869 c -0.04473,-0.0163 -0.08807,-0.0351 -0.130293,-0.0562 l -2.1849764,2.18502 c -0.1482952,0.14822 -0.1482952,0.38856 0,0.53693 0.074171,0.074 0.1712954,0.11109 0.26831,0.11109 0.097187,0 0.1944367,-0.0371 0.2686078,-0.11109 l 2.0113466,-2.01142 -0.157899,-0.49949"
       style="fill:#5c5d5f;fill-opacity:1;fill-rule:nonzero;stroke:none;stroke-width:0.0156677"
       id="path88" />
  </g>
</svg>
